%TF.GenerationSoftware,KiCad,Pcbnew,(5.1.8)-1*%
%TF.CreationDate,2021-01-12T21:36:03+01:00*%
%TF.ProjectId,C64 JoyAdapter,43363420-4a6f-4794-9164-61707465722e,rev?*%
%TF.SameCoordinates,Original*%
%TF.FileFunction,Soldermask,Bot*%
%TF.FilePolarity,Negative*%
%FSLAX46Y46*%
G04 Gerber Fmt 4.6, Leading zero omitted, Abs format (unit mm)*
G04 Created by KiCad (PCBNEW (5.1.8)-1) date 2021-01-12 21:36:03*
%MOMM*%
%LPD*%
G01*
G04 APERTURE LIST*
%ADD10C,1.600000*%
%ADD11O,1.600000X1.600000*%
%ADD12C,1.700000*%
%ADD13R,1.600000X1.600000*%
%ADD14C,4.000000*%
%ADD15C,5.100000*%
%ADD16C,2.100000*%
%ADD17C,1.750000*%
%ADD18R,1.800000X1.800000*%
%ADD19C,1.800000*%
%ADD20R,1.727200X1.727200*%
%ADD21O,1.727200X1.727200*%
G04 APERTURE END LIST*
D10*
%TO.C,R4*%
X133350000Y-90170000D03*
D11*
X123190000Y-90170000D03*
%TD*%
D12*
%TO.C,A1*%
X145415000Y-85725000D03*
X147955000Y-85725000D03*
X150495000Y-85725000D03*
X153035000Y-85725000D03*
X155575000Y-85725000D03*
X158115000Y-85725000D03*
X160655000Y-85725000D03*
X163195000Y-85725000D03*
X165735000Y-85725000D03*
X168275000Y-85725000D03*
X170815000Y-85725000D03*
X173355000Y-85725000D03*
X170815000Y-83185000D03*
X168275000Y-83185000D03*
X165735000Y-83185000D03*
X163195000Y-83185000D03*
X160655000Y-83185000D03*
X158115000Y-83185000D03*
X155575000Y-83185000D03*
X153035000Y-83185000D03*
X150495000Y-83185000D03*
X147955000Y-83185000D03*
X145415000Y-83185000D03*
X145415000Y-100965000D03*
X147955000Y-100965000D03*
X150495000Y-100965000D03*
X153035000Y-100965000D03*
X155575000Y-100965000D03*
X158115000Y-100965000D03*
X160655000Y-100965000D03*
X163195000Y-100965000D03*
X165735000Y-100965000D03*
X168275000Y-100965000D03*
X170815000Y-100965000D03*
X173355000Y-100965000D03*
X173355000Y-83185000D03*
%TD*%
D11*
%TO.C,R5*%
X123190000Y-93980000D03*
D10*
X133350000Y-93980000D03*
%TD*%
D13*
%TO.C,J2*%
X117760000Y-101470000D03*
D10*
X120530000Y-101470000D03*
X123300000Y-101470000D03*
X126070000Y-101470000D03*
X128840000Y-101470000D03*
X119145000Y-104310000D03*
X121915000Y-104310000D03*
X124685000Y-104310000D03*
X127455000Y-104310000D03*
D14*
X110800000Y-102890000D03*
X135800000Y-102890000D03*
%TD*%
%TO.C,J1*%
X110820000Y-81310000D03*
X135820000Y-81310000D03*
D10*
X119165000Y-79890000D03*
X121935000Y-79890000D03*
X124705000Y-79890000D03*
X127475000Y-79890000D03*
X117780000Y-82730000D03*
X120550000Y-82730000D03*
X123320000Y-82730000D03*
X126090000Y-82730000D03*
D13*
X128860000Y-82730000D03*
%TD*%
D15*
%TO.C,M1*%
X99695000Y-108585000D03*
%TD*%
%TO.C,M2*%
X173355000Y-75565000D03*
%TD*%
%TO.C,M3*%
X99695000Y-75565000D03*
%TD*%
%TO.C,M4*%
X173355000Y-108585000D03*
%TD*%
D10*
%TO.C,R1*%
X108585000Y-88265000D03*
D11*
X118745000Y-88265000D03*
%TD*%
D10*
%TO.C,R2*%
X108585000Y-92075000D03*
D11*
X118745000Y-92075000D03*
%TD*%
%TO.C,R3*%
X118745000Y-95885000D03*
D10*
X108585000Y-95885000D03*
%TD*%
D16*
%TO.C,SW1*%
X160675000Y-76785000D03*
D17*
X161925000Y-74295000D03*
X166425000Y-74295000D03*
D16*
X167685000Y-76785000D03*
%TD*%
%TO.C,SW2*%
X156255000Y-76785000D03*
D17*
X154995000Y-74295000D03*
X150495000Y-74295000D03*
D16*
X149245000Y-76785000D03*
%TD*%
D18*
%TO.C,D1*%
X163195000Y-108585000D03*
D19*
X165735000Y-108585000D03*
%TD*%
D20*
%TO.C,J3*%
X99695000Y-86995000D03*
D21*
X99695000Y-89535000D03*
X99695000Y-92075000D03*
X99695000Y-94615000D03*
X99695000Y-97155000D03*
X102235000Y-86995000D03*
X102235000Y-89535000D03*
X102235000Y-92075000D03*
X102235000Y-94615000D03*
X102235000Y-97155000D03*
%TD*%
M02*
