%TF.GenerationSoftware,KiCad,Pcbnew,(5.1.8)-1*%
%TF.CreationDate,2021-02-24T02:49:34+01:00*%
%TF.ProjectId,C64 Joystick Faceplate A1,43363420-4a6f-4797-9374-69636b204661,rev?*%
%TF.SameCoordinates,Original*%
%TF.FileFunction,Legend,Top*%
%TF.FilePolarity,Positive*%
%FSLAX46Y46*%
G04 Gerber Fmt 4.6, Leading zero omitted, Abs format (unit mm)*
G04 Created by KiCad (PCBNEW (5.1.8)-1) date 2021-02-24 02:49:34*
%MOMM*%
%LPD*%
G01*
G04 APERTURE LIST*
%ADD10C,0.150000*%
%ADD11C,0.100000*%
%ADD12C,0.010000*%
G04 APERTURE END LIST*
D10*
X101067619Y-89170238D02*
X100353333Y-89170238D01*
X100210476Y-89122619D01*
X100115238Y-89027380D01*
X100067619Y-88884523D01*
X100067619Y-88789285D01*
X101067619Y-89836904D02*
X101067619Y-90027380D01*
X101020000Y-90122619D01*
X100924761Y-90217857D01*
X100734285Y-90265476D01*
X100400952Y-90265476D01*
X100210476Y-90217857D01*
X100115238Y-90122619D01*
X100067619Y-90027380D01*
X100067619Y-89836904D01*
X100115238Y-89741666D01*
X100210476Y-89646428D01*
X100400952Y-89598809D01*
X100734285Y-89598809D01*
X100924761Y-89646428D01*
X101020000Y-89741666D01*
X101067619Y-89836904D01*
X100543809Y-90884523D02*
X100067619Y-90884523D01*
X101067619Y-90551190D02*
X100543809Y-90884523D01*
X101067619Y-91217857D01*
X100115238Y-91503571D02*
X100067619Y-91646428D01*
X100067619Y-91884523D01*
X100115238Y-91979761D01*
X100162857Y-92027380D01*
X100258095Y-92075000D01*
X100353333Y-92075000D01*
X100448571Y-92027380D01*
X100496190Y-91979761D01*
X100543809Y-91884523D01*
X100591428Y-91694047D01*
X100639047Y-91598809D01*
X100686666Y-91551190D01*
X100781904Y-91503571D01*
X100877142Y-91503571D01*
X100972380Y-91551190D01*
X101020000Y-91598809D01*
X101067619Y-91694047D01*
X101067619Y-91932142D01*
X101020000Y-92075000D01*
X101067619Y-92360714D02*
X101067619Y-92932142D01*
X100067619Y-92646428D02*
X101067619Y-92646428D01*
X100067619Y-93265476D02*
X101067619Y-93265476D01*
X100162857Y-94313095D02*
X100115238Y-94265476D01*
X100067619Y-94122619D01*
X100067619Y-94027380D01*
X100115238Y-93884523D01*
X100210476Y-93789285D01*
X100305714Y-93741666D01*
X100496190Y-93694047D01*
X100639047Y-93694047D01*
X100829523Y-93741666D01*
X100924761Y-93789285D01*
X101020000Y-93884523D01*
X101067619Y-94027380D01*
X101067619Y-94122619D01*
X101020000Y-94265476D01*
X100972380Y-94313095D01*
X100067619Y-94741666D02*
X101067619Y-94741666D01*
X100067619Y-95313095D02*
X100639047Y-94884523D01*
X101067619Y-95313095D02*
X100496190Y-94741666D01*
X98703333Y-89075000D02*
X98703333Y-89551190D01*
X98417619Y-88979761D02*
X99417619Y-89313095D01*
X98417619Y-89646428D01*
X98417619Y-89979761D02*
X99417619Y-89979761D01*
X99417619Y-90217857D01*
X99370000Y-90360714D01*
X99274761Y-90455952D01*
X99179523Y-90503571D01*
X98989047Y-90551190D01*
X98846190Y-90551190D01*
X98655714Y-90503571D01*
X98560476Y-90455952D01*
X98465238Y-90360714D01*
X98417619Y-90217857D01*
X98417619Y-89979761D01*
X98703333Y-90932142D02*
X98703333Y-91408333D01*
X98417619Y-90836904D02*
X99417619Y-91170238D01*
X98417619Y-91503571D01*
X98417619Y-91836904D02*
X99417619Y-91836904D01*
X99417619Y-92217857D01*
X99370000Y-92313095D01*
X99322380Y-92360714D01*
X99227142Y-92408333D01*
X99084285Y-92408333D01*
X98989047Y-92360714D01*
X98941428Y-92313095D01*
X98893809Y-92217857D01*
X98893809Y-91836904D01*
X99417619Y-92694047D02*
X99417619Y-93265476D01*
X98417619Y-92979761D02*
X99417619Y-92979761D01*
X98941428Y-93598809D02*
X98941428Y-93932142D01*
X98417619Y-94075000D02*
X98417619Y-93598809D01*
X99417619Y-93598809D01*
X99417619Y-94075000D01*
X98417619Y-95075000D02*
X98893809Y-94741666D01*
X98417619Y-94503571D02*
X99417619Y-94503571D01*
X99417619Y-94884523D01*
X99370000Y-94979761D01*
X99322380Y-95027380D01*
X99227142Y-95075000D01*
X99084285Y-95075000D01*
X98989047Y-95027380D01*
X98941428Y-94979761D01*
X98893809Y-94884523D01*
X98893809Y-94503571D01*
D11*
X166643095Y-74117380D02*
X167443095Y-74117380D01*
X166871666Y-74384047D01*
X167443095Y-74650714D01*
X166643095Y-74650714D01*
X167443095Y-75184047D02*
X167443095Y-75336428D01*
X167405000Y-75412619D01*
X167328809Y-75488809D01*
X167176428Y-75526904D01*
X166909761Y-75526904D01*
X166757380Y-75488809D01*
X166681190Y-75412619D01*
X166643095Y-75336428D01*
X166643095Y-75184047D01*
X166681190Y-75107857D01*
X166757380Y-75031666D01*
X166909761Y-74993571D01*
X167176428Y-74993571D01*
X167328809Y-75031666D01*
X167405000Y-75107857D01*
X167443095Y-75184047D01*
X166643095Y-75869761D02*
X167443095Y-75869761D01*
X167443095Y-76060238D01*
X167405000Y-76174523D01*
X167328809Y-76250714D01*
X167252619Y-76288809D01*
X167100238Y-76326904D01*
X166985952Y-76326904D01*
X166833571Y-76288809D01*
X166757380Y-76250714D01*
X166681190Y-76174523D01*
X166643095Y-76060238D01*
X166643095Y-75869761D01*
X167062142Y-76669761D02*
X167062142Y-76936428D01*
X166643095Y-77050714D02*
X166643095Y-76669761D01*
X167443095Y-76669761D01*
X167443095Y-77050714D01*
X166643095Y-107518333D02*
X167443095Y-107518333D01*
X167443095Y-107823095D01*
X167405000Y-107899285D01*
X167366904Y-107937380D01*
X167290714Y-107975476D01*
X167176428Y-107975476D01*
X167100238Y-107937380D01*
X167062142Y-107899285D01*
X167024047Y-107823095D01*
X167024047Y-107518333D01*
X167443095Y-108242142D02*
X166643095Y-108432619D01*
X167214523Y-108585000D01*
X166643095Y-108737380D01*
X167443095Y-108927857D01*
X166643095Y-109689761D02*
X167024047Y-109423095D01*
X166643095Y-109232619D02*
X167443095Y-109232619D01*
X167443095Y-109537380D01*
X167405000Y-109613571D01*
X167366904Y-109651666D01*
X167290714Y-109689761D01*
X167176428Y-109689761D01*
X167100238Y-109651666D01*
X167062142Y-109613571D01*
X167024047Y-109537380D01*
X167024047Y-109232619D01*
X113176095Y-103581452D02*
X113976095Y-103581452D01*
X113976095Y-103886214D01*
X113938000Y-103962404D01*
X113899904Y-104000500D01*
X113823714Y-104038595D01*
X113709428Y-104038595D01*
X113633238Y-104000500D01*
X113595142Y-103962404D01*
X113557047Y-103886214D01*
X113557047Y-103581452D01*
X113976095Y-104533833D02*
X113976095Y-104686214D01*
X113938000Y-104762404D01*
X113861809Y-104838595D01*
X113709428Y-104876690D01*
X113442761Y-104876690D01*
X113290380Y-104838595D01*
X113214190Y-104762404D01*
X113176095Y-104686214D01*
X113176095Y-104533833D01*
X113214190Y-104457642D01*
X113290380Y-104381452D01*
X113442761Y-104343357D01*
X113709428Y-104343357D01*
X113861809Y-104381452D01*
X113938000Y-104457642D01*
X113976095Y-104533833D01*
X113176095Y-105676690D02*
X113557047Y-105410023D01*
X113176095Y-105219547D02*
X113976095Y-105219547D01*
X113976095Y-105524309D01*
X113938000Y-105600500D01*
X113899904Y-105638595D01*
X113823714Y-105676690D01*
X113709428Y-105676690D01*
X113633238Y-105638595D01*
X113595142Y-105600500D01*
X113557047Y-105524309D01*
X113557047Y-105219547D01*
X113976095Y-105905261D02*
X113976095Y-106362404D01*
X113176095Y-106133833D02*
X113976095Y-106133833D01*
X113899904Y-107200500D02*
X113938000Y-107238595D01*
X113976095Y-107314785D01*
X113976095Y-107505261D01*
X113938000Y-107581452D01*
X113899904Y-107619547D01*
X113823714Y-107657642D01*
X113747523Y-107657642D01*
X113633238Y-107619547D01*
X113176095Y-107162404D01*
X113176095Y-107657642D01*
X113176095Y-76530452D02*
X113976095Y-76530452D01*
X113976095Y-76835214D01*
X113938000Y-76911404D01*
X113899904Y-76949500D01*
X113823714Y-76987595D01*
X113709428Y-76987595D01*
X113633238Y-76949500D01*
X113595142Y-76911404D01*
X113557047Y-76835214D01*
X113557047Y-76530452D01*
X113976095Y-77482833D02*
X113976095Y-77635214D01*
X113938000Y-77711404D01*
X113861809Y-77787595D01*
X113709428Y-77825690D01*
X113442761Y-77825690D01*
X113290380Y-77787595D01*
X113214190Y-77711404D01*
X113176095Y-77635214D01*
X113176095Y-77482833D01*
X113214190Y-77406642D01*
X113290380Y-77330452D01*
X113442761Y-77292357D01*
X113709428Y-77292357D01*
X113861809Y-77330452D01*
X113938000Y-77406642D01*
X113976095Y-77482833D01*
X113176095Y-78625690D02*
X113557047Y-78359023D01*
X113176095Y-78168547D02*
X113976095Y-78168547D01*
X113976095Y-78473309D01*
X113938000Y-78549500D01*
X113899904Y-78587595D01*
X113823714Y-78625690D01*
X113709428Y-78625690D01*
X113633238Y-78587595D01*
X113595142Y-78549500D01*
X113557047Y-78473309D01*
X113557047Y-78168547D01*
X113976095Y-78854261D02*
X113976095Y-79311404D01*
X113176095Y-79082833D02*
X113976095Y-79082833D01*
X113176095Y-80606642D02*
X113176095Y-80149500D01*
X113176095Y-80378071D02*
X113976095Y-80378071D01*
X113861809Y-80301880D01*
X113785619Y-80225690D01*
X113747523Y-80149500D01*
D12*
%TO.C,G\u002A\u002A\u002A*%
G36*
X167878624Y-92381292D02*
G01*
X167867517Y-92586543D01*
X167847596Y-92764218D01*
X167834546Y-92837000D01*
X167724052Y-93248468D01*
X167571741Y-93631374D01*
X167377046Y-93986809D01*
X167139396Y-94315865D01*
X166955988Y-94521982D01*
X166643140Y-94811461D01*
X166304900Y-95057183D01*
X165942469Y-95258474D01*
X165557049Y-95414661D01*
X165176200Y-95519460D01*
X165024258Y-95543601D01*
X164837294Y-95559814D01*
X164629678Y-95568063D01*
X164415784Y-95568311D01*
X164209984Y-95560521D01*
X164026650Y-95544657D01*
X163889454Y-95522743D01*
X163479748Y-95411276D01*
X163100190Y-95259693D01*
X162747777Y-95066371D01*
X162419506Y-94829687D01*
X162142253Y-94578287D01*
X161861969Y-94265994D01*
X161628864Y-93937452D01*
X161441088Y-93589697D01*
X161300786Y-93232086D01*
X161252896Y-93096981D01*
X161212739Y-93009338D01*
X161179097Y-92966616D01*
X161171583Y-92962665D01*
X161133130Y-92957058D01*
X161052068Y-92950907D01*
X160936582Y-92944636D01*
X160794855Y-92938669D01*
X160635068Y-92933431D01*
X160577940Y-92931887D01*
X160030979Y-92917918D01*
X159887181Y-93201309D01*
X159831117Y-93308341D01*
X159752199Y-93453772D01*
X159651975Y-93634950D01*
X159531995Y-93849224D01*
X159393807Y-94093943D01*
X159238960Y-94366456D01*
X159069005Y-94664113D01*
X158885489Y-94984262D01*
X158689962Y-95324253D01*
X158483973Y-95681434D01*
X158269071Y-96053155D01*
X158046806Y-96436764D01*
X157818725Y-96829611D01*
X157586379Y-97229044D01*
X157351316Y-97632414D01*
X157115086Y-98037068D01*
X156879237Y-98440355D01*
X156645319Y-98839626D01*
X156414881Y-99232228D01*
X156189471Y-99615512D01*
X155970640Y-99986825D01*
X155759935Y-100343517D01*
X155558906Y-100682938D01*
X155369103Y-101002435D01*
X155192073Y-101299359D01*
X155029367Y-101571058D01*
X154882534Y-101814881D01*
X154753122Y-102028178D01*
X154642680Y-102208296D01*
X154552758Y-102352587D01*
X154484904Y-102458397D01*
X154440669Y-102523077D01*
X154437666Y-102527100D01*
X154316862Y-102659015D01*
X154150834Y-102794395D01*
X153937958Y-102934406D01*
X153676606Y-103080213D01*
X153640981Y-103098631D01*
X153294462Y-103276400D01*
X151549791Y-103276400D01*
X149805120Y-103276399D01*
X149534110Y-103137633D01*
X149304719Y-103013528D01*
X149097655Y-102888302D01*
X148920621Y-102767015D01*
X148781317Y-102654724D01*
X148741336Y-102616926D01*
X148687302Y-102553032D01*
X148609341Y-102445378D01*
X148507425Y-102293915D01*
X148381524Y-102098595D01*
X148231610Y-101859369D01*
X148057655Y-101576191D01*
X147859631Y-101249012D01*
X147637509Y-100877783D01*
X147391261Y-100462458D01*
X147120858Y-100002986D01*
X146826272Y-99499322D01*
X146507474Y-98951416D01*
X146164436Y-98359221D01*
X145797130Y-97722688D01*
X145405527Y-97041769D01*
X144989599Y-96316417D01*
X144549316Y-95546584D01*
X144285761Y-95084900D01*
X144087257Y-94736896D01*
X143912387Y-94430115D01*
X143759583Y-94161669D01*
X143627279Y-93928673D01*
X143513909Y-93728240D01*
X143417905Y-93557482D01*
X143337703Y-93413512D01*
X143271736Y-93293445D01*
X143218436Y-93194393D01*
X143176239Y-93113469D01*
X143143577Y-93047787D01*
X143118884Y-92994460D01*
X143100594Y-92950601D01*
X143087140Y-92913323D01*
X143076957Y-92879740D01*
X143068477Y-92846964D01*
X143066066Y-92837000D01*
X143046803Y-92726649D01*
X143031336Y-92580028D01*
X143020216Y-92411563D01*
X143013994Y-92235681D01*
X143013223Y-92066808D01*
X143018452Y-91919371D01*
X143027419Y-91825898D01*
X143055493Y-91666490D01*
X143094977Y-91520560D01*
X143151284Y-91372971D01*
X143229825Y-91208588D01*
X143286003Y-91102699D01*
X143363701Y-90961509D01*
X143465004Y-90779909D01*
X143587919Y-90561368D01*
X143730456Y-90309358D01*
X143890624Y-90027349D01*
X144066431Y-89718811D01*
X144255886Y-89387214D01*
X144456997Y-89036028D01*
X144667774Y-88668725D01*
X144886226Y-88288774D01*
X145110360Y-87899646D01*
X145338185Y-87504810D01*
X145567712Y-87107738D01*
X145796947Y-86711900D01*
X146023900Y-86320765D01*
X146246579Y-85937805D01*
X146444607Y-85598000D01*
X146739412Y-85093081D01*
X147009769Y-84630822D01*
X147256515Y-84209823D01*
X147480490Y-83828685D01*
X147682530Y-83486006D01*
X147863474Y-83180389D01*
X148024161Y-82910432D01*
X148165428Y-82674737D01*
X148288114Y-82471904D01*
X148393056Y-82300532D01*
X148481094Y-82159223D01*
X148553065Y-82046576D01*
X148609806Y-81961191D01*
X148652158Y-81901670D01*
X148675191Y-81872921D01*
X148822056Y-81730083D01*
X149006976Y-81588370D01*
X149217636Y-81455500D01*
X149441720Y-81339193D01*
X149666912Y-81247165D01*
X149681998Y-81241969D01*
X149757277Y-81217460D01*
X149831109Y-81196477D01*
X149907840Y-81178801D01*
X149991820Y-81164215D01*
X150087398Y-81152500D01*
X150198923Y-81143440D01*
X150330744Y-81136815D01*
X150487209Y-81132409D01*
X150672667Y-81130003D01*
X150891468Y-81129380D01*
X151147960Y-81130321D01*
X151446491Y-81132610D01*
X151791412Y-81136027D01*
X151796016Y-81136076D01*
X153287532Y-81151872D01*
X153599416Y-81307877D01*
X153845184Y-81437101D01*
X154046342Y-81557109D01*
X154092937Y-81590027D01*
X154092937Y-83972400D01*
X153924385Y-83997068D01*
X153765797Y-84068933D01*
X153620838Y-84184781D01*
X153493172Y-84341402D01*
X153386463Y-84535584D01*
X153350387Y-84623269D01*
X153286085Y-84854859D01*
X153255825Y-85107033D01*
X153260395Y-85361975D01*
X153300586Y-85601863D01*
X153306123Y-85622635D01*
X153367322Y-85798976D01*
X153449840Y-85947092D01*
X153563904Y-86086742D01*
X153718380Y-86222522D01*
X153878993Y-86309898D01*
X154041740Y-86350245D01*
X154202614Y-86344938D01*
X154357612Y-86295350D01*
X154502728Y-86202856D01*
X154633957Y-86068830D01*
X154698700Y-85969329D01*
X154698700Y-88582500D01*
X154139900Y-88582550D01*
X153955523Y-88582852D01*
X153813875Y-88584177D01*
X153706888Y-88587207D01*
X153626492Y-88592626D01*
X153564618Y-88601117D01*
X153513197Y-88613363D01*
X153464161Y-88630048D01*
X153432636Y-88642428D01*
X153244197Y-88736055D01*
X153042847Y-88867404D01*
X152837803Y-89028468D01*
X152638279Y-89211241D01*
X152453493Y-89407717D01*
X152292660Y-89609890D01*
X152252152Y-89667943D01*
X152075460Y-89956553D01*
X151918100Y-90266759D01*
X151784807Y-90586674D01*
X151680314Y-90904410D01*
X151609355Y-91208078D01*
X151590620Y-91329123D01*
X151582521Y-91422066D01*
X151575986Y-91556404D01*
X151571030Y-91722758D01*
X151567665Y-91911745D01*
X151565908Y-92113986D01*
X151565771Y-92320099D01*
X151567269Y-92520705D01*
X151570416Y-92706421D01*
X151575227Y-92867868D01*
X151581716Y-92995664D01*
X151587989Y-93066266D01*
X151646520Y-93389087D01*
X151743284Y-93727128D01*
X151873633Y-94068371D01*
X152032917Y-94400799D01*
X152216490Y-94712393D01*
X152236223Y-94742273D01*
X152384682Y-94941536D01*
X152560206Y-95138915D01*
X152753664Y-95326433D01*
X152955922Y-95496116D01*
X153157845Y-95639988D01*
X153350301Y-95750074D01*
X153432636Y-95786971D01*
X153484103Y-95806635D01*
X153533128Y-95821453D01*
X153587781Y-95832108D01*
X153656130Y-95839282D01*
X153746246Y-95843659D01*
X153866196Y-95845921D01*
X154024051Y-95846753D01*
X154139900Y-95846849D01*
X154698700Y-95846900D01*
X154925669Y-95737856D01*
X155226629Y-95565324D01*
X155507970Y-95346893D01*
X155768130Y-95084146D01*
X156005543Y-94778667D01*
X156218646Y-94432040D01*
X156222757Y-94424500D01*
X156300000Y-94270920D01*
X156376914Y-94097110D01*
X156450488Y-93912079D01*
X156517710Y-93724839D01*
X156575568Y-93544398D01*
X156621052Y-93379769D01*
X156651149Y-93239960D01*
X156662848Y-93133983D01*
X156662274Y-93109493D01*
X156657584Y-93064309D01*
X156647460Y-93027565D01*
X156626982Y-92998222D01*
X156591229Y-92975239D01*
X156535280Y-92957576D01*
X156454214Y-92944191D01*
X156343110Y-92934045D01*
X156197049Y-92926097D01*
X156011108Y-92919306D01*
X155780367Y-92912632D01*
X155723994Y-92911101D01*
X155524325Y-92904907D01*
X155336688Y-92897588D01*
X155168315Y-92889541D01*
X155026437Y-92881164D01*
X154918286Y-92872855D01*
X154851096Y-92865013D01*
X154838348Y-92862385D01*
X154706703Y-92800908D01*
X154588400Y-92691959D01*
X154494139Y-92552998D01*
X154454813Y-92475180D01*
X154432148Y-92405865D01*
X154421769Y-92325276D01*
X154419300Y-92214700D01*
X154421815Y-92103383D01*
X154432274Y-92022962D01*
X154455055Y-91953658D01*
X154494139Y-91876401D01*
X154597812Y-91726477D01*
X154716831Y-91621689D01*
X154837437Y-91567259D01*
X154887937Y-91559697D01*
X154981993Y-91551450D01*
X155112373Y-91542926D01*
X155271845Y-91534532D01*
X155453177Y-91526673D01*
X155649137Y-91519756D01*
X155720420Y-91517617D01*
X155917833Y-91511192D01*
X156101401Y-91503739D01*
X156264260Y-91495654D01*
X156399548Y-91487329D01*
X156500405Y-91479159D01*
X156559966Y-91471537D01*
X156570406Y-91468842D01*
X156623067Y-91441581D01*
X156658609Y-91403359D01*
X156676766Y-91348606D01*
X156677273Y-91271755D01*
X156659864Y-91167234D01*
X156624275Y-91029475D01*
X156570238Y-90852908D01*
X156536044Y-90747798D01*
X156373784Y-90320832D01*
X156181516Y-89934110D01*
X155958520Y-89586368D01*
X155704077Y-89276341D01*
X155688151Y-89259290D01*
X155460423Y-89039960D01*
X155225519Y-88861285D01*
X154970285Y-88713471D01*
X154925669Y-88691543D01*
X154698700Y-88582500D01*
X154698700Y-85969329D01*
X154747295Y-85894645D01*
X154838736Y-85681676D01*
X154850713Y-85645216D01*
X154912227Y-85378773D01*
X154929555Y-85115212D01*
X154903834Y-84860601D01*
X154836199Y-84621009D01*
X154727788Y-84402504D01*
X154582790Y-84214372D01*
X154452801Y-84094523D01*
X154326705Y-84018016D01*
X154193760Y-83979543D01*
X154092937Y-83972400D01*
X154092937Y-81590027D01*
X154207564Y-81671010D01*
X154333524Y-81781911D01*
X154370038Y-81820475D01*
X154411292Y-81873448D01*
X154474066Y-81964634D01*
X154558623Y-82094469D01*
X154665223Y-82263387D01*
X154794128Y-82471825D01*
X154945598Y-82720219D01*
X155119897Y-83009004D01*
X155317283Y-83338617D01*
X155538020Y-83709493D01*
X155782367Y-84122067D01*
X156050587Y-84576776D01*
X156342941Y-85074056D01*
X156659690Y-85614342D01*
X157001094Y-86198070D01*
X157243941Y-86614000D01*
X157565038Y-87164844D01*
X157869159Y-87687675D01*
X158155593Y-88181248D01*
X158423630Y-88644321D01*
X158672560Y-89075653D01*
X158901671Y-89474002D01*
X159110253Y-89838124D01*
X159297595Y-90166778D01*
X159462988Y-90458722D01*
X159605719Y-90712713D01*
X159725080Y-90927509D01*
X159820358Y-91101868D01*
X159890844Y-91234548D01*
X159921379Y-91294518D01*
X160029196Y-91511914D01*
X160513548Y-91500253D01*
X160721141Y-91494772D01*
X160883607Y-91489076D01*
X161006616Y-91482525D01*
X161095839Y-91474478D01*
X161156948Y-91464294D01*
X161195613Y-91451333D01*
X161217505Y-91434954D01*
X161226452Y-91419731D01*
X161242340Y-91377801D01*
X161270733Y-91301186D01*
X161306804Y-91202950D01*
X161327217Y-91147040D01*
X161497093Y-90749432D01*
X161704627Y-90384828D01*
X161948981Y-90054318D01*
X162229317Y-89758992D01*
X162544798Y-89499944D01*
X162645259Y-89430075D01*
X162908264Y-89267108D01*
X163165259Y-89136795D01*
X163434145Y-89031249D01*
X163732824Y-88942581D01*
X163777667Y-88931158D01*
X163882400Y-88906210D01*
X163974486Y-88888223D01*
X164066049Y-88876057D01*
X164169212Y-88868574D01*
X164296100Y-88864633D01*
X164458835Y-88863094D01*
X164503100Y-88862959D01*
X164719040Y-88864572D01*
X164897658Y-88871724D01*
X165052294Y-88886222D01*
X165196289Y-88909873D01*
X165342983Y-88944483D01*
X165505717Y-88991861D01*
X165544500Y-89004019D01*
X165890822Y-89136371D01*
X165896124Y-89139177D01*
X165896124Y-89956570D01*
X165663636Y-89972886D01*
X165434121Y-90037109D01*
X165211523Y-90149227D01*
X164999787Y-90309229D01*
X164929927Y-90375585D01*
X164753556Y-90582557D01*
X164625430Y-90799984D01*
X164546124Y-91026022D01*
X164516212Y-91258828D01*
X164536268Y-91496558D01*
X164554818Y-91579123D01*
X164645503Y-91833198D01*
X164777774Y-92058135D01*
X164952033Y-92254532D01*
X165074468Y-92357087D01*
X165296891Y-92496261D01*
X165527138Y-92585367D01*
X165763713Y-92624273D01*
X166005122Y-92612850D01*
X166249868Y-92550966D01*
X166427006Y-92475244D01*
X166651052Y-92337428D01*
X166839272Y-92168733D01*
X166989280Y-91974171D01*
X167098685Y-91758756D01*
X167165098Y-91527502D01*
X167186130Y-91285421D01*
X167159391Y-91037527D01*
X167143865Y-90970988D01*
X167087739Y-90803069D01*
X167007746Y-90650280D01*
X166895961Y-90499652D01*
X166776918Y-90370577D01*
X166571982Y-90195163D01*
X166354241Y-90067697D01*
X166127640Y-89988170D01*
X165896124Y-89956570D01*
X165896124Y-89139177D01*
X166216628Y-89308809D01*
X166527356Y-89524714D01*
X166828445Y-89787465D01*
X166868800Y-89826858D01*
X167154584Y-90142748D01*
X167395383Y-90480507D01*
X167590375Y-90838641D01*
X167738739Y-91215651D01*
X167834851Y-91585417D01*
X167859032Y-91750528D01*
X167874386Y-91948240D01*
X167880915Y-92163510D01*
X167878624Y-92381292D01*
G37*
X167878624Y-92381292D02*
X167867517Y-92586543D01*
X167847596Y-92764218D01*
X167834546Y-92837000D01*
X167724052Y-93248468D01*
X167571741Y-93631374D01*
X167377046Y-93986809D01*
X167139396Y-94315865D01*
X166955988Y-94521982D01*
X166643140Y-94811461D01*
X166304900Y-95057183D01*
X165942469Y-95258474D01*
X165557049Y-95414661D01*
X165176200Y-95519460D01*
X165024258Y-95543601D01*
X164837294Y-95559814D01*
X164629678Y-95568063D01*
X164415784Y-95568311D01*
X164209984Y-95560521D01*
X164026650Y-95544657D01*
X163889454Y-95522743D01*
X163479748Y-95411276D01*
X163100190Y-95259693D01*
X162747777Y-95066371D01*
X162419506Y-94829687D01*
X162142253Y-94578287D01*
X161861969Y-94265994D01*
X161628864Y-93937452D01*
X161441088Y-93589697D01*
X161300786Y-93232086D01*
X161252896Y-93096981D01*
X161212739Y-93009338D01*
X161179097Y-92966616D01*
X161171583Y-92962665D01*
X161133130Y-92957058D01*
X161052068Y-92950907D01*
X160936582Y-92944636D01*
X160794855Y-92938669D01*
X160635068Y-92933431D01*
X160577940Y-92931887D01*
X160030979Y-92917918D01*
X159887181Y-93201309D01*
X159831117Y-93308341D01*
X159752199Y-93453772D01*
X159651975Y-93634950D01*
X159531995Y-93849224D01*
X159393807Y-94093943D01*
X159238960Y-94366456D01*
X159069005Y-94664113D01*
X158885489Y-94984262D01*
X158689962Y-95324253D01*
X158483973Y-95681434D01*
X158269071Y-96053155D01*
X158046806Y-96436764D01*
X157818725Y-96829611D01*
X157586379Y-97229044D01*
X157351316Y-97632414D01*
X157115086Y-98037068D01*
X156879237Y-98440355D01*
X156645319Y-98839626D01*
X156414881Y-99232228D01*
X156189471Y-99615512D01*
X155970640Y-99986825D01*
X155759935Y-100343517D01*
X155558906Y-100682938D01*
X155369103Y-101002435D01*
X155192073Y-101299359D01*
X155029367Y-101571058D01*
X154882534Y-101814881D01*
X154753122Y-102028178D01*
X154642680Y-102208296D01*
X154552758Y-102352587D01*
X154484904Y-102458397D01*
X154440669Y-102523077D01*
X154437666Y-102527100D01*
X154316862Y-102659015D01*
X154150834Y-102794395D01*
X153937958Y-102934406D01*
X153676606Y-103080213D01*
X153640981Y-103098631D01*
X153294462Y-103276400D01*
X151549791Y-103276400D01*
X149805120Y-103276399D01*
X149534110Y-103137633D01*
X149304719Y-103013528D01*
X149097655Y-102888302D01*
X148920621Y-102767015D01*
X148781317Y-102654724D01*
X148741336Y-102616926D01*
X148687302Y-102553032D01*
X148609341Y-102445378D01*
X148507425Y-102293915D01*
X148381524Y-102098595D01*
X148231610Y-101859369D01*
X148057655Y-101576191D01*
X147859631Y-101249012D01*
X147637509Y-100877783D01*
X147391261Y-100462458D01*
X147120858Y-100002986D01*
X146826272Y-99499322D01*
X146507474Y-98951416D01*
X146164436Y-98359221D01*
X145797130Y-97722688D01*
X145405527Y-97041769D01*
X144989599Y-96316417D01*
X144549316Y-95546584D01*
X144285761Y-95084900D01*
X144087257Y-94736896D01*
X143912387Y-94430115D01*
X143759583Y-94161669D01*
X143627279Y-93928673D01*
X143513909Y-93728240D01*
X143417905Y-93557482D01*
X143337703Y-93413512D01*
X143271736Y-93293445D01*
X143218436Y-93194393D01*
X143176239Y-93113469D01*
X143143577Y-93047787D01*
X143118884Y-92994460D01*
X143100594Y-92950601D01*
X143087140Y-92913323D01*
X143076957Y-92879740D01*
X143068477Y-92846964D01*
X143066066Y-92837000D01*
X143046803Y-92726649D01*
X143031336Y-92580028D01*
X143020216Y-92411563D01*
X143013994Y-92235681D01*
X143013223Y-92066808D01*
X143018452Y-91919371D01*
X143027419Y-91825898D01*
X143055493Y-91666490D01*
X143094977Y-91520560D01*
X143151284Y-91372971D01*
X143229825Y-91208588D01*
X143286003Y-91102699D01*
X143363701Y-90961509D01*
X143465004Y-90779909D01*
X143587919Y-90561368D01*
X143730456Y-90309358D01*
X143890624Y-90027349D01*
X144066431Y-89718811D01*
X144255886Y-89387214D01*
X144456997Y-89036028D01*
X144667774Y-88668725D01*
X144886226Y-88288774D01*
X145110360Y-87899646D01*
X145338185Y-87504810D01*
X145567712Y-87107738D01*
X145796947Y-86711900D01*
X146023900Y-86320765D01*
X146246579Y-85937805D01*
X146444607Y-85598000D01*
X146739412Y-85093081D01*
X147009769Y-84630822D01*
X147256515Y-84209823D01*
X147480490Y-83828685D01*
X147682530Y-83486006D01*
X147863474Y-83180389D01*
X148024161Y-82910432D01*
X148165428Y-82674737D01*
X148288114Y-82471904D01*
X148393056Y-82300532D01*
X148481094Y-82159223D01*
X148553065Y-82046576D01*
X148609806Y-81961191D01*
X148652158Y-81901670D01*
X148675191Y-81872921D01*
X148822056Y-81730083D01*
X149006976Y-81588370D01*
X149217636Y-81455500D01*
X149441720Y-81339193D01*
X149666912Y-81247165D01*
X149681998Y-81241969D01*
X149757277Y-81217460D01*
X149831109Y-81196477D01*
X149907840Y-81178801D01*
X149991820Y-81164215D01*
X150087398Y-81152500D01*
X150198923Y-81143440D01*
X150330744Y-81136815D01*
X150487209Y-81132409D01*
X150672667Y-81130003D01*
X150891468Y-81129380D01*
X151147960Y-81130321D01*
X151446491Y-81132610D01*
X151791412Y-81136027D01*
X151796016Y-81136076D01*
X153287532Y-81151872D01*
X153599416Y-81307877D01*
X153845184Y-81437101D01*
X154046342Y-81557109D01*
X154092937Y-81590027D01*
X154092937Y-83972400D01*
X153924385Y-83997068D01*
X153765797Y-84068933D01*
X153620838Y-84184781D01*
X153493172Y-84341402D01*
X153386463Y-84535584D01*
X153350387Y-84623269D01*
X153286085Y-84854859D01*
X153255825Y-85107033D01*
X153260395Y-85361975D01*
X153300586Y-85601863D01*
X153306123Y-85622635D01*
X153367322Y-85798976D01*
X153449840Y-85947092D01*
X153563904Y-86086742D01*
X153718380Y-86222522D01*
X153878993Y-86309898D01*
X154041740Y-86350245D01*
X154202614Y-86344938D01*
X154357612Y-86295350D01*
X154502728Y-86202856D01*
X154633957Y-86068830D01*
X154698700Y-85969329D01*
X154698700Y-88582500D01*
X154139900Y-88582550D01*
X153955523Y-88582852D01*
X153813875Y-88584177D01*
X153706888Y-88587207D01*
X153626492Y-88592626D01*
X153564618Y-88601117D01*
X153513197Y-88613363D01*
X153464161Y-88630048D01*
X153432636Y-88642428D01*
X153244197Y-88736055D01*
X153042847Y-88867404D01*
X152837803Y-89028468D01*
X152638279Y-89211241D01*
X152453493Y-89407717D01*
X152292660Y-89609890D01*
X152252152Y-89667943D01*
X152075460Y-89956553D01*
X151918100Y-90266759D01*
X151784807Y-90586674D01*
X151680314Y-90904410D01*
X151609355Y-91208078D01*
X151590620Y-91329123D01*
X151582521Y-91422066D01*
X151575986Y-91556404D01*
X151571030Y-91722758D01*
X151567665Y-91911745D01*
X151565908Y-92113986D01*
X151565771Y-92320099D01*
X151567269Y-92520705D01*
X151570416Y-92706421D01*
X151575227Y-92867868D01*
X151581716Y-92995664D01*
X151587989Y-93066266D01*
X151646520Y-93389087D01*
X151743284Y-93727128D01*
X151873633Y-94068371D01*
X152032917Y-94400799D01*
X152216490Y-94712393D01*
X152236223Y-94742273D01*
X152384682Y-94941536D01*
X152560206Y-95138915D01*
X152753664Y-95326433D01*
X152955922Y-95496116D01*
X153157845Y-95639988D01*
X153350301Y-95750074D01*
X153432636Y-95786971D01*
X153484103Y-95806635D01*
X153533128Y-95821453D01*
X153587781Y-95832108D01*
X153656130Y-95839282D01*
X153746246Y-95843659D01*
X153866196Y-95845921D01*
X154024051Y-95846753D01*
X154139900Y-95846849D01*
X154698700Y-95846900D01*
X154925669Y-95737856D01*
X155226629Y-95565324D01*
X155507970Y-95346893D01*
X155768130Y-95084146D01*
X156005543Y-94778667D01*
X156218646Y-94432040D01*
X156222757Y-94424500D01*
X156300000Y-94270920D01*
X156376914Y-94097110D01*
X156450488Y-93912079D01*
X156517710Y-93724839D01*
X156575568Y-93544398D01*
X156621052Y-93379769D01*
X156651149Y-93239960D01*
X156662848Y-93133983D01*
X156662274Y-93109493D01*
X156657584Y-93064309D01*
X156647460Y-93027565D01*
X156626982Y-92998222D01*
X156591229Y-92975239D01*
X156535280Y-92957576D01*
X156454214Y-92944191D01*
X156343110Y-92934045D01*
X156197049Y-92926097D01*
X156011108Y-92919306D01*
X155780367Y-92912632D01*
X155723994Y-92911101D01*
X155524325Y-92904907D01*
X155336688Y-92897588D01*
X155168315Y-92889541D01*
X155026437Y-92881164D01*
X154918286Y-92872855D01*
X154851096Y-92865013D01*
X154838348Y-92862385D01*
X154706703Y-92800908D01*
X154588400Y-92691959D01*
X154494139Y-92552998D01*
X154454813Y-92475180D01*
X154432148Y-92405865D01*
X154421769Y-92325276D01*
X154419300Y-92214700D01*
X154421815Y-92103383D01*
X154432274Y-92022962D01*
X154455055Y-91953658D01*
X154494139Y-91876401D01*
X154597812Y-91726477D01*
X154716831Y-91621689D01*
X154837437Y-91567259D01*
X154887937Y-91559697D01*
X154981993Y-91551450D01*
X155112373Y-91542926D01*
X155271845Y-91534532D01*
X155453177Y-91526673D01*
X155649137Y-91519756D01*
X155720420Y-91517617D01*
X155917833Y-91511192D01*
X156101401Y-91503739D01*
X156264260Y-91495654D01*
X156399548Y-91487329D01*
X156500405Y-91479159D01*
X156559966Y-91471537D01*
X156570406Y-91468842D01*
X156623067Y-91441581D01*
X156658609Y-91403359D01*
X156676766Y-91348606D01*
X156677273Y-91271755D01*
X156659864Y-91167234D01*
X156624275Y-91029475D01*
X156570238Y-90852908D01*
X156536044Y-90747798D01*
X156373784Y-90320832D01*
X156181516Y-89934110D01*
X155958520Y-89586368D01*
X155704077Y-89276341D01*
X155688151Y-89259290D01*
X155460423Y-89039960D01*
X155225519Y-88861285D01*
X154970285Y-88713471D01*
X154925669Y-88691543D01*
X154698700Y-88582500D01*
X154698700Y-85969329D01*
X154747295Y-85894645D01*
X154838736Y-85681676D01*
X154850713Y-85645216D01*
X154912227Y-85378773D01*
X154929555Y-85115212D01*
X154903834Y-84860601D01*
X154836199Y-84621009D01*
X154727788Y-84402504D01*
X154582790Y-84214372D01*
X154452801Y-84094523D01*
X154326705Y-84018016D01*
X154193760Y-83979543D01*
X154092937Y-83972400D01*
X154092937Y-81590027D01*
X154207564Y-81671010D01*
X154333524Y-81781911D01*
X154370038Y-81820475D01*
X154411292Y-81873448D01*
X154474066Y-81964634D01*
X154558623Y-82094469D01*
X154665223Y-82263387D01*
X154794128Y-82471825D01*
X154945598Y-82720219D01*
X155119897Y-83009004D01*
X155317283Y-83338617D01*
X155538020Y-83709493D01*
X155782367Y-84122067D01*
X156050587Y-84576776D01*
X156342941Y-85074056D01*
X156659690Y-85614342D01*
X157001094Y-86198070D01*
X157243941Y-86614000D01*
X157565038Y-87164844D01*
X157869159Y-87687675D01*
X158155593Y-88181248D01*
X158423630Y-88644321D01*
X158672560Y-89075653D01*
X158901671Y-89474002D01*
X159110253Y-89838124D01*
X159297595Y-90166778D01*
X159462988Y-90458722D01*
X159605719Y-90712713D01*
X159725080Y-90927509D01*
X159820358Y-91101868D01*
X159890844Y-91234548D01*
X159921379Y-91294518D01*
X160029196Y-91511914D01*
X160513548Y-91500253D01*
X160721141Y-91494772D01*
X160883607Y-91489076D01*
X161006616Y-91482525D01*
X161095839Y-91474478D01*
X161156948Y-91464294D01*
X161195613Y-91451333D01*
X161217505Y-91434954D01*
X161226452Y-91419731D01*
X161242340Y-91377801D01*
X161270733Y-91301186D01*
X161306804Y-91202950D01*
X161327217Y-91147040D01*
X161497093Y-90749432D01*
X161704627Y-90384828D01*
X161948981Y-90054318D01*
X162229317Y-89758992D01*
X162544798Y-89499944D01*
X162645259Y-89430075D01*
X162908264Y-89267108D01*
X163165259Y-89136795D01*
X163434145Y-89031249D01*
X163732824Y-88942581D01*
X163777667Y-88931158D01*
X163882400Y-88906210D01*
X163974486Y-88888223D01*
X164066049Y-88876057D01*
X164169212Y-88868574D01*
X164296100Y-88864633D01*
X164458835Y-88863094D01*
X164503100Y-88862959D01*
X164719040Y-88864572D01*
X164897658Y-88871724D01*
X165052294Y-88886222D01*
X165196289Y-88909873D01*
X165342983Y-88944483D01*
X165505717Y-88991861D01*
X165544500Y-89004019D01*
X165890822Y-89136371D01*
X165896124Y-89139177D01*
X165896124Y-89956570D01*
X165663636Y-89972886D01*
X165434121Y-90037109D01*
X165211523Y-90149227D01*
X164999787Y-90309229D01*
X164929927Y-90375585D01*
X164753556Y-90582557D01*
X164625430Y-90799984D01*
X164546124Y-91026022D01*
X164516212Y-91258828D01*
X164536268Y-91496558D01*
X164554818Y-91579123D01*
X164645503Y-91833198D01*
X164777774Y-92058135D01*
X164952033Y-92254532D01*
X165074468Y-92357087D01*
X165296891Y-92496261D01*
X165527138Y-92585367D01*
X165763713Y-92624273D01*
X166005122Y-92612850D01*
X166249868Y-92550966D01*
X166427006Y-92475244D01*
X166651052Y-92337428D01*
X166839272Y-92168733D01*
X166989280Y-91974171D01*
X167098685Y-91758756D01*
X167165098Y-91527502D01*
X167186130Y-91285421D01*
X167159391Y-91037527D01*
X167143865Y-90970988D01*
X167087739Y-90803069D01*
X167007746Y-90650280D01*
X166895961Y-90499652D01*
X166776918Y-90370577D01*
X166571982Y-90195163D01*
X166354241Y-90067697D01*
X166127640Y-89988170D01*
X165896124Y-89956570D01*
X165896124Y-89139177D01*
X166216628Y-89308809D01*
X166527356Y-89524714D01*
X166828445Y-89787465D01*
X166868800Y-89826858D01*
X167154584Y-90142748D01*
X167395383Y-90480507D01*
X167590375Y-90838641D01*
X167738739Y-91215651D01*
X167834851Y-91585417D01*
X167859032Y-91750528D01*
X167874386Y-91948240D01*
X167880915Y-92163510D01*
X167878624Y-92381292D01*
%TD*%
M02*
