%TF.GenerationSoftware,KiCad,Pcbnew,(5.1.8)-1*%
%TF.CreationDate,2021-02-06T02:04:06+01:00*%
%TF.ProjectId,C64 Joystick Faceplate A1,43363420-4a6f-4797-9374-69636b204661,rev?*%
%TF.SameCoordinates,Original*%
%TF.FileFunction,Legend,Top*%
%TF.FilePolarity,Positive*%
%FSLAX46Y46*%
G04 Gerber Fmt 4.6, Leading zero omitted, Abs format (unit mm)*
G04 Created by KiCad (PCBNEW (5.1.8)-1) date 2021-02-06 02:04:06*
%MOMM*%
%LPD*%
G01*
G04 APERTURE LIST*
%ADD10C,0.120000*%
%ADD11C,0.100000*%
%ADD12C,0.010000*%
G04 APERTURE END LIST*
D10*
X142748000Y-73025000D02*
X159258000Y-73025000D01*
X159258000Y-111125000D02*
X142748000Y-111125000D01*
X141478000Y-109855000D02*
X141478000Y-74295000D01*
X141478000Y-74295000D02*
G75*
G02*
X142748000Y-73025000I1270000J0D01*
G01*
X142748000Y-111125000D02*
G75*
G02*
X141478000Y-109855000I0J1270000D01*
G01*
X160528000Y-74295000D02*
X160528000Y-109855000D01*
X160528000Y-109855000D02*
G75*
G02*
X159258000Y-111125000I-1270000J0D01*
G01*
X159258000Y-73025000D02*
G75*
G02*
X160528000Y-74295000I0J-1270000D01*
G01*
D11*
X166643095Y-74117380D02*
X167443095Y-74117380D01*
X166871666Y-74384047D01*
X167443095Y-74650714D01*
X166643095Y-74650714D01*
X167443095Y-75184047D02*
X167443095Y-75336428D01*
X167405000Y-75412619D01*
X167328809Y-75488809D01*
X167176428Y-75526904D01*
X166909761Y-75526904D01*
X166757380Y-75488809D01*
X166681190Y-75412619D01*
X166643095Y-75336428D01*
X166643095Y-75184047D01*
X166681190Y-75107857D01*
X166757380Y-75031666D01*
X166909761Y-74993571D01*
X167176428Y-74993571D01*
X167328809Y-75031666D01*
X167405000Y-75107857D01*
X167443095Y-75184047D01*
X166643095Y-75869761D02*
X167443095Y-75869761D01*
X167443095Y-76060238D01*
X167405000Y-76174523D01*
X167328809Y-76250714D01*
X167252619Y-76288809D01*
X167100238Y-76326904D01*
X166985952Y-76326904D01*
X166833571Y-76288809D01*
X166757380Y-76250714D01*
X166681190Y-76174523D01*
X166643095Y-76060238D01*
X166643095Y-75869761D01*
X167062142Y-76669761D02*
X167062142Y-76936428D01*
X166643095Y-77050714D02*
X166643095Y-76669761D01*
X167443095Y-76669761D01*
X167443095Y-77050714D01*
X166643095Y-107518333D02*
X167443095Y-107518333D01*
X167443095Y-107823095D01*
X167405000Y-107899285D01*
X167366904Y-107937380D01*
X167290714Y-107975476D01*
X167176428Y-107975476D01*
X167100238Y-107937380D01*
X167062142Y-107899285D01*
X167024047Y-107823095D01*
X167024047Y-107518333D01*
X167443095Y-108242142D02*
X166643095Y-108432619D01*
X167214523Y-108585000D01*
X166643095Y-108737380D01*
X167443095Y-108927857D01*
X166643095Y-109689761D02*
X167024047Y-109423095D01*
X166643095Y-109232619D02*
X167443095Y-109232619D01*
X167443095Y-109537380D01*
X167405000Y-109613571D01*
X167366904Y-109651666D01*
X167290714Y-109689761D01*
X167176428Y-109689761D01*
X167100238Y-109651666D01*
X167062142Y-109613571D01*
X167024047Y-109537380D01*
X167024047Y-109232619D01*
X113176095Y-103962452D02*
X113976095Y-103962452D01*
X113976095Y-104267214D01*
X113938000Y-104343404D01*
X113899904Y-104381500D01*
X113823714Y-104419595D01*
X113709428Y-104419595D01*
X113633238Y-104381500D01*
X113595142Y-104343404D01*
X113557047Y-104267214D01*
X113557047Y-103962452D01*
X113976095Y-104914833D02*
X113976095Y-105067214D01*
X113938000Y-105143404D01*
X113861809Y-105219595D01*
X113709428Y-105257690D01*
X113442761Y-105257690D01*
X113290380Y-105219595D01*
X113214190Y-105143404D01*
X113176095Y-105067214D01*
X113176095Y-104914833D01*
X113214190Y-104838642D01*
X113290380Y-104762452D01*
X113442761Y-104724357D01*
X113709428Y-104724357D01*
X113861809Y-104762452D01*
X113938000Y-104838642D01*
X113976095Y-104914833D01*
X113176095Y-106057690D02*
X113557047Y-105791023D01*
X113176095Y-105600547D02*
X113976095Y-105600547D01*
X113976095Y-105905309D01*
X113938000Y-105981500D01*
X113899904Y-106019595D01*
X113823714Y-106057690D01*
X113709428Y-106057690D01*
X113633238Y-106019595D01*
X113595142Y-105981500D01*
X113557047Y-105905309D01*
X113557047Y-105600547D01*
X113976095Y-106286261D02*
X113976095Y-106743404D01*
X113176095Y-106514833D02*
X113976095Y-106514833D01*
X113899904Y-107581500D02*
X113938000Y-107619595D01*
X113976095Y-107695785D01*
X113976095Y-107886261D01*
X113938000Y-107962452D01*
X113899904Y-108000547D01*
X113823714Y-108038642D01*
X113747523Y-108038642D01*
X113633238Y-108000547D01*
X113176095Y-107543404D01*
X113176095Y-108038642D01*
X113176095Y-76149452D02*
X113976095Y-76149452D01*
X113976095Y-76454214D01*
X113938000Y-76530404D01*
X113899904Y-76568500D01*
X113823714Y-76606595D01*
X113709428Y-76606595D01*
X113633238Y-76568500D01*
X113595142Y-76530404D01*
X113557047Y-76454214D01*
X113557047Y-76149452D01*
X113976095Y-77101833D02*
X113976095Y-77254214D01*
X113938000Y-77330404D01*
X113861809Y-77406595D01*
X113709428Y-77444690D01*
X113442761Y-77444690D01*
X113290380Y-77406595D01*
X113214190Y-77330404D01*
X113176095Y-77254214D01*
X113176095Y-77101833D01*
X113214190Y-77025642D01*
X113290380Y-76949452D01*
X113442761Y-76911357D01*
X113709428Y-76911357D01*
X113861809Y-76949452D01*
X113938000Y-77025642D01*
X113976095Y-77101833D01*
X113176095Y-78244690D02*
X113557047Y-77978023D01*
X113176095Y-77787547D02*
X113976095Y-77787547D01*
X113976095Y-78092309D01*
X113938000Y-78168500D01*
X113899904Y-78206595D01*
X113823714Y-78244690D01*
X113709428Y-78244690D01*
X113633238Y-78206595D01*
X113595142Y-78168500D01*
X113557047Y-78092309D01*
X113557047Y-77787547D01*
X113976095Y-78473261D02*
X113976095Y-78930404D01*
X113176095Y-78701833D02*
X113976095Y-78701833D01*
X113176095Y-80225642D02*
X113176095Y-79768500D01*
X113176095Y-79997071D02*
X113976095Y-79997071D01*
X113861809Y-79920880D01*
X113785619Y-79844690D01*
X113747523Y-79768500D01*
D12*
%TO.C,G\u002A\u002A\u002A*%
G36*
X130167312Y-92291646D02*
G01*
X130161759Y-92394271D01*
X130151798Y-92483109D01*
X130145273Y-92519500D01*
X130090026Y-92725234D01*
X130013871Y-92916687D01*
X129916523Y-93094404D01*
X129797698Y-93258932D01*
X129705994Y-93361991D01*
X129549570Y-93506730D01*
X129380450Y-93629591D01*
X129199235Y-93730237D01*
X129006525Y-93808330D01*
X128816100Y-93860730D01*
X128740129Y-93872800D01*
X128646647Y-93880907D01*
X128542839Y-93885031D01*
X128435892Y-93885155D01*
X128332992Y-93881260D01*
X128241325Y-93873328D01*
X128172727Y-93862371D01*
X127967874Y-93806638D01*
X127778095Y-93730846D01*
X127601889Y-93634185D01*
X127437753Y-93515843D01*
X127299127Y-93390143D01*
X127158985Y-93233997D01*
X127042432Y-93069726D01*
X126948544Y-92895848D01*
X126878393Y-92717043D01*
X126854448Y-92649490D01*
X126834370Y-92605669D01*
X126817549Y-92584308D01*
X126813792Y-92582332D01*
X126794565Y-92579529D01*
X126754034Y-92576453D01*
X126696291Y-92573318D01*
X126625428Y-92570334D01*
X126545534Y-92567715D01*
X126516970Y-92566943D01*
X126243490Y-92559959D01*
X126171591Y-92701654D01*
X126143559Y-92755170D01*
X126104100Y-92827886D01*
X126053988Y-92918475D01*
X125993998Y-93025612D01*
X125924904Y-93147971D01*
X125847480Y-93284228D01*
X125762503Y-93433056D01*
X125670745Y-93593131D01*
X125572981Y-93763126D01*
X125469987Y-93941717D01*
X125362536Y-94127577D01*
X125251403Y-94319382D01*
X125137363Y-94515805D01*
X125021190Y-94715522D01*
X124903658Y-94917207D01*
X124785543Y-95119534D01*
X124667619Y-95321177D01*
X124550660Y-95520813D01*
X124435441Y-95717114D01*
X124322736Y-95908756D01*
X124213320Y-96094412D01*
X124107968Y-96272758D01*
X124007453Y-96442469D01*
X123912552Y-96602217D01*
X123824037Y-96750679D01*
X123742684Y-96886529D01*
X123669267Y-97008440D01*
X123604561Y-97115089D01*
X123549340Y-97205148D01*
X123504379Y-97277293D01*
X123470452Y-97330198D01*
X123448335Y-97362538D01*
X123446833Y-97364550D01*
X123386431Y-97430507D01*
X123303417Y-97498197D01*
X123196979Y-97568203D01*
X123066303Y-97641106D01*
X123048491Y-97650315D01*
X122875231Y-97739200D01*
X122002896Y-97739200D01*
X121130560Y-97739199D01*
X120995055Y-97669816D01*
X120880360Y-97607764D01*
X120776828Y-97545151D01*
X120688311Y-97484507D01*
X120618659Y-97428362D01*
X120598668Y-97409463D01*
X120571651Y-97377516D01*
X120532671Y-97323689D01*
X120481713Y-97247957D01*
X120418762Y-97150297D01*
X120343805Y-97030684D01*
X120256828Y-96889095D01*
X120157816Y-96725506D01*
X120046755Y-96539891D01*
X119923631Y-96332229D01*
X119788429Y-96102493D01*
X119641136Y-95850661D01*
X119481737Y-95576708D01*
X119310218Y-95280610D01*
X119126565Y-94962344D01*
X118930764Y-94621884D01*
X118722800Y-94259208D01*
X118502658Y-93874292D01*
X118370881Y-93643450D01*
X118271629Y-93469448D01*
X118184194Y-93316057D01*
X118107792Y-93181834D01*
X118041640Y-93065336D01*
X117984955Y-92965120D01*
X117936953Y-92879741D01*
X117896852Y-92807756D01*
X117863868Y-92747722D01*
X117837218Y-92698196D01*
X117816120Y-92657734D01*
X117799789Y-92624893D01*
X117787442Y-92598230D01*
X117778297Y-92576300D01*
X117771570Y-92557661D01*
X117766479Y-92540870D01*
X117762239Y-92524482D01*
X117761033Y-92519500D01*
X117751402Y-92464324D01*
X117743668Y-92391014D01*
X117738108Y-92306781D01*
X117734997Y-92218840D01*
X117734612Y-92134404D01*
X117737226Y-92060685D01*
X117741710Y-92013949D01*
X117755747Y-91934245D01*
X117775489Y-91861280D01*
X117803642Y-91787485D01*
X117842913Y-91705294D01*
X117871002Y-91652349D01*
X117909851Y-91581754D01*
X117960502Y-91490954D01*
X118021960Y-91381684D01*
X118093228Y-91255679D01*
X118173312Y-91114674D01*
X118261216Y-90960405D01*
X118355943Y-90794607D01*
X118456499Y-90619014D01*
X118561887Y-90435362D01*
X118671113Y-90245387D01*
X118783180Y-90050823D01*
X118897093Y-89853405D01*
X119011856Y-89654869D01*
X119126474Y-89456950D01*
X119239950Y-89261382D01*
X119351290Y-89069902D01*
X119450304Y-88900000D01*
X119597706Y-88647540D01*
X119732885Y-88416411D01*
X119856258Y-88205911D01*
X119968245Y-88015342D01*
X120069265Y-87844003D01*
X120159737Y-87691194D01*
X120240081Y-87556216D01*
X120310714Y-87438368D01*
X120372057Y-87336952D01*
X120424528Y-87251266D01*
X120468547Y-87180611D01*
X120504533Y-87124288D01*
X120532903Y-87081595D01*
X120554079Y-87051835D01*
X120565596Y-87037460D01*
X120639028Y-86966041D01*
X120731488Y-86895185D01*
X120836818Y-86828750D01*
X120948860Y-86770596D01*
X121061456Y-86724582D01*
X121068999Y-86721984D01*
X121106639Y-86709730D01*
X121143555Y-86699238D01*
X121181920Y-86690400D01*
X121223910Y-86683107D01*
X121271699Y-86677250D01*
X121327462Y-86672720D01*
X121393372Y-86669407D01*
X121471605Y-86667204D01*
X121564334Y-86666001D01*
X121673734Y-86665690D01*
X121801980Y-86666160D01*
X121951246Y-86667305D01*
X122123706Y-86669013D01*
X122126008Y-86669038D01*
X122871766Y-86676936D01*
X123027708Y-86754938D01*
X123150592Y-86819550D01*
X123251171Y-86879554D01*
X123274469Y-86896013D01*
X123274469Y-88087200D01*
X123190193Y-88099534D01*
X123110899Y-88135466D01*
X123038419Y-88193390D01*
X122974586Y-88271701D01*
X122921232Y-88368792D01*
X122903194Y-88412634D01*
X122871043Y-88528429D01*
X122855913Y-88654516D01*
X122858198Y-88781987D01*
X122878293Y-88901931D01*
X122881062Y-88912317D01*
X122911661Y-89000488D01*
X122952920Y-89074546D01*
X123009952Y-89144371D01*
X123087190Y-89212261D01*
X123167497Y-89255949D01*
X123248870Y-89276122D01*
X123329307Y-89273469D01*
X123406806Y-89248675D01*
X123479364Y-89202428D01*
X123544979Y-89135415D01*
X123577350Y-89085665D01*
X123577350Y-90392250D01*
X123297950Y-90392275D01*
X123205762Y-90392426D01*
X123134938Y-90393088D01*
X123081444Y-90394603D01*
X123041246Y-90397313D01*
X123010309Y-90401558D01*
X122984599Y-90407681D01*
X122960081Y-90416024D01*
X122944318Y-90422214D01*
X122850099Y-90469027D01*
X122749424Y-90534702D01*
X122646902Y-90615234D01*
X122547140Y-90706620D01*
X122454747Y-90804858D01*
X122374330Y-90905945D01*
X122354076Y-90934971D01*
X122265730Y-91079276D01*
X122187050Y-91234379D01*
X122120404Y-91394337D01*
X122068157Y-91553205D01*
X122032678Y-91705039D01*
X122023310Y-91765561D01*
X122019261Y-91812033D01*
X122015993Y-91879202D01*
X122013515Y-91962379D01*
X122011833Y-92056872D01*
X122010954Y-92157993D01*
X122010886Y-92261049D01*
X122011635Y-92361352D01*
X122013208Y-92454210D01*
X122015614Y-92534934D01*
X122018858Y-92598832D01*
X122021995Y-92634133D01*
X122051260Y-92795543D01*
X122099642Y-92964564D01*
X122164817Y-93135185D01*
X122244459Y-93301399D01*
X122336245Y-93457196D01*
X122346112Y-93472136D01*
X122420341Y-93571768D01*
X122508103Y-93670457D01*
X122604832Y-93764216D01*
X122705961Y-93849058D01*
X122806923Y-93920994D01*
X122903151Y-93976037D01*
X122944318Y-93994485D01*
X122970052Y-94004317D01*
X122994564Y-94011726D01*
X123021891Y-94017054D01*
X123056065Y-94020641D01*
X123101123Y-94022829D01*
X123161098Y-94023960D01*
X123240026Y-94024376D01*
X123297950Y-94024424D01*
X123577350Y-94024450D01*
X123690835Y-93969928D01*
X123841315Y-93883662D01*
X123981985Y-93774446D01*
X124112065Y-93643073D01*
X124230772Y-93490333D01*
X124337323Y-93317020D01*
X124339379Y-93313250D01*
X124378000Y-93236460D01*
X124416457Y-93149555D01*
X124453244Y-93057039D01*
X124486855Y-92963419D01*
X124515784Y-92873199D01*
X124538526Y-92790884D01*
X124553575Y-92720980D01*
X124559424Y-92667991D01*
X124559137Y-92655746D01*
X124556792Y-92633154D01*
X124551730Y-92614782D01*
X124541491Y-92600111D01*
X124523615Y-92588619D01*
X124495640Y-92579788D01*
X124455107Y-92573095D01*
X124399555Y-92568022D01*
X124326525Y-92564048D01*
X124233554Y-92560653D01*
X124118184Y-92557316D01*
X124089997Y-92556550D01*
X123990163Y-92553453D01*
X123896344Y-92549794D01*
X123812158Y-92545770D01*
X123741219Y-92541582D01*
X123687143Y-92537427D01*
X123653548Y-92533506D01*
X123647174Y-92532192D01*
X123581352Y-92501454D01*
X123522200Y-92446979D01*
X123475070Y-92377499D01*
X123455407Y-92338590D01*
X123444074Y-92303932D01*
X123438885Y-92263638D01*
X123437650Y-92208350D01*
X123438908Y-92152691D01*
X123444137Y-92112481D01*
X123455528Y-92077829D01*
X123475070Y-92039200D01*
X123526906Y-91964238D01*
X123586416Y-91911844D01*
X123646719Y-91884629D01*
X123671969Y-91880848D01*
X123718997Y-91876725D01*
X123784187Y-91872463D01*
X123863923Y-91868266D01*
X123954589Y-91864336D01*
X124052569Y-91860878D01*
X124088210Y-91859808D01*
X124186917Y-91856596D01*
X124278701Y-91852869D01*
X124360130Y-91848827D01*
X124427774Y-91844664D01*
X124478203Y-91840579D01*
X124507983Y-91836768D01*
X124513203Y-91835421D01*
X124539534Y-91821790D01*
X124557305Y-91802679D01*
X124566383Y-91775303D01*
X124566637Y-91736877D01*
X124557932Y-91684617D01*
X124540138Y-91615737D01*
X124513119Y-91527454D01*
X124496022Y-91474899D01*
X124414892Y-91261416D01*
X124318758Y-91068055D01*
X124207260Y-90894184D01*
X124080039Y-90739170D01*
X124072076Y-90730645D01*
X123958212Y-90620980D01*
X123840760Y-90531642D01*
X123713143Y-90457735D01*
X123690835Y-90446771D01*
X123577350Y-90392250D01*
X123577350Y-89085665D01*
X123601648Y-89048322D01*
X123647368Y-88941838D01*
X123653357Y-88923608D01*
X123684114Y-88790386D01*
X123692778Y-88658606D01*
X123679917Y-88531300D01*
X123646100Y-88411504D01*
X123591894Y-88302252D01*
X123519395Y-88208186D01*
X123454401Y-88148261D01*
X123391353Y-88110008D01*
X123324880Y-88090771D01*
X123274469Y-88087200D01*
X123274469Y-86896013D01*
X123331782Y-86936505D01*
X123394762Y-86991955D01*
X123413019Y-87011237D01*
X123433646Y-87037724D01*
X123465033Y-87083317D01*
X123507312Y-87148234D01*
X123560612Y-87232693D01*
X123625064Y-87336912D01*
X123700799Y-87461109D01*
X123787949Y-87605502D01*
X123886642Y-87770308D01*
X123997010Y-87955746D01*
X124119184Y-88162033D01*
X124253294Y-88389388D01*
X124399471Y-88638028D01*
X124557845Y-88908171D01*
X124728547Y-89200035D01*
X124849971Y-89408000D01*
X125010519Y-89683422D01*
X125162580Y-89944837D01*
X125305797Y-90191624D01*
X125439815Y-90423160D01*
X125564280Y-90638826D01*
X125678836Y-90838001D01*
X125783127Y-91020062D01*
X125876798Y-91184389D01*
X125959494Y-91330361D01*
X126030860Y-91457356D01*
X126090540Y-91564754D01*
X126138179Y-91651934D01*
X126173422Y-91718274D01*
X126188690Y-91748259D01*
X126242598Y-91856957D01*
X126484774Y-91851126D01*
X126588571Y-91848386D01*
X126669804Y-91845538D01*
X126731308Y-91842262D01*
X126775920Y-91838239D01*
X126806474Y-91833147D01*
X126825807Y-91826666D01*
X126836753Y-91818477D01*
X126841226Y-91810865D01*
X126849170Y-91789900D01*
X126863367Y-91751593D01*
X126881402Y-91702475D01*
X126891609Y-91674520D01*
X126976547Y-91475716D01*
X127080314Y-91293414D01*
X127202491Y-91128159D01*
X127342659Y-90980496D01*
X127500399Y-90850972D01*
X127550630Y-90816037D01*
X127682132Y-90734554D01*
X127810630Y-90669397D01*
X127945073Y-90616624D01*
X128094412Y-90572290D01*
X128116834Y-90566579D01*
X128169200Y-90554105D01*
X128215243Y-90545111D01*
X128261025Y-90539028D01*
X128312606Y-90535287D01*
X128376050Y-90533316D01*
X128457418Y-90532547D01*
X128479550Y-90532479D01*
X128587520Y-90533286D01*
X128676829Y-90536862D01*
X128754147Y-90544111D01*
X128826145Y-90555936D01*
X128899492Y-90573241D01*
X128980859Y-90596930D01*
X129000250Y-90603009D01*
X129173411Y-90669185D01*
X129176062Y-90670588D01*
X129176062Y-91079285D01*
X129059818Y-91087443D01*
X128945061Y-91119554D01*
X128833762Y-91175613D01*
X128727894Y-91255614D01*
X128692964Y-91288792D01*
X128604778Y-91392278D01*
X128540715Y-91500992D01*
X128501062Y-91614011D01*
X128486106Y-91730414D01*
X128496134Y-91849279D01*
X128505409Y-91890561D01*
X128550752Y-92017599D01*
X128616887Y-92130067D01*
X128704017Y-92228266D01*
X128765234Y-92279543D01*
X128876446Y-92349130D01*
X128991569Y-92393683D01*
X129109857Y-92413136D01*
X129230561Y-92407425D01*
X129352934Y-92376483D01*
X129441503Y-92338622D01*
X129553526Y-92269714D01*
X129647636Y-92185366D01*
X129722640Y-92088085D01*
X129777343Y-91980378D01*
X129810549Y-91864751D01*
X129821065Y-91743710D01*
X129807696Y-91619763D01*
X129799933Y-91586494D01*
X129771870Y-91502534D01*
X129731873Y-91426140D01*
X129675981Y-91350826D01*
X129616459Y-91286288D01*
X129513991Y-91198581D01*
X129405121Y-91134848D01*
X129291820Y-91095085D01*
X129176062Y-91079285D01*
X129176062Y-90670588D01*
X129336314Y-90755404D01*
X129491678Y-90863357D01*
X129642223Y-90994732D01*
X129662400Y-91014429D01*
X129805292Y-91172374D01*
X129925692Y-91341253D01*
X130023188Y-91520320D01*
X130097370Y-91708825D01*
X130145426Y-91893708D01*
X130157516Y-91976264D01*
X130165193Y-92075120D01*
X130168458Y-92182755D01*
X130167312Y-92291646D01*
G37*
X130167312Y-92291646D02*
X130161759Y-92394271D01*
X130151798Y-92483109D01*
X130145273Y-92519500D01*
X130090026Y-92725234D01*
X130013871Y-92916687D01*
X129916523Y-93094404D01*
X129797698Y-93258932D01*
X129705994Y-93361991D01*
X129549570Y-93506730D01*
X129380450Y-93629591D01*
X129199235Y-93730237D01*
X129006525Y-93808330D01*
X128816100Y-93860730D01*
X128740129Y-93872800D01*
X128646647Y-93880907D01*
X128542839Y-93885031D01*
X128435892Y-93885155D01*
X128332992Y-93881260D01*
X128241325Y-93873328D01*
X128172727Y-93862371D01*
X127967874Y-93806638D01*
X127778095Y-93730846D01*
X127601889Y-93634185D01*
X127437753Y-93515843D01*
X127299127Y-93390143D01*
X127158985Y-93233997D01*
X127042432Y-93069726D01*
X126948544Y-92895848D01*
X126878393Y-92717043D01*
X126854448Y-92649490D01*
X126834370Y-92605669D01*
X126817549Y-92584308D01*
X126813792Y-92582332D01*
X126794565Y-92579529D01*
X126754034Y-92576453D01*
X126696291Y-92573318D01*
X126625428Y-92570334D01*
X126545534Y-92567715D01*
X126516970Y-92566943D01*
X126243490Y-92559959D01*
X126171591Y-92701654D01*
X126143559Y-92755170D01*
X126104100Y-92827886D01*
X126053988Y-92918475D01*
X125993998Y-93025612D01*
X125924904Y-93147971D01*
X125847480Y-93284228D01*
X125762503Y-93433056D01*
X125670745Y-93593131D01*
X125572981Y-93763126D01*
X125469987Y-93941717D01*
X125362536Y-94127577D01*
X125251403Y-94319382D01*
X125137363Y-94515805D01*
X125021190Y-94715522D01*
X124903658Y-94917207D01*
X124785543Y-95119534D01*
X124667619Y-95321177D01*
X124550660Y-95520813D01*
X124435441Y-95717114D01*
X124322736Y-95908756D01*
X124213320Y-96094412D01*
X124107968Y-96272758D01*
X124007453Y-96442469D01*
X123912552Y-96602217D01*
X123824037Y-96750679D01*
X123742684Y-96886529D01*
X123669267Y-97008440D01*
X123604561Y-97115089D01*
X123549340Y-97205148D01*
X123504379Y-97277293D01*
X123470452Y-97330198D01*
X123448335Y-97362538D01*
X123446833Y-97364550D01*
X123386431Y-97430507D01*
X123303417Y-97498197D01*
X123196979Y-97568203D01*
X123066303Y-97641106D01*
X123048491Y-97650315D01*
X122875231Y-97739200D01*
X122002896Y-97739200D01*
X121130560Y-97739199D01*
X120995055Y-97669816D01*
X120880360Y-97607764D01*
X120776828Y-97545151D01*
X120688311Y-97484507D01*
X120618659Y-97428362D01*
X120598668Y-97409463D01*
X120571651Y-97377516D01*
X120532671Y-97323689D01*
X120481713Y-97247957D01*
X120418762Y-97150297D01*
X120343805Y-97030684D01*
X120256828Y-96889095D01*
X120157816Y-96725506D01*
X120046755Y-96539891D01*
X119923631Y-96332229D01*
X119788429Y-96102493D01*
X119641136Y-95850661D01*
X119481737Y-95576708D01*
X119310218Y-95280610D01*
X119126565Y-94962344D01*
X118930764Y-94621884D01*
X118722800Y-94259208D01*
X118502658Y-93874292D01*
X118370881Y-93643450D01*
X118271629Y-93469448D01*
X118184194Y-93316057D01*
X118107792Y-93181834D01*
X118041640Y-93065336D01*
X117984955Y-92965120D01*
X117936953Y-92879741D01*
X117896852Y-92807756D01*
X117863868Y-92747722D01*
X117837218Y-92698196D01*
X117816120Y-92657734D01*
X117799789Y-92624893D01*
X117787442Y-92598230D01*
X117778297Y-92576300D01*
X117771570Y-92557661D01*
X117766479Y-92540870D01*
X117762239Y-92524482D01*
X117761033Y-92519500D01*
X117751402Y-92464324D01*
X117743668Y-92391014D01*
X117738108Y-92306781D01*
X117734997Y-92218840D01*
X117734612Y-92134404D01*
X117737226Y-92060685D01*
X117741710Y-92013949D01*
X117755747Y-91934245D01*
X117775489Y-91861280D01*
X117803642Y-91787485D01*
X117842913Y-91705294D01*
X117871002Y-91652349D01*
X117909851Y-91581754D01*
X117960502Y-91490954D01*
X118021960Y-91381684D01*
X118093228Y-91255679D01*
X118173312Y-91114674D01*
X118261216Y-90960405D01*
X118355943Y-90794607D01*
X118456499Y-90619014D01*
X118561887Y-90435362D01*
X118671113Y-90245387D01*
X118783180Y-90050823D01*
X118897093Y-89853405D01*
X119011856Y-89654869D01*
X119126474Y-89456950D01*
X119239950Y-89261382D01*
X119351290Y-89069902D01*
X119450304Y-88900000D01*
X119597706Y-88647540D01*
X119732885Y-88416411D01*
X119856258Y-88205911D01*
X119968245Y-88015342D01*
X120069265Y-87844003D01*
X120159737Y-87691194D01*
X120240081Y-87556216D01*
X120310714Y-87438368D01*
X120372057Y-87336952D01*
X120424528Y-87251266D01*
X120468547Y-87180611D01*
X120504533Y-87124288D01*
X120532903Y-87081595D01*
X120554079Y-87051835D01*
X120565596Y-87037460D01*
X120639028Y-86966041D01*
X120731488Y-86895185D01*
X120836818Y-86828750D01*
X120948860Y-86770596D01*
X121061456Y-86724582D01*
X121068999Y-86721984D01*
X121106639Y-86709730D01*
X121143555Y-86699238D01*
X121181920Y-86690400D01*
X121223910Y-86683107D01*
X121271699Y-86677250D01*
X121327462Y-86672720D01*
X121393372Y-86669407D01*
X121471605Y-86667204D01*
X121564334Y-86666001D01*
X121673734Y-86665690D01*
X121801980Y-86666160D01*
X121951246Y-86667305D01*
X122123706Y-86669013D01*
X122126008Y-86669038D01*
X122871766Y-86676936D01*
X123027708Y-86754938D01*
X123150592Y-86819550D01*
X123251171Y-86879554D01*
X123274469Y-86896013D01*
X123274469Y-88087200D01*
X123190193Y-88099534D01*
X123110899Y-88135466D01*
X123038419Y-88193390D01*
X122974586Y-88271701D01*
X122921232Y-88368792D01*
X122903194Y-88412634D01*
X122871043Y-88528429D01*
X122855913Y-88654516D01*
X122858198Y-88781987D01*
X122878293Y-88901931D01*
X122881062Y-88912317D01*
X122911661Y-89000488D01*
X122952920Y-89074546D01*
X123009952Y-89144371D01*
X123087190Y-89212261D01*
X123167497Y-89255949D01*
X123248870Y-89276122D01*
X123329307Y-89273469D01*
X123406806Y-89248675D01*
X123479364Y-89202428D01*
X123544979Y-89135415D01*
X123577350Y-89085665D01*
X123577350Y-90392250D01*
X123297950Y-90392275D01*
X123205762Y-90392426D01*
X123134938Y-90393088D01*
X123081444Y-90394603D01*
X123041246Y-90397313D01*
X123010309Y-90401558D01*
X122984599Y-90407681D01*
X122960081Y-90416024D01*
X122944318Y-90422214D01*
X122850099Y-90469027D01*
X122749424Y-90534702D01*
X122646902Y-90615234D01*
X122547140Y-90706620D01*
X122454747Y-90804858D01*
X122374330Y-90905945D01*
X122354076Y-90934971D01*
X122265730Y-91079276D01*
X122187050Y-91234379D01*
X122120404Y-91394337D01*
X122068157Y-91553205D01*
X122032678Y-91705039D01*
X122023310Y-91765561D01*
X122019261Y-91812033D01*
X122015993Y-91879202D01*
X122013515Y-91962379D01*
X122011833Y-92056872D01*
X122010954Y-92157993D01*
X122010886Y-92261049D01*
X122011635Y-92361352D01*
X122013208Y-92454210D01*
X122015614Y-92534934D01*
X122018858Y-92598832D01*
X122021995Y-92634133D01*
X122051260Y-92795543D01*
X122099642Y-92964564D01*
X122164817Y-93135185D01*
X122244459Y-93301399D01*
X122336245Y-93457196D01*
X122346112Y-93472136D01*
X122420341Y-93571768D01*
X122508103Y-93670457D01*
X122604832Y-93764216D01*
X122705961Y-93849058D01*
X122806923Y-93920994D01*
X122903151Y-93976037D01*
X122944318Y-93994485D01*
X122970052Y-94004317D01*
X122994564Y-94011726D01*
X123021891Y-94017054D01*
X123056065Y-94020641D01*
X123101123Y-94022829D01*
X123161098Y-94023960D01*
X123240026Y-94024376D01*
X123297950Y-94024424D01*
X123577350Y-94024450D01*
X123690835Y-93969928D01*
X123841315Y-93883662D01*
X123981985Y-93774446D01*
X124112065Y-93643073D01*
X124230772Y-93490333D01*
X124337323Y-93317020D01*
X124339379Y-93313250D01*
X124378000Y-93236460D01*
X124416457Y-93149555D01*
X124453244Y-93057039D01*
X124486855Y-92963419D01*
X124515784Y-92873199D01*
X124538526Y-92790884D01*
X124553575Y-92720980D01*
X124559424Y-92667991D01*
X124559137Y-92655746D01*
X124556792Y-92633154D01*
X124551730Y-92614782D01*
X124541491Y-92600111D01*
X124523615Y-92588619D01*
X124495640Y-92579788D01*
X124455107Y-92573095D01*
X124399555Y-92568022D01*
X124326525Y-92564048D01*
X124233554Y-92560653D01*
X124118184Y-92557316D01*
X124089997Y-92556550D01*
X123990163Y-92553453D01*
X123896344Y-92549794D01*
X123812158Y-92545770D01*
X123741219Y-92541582D01*
X123687143Y-92537427D01*
X123653548Y-92533506D01*
X123647174Y-92532192D01*
X123581352Y-92501454D01*
X123522200Y-92446979D01*
X123475070Y-92377499D01*
X123455407Y-92338590D01*
X123444074Y-92303932D01*
X123438885Y-92263638D01*
X123437650Y-92208350D01*
X123438908Y-92152691D01*
X123444137Y-92112481D01*
X123455528Y-92077829D01*
X123475070Y-92039200D01*
X123526906Y-91964238D01*
X123586416Y-91911844D01*
X123646719Y-91884629D01*
X123671969Y-91880848D01*
X123718997Y-91876725D01*
X123784187Y-91872463D01*
X123863923Y-91868266D01*
X123954589Y-91864336D01*
X124052569Y-91860878D01*
X124088210Y-91859808D01*
X124186917Y-91856596D01*
X124278701Y-91852869D01*
X124360130Y-91848827D01*
X124427774Y-91844664D01*
X124478203Y-91840579D01*
X124507983Y-91836768D01*
X124513203Y-91835421D01*
X124539534Y-91821790D01*
X124557305Y-91802679D01*
X124566383Y-91775303D01*
X124566637Y-91736877D01*
X124557932Y-91684617D01*
X124540138Y-91615737D01*
X124513119Y-91527454D01*
X124496022Y-91474899D01*
X124414892Y-91261416D01*
X124318758Y-91068055D01*
X124207260Y-90894184D01*
X124080039Y-90739170D01*
X124072076Y-90730645D01*
X123958212Y-90620980D01*
X123840760Y-90531642D01*
X123713143Y-90457735D01*
X123690835Y-90446771D01*
X123577350Y-90392250D01*
X123577350Y-89085665D01*
X123601648Y-89048322D01*
X123647368Y-88941838D01*
X123653357Y-88923608D01*
X123684114Y-88790386D01*
X123692778Y-88658606D01*
X123679917Y-88531300D01*
X123646100Y-88411504D01*
X123591894Y-88302252D01*
X123519395Y-88208186D01*
X123454401Y-88148261D01*
X123391353Y-88110008D01*
X123324880Y-88090771D01*
X123274469Y-88087200D01*
X123274469Y-86896013D01*
X123331782Y-86936505D01*
X123394762Y-86991955D01*
X123413019Y-87011237D01*
X123433646Y-87037724D01*
X123465033Y-87083317D01*
X123507312Y-87148234D01*
X123560612Y-87232693D01*
X123625064Y-87336912D01*
X123700799Y-87461109D01*
X123787949Y-87605502D01*
X123886642Y-87770308D01*
X123997010Y-87955746D01*
X124119184Y-88162033D01*
X124253294Y-88389388D01*
X124399471Y-88638028D01*
X124557845Y-88908171D01*
X124728547Y-89200035D01*
X124849971Y-89408000D01*
X125010519Y-89683422D01*
X125162580Y-89944837D01*
X125305797Y-90191624D01*
X125439815Y-90423160D01*
X125564280Y-90638826D01*
X125678836Y-90838001D01*
X125783127Y-91020062D01*
X125876798Y-91184389D01*
X125959494Y-91330361D01*
X126030860Y-91457356D01*
X126090540Y-91564754D01*
X126138179Y-91651934D01*
X126173422Y-91718274D01*
X126188690Y-91748259D01*
X126242598Y-91856957D01*
X126484774Y-91851126D01*
X126588571Y-91848386D01*
X126669804Y-91845538D01*
X126731308Y-91842262D01*
X126775920Y-91838239D01*
X126806474Y-91833147D01*
X126825807Y-91826666D01*
X126836753Y-91818477D01*
X126841226Y-91810865D01*
X126849170Y-91789900D01*
X126863367Y-91751593D01*
X126881402Y-91702475D01*
X126891609Y-91674520D01*
X126976547Y-91475716D01*
X127080314Y-91293414D01*
X127202491Y-91128159D01*
X127342659Y-90980496D01*
X127500399Y-90850972D01*
X127550630Y-90816037D01*
X127682132Y-90734554D01*
X127810630Y-90669397D01*
X127945073Y-90616624D01*
X128094412Y-90572290D01*
X128116834Y-90566579D01*
X128169200Y-90554105D01*
X128215243Y-90545111D01*
X128261025Y-90539028D01*
X128312606Y-90535287D01*
X128376050Y-90533316D01*
X128457418Y-90532547D01*
X128479550Y-90532479D01*
X128587520Y-90533286D01*
X128676829Y-90536862D01*
X128754147Y-90544111D01*
X128826145Y-90555936D01*
X128899492Y-90573241D01*
X128980859Y-90596930D01*
X129000250Y-90603009D01*
X129173411Y-90669185D01*
X129176062Y-90670588D01*
X129176062Y-91079285D01*
X129059818Y-91087443D01*
X128945061Y-91119554D01*
X128833762Y-91175613D01*
X128727894Y-91255614D01*
X128692964Y-91288792D01*
X128604778Y-91392278D01*
X128540715Y-91500992D01*
X128501062Y-91614011D01*
X128486106Y-91730414D01*
X128496134Y-91849279D01*
X128505409Y-91890561D01*
X128550752Y-92017599D01*
X128616887Y-92130067D01*
X128704017Y-92228266D01*
X128765234Y-92279543D01*
X128876446Y-92349130D01*
X128991569Y-92393683D01*
X129109857Y-92413136D01*
X129230561Y-92407425D01*
X129352934Y-92376483D01*
X129441503Y-92338622D01*
X129553526Y-92269714D01*
X129647636Y-92185366D01*
X129722640Y-92088085D01*
X129777343Y-91980378D01*
X129810549Y-91864751D01*
X129821065Y-91743710D01*
X129807696Y-91619763D01*
X129799933Y-91586494D01*
X129771870Y-91502534D01*
X129731873Y-91426140D01*
X129675981Y-91350826D01*
X129616459Y-91286288D01*
X129513991Y-91198581D01*
X129405121Y-91134848D01*
X129291820Y-91095085D01*
X129176062Y-91079285D01*
X129176062Y-90670588D01*
X129336314Y-90755404D01*
X129491678Y-90863357D01*
X129642223Y-90994732D01*
X129662400Y-91014429D01*
X129805292Y-91172374D01*
X129925692Y-91341253D01*
X130023188Y-91520320D01*
X130097370Y-91708825D01*
X130145426Y-91893708D01*
X130157516Y-91976264D01*
X130165193Y-92075120D01*
X130168458Y-92182755D01*
X130167312Y-92291646D01*
G36*
X151066500Y-74358500D02*
G01*
X151066500Y-73406000D01*
X152082500Y-73406000D01*
X152082500Y-74358500D01*
X151066500Y-74358500D01*
G37*
X151066500Y-74358500D02*
X151066500Y-73406000D01*
X152082500Y-73406000D01*
X152082500Y-74358500D01*
X151066500Y-74358500D01*
G36*
X153057121Y-74002265D02*
G01*
X152956142Y-74125372D01*
X152942637Y-74139136D01*
X152793365Y-74248032D01*
X152604025Y-74291455D01*
X152498137Y-74295000D01*
X152318466Y-74286862D01*
X152233050Y-74252998D01*
X152209669Y-74179232D01*
X152209500Y-74168000D01*
X152239437Y-74075039D01*
X152350825Y-74042310D01*
X152400000Y-74041000D01*
X152539441Y-74021042D01*
X152588535Y-73946783D01*
X152590500Y-73914000D01*
X152560564Y-73821039D01*
X152449176Y-73788310D01*
X152400000Y-73787000D01*
X152260560Y-73767042D01*
X152211466Y-73692783D01*
X152209500Y-73660000D01*
X152227995Y-73580944D01*
X152304958Y-73543361D01*
X152472609Y-73533073D01*
X152498137Y-73532999D01*
X152721599Y-73554802D01*
X152781000Y-73584200D01*
X152781000Y-73787000D01*
X152729408Y-73840184D01*
X152717500Y-73914000D01*
X152744093Y-74017185D01*
X152781000Y-74041000D01*
X152832593Y-73987815D01*
X152844500Y-73914000D01*
X152817908Y-73810814D01*
X152781000Y-73787000D01*
X152781000Y-73584200D01*
X152880808Y-73633597D01*
X152942637Y-73688863D01*
X153048130Y-73812747D01*
X153097916Y-73907413D01*
X153098500Y-73913999D01*
X153057121Y-74002265D01*
G37*
X153057121Y-74002265D02*
X152956142Y-74125372D01*
X152942637Y-74139136D01*
X152793365Y-74248032D01*
X152604025Y-74291455D01*
X152498137Y-74295000D01*
X152318466Y-74286862D01*
X152233050Y-74252998D01*
X152209669Y-74179232D01*
X152209500Y-74168000D01*
X152239437Y-74075039D01*
X152350825Y-74042310D01*
X152400000Y-74041000D01*
X152539441Y-74021042D01*
X152588535Y-73946783D01*
X152590500Y-73914000D01*
X152560564Y-73821039D01*
X152449176Y-73788310D01*
X152400000Y-73787000D01*
X152260560Y-73767042D01*
X152211466Y-73692783D01*
X152209500Y-73660000D01*
X152227995Y-73580944D01*
X152304958Y-73543361D01*
X152472609Y-73533073D01*
X152498137Y-73532999D01*
X152721599Y-73554802D01*
X152781000Y-73584200D01*
X152781000Y-73787000D01*
X152729408Y-73840184D01*
X152717500Y-73914000D01*
X152744093Y-74017185D01*
X152781000Y-74041000D01*
X152832593Y-73987815D01*
X152844500Y-73914000D01*
X152817908Y-73810814D01*
X152781000Y-73787000D01*
X152781000Y-73584200D01*
X152880808Y-73633597D01*
X152942637Y-73688863D01*
X153048130Y-73812747D01*
X153097916Y-73907413D01*
X153098500Y-73913999D01*
X153057121Y-74002265D01*
G36*
X153084599Y-74683432D02*
G01*
X153023531Y-74721760D01*
X152886252Y-74737165D01*
X152717500Y-74739500D01*
X152336500Y-74739500D01*
X152336500Y-74993500D01*
X152322417Y-75152555D01*
X152287235Y-75241023D01*
X152273000Y-75247500D01*
X152239177Y-75189660D01*
X152216245Y-75038563D01*
X152209500Y-74866500D01*
X152209500Y-74485500D01*
X152654000Y-74485500D01*
X152887599Y-74488926D01*
X153021424Y-74504377D01*
X153082632Y-74539613D01*
X153098377Y-74602390D01*
X153098500Y-74612500D01*
X153084599Y-74683432D01*
G37*
X153084599Y-74683432D02*
X153023531Y-74721760D01*
X152886252Y-74737165D01*
X152717500Y-74739500D01*
X152336500Y-74739500D01*
X152336500Y-74993500D01*
X152322417Y-75152555D01*
X152287235Y-75241023D01*
X152273000Y-75247500D01*
X152239177Y-75189660D01*
X152216245Y-75038563D01*
X152209500Y-74866500D01*
X152209500Y-74485500D01*
X152654000Y-74485500D01*
X152887599Y-74488926D01*
X153021424Y-74504377D01*
X153082632Y-74539613D01*
X153098377Y-74602390D01*
X153098500Y-74612500D01*
X153084599Y-74683432D01*
G36*
X153086508Y-76203242D02*
G01*
X153032428Y-76241478D01*
X152909105Y-76258966D01*
X152689383Y-76263464D01*
X152654000Y-76263500D01*
X152419964Y-76259877D01*
X152285859Y-76244045D01*
X152224710Y-76208553D01*
X152209538Y-76145956D01*
X152209500Y-76140779D01*
X152262728Y-76024146D01*
X152336500Y-75977750D01*
X152438941Y-75926672D01*
X152463500Y-75892239D01*
X152417793Y-75824633D01*
X152336500Y-75755500D01*
X152237315Y-75641389D01*
X152209500Y-75550981D01*
X152225813Y-75491122D01*
X152292320Y-75456808D01*
X152435375Y-75441342D01*
X152654000Y-75438000D01*
X152887599Y-75441426D01*
X153021424Y-75456877D01*
X153082632Y-75492113D01*
X153098377Y-75554890D01*
X153098500Y-75565000D01*
X153077200Y-75648088D01*
X152991109Y-75684809D01*
X152844500Y-75692000D01*
X152674736Y-75709586D01*
X152592595Y-75753506D01*
X152613655Y-75810500D01*
X152669875Y-75840624D01*
X152710308Y-75884279D01*
X152654000Y-75940193D01*
X152621156Y-75982676D01*
X152688360Y-76003549D01*
X152828625Y-76008527D01*
X153001151Y-76018590D01*
X153080170Y-76057487D01*
X153098500Y-76136500D01*
X153086508Y-76203242D01*
G37*
X153086508Y-76203242D02*
X153032428Y-76241478D01*
X152909105Y-76258966D01*
X152689383Y-76263464D01*
X152654000Y-76263500D01*
X152419964Y-76259877D01*
X152285859Y-76244045D01*
X152224710Y-76208553D01*
X152209538Y-76145956D01*
X152209500Y-76140779D01*
X152262728Y-76024146D01*
X152336500Y-75977750D01*
X152438941Y-75926672D01*
X152463500Y-75892239D01*
X152417793Y-75824633D01*
X152336500Y-75755500D01*
X152237315Y-75641389D01*
X152209500Y-75550981D01*
X152225813Y-75491122D01*
X152292320Y-75456808D01*
X152435375Y-75441342D01*
X152654000Y-75438000D01*
X152887599Y-75441426D01*
X153021424Y-75456877D01*
X153082632Y-75492113D01*
X153098377Y-75554890D01*
X153098500Y-75565000D01*
X153077200Y-75648088D01*
X152991109Y-75684809D01*
X152844500Y-75692000D01*
X152674736Y-75709586D01*
X152592595Y-75753506D01*
X152613655Y-75810500D01*
X152669875Y-75840624D01*
X152710308Y-75884279D01*
X152654000Y-75940193D01*
X152621156Y-75982676D01*
X152688360Y-76003549D01*
X152828625Y-76008527D01*
X153001151Y-76018590D01*
X153080170Y-76057487D01*
X153098500Y-76136500D01*
X153086508Y-76203242D01*
G36*
X153057121Y-76859765D02*
G01*
X152956142Y-76982872D01*
X152942637Y-76996636D01*
X152793365Y-77105532D01*
X152604025Y-77148955D01*
X152498137Y-77152500D01*
X152318466Y-77144362D01*
X152233050Y-77110498D01*
X152209669Y-77036732D01*
X152209500Y-77025500D01*
X152239437Y-76932539D01*
X152350825Y-76899810D01*
X152400000Y-76898500D01*
X152539441Y-76878542D01*
X152588535Y-76804283D01*
X152590500Y-76771500D01*
X152560564Y-76678539D01*
X152449176Y-76645810D01*
X152400000Y-76644500D01*
X152260560Y-76624542D01*
X152211466Y-76550283D01*
X152209500Y-76517500D01*
X152227995Y-76438444D01*
X152304958Y-76400861D01*
X152472609Y-76390573D01*
X152498137Y-76390500D01*
X152721599Y-76412302D01*
X152781000Y-76441700D01*
X152781000Y-76644500D01*
X152729408Y-76697684D01*
X152717500Y-76771500D01*
X152744093Y-76874685D01*
X152781000Y-76898500D01*
X152832593Y-76845315D01*
X152844500Y-76771500D01*
X152817908Y-76668314D01*
X152781000Y-76644500D01*
X152781000Y-76441700D01*
X152880808Y-76491097D01*
X152942637Y-76546363D01*
X153048130Y-76670247D01*
X153097916Y-76764913D01*
X153098500Y-76771500D01*
X153057121Y-76859765D01*
G37*
X153057121Y-76859765D02*
X152956142Y-76982872D01*
X152942637Y-76996636D01*
X152793365Y-77105532D01*
X152604025Y-77148955D01*
X152498137Y-77152500D01*
X152318466Y-77144362D01*
X152233050Y-77110498D01*
X152209669Y-77036732D01*
X152209500Y-77025500D01*
X152239437Y-76932539D01*
X152350825Y-76899810D01*
X152400000Y-76898500D01*
X152539441Y-76878542D01*
X152588535Y-76804283D01*
X152590500Y-76771500D01*
X152560564Y-76678539D01*
X152449176Y-76645810D01*
X152400000Y-76644500D01*
X152260560Y-76624542D01*
X152211466Y-76550283D01*
X152209500Y-76517500D01*
X152227995Y-76438444D01*
X152304958Y-76400861D01*
X152472609Y-76390573D01*
X152498137Y-76390500D01*
X152721599Y-76412302D01*
X152781000Y-76441700D01*
X152781000Y-76644500D01*
X152729408Y-76697684D01*
X152717500Y-76771500D01*
X152744093Y-76874685D01*
X152781000Y-76898500D01*
X152832593Y-76845315D01*
X152844500Y-76771500D01*
X152817908Y-76668314D01*
X152781000Y-76644500D01*
X152781000Y-76441700D01*
X152880808Y-76491097D01*
X152942637Y-76546363D01*
X153048130Y-76670247D01*
X153097916Y-76764913D01*
X153098500Y-76771500D01*
X153057121Y-76859765D01*
G36*
X153067671Y-78008333D02*
G01*
X152953940Y-78040526D01*
X152912536Y-78041500D01*
X152743492Y-78010118D01*
X152631322Y-77946250D01*
X152495542Y-77871927D01*
X152372786Y-77851000D01*
X152246044Y-77822977D01*
X152209502Y-77724941D01*
X152209500Y-77724000D01*
X152242353Y-77628257D01*
X152361170Y-77597389D01*
X152385982Y-77597000D01*
X152563301Y-77548645D01*
X152654000Y-77470000D01*
X152795089Y-77367478D01*
X152922019Y-77343000D01*
X153055065Y-77366641D01*
X153097959Y-77452144D01*
X153098500Y-77470000D01*
X153068564Y-77562960D01*
X152957176Y-77595689D01*
X152908000Y-77597000D01*
X152756761Y-77625398D01*
X152717500Y-77692250D01*
X152774297Y-77767869D01*
X152908000Y-77787500D01*
X153047441Y-77807457D01*
X153096535Y-77881716D01*
X153098500Y-77914500D01*
X153067671Y-78008333D01*
G37*
X153067671Y-78008333D02*
X152953940Y-78040526D01*
X152912536Y-78041500D01*
X152743492Y-78010118D01*
X152631322Y-77946250D01*
X152495542Y-77871927D01*
X152372786Y-77851000D01*
X152246044Y-77822977D01*
X152209502Y-77724941D01*
X152209500Y-77724000D01*
X152242353Y-77628257D01*
X152361170Y-77597389D01*
X152385982Y-77597000D01*
X152563301Y-77548645D01*
X152654000Y-77470000D01*
X152795089Y-77367478D01*
X152922019Y-77343000D01*
X153055065Y-77366641D01*
X153097959Y-77452144D01*
X153098500Y-77470000D01*
X153068564Y-77562960D01*
X152957176Y-77595689D01*
X152908000Y-77597000D01*
X152756761Y-77625398D01*
X152717500Y-77692250D01*
X152774297Y-77767869D01*
X152908000Y-77787500D01*
X153047441Y-77807457D01*
X153096535Y-77881716D01*
X153098500Y-77914500D01*
X153067671Y-78008333D01*
G36*
X153096879Y-78815929D02*
G01*
X153035526Y-78933281D01*
X152998057Y-78955456D01*
X152885441Y-78988907D01*
X152848004Y-78947665D01*
X152844500Y-78867000D01*
X152871093Y-78763814D01*
X152908000Y-78740000D01*
X152964336Y-78688567D01*
X152971500Y-78644750D01*
X152918561Y-78567178D01*
X152844500Y-78549500D01*
X152750717Y-78580277D01*
X152718492Y-78693874D01*
X152717500Y-78735720D01*
X152669006Y-78900627D01*
X152536527Y-78980325D01*
X152339574Y-78963216D01*
X152336500Y-78962250D01*
X152247052Y-78899520D01*
X152213503Y-78764821D01*
X152211916Y-78688095D01*
X152236734Y-78511469D01*
X152294391Y-78385212D01*
X152304486Y-78374875D01*
X152409663Y-78302764D01*
X152456203Y-78337355D01*
X152463500Y-78422500D01*
X152436908Y-78525685D01*
X152400000Y-78549500D01*
X152343665Y-78600932D01*
X152336500Y-78644750D01*
X152389440Y-78722321D01*
X152463500Y-78740000D01*
X152568903Y-78695872D01*
X152590500Y-78608464D01*
X152634674Y-78456275D01*
X152739440Y-78335365D01*
X152844500Y-78295500D01*
X152962675Y-78349073D01*
X153050660Y-78481731D01*
X153098659Y-78651381D01*
X153096879Y-78815929D01*
G37*
X153096879Y-78815929D02*
X153035526Y-78933281D01*
X152998057Y-78955456D01*
X152885441Y-78988907D01*
X152848004Y-78947665D01*
X152844500Y-78867000D01*
X152871093Y-78763814D01*
X152908000Y-78740000D01*
X152964336Y-78688567D01*
X152971500Y-78644750D01*
X152918561Y-78567178D01*
X152844500Y-78549500D01*
X152750717Y-78580277D01*
X152718492Y-78693874D01*
X152717500Y-78735720D01*
X152669006Y-78900627D01*
X152536527Y-78980325D01*
X152339574Y-78963216D01*
X152336500Y-78962250D01*
X152247052Y-78899520D01*
X152213503Y-78764821D01*
X152211916Y-78688095D01*
X152236734Y-78511469D01*
X152294391Y-78385212D01*
X152304486Y-78374875D01*
X152409663Y-78302764D01*
X152456203Y-78337355D01*
X152463500Y-78422500D01*
X152436908Y-78525685D01*
X152400000Y-78549500D01*
X152343665Y-78600932D01*
X152336500Y-78644750D01*
X152389440Y-78722321D01*
X152463500Y-78740000D01*
X152568903Y-78695872D01*
X152590500Y-78608464D01*
X152634674Y-78456275D01*
X152739440Y-78335365D01*
X152844500Y-78295500D01*
X152962675Y-78349073D01*
X153050660Y-78481731D01*
X153098659Y-78651381D01*
X153096879Y-78815929D01*
G36*
X152418599Y-79735128D02*
G01*
X152336500Y-79756000D01*
X152230372Y-79711098D01*
X152209500Y-79629000D01*
X152254402Y-79522871D01*
X152336500Y-79502000D01*
X152442629Y-79546901D01*
X152463500Y-79629000D01*
X152418599Y-79735128D01*
G37*
X152418599Y-79735128D02*
X152336500Y-79756000D01*
X152230372Y-79711098D01*
X152209500Y-79629000D01*
X152254402Y-79522871D01*
X152336500Y-79502000D01*
X152442629Y-79546901D01*
X152463500Y-79629000D01*
X152418599Y-79735128D01*
G36*
X155100255Y-74072981D02*
G01*
X155018636Y-74231253D01*
X154899319Y-74287988D01*
X154755979Y-74233070D01*
X154677574Y-74158283D01*
X154559000Y-74021567D01*
X154440427Y-74158283D01*
X154323005Y-74272657D01*
X154259456Y-74277222D01*
X154241500Y-74182018D01*
X154289411Y-74059249D01*
X154368500Y-73977500D01*
X154466002Y-73889360D01*
X154495500Y-73836481D01*
X154442200Y-73796246D01*
X154368500Y-73787000D01*
X154262372Y-73742098D01*
X154241500Y-73660000D01*
X154253493Y-73593257D01*
X154307573Y-73555021D01*
X154430896Y-73537533D01*
X154650618Y-73533035D01*
X154686000Y-73533000D01*
X154876500Y-73533000D01*
X154876500Y-73787000D01*
X154770372Y-73831901D01*
X154749500Y-73914000D01*
X154794402Y-74020128D01*
X154876500Y-74041000D01*
X154982629Y-73996098D01*
X155003500Y-73914000D01*
X154958599Y-73807871D01*
X154876500Y-73787000D01*
X154876500Y-73533000D01*
X155130500Y-73533000D01*
X155130500Y-73823285D01*
X155100255Y-74072981D01*
G37*
X155100255Y-74072981D02*
X155018636Y-74231253D01*
X154899319Y-74287988D01*
X154755979Y-74233070D01*
X154677574Y-74158283D01*
X154559000Y-74021567D01*
X154440427Y-74158283D01*
X154323005Y-74272657D01*
X154259456Y-74277222D01*
X154241500Y-74182018D01*
X154289411Y-74059249D01*
X154368500Y-73977500D01*
X154466002Y-73889360D01*
X154495500Y-73836481D01*
X154442200Y-73796246D01*
X154368500Y-73787000D01*
X154262372Y-73742098D01*
X154241500Y-73660000D01*
X154253493Y-73593257D01*
X154307573Y-73555021D01*
X154430896Y-73537533D01*
X154650618Y-73533035D01*
X154686000Y-73533000D01*
X154876500Y-73533000D01*
X154876500Y-73787000D01*
X154770372Y-73831901D01*
X154749500Y-73914000D01*
X154794402Y-74020128D01*
X154876500Y-74041000D01*
X154982629Y-73996098D01*
X155003500Y-73914000D01*
X154958599Y-73807871D01*
X154876500Y-73787000D01*
X154876500Y-73533000D01*
X155130500Y-73533000D01*
X155130500Y-73823285D01*
X155100255Y-74072981D01*
G36*
X155120861Y-75069442D02*
G01*
X155095678Y-75207030D01*
X155067000Y-75247500D01*
X155027237Y-75191165D01*
X155005120Y-75050436D01*
X155003500Y-74993500D01*
X154992850Y-74827323D01*
X154949805Y-74753880D01*
X154876500Y-74739500D01*
X154770372Y-74784401D01*
X154749500Y-74866500D01*
X154722908Y-74969685D01*
X154686000Y-74993500D01*
X154634408Y-74940315D01*
X154622500Y-74866500D01*
X154577599Y-74760371D01*
X154495500Y-74739500D01*
X154412412Y-74760800D01*
X154375691Y-74846891D01*
X154368500Y-74993500D01*
X154354417Y-75152555D01*
X154319235Y-75241023D01*
X154305000Y-75247500D01*
X154271177Y-75189660D01*
X154248245Y-75038563D01*
X154241500Y-74866500D01*
X154241500Y-74485500D01*
X155130500Y-74485500D01*
X155130500Y-74866500D01*
X155120861Y-75069442D01*
G37*
X155120861Y-75069442D02*
X155095678Y-75207030D01*
X155067000Y-75247500D01*
X155027237Y-75191165D01*
X155005120Y-75050436D01*
X155003500Y-74993500D01*
X154992850Y-74827323D01*
X154949805Y-74753880D01*
X154876500Y-74739500D01*
X154770372Y-74784401D01*
X154749500Y-74866500D01*
X154722908Y-74969685D01*
X154686000Y-74993500D01*
X154634408Y-74940315D01*
X154622500Y-74866500D01*
X154577599Y-74760371D01*
X154495500Y-74739500D01*
X154412412Y-74760800D01*
X154375691Y-74846891D01*
X154368500Y-74993500D01*
X154354417Y-75152555D01*
X154319235Y-75241023D01*
X154305000Y-75247500D01*
X154271177Y-75189660D01*
X154248245Y-75038563D01*
X154241500Y-74866500D01*
X154241500Y-74485500D01*
X155130500Y-74485500D01*
X155130500Y-74866500D01*
X155120861Y-75069442D01*
G36*
X155089121Y-75907265D02*
G01*
X154988142Y-76030372D01*
X154974637Y-76044136D01*
X154825365Y-76153032D01*
X154636025Y-76196455D01*
X154530137Y-76200000D01*
X154350466Y-76191862D01*
X154265050Y-76157998D01*
X154241669Y-76084232D01*
X154241500Y-76073000D01*
X154271437Y-75980039D01*
X154382825Y-75947310D01*
X154432000Y-75946000D01*
X154571441Y-75926042D01*
X154620535Y-75851783D01*
X154622500Y-75819000D01*
X154592564Y-75726039D01*
X154481176Y-75693310D01*
X154432000Y-75692000D01*
X154292560Y-75672042D01*
X154243466Y-75597783D01*
X154241500Y-75565000D01*
X154259995Y-75485944D01*
X154336958Y-75448361D01*
X154504609Y-75438073D01*
X154530137Y-75438000D01*
X154753599Y-75459802D01*
X154813000Y-75489200D01*
X154813000Y-75692000D01*
X154761408Y-75745184D01*
X154749500Y-75819000D01*
X154776093Y-75922185D01*
X154813000Y-75946000D01*
X154864593Y-75892815D01*
X154876500Y-75819000D01*
X154849908Y-75715814D01*
X154813000Y-75692000D01*
X154813000Y-75489200D01*
X154912808Y-75538597D01*
X154974637Y-75593863D01*
X155080130Y-75717747D01*
X155129916Y-75812413D01*
X155130500Y-75819000D01*
X155089121Y-75907265D01*
G37*
X155089121Y-75907265D02*
X154988142Y-76030372D01*
X154974637Y-76044136D01*
X154825365Y-76153032D01*
X154636025Y-76196455D01*
X154530137Y-76200000D01*
X154350466Y-76191862D01*
X154265050Y-76157998D01*
X154241669Y-76084232D01*
X154241500Y-76073000D01*
X154271437Y-75980039D01*
X154382825Y-75947310D01*
X154432000Y-75946000D01*
X154571441Y-75926042D01*
X154620535Y-75851783D01*
X154622500Y-75819000D01*
X154592564Y-75726039D01*
X154481176Y-75693310D01*
X154432000Y-75692000D01*
X154292560Y-75672042D01*
X154243466Y-75597783D01*
X154241500Y-75565000D01*
X154259995Y-75485944D01*
X154336958Y-75448361D01*
X154504609Y-75438073D01*
X154530137Y-75438000D01*
X154753599Y-75459802D01*
X154813000Y-75489200D01*
X154813000Y-75692000D01*
X154761408Y-75745184D01*
X154749500Y-75819000D01*
X154776093Y-75922185D01*
X154813000Y-75946000D01*
X154864593Y-75892815D01*
X154876500Y-75819000D01*
X154849908Y-75715814D01*
X154813000Y-75692000D01*
X154813000Y-75489200D01*
X154912808Y-75538597D01*
X154974637Y-75593863D01*
X155080130Y-75717747D01*
X155129916Y-75812413D01*
X155130500Y-75819000D01*
X155089121Y-75907265D01*
G36*
X155083172Y-76827777D02*
G01*
X154961820Y-77011375D01*
X154797400Y-77129046D01*
X154686000Y-77152500D01*
X154510357Y-77095336D01*
X154358345Y-76948769D01*
X154260919Y-76750184D01*
X154241500Y-76615636D01*
X154241500Y-76390500D01*
X154686000Y-76390500D01*
X154686000Y-76644500D01*
X154481106Y-76650599D01*
X154388141Y-76675991D01*
X154392332Y-76731312D01*
X154459215Y-76807785D01*
X154596352Y-76883520D01*
X154686000Y-76898500D01*
X154821304Y-76862386D01*
X154945244Y-76778967D01*
X155003302Y-76685627D01*
X155003500Y-76680785D01*
X154946355Y-76660080D01*
X154800251Y-76646943D01*
X154686000Y-76644500D01*
X154686000Y-76390500D01*
X155130500Y-76390500D01*
X155130500Y-76615636D01*
X155083172Y-76827777D01*
G37*
X155083172Y-76827777D02*
X154961820Y-77011375D01*
X154797400Y-77129046D01*
X154686000Y-77152500D01*
X154510357Y-77095336D01*
X154358345Y-76948769D01*
X154260919Y-76750184D01*
X154241500Y-76615636D01*
X154241500Y-76390500D01*
X154686000Y-76390500D01*
X154686000Y-76644500D01*
X154481106Y-76650599D01*
X154388141Y-76675991D01*
X154392332Y-76731312D01*
X154459215Y-76807785D01*
X154596352Y-76883520D01*
X154686000Y-76898500D01*
X154821304Y-76862386D01*
X154945244Y-76778967D01*
X155003302Y-76685627D01*
X155003500Y-76680785D01*
X154946355Y-76660080D01*
X154800251Y-76646943D01*
X154686000Y-76644500D01*
X154686000Y-76390500D01*
X155130500Y-76390500D01*
X155130500Y-76615636D01*
X155083172Y-76827777D01*
G36*
X155099671Y-78008333D02*
G01*
X154985940Y-78040526D01*
X154944536Y-78041500D01*
X154775492Y-78010118D01*
X154663322Y-77946250D01*
X154527542Y-77871927D01*
X154404786Y-77851000D01*
X154278044Y-77822977D01*
X154241502Y-77724941D01*
X154241500Y-77724000D01*
X154274353Y-77628257D01*
X154393170Y-77597389D01*
X154417982Y-77597000D01*
X154595301Y-77548645D01*
X154686000Y-77470000D01*
X154827089Y-77367478D01*
X154954019Y-77343000D01*
X155087065Y-77366641D01*
X155129959Y-77452144D01*
X155130500Y-77470000D01*
X155100564Y-77562960D01*
X154989176Y-77595689D01*
X154940000Y-77597000D01*
X154788761Y-77625398D01*
X154749500Y-77692250D01*
X154806297Y-77767869D01*
X154940000Y-77787500D01*
X155079441Y-77807457D01*
X155128535Y-77881716D01*
X155130500Y-77914500D01*
X155099671Y-78008333D01*
G37*
X155099671Y-78008333D02*
X154985940Y-78040526D01*
X154944536Y-78041500D01*
X154775492Y-78010118D01*
X154663322Y-77946250D01*
X154527542Y-77871927D01*
X154404786Y-77851000D01*
X154278044Y-77822977D01*
X154241502Y-77724941D01*
X154241500Y-77724000D01*
X154274353Y-77628257D01*
X154393170Y-77597389D01*
X154417982Y-77597000D01*
X154595301Y-77548645D01*
X154686000Y-77470000D01*
X154827089Y-77367478D01*
X154954019Y-77343000D01*
X155087065Y-77366641D01*
X155129959Y-77452144D01*
X155130500Y-77470000D01*
X155100564Y-77562960D01*
X154989176Y-77595689D01*
X154940000Y-77597000D01*
X154788761Y-77625398D01*
X154749500Y-77692250D01*
X154806297Y-77767869D01*
X154940000Y-77787500D01*
X155079441Y-77807457D01*
X155128535Y-77881716D01*
X155130500Y-77914500D01*
X155099671Y-78008333D01*
G36*
X154450599Y-78782628D02*
G01*
X154368500Y-78803500D01*
X154262372Y-78758598D01*
X154241500Y-78676500D01*
X154286402Y-78570371D01*
X154368500Y-78549500D01*
X154474629Y-78594401D01*
X154495500Y-78676500D01*
X154450599Y-78782628D01*
G37*
X154450599Y-78782628D02*
X154368500Y-78803500D01*
X154262372Y-78758598D01*
X154241500Y-78676500D01*
X154286402Y-78570371D01*
X154368500Y-78549500D01*
X154474629Y-78594401D01*
X154495500Y-78676500D01*
X154450599Y-78782628D01*
G36*
X157114109Y-75095261D02*
G01*
X157071786Y-75156785D01*
X156967347Y-75238581D01*
X156917616Y-75209958D01*
X156908500Y-75120500D01*
X156935093Y-75017314D01*
X156972000Y-74993500D01*
X157023593Y-74940315D01*
X157035500Y-74866500D01*
X156990599Y-74760371D01*
X156908500Y-74739500D01*
X156809924Y-74775528D01*
X156781502Y-74901575D01*
X156781500Y-74902785D01*
X156740294Y-75074420D01*
X156638972Y-75204110D01*
X156527500Y-75247500D01*
X156404552Y-75192327D01*
X156317588Y-75054632D01*
X156276329Y-74876144D01*
X156290495Y-74698596D01*
X156368486Y-74564875D01*
X156505849Y-74507141D01*
X156527500Y-74505046D01*
X156527500Y-74739500D01*
X156421372Y-74784401D01*
X156400500Y-74866500D01*
X156445402Y-74972628D01*
X156527500Y-74993500D01*
X156633629Y-74948598D01*
X156654500Y-74866500D01*
X156609599Y-74760371D01*
X156527500Y-74739500D01*
X156527500Y-74505046D01*
X156704122Y-74487955D01*
X156906024Y-74506393D01*
X157054277Y-74561532D01*
X157071786Y-74576214D01*
X157143523Y-74722541D01*
X157157631Y-74917178D01*
X157114109Y-75095261D01*
G37*
X157114109Y-75095261D02*
X157071786Y-75156785D01*
X156967347Y-75238581D01*
X156917616Y-75209958D01*
X156908500Y-75120500D01*
X156935093Y-75017314D01*
X156972000Y-74993500D01*
X157023593Y-74940315D01*
X157035500Y-74866500D01*
X156990599Y-74760371D01*
X156908500Y-74739500D01*
X156809924Y-74775528D01*
X156781502Y-74901575D01*
X156781500Y-74902785D01*
X156740294Y-75074420D01*
X156638972Y-75204110D01*
X156527500Y-75247500D01*
X156404552Y-75192327D01*
X156317588Y-75054632D01*
X156276329Y-74876144D01*
X156290495Y-74698596D01*
X156368486Y-74564875D01*
X156505849Y-74507141D01*
X156527500Y-74505046D01*
X156527500Y-74739500D01*
X156421372Y-74784401D01*
X156400500Y-74866500D01*
X156445402Y-74972628D01*
X156527500Y-74993500D01*
X156633629Y-74948598D01*
X156654500Y-74866500D01*
X156609599Y-74760371D01*
X156527500Y-74739500D01*
X156527500Y-74505046D01*
X156704122Y-74487955D01*
X156906024Y-74506393D01*
X157054277Y-74561532D01*
X157071786Y-74576214D01*
X157143523Y-74722541D01*
X157157631Y-74917178D01*
X157114109Y-75095261D01*
G36*
X157049428Y-76181790D02*
G01*
X156860875Y-76212341D01*
X156565309Y-76223822D01*
X156378631Y-76197012D01*
X156287648Y-76128617D01*
X156273500Y-76065597D01*
X156321860Y-75964900D01*
X156400500Y-75946000D01*
X156483589Y-75924699D01*
X156520310Y-75838608D01*
X156527500Y-75692000D01*
X156538151Y-75525823D01*
X156581196Y-75452380D01*
X156654500Y-75438000D01*
X156760629Y-75482901D01*
X156781500Y-75565000D01*
X156754908Y-75668185D01*
X156718000Y-75692000D01*
X156666408Y-75745184D01*
X156654500Y-75819000D01*
X156681093Y-75922185D01*
X156718000Y-75946000D01*
X156769593Y-75892815D01*
X156781500Y-75819000D01*
X156794156Y-75717363D01*
X156844385Y-75707926D01*
X156950586Y-75793044D01*
X157006637Y-75847863D01*
X157136755Y-76006477D01*
X157152120Y-76115034D01*
X157049428Y-76181790D01*
G37*
X157049428Y-76181790D02*
X156860875Y-76212341D01*
X156565309Y-76223822D01*
X156378631Y-76197012D01*
X156287648Y-76128617D01*
X156273500Y-76065597D01*
X156321860Y-75964900D01*
X156400500Y-75946000D01*
X156483589Y-75924699D01*
X156520310Y-75838608D01*
X156527500Y-75692000D01*
X156538151Y-75525823D01*
X156581196Y-75452380D01*
X156654500Y-75438000D01*
X156760629Y-75482901D01*
X156781500Y-75565000D01*
X156754908Y-75668185D01*
X156718000Y-75692000D01*
X156666408Y-75745184D01*
X156654500Y-75819000D01*
X156681093Y-75922185D01*
X156718000Y-75946000D01*
X156769593Y-75892815D01*
X156781500Y-75819000D01*
X156794156Y-75717363D01*
X156844385Y-75707926D01*
X156950586Y-75793044D01*
X157006637Y-75847863D01*
X157136755Y-76006477D01*
X157152120Y-76115034D01*
X157049428Y-76181790D01*
G36*
X157117599Y-76623628D02*
G01*
X157035500Y-76644500D01*
X156932232Y-76665266D01*
X156908500Y-76693981D01*
X156954351Y-76765017D01*
X157035500Y-76835000D01*
X157116760Y-76929305D01*
X157162461Y-77044200D01*
X157159300Y-77132204D01*
X157124477Y-77152500D01*
X157061598Y-77110282D01*
X156949281Y-77004371D01*
X156902227Y-76955284D01*
X156718000Y-76758069D01*
X156533774Y-76955284D01*
X156412054Y-77076872D01*
X156326801Y-77146276D01*
X156311524Y-77152500D01*
X156269243Y-77107716D01*
X156284520Y-77005019D01*
X156344049Y-76891883D01*
X156400500Y-76835000D01*
X156498002Y-76746860D01*
X156527500Y-76693981D01*
X156474200Y-76653746D01*
X156400500Y-76644500D01*
X156294372Y-76599598D01*
X156273500Y-76517500D01*
X156285493Y-76450757D01*
X156339573Y-76412521D01*
X156462896Y-76395033D01*
X156682618Y-76390535D01*
X156718000Y-76390500D01*
X156951599Y-76393926D01*
X157085424Y-76409377D01*
X157146632Y-76444613D01*
X157162377Y-76507390D01*
X157162500Y-76517500D01*
X157117599Y-76623628D01*
G37*
X157117599Y-76623628D02*
X157035500Y-76644500D01*
X156932232Y-76665266D01*
X156908500Y-76693981D01*
X156954351Y-76765017D01*
X157035500Y-76835000D01*
X157116760Y-76929305D01*
X157162461Y-77044200D01*
X157159300Y-77132204D01*
X157124477Y-77152500D01*
X157061598Y-77110282D01*
X156949281Y-77004371D01*
X156902227Y-76955284D01*
X156718000Y-76758069D01*
X156533774Y-76955284D01*
X156412054Y-77076872D01*
X156326801Y-77146276D01*
X156311524Y-77152500D01*
X156269243Y-77107716D01*
X156284520Y-77005019D01*
X156344049Y-76891883D01*
X156400500Y-76835000D01*
X156498002Y-76746860D01*
X156527500Y-76693981D01*
X156474200Y-76653746D01*
X156400500Y-76644500D01*
X156294372Y-76599598D01*
X156273500Y-76517500D01*
X156285493Y-76450757D01*
X156339573Y-76412521D01*
X156462896Y-76395033D01*
X156682618Y-76390535D01*
X156718000Y-76390500D01*
X156951599Y-76393926D01*
X157085424Y-76409377D01*
X157146632Y-76444613D01*
X157162377Y-76507390D01*
X157162500Y-76517500D01*
X157117599Y-76623628D01*
G36*
X157147933Y-78818918D02*
G01*
X157099798Y-78930629D01*
X157062057Y-78955456D01*
X156868840Y-78989861D01*
X156714317Y-78916319D01*
X156690786Y-78894214D01*
X156603001Y-78827634D01*
X156526823Y-78860225D01*
X156491215Y-78894214D01*
X156367227Y-78983960D01*
X156292214Y-78962894D01*
X156273500Y-78871279D01*
X156326728Y-78754646D01*
X156400500Y-78708250D01*
X156503124Y-78651240D01*
X156527500Y-78608720D01*
X156474278Y-78560592D01*
X156400500Y-78549500D01*
X156294372Y-78504598D01*
X156273500Y-78422500D01*
X156285493Y-78355757D01*
X156339573Y-78317521D01*
X156462896Y-78300033D01*
X156682618Y-78295535D01*
X156718000Y-78295500D01*
X156908500Y-78295500D01*
X156908500Y-78549500D01*
X156805072Y-78589204D01*
X156781500Y-78644750D01*
X156834440Y-78722321D01*
X156908500Y-78740000D01*
X157011929Y-78700295D01*
X157035500Y-78644750D01*
X156982561Y-78567178D01*
X156908500Y-78549500D01*
X156908500Y-78295500D01*
X157162500Y-78295500D01*
X157162500Y-78606206D01*
X157147933Y-78818918D01*
G37*
X157147933Y-78818918D02*
X157099798Y-78930629D01*
X157062057Y-78955456D01*
X156868840Y-78989861D01*
X156714317Y-78916319D01*
X156690786Y-78894214D01*
X156603001Y-78827634D01*
X156526823Y-78860225D01*
X156491215Y-78894214D01*
X156367227Y-78983960D01*
X156292214Y-78962894D01*
X156273500Y-78871279D01*
X156326728Y-78754646D01*
X156400500Y-78708250D01*
X156503124Y-78651240D01*
X156527500Y-78608720D01*
X156474278Y-78560592D01*
X156400500Y-78549500D01*
X156294372Y-78504598D01*
X156273500Y-78422500D01*
X156285493Y-78355757D01*
X156339573Y-78317521D01*
X156462896Y-78300033D01*
X156682618Y-78295535D01*
X156718000Y-78295500D01*
X156908500Y-78295500D01*
X156908500Y-78549500D01*
X156805072Y-78589204D01*
X156781500Y-78644750D01*
X156834440Y-78722321D01*
X156908500Y-78740000D01*
X157011929Y-78700295D01*
X157035500Y-78644750D01*
X156982561Y-78567178D01*
X156908500Y-78549500D01*
X156908500Y-78295500D01*
X157162500Y-78295500D01*
X157162500Y-78606206D01*
X157147933Y-78818918D01*
G36*
X157058118Y-79798751D02*
G01*
X157025784Y-79827926D01*
X156836604Y-79920180D01*
X156581284Y-79946500D01*
X156394425Y-79939374D01*
X156302629Y-79909317D01*
X156274345Y-79843310D01*
X156273500Y-79819500D01*
X156303437Y-79726539D01*
X156414825Y-79693810D01*
X156464000Y-79692500D01*
X156615240Y-79664101D01*
X156654500Y-79597250D01*
X156597704Y-79521630D01*
X156464000Y-79502000D01*
X156324560Y-79482042D01*
X156275466Y-79407783D01*
X156273500Y-79375000D01*
X156291995Y-79295944D01*
X156368958Y-79258361D01*
X156536609Y-79248073D01*
X156562137Y-79248000D01*
X156785599Y-79269802D01*
X156845000Y-79299200D01*
X156845000Y-79502000D01*
X156788665Y-79553432D01*
X156781500Y-79597250D01*
X156815789Y-79681753D01*
X156845000Y-79692500D01*
X156901336Y-79641067D01*
X156908500Y-79597250D01*
X156874212Y-79512746D01*
X156845000Y-79502000D01*
X156845000Y-79299200D01*
X156944808Y-79348597D01*
X157006637Y-79403863D01*
X157131063Y-79555856D01*
X157147722Y-79676394D01*
X157058118Y-79798751D01*
G37*
X157058118Y-79798751D02*
X157025784Y-79827926D01*
X156836604Y-79920180D01*
X156581284Y-79946500D01*
X156394425Y-79939374D01*
X156302629Y-79909317D01*
X156274345Y-79843310D01*
X156273500Y-79819500D01*
X156303437Y-79726539D01*
X156414825Y-79693810D01*
X156464000Y-79692500D01*
X156615240Y-79664101D01*
X156654500Y-79597250D01*
X156597704Y-79521630D01*
X156464000Y-79502000D01*
X156324560Y-79482042D01*
X156275466Y-79407783D01*
X156273500Y-79375000D01*
X156291995Y-79295944D01*
X156368958Y-79258361D01*
X156536609Y-79248073D01*
X156562137Y-79248000D01*
X156785599Y-79269802D01*
X156845000Y-79299200D01*
X156845000Y-79502000D01*
X156788665Y-79553432D01*
X156781500Y-79597250D01*
X156815789Y-79681753D01*
X156845000Y-79692500D01*
X156901336Y-79641067D01*
X156908500Y-79597250D01*
X156874212Y-79512746D01*
X156845000Y-79502000D01*
X156845000Y-79299200D01*
X156944808Y-79348597D01*
X157006637Y-79403863D01*
X157131063Y-79555856D01*
X157147722Y-79676394D01*
X157058118Y-79798751D01*
G36*
X157146188Y-80972877D02*
G01*
X157079681Y-81007191D01*
X156936626Y-81022657D01*
X156718000Y-81026000D01*
X156484402Y-81022573D01*
X156350577Y-81007122D01*
X156289369Y-80971886D01*
X156273624Y-80909109D01*
X156273500Y-80899000D01*
X156293563Y-80817739D01*
X156375615Y-80780258D01*
X156543375Y-80771027D01*
X156703626Y-80763654D01*
X156751899Y-80739338D01*
X156718000Y-80702693D01*
X156660504Y-80639323D01*
X156702125Y-80603124D01*
X156782428Y-80544569D01*
X156751504Y-80492258D01*
X156624931Y-80459451D01*
X156527500Y-80454500D01*
X156361324Y-80443849D01*
X156287881Y-80400804D01*
X156273500Y-80327500D01*
X156285493Y-80260757D01*
X156339573Y-80222521D01*
X156462896Y-80205033D01*
X156682618Y-80200535D01*
X156718000Y-80200500D01*
X156955872Y-80205297D01*
X157092221Y-80223614D01*
X157152298Y-80261342D01*
X157162500Y-80304176D01*
X157117645Y-80422868D01*
X157039021Y-80514946D01*
X156954184Y-80598369D01*
X156966015Y-80654074D01*
X157039021Y-80711037D01*
X157136491Y-80825111D01*
X157162500Y-80913018D01*
X157146188Y-80972877D01*
G37*
X157146188Y-80972877D02*
X157079681Y-81007191D01*
X156936626Y-81022657D01*
X156718000Y-81026000D01*
X156484402Y-81022573D01*
X156350577Y-81007122D01*
X156289369Y-80971886D01*
X156273624Y-80909109D01*
X156273500Y-80899000D01*
X156293563Y-80817739D01*
X156375615Y-80780258D01*
X156543375Y-80771027D01*
X156703626Y-80763654D01*
X156751899Y-80739338D01*
X156718000Y-80702693D01*
X156660504Y-80639323D01*
X156702125Y-80603124D01*
X156782428Y-80544569D01*
X156751504Y-80492258D01*
X156624931Y-80459451D01*
X156527500Y-80454500D01*
X156361324Y-80443849D01*
X156287881Y-80400804D01*
X156273500Y-80327500D01*
X156285493Y-80260757D01*
X156339573Y-80222521D01*
X156462896Y-80205033D01*
X156682618Y-80200535D01*
X156718000Y-80200500D01*
X156955872Y-80205297D01*
X157092221Y-80223614D01*
X157152298Y-80261342D01*
X157162500Y-80304176D01*
X157117645Y-80422868D01*
X157039021Y-80514946D01*
X156954184Y-80598369D01*
X156966015Y-80654074D01*
X157039021Y-80711037D01*
X157136491Y-80825111D01*
X157162500Y-80913018D01*
X157146188Y-80972877D01*
G36*
X157160879Y-82625929D02*
G01*
X157099526Y-82743281D01*
X157062057Y-82765456D01*
X156949441Y-82798907D01*
X156912004Y-82757665D01*
X156908500Y-82677000D01*
X156935093Y-82573814D01*
X156972000Y-82550000D01*
X157028336Y-82498567D01*
X157035500Y-82454750D01*
X156982561Y-82377178D01*
X156908500Y-82359500D01*
X156814717Y-82390277D01*
X156782492Y-82503874D01*
X156781500Y-82545720D01*
X156733006Y-82710627D01*
X156600527Y-82790325D01*
X156403574Y-82773216D01*
X156400500Y-82772250D01*
X156311052Y-82709520D01*
X156277503Y-82574821D01*
X156275916Y-82498095D01*
X156300734Y-82321469D01*
X156358391Y-82195212D01*
X156368486Y-82184875D01*
X156473663Y-82112764D01*
X156520203Y-82147355D01*
X156527500Y-82232500D01*
X156500908Y-82335685D01*
X156464000Y-82359500D01*
X156407665Y-82410932D01*
X156400500Y-82454750D01*
X156453440Y-82532321D01*
X156527500Y-82550000D01*
X156632903Y-82505872D01*
X156654500Y-82418464D01*
X156698674Y-82266275D01*
X156803440Y-82145365D01*
X156908500Y-82105500D01*
X157026675Y-82159073D01*
X157114660Y-82291731D01*
X157162659Y-82461381D01*
X157160879Y-82625929D01*
G37*
X157160879Y-82625929D02*
X157099526Y-82743281D01*
X157062057Y-82765456D01*
X156949441Y-82798907D01*
X156912004Y-82757665D01*
X156908500Y-82677000D01*
X156935093Y-82573814D01*
X156972000Y-82550000D01*
X157028336Y-82498567D01*
X157035500Y-82454750D01*
X156982561Y-82377178D01*
X156908500Y-82359500D01*
X156814717Y-82390277D01*
X156782492Y-82503874D01*
X156781500Y-82545720D01*
X156733006Y-82710627D01*
X156600527Y-82790325D01*
X156403574Y-82773216D01*
X156400500Y-82772250D01*
X156311052Y-82709520D01*
X156277503Y-82574821D01*
X156275916Y-82498095D01*
X156300734Y-82321469D01*
X156358391Y-82195212D01*
X156368486Y-82184875D01*
X156473663Y-82112764D01*
X156520203Y-82147355D01*
X156527500Y-82232500D01*
X156500908Y-82335685D01*
X156464000Y-82359500D01*
X156407665Y-82410932D01*
X156400500Y-82454750D01*
X156453440Y-82532321D01*
X156527500Y-82550000D01*
X156632903Y-82505872D01*
X156654500Y-82418464D01*
X156698674Y-82266275D01*
X156803440Y-82145365D01*
X156908500Y-82105500D01*
X157026675Y-82159073D01*
X157114660Y-82291731D01*
X157162659Y-82461381D01*
X157160879Y-82625929D01*
G36*
X157131671Y-83723333D02*
G01*
X157017940Y-83755526D01*
X156976536Y-83756500D01*
X156807492Y-83725118D01*
X156695322Y-83661250D01*
X156559542Y-83586927D01*
X156436786Y-83566000D01*
X156310044Y-83537977D01*
X156273502Y-83439941D01*
X156273500Y-83439000D01*
X156306353Y-83343257D01*
X156425170Y-83312389D01*
X156449982Y-83312000D01*
X156627301Y-83263645D01*
X156718000Y-83185000D01*
X156859089Y-83082478D01*
X156986019Y-83058000D01*
X157119065Y-83081641D01*
X157161959Y-83167144D01*
X157162500Y-83185000D01*
X157132564Y-83277960D01*
X157021176Y-83310689D01*
X156972000Y-83312000D01*
X156820761Y-83340398D01*
X156781500Y-83407250D01*
X156838297Y-83482869D01*
X156972000Y-83502500D01*
X157111441Y-83522457D01*
X157160535Y-83596716D01*
X157162500Y-83629500D01*
X157131671Y-83723333D01*
G37*
X157131671Y-83723333D02*
X157017940Y-83755526D01*
X156976536Y-83756500D01*
X156807492Y-83725118D01*
X156695322Y-83661250D01*
X156559542Y-83586927D01*
X156436786Y-83566000D01*
X156310044Y-83537977D01*
X156273502Y-83439941D01*
X156273500Y-83439000D01*
X156306353Y-83343257D01*
X156425170Y-83312389D01*
X156449982Y-83312000D01*
X156627301Y-83263645D01*
X156718000Y-83185000D01*
X156859089Y-83082478D01*
X156986019Y-83058000D01*
X157119065Y-83081641D01*
X157161959Y-83167144D01*
X157162500Y-83185000D01*
X157132564Y-83277960D01*
X157021176Y-83310689D01*
X156972000Y-83312000D01*
X156820761Y-83340398D01*
X156781500Y-83407250D01*
X156838297Y-83482869D01*
X156972000Y-83502500D01*
X157111441Y-83522457D01*
X157160535Y-83596716D01*
X157162500Y-83629500D01*
X157131671Y-83723333D01*
G36*
X157160879Y-84530929D02*
G01*
X157099526Y-84648281D01*
X157062057Y-84670456D01*
X156949441Y-84703907D01*
X156912004Y-84662665D01*
X156908500Y-84582000D01*
X156935093Y-84478814D01*
X156972000Y-84455000D01*
X157028336Y-84403567D01*
X157035500Y-84359750D01*
X156982561Y-84282178D01*
X156908500Y-84264500D01*
X156814717Y-84295277D01*
X156782492Y-84408874D01*
X156781500Y-84450720D01*
X156733006Y-84615627D01*
X156600527Y-84695325D01*
X156403574Y-84678216D01*
X156400500Y-84677250D01*
X156311052Y-84614520D01*
X156277503Y-84479821D01*
X156275916Y-84403095D01*
X156300734Y-84226469D01*
X156358391Y-84100212D01*
X156368486Y-84089875D01*
X156473663Y-84017764D01*
X156520203Y-84052355D01*
X156527500Y-84137500D01*
X156500908Y-84240685D01*
X156464000Y-84264500D01*
X156407665Y-84315932D01*
X156400500Y-84359750D01*
X156453440Y-84437321D01*
X156527500Y-84455000D01*
X156632903Y-84410872D01*
X156654500Y-84323464D01*
X156698674Y-84171275D01*
X156803440Y-84050365D01*
X156908500Y-84010500D01*
X157026675Y-84064073D01*
X157114660Y-84196731D01*
X157162659Y-84366381D01*
X157160879Y-84530929D01*
G37*
X157160879Y-84530929D02*
X157099526Y-84648281D01*
X157062057Y-84670456D01*
X156949441Y-84703907D01*
X156912004Y-84662665D01*
X156908500Y-84582000D01*
X156935093Y-84478814D01*
X156972000Y-84455000D01*
X157028336Y-84403567D01*
X157035500Y-84359750D01*
X156982561Y-84282178D01*
X156908500Y-84264500D01*
X156814717Y-84295277D01*
X156782492Y-84408874D01*
X156781500Y-84450720D01*
X156733006Y-84615627D01*
X156600527Y-84695325D01*
X156403574Y-84678216D01*
X156400500Y-84677250D01*
X156311052Y-84614520D01*
X156277503Y-84479821D01*
X156275916Y-84403095D01*
X156300734Y-84226469D01*
X156358391Y-84100212D01*
X156368486Y-84089875D01*
X156473663Y-84017764D01*
X156520203Y-84052355D01*
X156527500Y-84137500D01*
X156500908Y-84240685D01*
X156464000Y-84264500D01*
X156407665Y-84315932D01*
X156400500Y-84359750D01*
X156453440Y-84437321D01*
X156527500Y-84455000D01*
X156632903Y-84410872D01*
X156654500Y-84323464D01*
X156698674Y-84171275D01*
X156803440Y-84050365D01*
X156908500Y-84010500D01*
X157026675Y-84064073D01*
X157114660Y-84196731D01*
X157162659Y-84366381D01*
X157160879Y-84530929D01*
G36*
X157152062Y-85503511D02*
G01*
X157125134Y-85630367D01*
X157099000Y-85661500D01*
X157042665Y-85610067D01*
X157035500Y-85566250D01*
X157006240Y-85510942D01*
X156902515Y-85481248D01*
X156700407Y-85471187D01*
X156654500Y-85471000D01*
X156441704Y-85466366D01*
X156326720Y-85446010D01*
X156280505Y-85400250D01*
X156273500Y-85344000D01*
X156287402Y-85273067D01*
X156348470Y-85234739D01*
X156485749Y-85219334D01*
X156654500Y-85217000D01*
X156867297Y-85212366D01*
X156982281Y-85192010D01*
X157028496Y-85146250D01*
X157035500Y-85090000D01*
X157062093Y-84986814D01*
X157099000Y-84963000D01*
X157133775Y-85020413D01*
X157156840Y-85168518D01*
X157162500Y-85312250D01*
X157152062Y-85503511D01*
G37*
X157152062Y-85503511D02*
X157125134Y-85630367D01*
X157099000Y-85661500D01*
X157042665Y-85610067D01*
X157035500Y-85566250D01*
X157006240Y-85510942D01*
X156902515Y-85481248D01*
X156700407Y-85471187D01*
X156654500Y-85471000D01*
X156441704Y-85466366D01*
X156326720Y-85446010D01*
X156280505Y-85400250D01*
X156273500Y-85344000D01*
X156287402Y-85273067D01*
X156348470Y-85234739D01*
X156485749Y-85219334D01*
X156654500Y-85217000D01*
X156867297Y-85212366D01*
X156982281Y-85192010D01*
X157028496Y-85146250D01*
X157035500Y-85090000D01*
X157062093Y-84986814D01*
X157099000Y-84963000D01*
X157133775Y-85020413D01*
X157156840Y-85168518D01*
X157162500Y-85312250D01*
X157152062Y-85503511D01*
G36*
X157152062Y-86456011D02*
G01*
X157125134Y-86582867D01*
X157099000Y-86614000D01*
X157057029Y-86558178D01*
X157036049Y-86420917D01*
X157035500Y-86391750D01*
X157021294Y-86238570D01*
X156965834Y-86176764D01*
X156908500Y-86169500D01*
X156802372Y-86214401D01*
X156781500Y-86296500D01*
X156754908Y-86399685D01*
X156718000Y-86423500D01*
X156666408Y-86370315D01*
X156654500Y-86296500D01*
X156609599Y-86190371D01*
X156527500Y-86169500D01*
X156439969Y-86194361D01*
X156404652Y-86291416D01*
X156400500Y-86391750D01*
X156384551Y-86538650D01*
X156345334Y-86612080D01*
X156337000Y-86614000D01*
X156302226Y-86556586D01*
X156279161Y-86408481D01*
X156273500Y-86264750D01*
X156273500Y-85915500D01*
X157162500Y-85915500D01*
X157162500Y-86264750D01*
X157152062Y-86456011D01*
G37*
X157152062Y-86456011D02*
X157125134Y-86582867D01*
X157099000Y-86614000D01*
X157057029Y-86558178D01*
X157036049Y-86420917D01*
X157035500Y-86391750D01*
X157021294Y-86238570D01*
X156965834Y-86176764D01*
X156908500Y-86169500D01*
X156802372Y-86214401D01*
X156781500Y-86296500D01*
X156754908Y-86399685D01*
X156718000Y-86423500D01*
X156666408Y-86370315D01*
X156654500Y-86296500D01*
X156609599Y-86190371D01*
X156527500Y-86169500D01*
X156439969Y-86194361D01*
X156404652Y-86291416D01*
X156400500Y-86391750D01*
X156384551Y-86538650D01*
X156345334Y-86612080D01*
X156337000Y-86614000D01*
X156302226Y-86556586D01*
X156279161Y-86408481D01*
X156273500Y-86264750D01*
X156273500Y-85915500D01*
X157162500Y-85915500D01*
X157162500Y-86264750D01*
X157152062Y-86456011D01*
G36*
X157146188Y-87640377D02*
G01*
X157079681Y-87674691D01*
X156936626Y-87690157D01*
X156718000Y-87693500D01*
X156484402Y-87690073D01*
X156350577Y-87674622D01*
X156289369Y-87639386D01*
X156273624Y-87576609D01*
X156273500Y-87566500D01*
X156294233Y-87484763D01*
X156378176Y-87445997D01*
X156543375Y-87434486D01*
X156688296Y-87425171D01*
X156745195Y-87407348D01*
X156733875Y-87397445D01*
X156660078Y-87314097D01*
X156654500Y-87280750D01*
X156704722Y-87181767D01*
X156733875Y-87164054D01*
X156727762Y-87144002D01*
X156621122Y-87130026D01*
X156543375Y-87127013D01*
X156370504Y-87114045D01*
X156291439Y-87073073D01*
X156273500Y-86995000D01*
X156285493Y-86928257D01*
X156339573Y-86890021D01*
X156462896Y-86872533D01*
X156682618Y-86868035D01*
X156718000Y-86868000D01*
X156955872Y-86872797D01*
X157092221Y-86891114D01*
X157152298Y-86928842D01*
X157162500Y-86971676D01*
X157117645Y-87090368D01*
X157039021Y-87182446D01*
X156954184Y-87265869D01*
X156966015Y-87321574D01*
X157039021Y-87378537D01*
X157136491Y-87492611D01*
X157162500Y-87580518D01*
X157146188Y-87640377D01*
G37*
X157146188Y-87640377D02*
X157079681Y-87674691D01*
X156936626Y-87690157D01*
X156718000Y-87693500D01*
X156484402Y-87690073D01*
X156350577Y-87674622D01*
X156289369Y-87639386D01*
X156273624Y-87576609D01*
X156273500Y-87566500D01*
X156294233Y-87484763D01*
X156378176Y-87445997D01*
X156543375Y-87434486D01*
X156688296Y-87425171D01*
X156745195Y-87407348D01*
X156733875Y-87397445D01*
X156660078Y-87314097D01*
X156654500Y-87280750D01*
X156704722Y-87181767D01*
X156733875Y-87164054D01*
X156727762Y-87144002D01*
X156621122Y-87130026D01*
X156543375Y-87127013D01*
X156370504Y-87114045D01*
X156291439Y-87073073D01*
X156273500Y-86995000D01*
X156285493Y-86928257D01*
X156339573Y-86890021D01*
X156462896Y-86872533D01*
X156682618Y-86868035D01*
X156718000Y-86868000D01*
X156955872Y-86872797D01*
X157092221Y-86891114D01*
X157152298Y-86928842D01*
X157162500Y-86971676D01*
X157117645Y-87090368D01*
X157039021Y-87182446D01*
X156954184Y-87265869D01*
X156966015Y-87321574D01*
X157039021Y-87378537D01*
X157136491Y-87492611D01*
X157162500Y-87580518D01*
X157146188Y-87640377D01*
G36*
X157087654Y-90304606D02*
G01*
X156968520Y-90407346D01*
X156886578Y-90424000D01*
X156779024Y-90377602D01*
X156755042Y-90344625D01*
X156713340Y-90297926D01*
X156680959Y-90344625D01*
X156589796Y-90416883D01*
X156456986Y-90398589D01*
X156364215Y-90333285D01*
X156291991Y-90187933D01*
X156282875Y-90002753D01*
X156336344Y-89842213D01*
X156368486Y-89804875D01*
X156473663Y-89732764D01*
X156520203Y-89767355D01*
X156527500Y-89852500D01*
X156500908Y-89955685D01*
X156464000Y-89979500D01*
X156407665Y-90030932D01*
X156400500Y-90074750D01*
X156453440Y-90152321D01*
X156527500Y-90170000D01*
X156630929Y-90130295D01*
X156654500Y-90074750D01*
X156688789Y-89990246D01*
X156718000Y-89979500D01*
X156774336Y-90030932D01*
X156781500Y-90074750D01*
X156834440Y-90152321D01*
X156908500Y-90170000D01*
X157011929Y-90130295D01*
X157035500Y-90074750D01*
X157001212Y-89990246D01*
X156972000Y-89979500D01*
X156920408Y-89926315D01*
X156908500Y-89852500D01*
X156927027Y-89743378D01*
X156991135Y-89746703D01*
X157071786Y-89816214D01*
X157152043Y-89967179D01*
X157153081Y-90143930D01*
X157087654Y-90304606D01*
G37*
X157087654Y-90304606D02*
X156968520Y-90407346D01*
X156886578Y-90424000D01*
X156779024Y-90377602D01*
X156755042Y-90344625D01*
X156713340Y-90297926D01*
X156680959Y-90344625D01*
X156589796Y-90416883D01*
X156456986Y-90398589D01*
X156364215Y-90333285D01*
X156291991Y-90187933D01*
X156282875Y-90002753D01*
X156336344Y-89842213D01*
X156368486Y-89804875D01*
X156473663Y-89732764D01*
X156520203Y-89767355D01*
X156527500Y-89852500D01*
X156500908Y-89955685D01*
X156464000Y-89979500D01*
X156407665Y-90030932D01*
X156400500Y-90074750D01*
X156453440Y-90152321D01*
X156527500Y-90170000D01*
X156630929Y-90130295D01*
X156654500Y-90074750D01*
X156688789Y-89990246D01*
X156718000Y-89979500D01*
X156774336Y-90030932D01*
X156781500Y-90074750D01*
X156834440Y-90152321D01*
X156908500Y-90170000D01*
X157011929Y-90130295D01*
X157035500Y-90074750D01*
X157001212Y-89990246D01*
X156972000Y-89979500D01*
X156920408Y-89926315D01*
X156908500Y-89852500D01*
X156927027Y-89743378D01*
X156991135Y-89746703D01*
X157071786Y-89816214D01*
X157152043Y-89967179D01*
X157153081Y-90143930D01*
X157087654Y-90304606D01*
G36*
X157125238Y-91189105D02*
G01*
X157033761Y-91312501D01*
X156918533Y-91377258D01*
X156810017Y-91363199D01*
X156755042Y-91297125D01*
X156713340Y-91250426D01*
X156680959Y-91297125D01*
X156589796Y-91369383D01*
X156456986Y-91351089D01*
X156364215Y-91285785D01*
X156291991Y-91140433D01*
X156282875Y-90955253D01*
X156336344Y-90794713D01*
X156368486Y-90757375D01*
X156492437Y-90688821D01*
X156527500Y-90682373D01*
X156527500Y-90932000D01*
X156424072Y-90971704D01*
X156400500Y-91027250D01*
X156453440Y-91104821D01*
X156527500Y-91122500D01*
X156630929Y-91082795D01*
X156654500Y-91027250D01*
X156601561Y-90949678D01*
X156527500Y-90932000D01*
X156527500Y-90682373D01*
X156551279Y-90678000D01*
X156658003Y-90725259D01*
X156680959Y-90757375D01*
X156722661Y-90804073D01*
X156755042Y-90757375D01*
X156841205Y-90677268D01*
X156908500Y-90684721D01*
X156908500Y-90932000D01*
X156805072Y-90971704D01*
X156781500Y-91027250D01*
X156834440Y-91104821D01*
X156908500Y-91122500D01*
X157011929Y-91082795D01*
X157035500Y-91027250D01*
X156982561Y-90949678D01*
X156908500Y-90932000D01*
X156908500Y-90684721D01*
X156955071Y-90689879D01*
X157066178Y-90775032D01*
X157144060Y-90912549D01*
X157162500Y-91027250D01*
X157125238Y-91189105D01*
G37*
X157125238Y-91189105D02*
X157033761Y-91312501D01*
X156918533Y-91377258D01*
X156810017Y-91363199D01*
X156755042Y-91297125D01*
X156713340Y-91250426D01*
X156680959Y-91297125D01*
X156589796Y-91369383D01*
X156456986Y-91351089D01*
X156364215Y-91285785D01*
X156291991Y-91140433D01*
X156282875Y-90955253D01*
X156336344Y-90794713D01*
X156368486Y-90757375D01*
X156492437Y-90688821D01*
X156527500Y-90682373D01*
X156527500Y-90932000D01*
X156424072Y-90971704D01*
X156400500Y-91027250D01*
X156453440Y-91104821D01*
X156527500Y-91122500D01*
X156630929Y-91082795D01*
X156654500Y-91027250D01*
X156601561Y-90949678D01*
X156527500Y-90932000D01*
X156527500Y-90682373D01*
X156551279Y-90678000D01*
X156658003Y-90725259D01*
X156680959Y-90757375D01*
X156722661Y-90804073D01*
X156755042Y-90757375D01*
X156841205Y-90677268D01*
X156908500Y-90684721D01*
X156908500Y-90932000D01*
X156805072Y-90971704D01*
X156781500Y-91027250D01*
X156834440Y-91104821D01*
X156908500Y-91122500D01*
X157011929Y-91082795D01*
X157035500Y-91027250D01*
X156982561Y-90949678D01*
X156908500Y-90932000D01*
X156908500Y-90684721D01*
X156955071Y-90689879D01*
X157066178Y-90775032D01*
X157144060Y-90912549D01*
X157162500Y-91027250D01*
X157125238Y-91189105D01*
G36*
X157116222Y-92173813D02*
G01*
X156974347Y-92289007D01*
X156732312Y-92328916D01*
X156718000Y-92329000D01*
X156529414Y-92308059D01*
X156387002Y-92256002D01*
X156364215Y-92238285D01*
X156291991Y-92092933D01*
X156282875Y-91907753D01*
X156336344Y-91747213D01*
X156368486Y-91709875D01*
X156473663Y-91637764D01*
X156520203Y-91672355D01*
X156527500Y-91757500D01*
X156500908Y-91860685D01*
X156464000Y-91884500D01*
X156407665Y-91935932D01*
X156400500Y-91979750D01*
X156453440Y-92057321D01*
X156527500Y-92075000D01*
X156632903Y-92030872D01*
X156654500Y-91943464D01*
X156698674Y-91791275D01*
X156803440Y-91670365D01*
X156908500Y-91630500D01*
X156908500Y-91884500D01*
X156805072Y-91924204D01*
X156781500Y-91979750D01*
X156834440Y-92057321D01*
X156908500Y-92075000D01*
X157011929Y-92035295D01*
X157035500Y-91979750D01*
X156982561Y-91902178D01*
X156908500Y-91884500D01*
X156908500Y-91630500D01*
X157035292Y-91686582D01*
X157130516Y-91825163D01*
X157162500Y-91979750D01*
X157116222Y-92173813D01*
G37*
X157116222Y-92173813D02*
X156974347Y-92289007D01*
X156732312Y-92328916D01*
X156718000Y-92329000D01*
X156529414Y-92308059D01*
X156387002Y-92256002D01*
X156364215Y-92238285D01*
X156291991Y-92092933D01*
X156282875Y-91907753D01*
X156336344Y-91747213D01*
X156368486Y-91709875D01*
X156473663Y-91637764D01*
X156520203Y-91672355D01*
X156527500Y-91757500D01*
X156500908Y-91860685D01*
X156464000Y-91884500D01*
X156407665Y-91935932D01*
X156400500Y-91979750D01*
X156453440Y-92057321D01*
X156527500Y-92075000D01*
X156632903Y-92030872D01*
X156654500Y-91943464D01*
X156698674Y-91791275D01*
X156803440Y-91670365D01*
X156908500Y-91630500D01*
X156908500Y-91884500D01*
X156805072Y-91924204D01*
X156781500Y-91979750D01*
X156834440Y-92057321D01*
X156908500Y-92075000D01*
X157011929Y-92035295D01*
X157035500Y-91979750D01*
X156982561Y-91902178D01*
X156908500Y-91884500D01*
X156908500Y-91630500D01*
X157035292Y-91686582D01*
X157130516Y-91825163D01*
X157162500Y-91979750D01*
X157116222Y-92173813D01*
G36*
X157148599Y-92971432D02*
G01*
X157087531Y-93009760D01*
X156950252Y-93025165D01*
X156781500Y-93027500D01*
X156568704Y-93032133D01*
X156453720Y-93052489D01*
X156407505Y-93098249D01*
X156400500Y-93154500D01*
X156373908Y-93257685D01*
X156337000Y-93281500D01*
X156302226Y-93224086D01*
X156279161Y-93075981D01*
X156273500Y-92932250D01*
X156283939Y-92740988D01*
X156310867Y-92614132D01*
X156337000Y-92583000D01*
X156392455Y-92634797D01*
X156400500Y-92683710D01*
X156433292Y-92751044D01*
X156549694Y-92772729D01*
X156638625Y-92770084D01*
X156900377Y-92760322D01*
X157059470Y-92773509D01*
X157139077Y-92815415D01*
X157162374Y-92891808D01*
X157162500Y-92900500D01*
X157148599Y-92971432D01*
G37*
X157148599Y-92971432D02*
X157087531Y-93009760D01*
X156950252Y-93025165D01*
X156781500Y-93027500D01*
X156568704Y-93032133D01*
X156453720Y-93052489D01*
X156407505Y-93098249D01*
X156400500Y-93154500D01*
X156373908Y-93257685D01*
X156337000Y-93281500D01*
X156302226Y-93224086D01*
X156279161Y-93075981D01*
X156273500Y-92932250D01*
X156283939Y-92740988D01*
X156310867Y-92614132D01*
X156337000Y-92583000D01*
X156392455Y-92634797D01*
X156400500Y-92683710D01*
X156433292Y-92751044D01*
X156549694Y-92772729D01*
X156638625Y-92770084D01*
X156900377Y-92760322D01*
X157059470Y-92773509D01*
X157139077Y-92815415D01*
X157162374Y-92891808D01*
X157162500Y-92900500D01*
X157148599Y-92971432D01*
G36*
X157148599Y-93923932D02*
G01*
X157087531Y-93962260D01*
X156950252Y-93977665D01*
X156781500Y-93980000D01*
X156568704Y-93984633D01*
X156453720Y-94004989D01*
X156407505Y-94050749D01*
X156400500Y-94107000D01*
X156373908Y-94210185D01*
X156337000Y-94234000D01*
X156302226Y-94176586D01*
X156279161Y-94028481D01*
X156273500Y-93884750D01*
X156283939Y-93693488D01*
X156310867Y-93566632D01*
X156337000Y-93535500D01*
X156392455Y-93587297D01*
X156400500Y-93636210D01*
X156433292Y-93703544D01*
X156549694Y-93725229D01*
X156638625Y-93722584D01*
X156900377Y-93712822D01*
X157059470Y-93726009D01*
X157139077Y-93767915D01*
X157162374Y-93844308D01*
X157162500Y-93853000D01*
X157148599Y-93923932D01*
G37*
X157148599Y-93923932D02*
X157087531Y-93962260D01*
X156950252Y-93977665D01*
X156781500Y-93980000D01*
X156568704Y-93984633D01*
X156453720Y-94004989D01*
X156407505Y-94050749D01*
X156400500Y-94107000D01*
X156373908Y-94210185D01*
X156337000Y-94234000D01*
X156302226Y-94176586D01*
X156279161Y-94028481D01*
X156273500Y-93884750D01*
X156283939Y-93693488D01*
X156310867Y-93566632D01*
X156337000Y-93535500D01*
X156392455Y-93587297D01*
X156400500Y-93636210D01*
X156433292Y-93703544D01*
X156549694Y-93725229D01*
X156638625Y-93722584D01*
X156900377Y-93712822D01*
X157059470Y-93726009D01*
X157139077Y-93767915D01*
X157162374Y-93844308D01*
X157162500Y-93853000D01*
X157148599Y-93923932D01*
G36*
X157126707Y-95934868D02*
G01*
X157027476Y-96087959D01*
X156886578Y-96139000D01*
X156779024Y-96092602D01*
X156755042Y-96059625D01*
X156713340Y-96012926D01*
X156680959Y-96059625D01*
X156592050Y-96131781D01*
X156549423Y-96139000D01*
X156401521Y-96081925D01*
X156305511Y-95923701D01*
X156273500Y-95699035D01*
X156273500Y-95440500D01*
X156527500Y-95440500D01*
X156527500Y-95694500D01*
X156424072Y-95734204D01*
X156400500Y-95789750D01*
X156453440Y-95867321D01*
X156527500Y-95885000D01*
X156630929Y-95845295D01*
X156654500Y-95789750D01*
X156601561Y-95712178D01*
X156527500Y-95694500D01*
X156527500Y-95440500D01*
X156908500Y-95440500D01*
X156908500Y-95694500D01*
X156805072Y-95734204D01*
X156781500Y-95789750D01*
X156834440Y-95867321D01*
X156908500Y-95885000D01*
X157011929Y-95845295D01*
X157035500Y-95789750D01*
X156982561Y-95712178D01*
X156908500Y-95694500D01*
X156908500Y-95440500D01*
X157162500Y-95440500D01*
X157162500Y-95699035D01*
X157126707Y-95934868D01*
G37*
X157126707Y-95934868D02*
X157027476Y-96087959D01*
X156886578Y-96139000D01*
X156779024Y-96092602D01*
X156755042Y-96059625D01*
X156713340Y-96012926D01*
X156680959Y-96059625D01*
X156592050Y-96131781D01*
X156549423Y-96139000D01*
X156401521Y-96081925D01*
X156305511Y-95923701D01*
X156273500Y-95699035D01*
X156273500Y-95440500D01*
X156527500Y-95440500D01*
X156527500Y-95694500D01*
X156424072Y-95734204D01*
X156400500Y-95789750D01*
X156453440Y-95867321D01*
X156527500Y-95885000D01*
X156630929Y-95845295D01*
X156654500Y-95789750D01*
X156601561Y-95712178D01*
X156527500Y-95694500D01*
X156527500Y-95440500D01*
X156908500Y-95440500D01*
X156908500Y-95694500D01*
X156805072Y-95734204D01*
X156781500Y-95789750D01*
X156834440Y-95867321D01*
X156908500Y-95885000D01*
X157011929Y-95845295D01*
X157035500Y-95789750D01*
X156982561Y-95712178D01*
X156908500Y-95694500D01*
X156908500Y-95440500D01*
X157162500Y-95440500D01*
X157162500Y-95699035D01*
X157126707Y-95934868D01*
G36*
X157139479Y-96756258D02*
G01*
X157021102Y-96920903D01*
X157006637Y-96935636D01*
X156857365Y-97044532D01*
X156668025Y-97087955D01*
X156562137Y-97091500D01*
X156382466Y-97083362D01*
X156297050Y-97049498D01*
X156273669Y-96975732D01*
X156273500Y-96964500D01*
X156303437Y-96871539D01*
X156414825Y-96838810D01*
X156464000Y-96837500D01*
X156615240Y-96809101D01*
X156654500Y-96742250D01*
X156597704Y-96666630D01*
X156464000Y-96647000D01*
X156324560Y-96627042D01*
X156275466Y-96552783D01*
X156273500Y-96520000D01*
X156290217Y-96443824D01*
X156361169Y-96405833D01*
X156517563Y-96393543D01*
X156591000Y-96393000D01*
X156772126Y-96403653D01*
X156845000Y-96420920D01*
X156845000Y-96647000D01*
X156788665Y-96698432D01*
X156781500Y-96742250D01*
X156815789Y-96826753D01*
X156845000Y-96837500D01*
X156901336Y-96786067D01*
X156908500Y-96742250D01*
X156874212Y-96657746D01*
X156845000Y-96647000D01*
X156845000Y-96420920D01*
X156887083Y-96430892D01*
X156908500Y-96452220D01*
X156960909Y-96516708D01*
X157035500Y-96551750D01*
X157144477Y-96630566D01*
X157139479Y-96756258D01*
G37*
X157139479Y-96756258D02*
X157021102Y-96920903D01*
X157006637Y-96935636D01*
X156857365Y-97044532D01*
X156668025Y-97087955D01*
X156562137Y-97091500D01*
X156382466Y-97083362D01*
X156297050Y-97049498D01*
X156273669Y-96975732D01*
X156273500Y-96964500D01*
X156303437Y-96871539D01*
X156414825Y-96838810D01*
X156464000Y-96837500D01*
X156615240Y-96809101D01*
X156654500Y-96742250D01*
X156597704Y-96666630D01*
X156464000Y-96647000D01*
X156324560Y-96627042D01*
X156275466Y-96552783D01*
X156273500Y-96520000D01*
X156290217Y-96443824D01*
X156361169Y-96405833D01*
X156517563Y-96393543D01*
X156591000Y-96393000D01*
X156772126Y-96403653D01*
X156845000Y-96420920D01*
X156845000Y-96647000D01*
X156788665Y-96698432D01*
X156781500Y-96742250D01*
X156815789Y-96826753D01*
X156845000Y-96837500D01*
X156901336Y-96786067D01*
X156908500Y-96742250D01*
X156874212Y-96657746D01*
X156845000Y-96647000D01*
X156845000Y-96420920D01*
X156887083Y-96430892D01*
X156908500Y-96452220D01*
X156960909Y-96516708D01*
X157035500Y-96551750D01*
X157144477Y-96630566D01*
X157139479Y-96756258D01*
G36*
X157128608Y-97848330D02*
G01*
X157047954Y-97981480D01*
X156952075Y-98043612D01*
X156944786Y-98044000D01*
X156915264Y-97990616D01*
X156908500Y-97917000D01*
X156935093Y-97813814D01*
X156972000Y-97790000D01*
X157028336Y-97738567D01*
X157035500Y-97694750D01*
X156982561Y-97617178D01*
X156908500Y-97599500D01*
X156803098Y-97643627D01*
X156781500Y-97731035D01*
X156737327Y-97883224D01*
X156632561Y-98004134D01*
X156527500Y-98044000D01*
X156400273Y-97989404D01*
X156313406Y-97854394D01*
X156277985Y-97682137D01*
X156305097Y-97515798D01*
X156368486Y-97424875D01*
X156473663Y-97352764D01*
X156520203Y-97387355D01*
X156527500Y-97472500D01*
X156500908Y-97575685D01*
X156464000Y-97599500D01*
X156407665Y-97650932D01*
X156400500Y-97694750D01*
X156453440Y-97772321D01*
X156527500Y-97790000D01*
X156632903Y-97745872D01*
X156654500Y-97658464D01*
X156698674Y-97506275D01*
X156803440Y-97385365D01*
X156908500Y-97345500D01*
X157035292Y-97401582D01*
X157130516Y-97540163D01*
X157162500Y-97694750D01*
X157128608Y-97848330D01*
G37*
X157128608Y-97848330D02*
X157047954Y-97981480D01*
X156952075Y-98043612D01*
X156944786Y-98044000D01*
X156915264Y-97990616D01*
X156908500Y-97917000D01*
X156935093Y-97813814D01*
X156972000Y-97790000D01*
X157028336Y-97738567D01*
X157035500Y-97694750D01*
X156982561Y-97617178D01*
X156908500Y-97599500D01*
X156803098Y-97643627D01*
X156781500Y-97731035D01*
X156737327Y-97883224D01*
X156632561Y-98004134D01*
X156527500Y-98044000D01*
X156400273Y-97989404D01*
X156313406Y-97854394D01*
X156277985Y-97682137D01*
X156305097Y-97515798D01*
X156368486Y-97424875D01*
X156473663Y-97352764D01*
X156520203Y-97387355D01*
X156527500Y-97472500D01*
X156500908Y-97575685D01*
X156464000Y-97599500D01*
X156407665Y-97650932D01*
X156400500Y-97694750D01*
X156453440Y-97772321D01*
X156527500Y-97790000D01*
X156632903Y-97745872D01*
X156654500Y-97658464D01*
X156698674Y-97506275D01*
X156803440Y-97385365D01*
X156908500Y-97345500D01*
X157035292Y-97401582D01*
X157130516Y-97540163D01*
X157162500Y-97694750D01*
X157128608Y-97848330D01*
G36*
X157145417Y-98803592D02*
G01*
X157103808Y-98868910D01*
X157099000Y-98869500D01*
X157037346Y-98821178D01*
X157035500Y-98806000D01*
X156978390Y-98769776D01*
X156832369Y-98746785D01*
X156718000Y-98742500D01*
X156536885Y-98753922D01*
X156421927Y-98783126D01*
X156400500Y-98806000D01*
X156352179Y-98867654D01*
X156337000Y-98869500D01*
X156293780Y-98813980D01*
X156273682Y-98678748D01*
X156273500Y-98663125D01*
X156273500Y-98456750D01*
X157162500Y-98456750D01*
X157162500Y-98663125D01*
X157145417Y-98803592D01*
G37*
X157145417Y-98803592D02*
X157103808Y-98868910D01*
X157099000Y-98869500D01*
X157037346Y-98821178D01*
X157035500Y-98806000D01*
X156978390Y-98769776D01*
X156832369Y-98746785D01*
X156718000Y-98742500D01*
X156536885Y-98753922D01*
X156421927Y-98783126D01*
X156400500Y-98806000D01*
X156352179Y-98867654D01*
X156337000Y-98869500D01*
X156293780Y-98813980D01*
X156273682Y-98678748D01*
X156273500Y-98663125D01*
X156273500Y-98456750D01*
X157162500Y-98456750D01*
X157162500Y-98663125D01*
X157145417Y-98803592D01*
G36*
X157128608Y-99753330D02*
G01*
X157047954Y-99886480D01*
X156952075Y-99948612D01*
X156944786Y-99949000D01*
X156915264Y-99895616D01*
X156908500Y-99822000D01*
X156935093Y-99718814D01*
X156972000Y-99695000D01*
X157028336Y-99643567D01*
X157035500Y-99599750D01*
X157001511Y-99539850D01*
X156883830Y-99510595D01*
X156718000Y-99504500D01*
X156518337Y-99514696D01*
X156420817Y-99550001D01*
X156400500Y-99599750D01*
X156434789Y-99684253D01*
X156464000Y-99695000D01*
X156515593Y-99748184D01*
X156527500Y-99822000D01*
X156508974Y-99931121D01*
X156444866Y-99927796D01*
X156364215Y-99858285D01*
X156291991Y-99712933D01*
X156282875Y-99527753D01*
X156336344Y-99367213D01*
X156368486Y-99329875D01*
X156505849Y-99272141D01*
X156704122Y-99252955D01*
X156906024Y-99271393D01*
X157054277Y-99326532D01*
X157071786Y-99341214D01*
X157141656Y-99472175D01*
X157162500Y-99599750D01*
X157128608Y-99753330D01*
G37*
X157128608Y-99753330D02*
X157047954Y-99886480D01*
X156952075Y-99948612D01*
X156944786Y-99949000D01*
X156915264Y-99895616D01*
X156908500Y-99822000D01*
X156935093Y-99718814D01*
X156972000Y-99695000D01*
X157028336Y-99643567D01*
X157035500Y-99599750D01*
X157001511Y-99539850D01*
X156883830Y-99510595D01*
X156718000Y-99504500D01*
X156518337Y-99514696D01*
X156420817Y-99550001D01*
X156400500Y-99599750D01*
X156434789Y-99684253D01*
X156464000Y-99695000D01*
X156515593Y-99748184D01*
X156527500Y-99822000D01*
X156508974Y-99931121D01*
X156444866Y-99927796D01*
X156364215Y-99858285D01*
X156291991Y-99712933D01*
X156282875Y-99527753D01*
X156336344Y-99367213D01*
X156368486Y-99329875D01*
X156505849Y-99272141D01*
X156704122Y-99252955D01*
X156906024Y-99271393D01*
X157054277Y-99326532D01*
X157071786Y-99341214D01*
X157141656Y-99472175D01*
X157162500Y-99599750D01*
X157128608Y-99753330D01*
G36*
X157126707Y-101649868D02*
G01*
X157027476Y-101802959D01*
X156886578Y-101854000D01*
X156779024Y-101807602D01*
X156755042Y-101774625D01*
X156713340Y-101727926D01*
X156680959Y-101774625D01*
X156592050Y-101846781D01*
X156549423Y-101854000D01*
X156401521Y-101796925D01*
X156305511Y-101638701D01*
X156273500Y-101414035D01*
X156273500Y-101155500D01*
X156527500Y-101155500D01*
X156527500Y-101409500D01*
X156424072Y-101449204D01*
X156400500Y-101504750D01*
X156453440Y-101582321D01*
X156527500Y-101600000D01*
X156630929Y-101560295D01*
X156654500Y-101504750D01*
X156601561Y-101427178D01*
X156527500Y-101409500D01*
X156527500Y-101155500D01*
X156908500Y-101155500D01*
X156908500Y-101409500D01*
X156805072Y-101449204D01*
X156781500Y-101504750D01*
X156834440Y-101582321D01*
X156908500Y-101600000D01*
X157011929Y-101560295D01*
X157035500Y-101504750D01*
X156982561Y-101427178D01*
X156908500Y-101409500D01*
X156908500Y-101155500D01*
X157162500Y-101155500D01*
X157162500Y-101414035D01*
X157126707Y-101649868D01*
G37*
X157126707Y-101649868D02*
X157027476Y-101802959D01*
X156886578Y-101854000D01*
X156779024Y-101807602D01*
X156755042Y-101774625D01*
X156713340Y-101727926D01*
X156680959Y-101774625D01*
X156592050Y-101846781D01*
X156549423Y-101854000D01*
X156401521Y-101796925D01*
X156305511Y-101638701D01*
X156273500Y-101414035D01*
X156273500Y-101155500D01*
X156527500Y-101155500D01*
X156527500Y-101409500D01*
X156424072Y-101449204D01*
X156400500Y-101504750D01*
X156453440Y-101582321D01*
X156527500Y-101600000D01*
X156630929Y-101560295D01*
X156654500Y-101504750D01*
X156601561Y-101427178D01*
X156527500Y-101409500D01*
X156527500Y-101155500D01*
X156908500Y-101155500D01*
X156908500Y-101409500D01*
X156805072Y-101449204D01*
X156781500Y-101504750D01*
X156834440Y-101582321D01*
X156908500Y-101600000D01*
X157011929Y-101560295D01*
X157035500Y-101504750D01*
X156982561Y-101427178D01*
X156908500Y-101409500D01*
X156908500Y-101155500D01*
X157162500Y-101155500D01*
X157162500Y-101414035D01*
X157126707Y-101649868D01*
G36*
X157129648Y-102775242D02*
G01*
X157010831Y-102806110D01*
X156986019Y-102806500D01*
X156808700Y-102758145D01*
X156718000Y-102679500D01*
X156576912Y-102576978D01*
X156449982Y-102552500D01*
X156316936Y-102528858D01*
X156274042Y-102443355D01*
X156273500Y-102425500D01*
X156309529Y-102326923D01*
X156435576Y-102298501D01*
X156436786Y-102298500D01*
X156600046Y-102262649D01*
X156695322Y-102203250D01*
X156827100Y-102132739D01*
X156976536Y-102108000D01*
X157113935Y-102129054D01*
X157161075Y-102206723D01*
X157162500Y-102235000D01*
X157132564Y-102327960D01*
X157021176Y-102360689D01*
X156972000Y-102362000D01*
X156820761Y-102390398D01*
X156781500Y-102457250D01*
X156838297Y-102532869D01*
X156972000Y-102552500D01*
X157111441Y-102572457D01*
X157160535Y-102646716D01*
X157162500Y-102679500D01*
X157129648Y-102775242D01*
G37*
X157129648Y-102775242D02*
X157010831Y-102806110D01*
X156986019Y-102806500D01*
X156808700Y-102758145D01*
X156718000Y-102679500D01*
X156576912Y-102576978D01*
X156449982Y-102552500D01*
X156316936Y-102528858D01*
X156274042Y-102443355D01*
X156273500Y-102425500D01*
X156309529Y-102326923D01*
X156435576Y-102298501D01*
X156436786Y-102298500D01*
X156600046Y-102262649D01*
X156695322Y-102203250D01*
X156827100Y-102132739D01*
X156976536Y-102108000D01*
X157113935Y-102129054D01*
X157161075Y-102206723D01*
X157162500Y-102235000D01*
X157132564Y-102327960D01*
X157021176Y-102360689D01*
X156972000Y-102362000D01*
X156820761Y-102390398D01*
X156781500Y-102457250D01*
X156838297Y-102532869D01*
X156972000Y-102552500D01*
X157111441Y-102572457D01*
X157160535Y-102646716D01*
X157162500Y-102679500D01*
X157129648Y-102775242D01*
G36*
X157152062Y-103601011D02*
G01*
X157125134Y-103727867D01*
X157099000Y-103759000D01*
X157047408Y-103705815D01*
X157035500Y-103632000D01*
X157021599Y-103561067D01*
X156960531Y-103522739D01*
X156823252Y-103507334D01*
X156654500Y-103505000D01*
X156441704Y-103500366D01*
X156326720Y-103480010D01*
X156280505Y-103434250D01*
X156273500Y-103378000D01*
X156287402Y-103307067D01*
X156348470Y-103268739D01*
X156485749Y-103253334D01*
X156654500Y-103251000D01*
X156875730Y-103243684D01*
X156994507Y-103217753D01*
X157034749Y-103167226D01*
X157035500Y-103155750D01*
X157069789Y-103071246D01*
X157099000Y-103060500D01*
X157133775Y-103117913D01*
X157156840Y-103266018D01*
X157162500Y-103409750D01*
X157152062Y-103601011D01*
G37*
X157152062Y-103601011D02*
X157125134Y-103727867D01*
X157099000Y-103759000D01*
X157047408Y-103705815D01*
X157035500Y-103632000D01*
X157021599Y-103561067D01*
X156960531Y-103522739D01*
X156823252Y-103507334D01*
X156654500Y-103505000D01*
X156441704Y-103500366D01*
X156326720Y-103480010D01*
X156280505Y-103434250D01*
X156273500Y-103378000D01*
X156287402Y-103307067D01*
X156348470Y-103268739D01*
X156485749Y-103253334D01*
X156654500Y-103251000D01*
X156875730Y-103243684D01*
X156994507Y-103217753D01*
X157034749Y-103167226D01*
X157035500Y-103155750D01*
X157069789Y-103071246D01*
X157099000Y-103060500D01*
X157133775Y-103117913D01*
X157156840Y-103266018D01*
X157162500Y-103409750D01*
X157152062Y-103601011D01*
G36*
X157152062Y-104553511D02*
G01*
X157125134Y-104680367D01*
X157099000Y-104711500D01*
X157057029Y-104655678D01*
X157036049Y-104518417D01*
X157035500Y-104489250D01*
X157021294Y-104336070D01*
X156965834Y-104274264D01*
X156908500Y-104267000D01*
X156805072Y-104306704D01*
X156781500Y-104362250D01*
X156747212Y-104446753D01*
X156718000Y-104457500D01*
X156661665Y-104406067D01*
X156654500Y-104362250D01*
X156601561Y-104284678D01*
X156527500Y-104267000D01*
X156439969Y-104291861D01*
X156404652Y-104388916D01*
X156400500Y-104489250D01*
X156384551Y-104636150D01*
X156345334Y-104709580D01*
X156337000Y-104711500D01*
X156302226Y-104654086D01*
X156279161Y-104505981D01*
X156273500Y-104362250D01*
X156273500Y-104013000D01*
X157162500Y-104013000D01*
X157162500Y-104362250D01*
X157152062Y-104553511D01*
G37*
X157152062Y-104553511D02*
X157125134Y-104680367D01*
X157099000Y-104711500D01*
X157057029Y-104655678D01*
X157036049Y-104518417D01*
X157035500Y-104489250D01*
X157021294Y-104336070D01*
X156965834Y-104274264D01*
X156908500Y-104267000D01*
X156805072Y-104306704D01*
X156781500Y-104362250D01*
X156747212Y-104446753D01*
X156718000Y-104457500D01*
X156661665Y-104406067D01*
X156654500Y-104362250D01*
X156601561Y-104284678D01*
X156527500Y-104267000D01*
X156439969Y-104291861D01*
X156404652Y-104388916D01*
X156400500Y-104489250D01*
X156384551Y-104636150D01*
X156345334Y-104709580D01*
X156337000Y-104711500D01*
X156302226Y-104654086D01*
X156279161Y-104505981D01*
X156273500Y-104362250D01*
X156273500Y-104013000D01*
X157162500Y-104013000D01*
X157162500Y-104362250D01*
X157152062Y-104553511D01*
G36*
X157151697Y-105414457D02*
G01*
X157084326Y-105559620D01*
X157071786Y-105573285D01*
X156967347Y-105655081D01*
X156917616Y-105626458D01*
X156908500Y-105537000D01*
X156935093Y-105433814D01*
X156972000Y-105410000D01*
X157028336Y-105358567D01*
X157035500Y-105314750D01*
X156982561Y-105237178D01*
X156908500Y-105219500D01*
X156803098Y-105263627D01*
X156781500Y-105351035D01*
X156737327Y-105503224D01*
X156632561Y-105624134D01*
X156527500Y-105664000D01*
X156409326Y-105610426D01*
X156321341Y-105477768D01*
X156273342Y-105308118D01*
X156275122Y-105143570D01*
X156336475Y-105026218D01*
X156373944Y-105004043D01*
X156486560Y-104970592D01*
X156523997Y-105011834D01*
X156527500Y-105092500D01*
X156500908Y-105195685D01*
X156464000Y-105219500D01*
X156407665Y-105270932D01*
X156400500Y-105314750D01*
X156453440Y-105392321D01*
X156527500Y-105410000D01*
X156621284Y-105379222D01*
X156653509Y-105265625D01*
X156654500Y-105223779D01*
X156702995Y-105058872D01*
X156835474Y-104979174D01*
X157032427Y-104996283D01*
X157035500Y-104997250D01*
X157124169Y-105083808D01*
X157163939Y-105239365D01*
X157151697Y-105414457D01*
G37*
X157151697Y-105414457D02*
X157084326Y-105559620D01*
X157071786Y-105573285D01*
X156967347Y-105655081D01*
X156917616Y-105626458D01*
X156908500Y-105537000D01*
X156935093Y-105433814D01*
X156972000Y-105410000D01*
X157028336Y-105358567D01*
X157035500Y-105314750D01*
X156982561Y-105237178D01*
X156908500Y-105219500D01*
X156803098Y-105263627D01*
X156781500Y-105351035D01*
X156737327Y-105503224D01*
X156632561Y-105624134D01*
X156527500Y-105664000D01*
X156409326Y-105610426D01*
X156321341Y-105477768D01*
X156273342Y-105308118D01*
X156275122Y-105143570D01*
X156336475Y-105026218D01*
X156373944Y-105004043D01*
X156486560Y-104970592D01*
X156523997Y-105011834D01*
X156527500Y-105092500D01*
X156500908Y-105195685D01*
X156464000Y-105219500D01*
X156407665Y-105270932D01*
X156400500Y-105314750D01*
X156453440Y-105392321D01*
X156527500Y-105410000D01*
X156621284Y-105379222D01*
X156653509Y-105265625D01*
X156654500Y-105223779D01*
X156702995Y-105058872D01*
X156835474Y-104979174D01*
X157032427Y-104996283D01*
X157035500Y-104997250D01*
X157124169Y-105083808D01*
X157163939Y-105239365D01*
X157151697Y-105414457D01*
G36*
X157152062Y-107411011D02*
G01*
X157125134Y-107537867D01*
X157099000Y-107569000D01*
X157057029Y-107513178D01*
X157036049Y-107375917D01*
X157035500Y-107346750D01*
X157021294Y-107193570D01*
X156965834Y-107131764D01*
X156908500Y-107124500D01*
X156805072Y-107164204D01*
X156781500Y-107219750D01*
X156747212Y-107304253D01*
X156718000Y-107315000D01*
X156661665Y-107263567D01*
X156654500Y-107219750D01*
X156597704Y-107144130D01*
X156464000Y-107124500D01*
X156324560Y-107104542D01*
X156275466Y-107030283D01*
X156273500Y-106997500D01*
X156285493Y-106930757D01*
X156339573Y-106892521D01*
X156462896Y-106875033D01*
X156682618Y-106870535D01*
X156718000Y-106870500D01*
X157162500Y-106870500D01*
X157162500Y-107219750D01*
X157152062Y-107411011D01*
G37*
X157152062Y-107411011D02*
X157125134Y-107537867D01*
X157099000Y-107569000D01*
X157057029Y-107513178D01*
X157036049Y-107375917D01*
X157035500Y-107346750D01*
X157021294Y-107193570D01*
X156965834Y-107131764D01*
X156908500Y-107124500D01*
X156805072Y-107164204D01*
X156781500Y-107219750D01*
X156747212Y-107304253D01*
X156718000Y-107315000D01*
X156661665Y-107263567D01*
X156654500Y-107219750D01*
X156597704Y-107144130D01*
X156464000Y-107124500D01*
X156324560Y-107104542D01*
X156275466Y-107030283D01*
X156273500Y-106997500D01*
X156285493Y-106930757D01*
X156339573Y-106892521D01*
X156462896Y-106875033D01*
X156682618Y-106870535D01*
X156718000Y-106870500D01*
X157162500Y-106870500D01*
X157162500Y-107219750D01*
X157152062Y-107411011D01*
G36*
X157132255Y-108299481D02*
G01*
X157050636Y-108457753D01*
X156931319Y-108514488D01*
X156787979Y-108459570D01*
X156709574Y-108384783D01*
X156591000Y-108248067D01*
X156472427Y-108384783D01*
X156355005Y-108499157D01*
X156291456Y-108503722D01*
X156273500Y-108408518D01*
X156321411Y-108285749D01*
X156400500Y-108204000D01*
X156498002Y-108115860D01*
X156527500Y-108062981D01*
X156474200Y-108022746D01*
X156400500Y-108013500D01*
X156294372Y-107968598D01*
X156273500Y-107886500D01*
X156285493Y-107819757D01*
X156339573Y-107781521D01*
X156462896Y-107764033D01*
X156682618Y-107759535D01*
X156718000Y-107759500D01*
X156908500Y-107759500D01*
X156908500Y-108013500D01*
X156802372Y-108058401D01*
X156781500Y-108140500D01*
X156826402Y-108246628D01*
X156908500Y-108267500D01*
X157014629Y-108222598D01*
X157035500Y-108140500D01*
X156990599Y-108034371D01*
X156908500Y-108013500D01*
X156908500Y-107759500D01*
X157162500Y-107759500D01*
X157162500Y-108049785D01*
X157132255Y-108299481D01*
G37*
X157132255Y-108299481D02*
X157050636Y-108457753D01*
X156931319Y-108514488D01*
X156787979Y-108459570D01*
X156709574Y-108384783D01*
X156591000Y-108248067D01*
X156472427Y-108384783D01*
X156355005Y-108499157D01*
X156291456Y-108503722D01*
X156273500Y-108408518D01*
X156321411Y-108285749D01*
X156400500Y-108204000D01*
X156498002Y-108115860D01*
X156527500Y-108062981D01*
X156474200Y-108022746D01*
X156400500Y-108013500D01*
X156294372Y-107968598D01*
X156273500Y-107886500D01*
X156285493Y-107819757D01*
X156339573Y-107781521D01*
X156462896Y-107764033D01*
X156682618Y-107759535D01*
X156718000Y-107759500D01*
X156908500Y-107759500D01*
X156908500Y-108013500D01*
X156802372Y-108058401D01*
X156781500Y-108140500D01*
X156826402Y-108246628D01*
X156908500Y-108267500D01*
X157014629Y-108222598D01*
X157035500Y-108140500D01*
X156990599Y-108034371D01*
X156908500Y-108013500D01*
X156908500Y-107759500D01*
X157162500Y-107759500D01*
X157162500Y-108049785D01*
X157132255Y-108299481D01*
G36*
X157152861Y-109295942D02*
G01*
X157127678Y-109433530D01*
X157099000Y-109474000D01*
X157059237Y-109417665D01*
X157037120Y-109276936D01*
X157035500Y-109220000D01*
X157024850Y-109053823D01*
X156981805Y-108980380D01*
X156908500Y-108966000D01*
X156802372Y-109010901D01*
X156781500Y-109093000D01*
X156754908Y-109196185D01*
X156718000Y-109220000D01*
X156666408Y-109166815D01*
X156654500Y-109093000D01*
X156609599Y-108986871D01*
X156527500Y-108966000D01*
X156444412Y-108987300D01*
X156407691Y-109073391D01*
X156400500Y-109220000D01*
X156386417Y-109379055D01*
X156351235Y-109467523D01*
X156337000Y-109474000D01*
X156303177Y-109416160D01*
X156280245Y-109265063D01*
X156273500Y-109093000D01*
X156273500Y-108712000D01*
X157162500Y-108712000D01*
X157162500Y-109093000D01*
X157152861Y-109295942D01*
G37*
X157152861Y-109295942D02*
X157127678Y-109433530D01*
X157099000Y-109474000D01*
X157059237Y-109417665D01*
X157037120Y-109276936D01*
X157035500Y-109220000D01*
X157024850Y-109053823D01*
X156981805Y-108980380D01*
X156908500Y-108966000D01*
X156802372Y-109010901D01*
X156781500Y-109093000D01*
X156754908Y-109196185D01*
X156718000Y-109220000D01*
X156666408Y-109166815D01*
X156654500Y-109093000D01*
X156609599Y-108986871D01*
X156527500Y-108966000D01*
X156444412Y-108987300D01*
X156407691Y-109073391D01*
X156400500Y-109220000D01*
X156386417Y-109379055D01*
X156351235Y-109467523D01*
X156337000Y-109474000D01*
X156303177Y-109416160D01*
X156280245Y-109265063D01*
X156273500Y-109093000D01*
X156273500Y-108712000D01*
X157162500Y-108712000D01*
X157162500Y-109093000D01*
X157152861Y-109295942D01*
G36*
X157152861Y-110248442D02*
G01*
X157127678Y-110386030D01*
X157099000Y-110426500D01*
X157059237Y-110370165D01*
X157037120Y-110229436D01*
X157035500Y-110172500D01*
X157024850Y-110006323D01*
X156981805Y-109932880D01*
X156908500Y-109918500D01*
X156802372Y-109963401D01*
X156781500Y-110045500D01*
X156754908Y-110148685D01*
X156718000Y-110172500D01*
X156666408Y-110119315D01*
X156654500Y-110045500D01*
X156609599Y-109939371D01*
X156527500Y-109918500D01*
X156444412Y-109939800D01*
X156407691Y-110025891D01*
X156400500Y-110172500D01*
X156386417Y-110331555D01*
X156351235Y-110420023D01*
X156337000Y-110426500D01*
X156303177Y-110368660D01*
X156280245Y-110217563D01*
X156273500Y-110045500D01*
X156273500Y-109664500D01*
X157162500Y-109664500D01*
X157162500Y-110045500D01*
X157152861Y-110248442D01*
G37*
X157152861Y-110248442D02*
X157127678Y-110386030D01*
X157099000Y-110426500D01*
X157059237Y-110370165D01*
X157037120Y-110229436D01*
X157035500Y-110172500D01*
X157024850Y-110006323D01*
X156981805Y-109932880D01*
X156908500Y-109918500D01*
X156802372Y-109963401D01*
X156781500Y-110045500D01*
X156754908Y-110148685D01*
X156718000Y-110172500D01*
X156666408Y-110119315D01*
X156654500Y-110045500D01*
X156609599Y-109939371D01*
X156527500Y-109918500D01*
X156444412Y-109939800D01*
X156407691Y-110025891D01*
X156400500Y-110172500D01*
X156386417Y-110331555D01*
X156351235Y-110420023D01*
X156337000Y-110426500D01*
X156303177Y-110368660D01*
X156280245Y-110217563D01*
X156273500Y-110045500D01*
X156273500Y-109664500D01*
X157162500Y-109664500D01*
X157162500Y-110045500D01*
X157152861Y-110248442D01*
G36*
X159172779Y-82657046D02*
G01*
X159108295Y-82758292D01*
X159094057Y-82765456D01*
X158981441Y-82798907D01*
X158944004Y-82757665D01*
X158940500Y-82677000D01*
X158967093Y-82573814D01*
X159004000Y-82550000D01*
X159060336Y-82498567D01*
X159067500Y-82454750D01*
X159033511Y-82394850D01*
X158915830Y-82365595D01*
X158750000Y-82359500D01*
X158550337Y-82369696D01*
X158452817Y-82405001D01*
X158432500Y-82454750D01*
X158466789Y-82539253D01*
X158496000Y-82550000D01*
X158546698Y-82603469D01*
X158559500Y-82683793D01*
X158533000Y-82780550D01*
X158459057Y-82779043D01*
X158357831Y-82745422D01*
X158332057Y-82740500D01*
X158304263Y-82686948D01*
X158303567Y-82557441D01*
X158324214Y-82398701D01*
X158360450Y-82257450D01*
X158400486Y-82184875D01*
X158537849Y-82127141D01*
X158736122Y-82107955D01*
X158938024Y-82126393D01*
X159086277Y-82181532D01*
X159103786Y-82196214D01*
X159171401Y-82324745D01*
X159194107Y-82495443D01*
X159172779Y-82657046D01*
G37*
X159172779Y-82657046D02*
X159108295Y-82758292D01*
X159094057Y-82765456D01*
X158981441Y-82798907D01*
X158944004Y-82757665D01*
X158940500Y-82677000D01*
X158967093Y-82573814D01*
X159004000Y-82550000D01*
X159060336Y-82498567D01*
X159067500Y-82454750D01*
X159033511Y-82394850D01*
X158915830Y-82365595D01*
X158750000Y-82359500D01*
X158550337Y-82369696D01*
X158452817Y-82405001D01*
X158432500Y-82454750D01*
X158466789Y-82539253D01*
X158496000Y-82550000D01*
X158546698Y-82603469D01*
X158559500Y-82683793D01*
X158533000Y-82780550D01*
X158459057Y-82779043D01*
X158357831Y-82745422D01*
X158332057Y-82740500D01*
X158304263Y-82686948D01*
X158303567Y-82557441D01*
X158324214Y-82398701D01*
X158360450Y-82257450D01*
X158400486Y-82184875D01*
X158537849Y-82127141D01*
X158736122Y-82107955D01*
X158938024Y-82126393D01*
X159086277Y-82181532D01*
X159103786Y-82196214D01*
X159171401Y-82324745D01*
X159194107Y-82495443D01*
X159172779Y-82657046D01*
G36*
X159172779Y-83609546D02*
G01*
X159108295Y-83710792D01*
X159094057Y-83717956D01*
X158966012Y-83743489D01*
X158781787Y-83756187D01*
X158750000Y-83756500D01*
X158514332Y-83743926D01*
X158379000Y-83694492D01*
X158318818Y-83590623D01*
X158307916Y-83448081D01*
X158332994Y-83272196D01*
X158391179Y-83146786D01*
X158400486Y-83137375D01*
X158537849Y-83079641D01*
X158736122Y-83060455D01*
X158750000Y-83061722D01*
X158750000Y-83312000D01*
X158550337Y-83322196D01*
X158452817Y-83357501D01*
X158432500Y-83407250D01*
X158466490Y-83467149D01*
X158584171Y-83496404D01*
X158750000Y-83502500D01*
X158949664Y-83492303D01*
X159047184Y-83456998D01*
X159067500Y-83407250D01*
X159033511Y-83347350D01*
X158915830Y-83318095D01*
X158750000Y-83312000D01*
X158750000Y-83061722D01*
X158938024Y-83078893D01*
X159086277Y-83134032D01*
X159103786Y-83148714D01*
X159171401Y-83277245D01*
X159194107Y-83447943D01*
X159172779Y-83609546D01*
G37*
X159172779Y-83609546D02*
X159108295Y-83710792D01*
X159094057Y-83717956D01*
X158966012Y-83743489D01*
X158781787Y-83756187D01*
X158750000Y-83756500D01*
X158514332Y-83743926D01*
X158379000Y-83694492D01*
X158318818Y-83590623D01*
X158307916Y-83448081D01*
X158332994Y-83272196D01*
X158391179Y-83146786D01*
X158400486Y-83137375D01*
X158537849Y-83079641D01*
X158736122Y-83060455D01*
X158750000Y-83061722D01*
X158750000Y-83312000D01*
X158550337Y-83322196D01*
X158452817Y-83357501D01*
X158432500Y-83407250D01*
X158466490Y-83467149D01*
X158584171Y-83496404D01*
X158750000Y-83502500D01*
X158949664Y-83492303D01*
X159047184Y-83456998D01*
X159067500Y-83407250D01*
X159033511Y-83347350D01*
X158915830Y-83318095D01*
X158750000Y-83312000D01*
X158750000Y-83061722D01*
X158938024Y-83078893D01*
X159086277Y-83134032D01*
X159103786Y-83148714D01*
X159171401Y-83277245D01*
X159194107Y-83447943D01*
X159172779Y-83609546D01*
G36*
X159178188Y-84782877D02*
G01*
X159111681Y-84817191D01*
X158968626Y-84832657D01*
X158750000Y-84836000D01*
X158516402Y-84832573D01*
X158382577Y-84817122D01*
X158321369Y-84781886D01*
X158305624Y-84719109D01*
X158305500Y-84709000D01*
X158325563Y-84627739D01*
X158407615Y-84590258D01*
X158575375Y-84581027D01*
X158735626Y-84573654D01*
X158783899Y-84549338D01*
X158750000Y-84512693D01*
X158692504Y-84449323D01*
X158734125Y-84413124D01*
X158814428Y-84354569D01*
X158783504Y-84302258D01*
X158656931Y-84269451D01*
X158559500Y-84264500D01*
X158393324Y-84253849D01*
X158319881Y-84210804D01*
X158305500Y-84137500D01*
X158317493Y-84070757D01*
X158371573Y-84032521D01*
X158494896Y-84015033D01*
X158714618Y-84010535D01*
X158750000Y-84010500D01*
X158987872Y-84015297D01*
X159124221Y-84033614D01*
X159184298Y-84071342D01*
X159194500Y-84114176D01*
X159149645Y-84232868D01*
X159071021Y-84324946D01*
X158986184Y-84408369D01*
X158998015Y-84464074D01*
X159071021Y-84521037D01*
X159168491Y-84635111D01*
X159194500Y-84723018D01*
X159178188Y-84782877D01*
G37*
X159178188Y-84782877D02*
X159111681Y-84817191D01*
X158968626Y-84832657D01*
X158750000Y-84836000D01*
X158516402Y-84832573D01*
X158382577Y-84817122D01*
X158321369Y-84781886D01*
X158305624Y-84719109D01*
X158305500Y-84709000D01*
X158325563Y-84627739D01*
X158407615Y-84590258D01*
X158575375Y-84581027D01*
X158735626Y-84573654D01*
X158783899Y-84549338D01*
X158750000Y-84512693D01*
X158692504Y-84449323D01*
X158734125Y-84413124D01*
X158814428Y-84354569D01*
X158783504Y-84302258D01*
X158656931Y-84269451D01*
X158559500Y-84264500D01*
X158393324Y-84253849D01*
X158319881Y-84210804D01*
X158305500Y-84137500D01*
X158317493Y-84070757D01*
X158371573Y-84032521D01*
X158494896Y-84015033D01*
X158714618Y-84010535D01*
X158750000Y-84010500D01*
X158987872Y-84015297D01*
X159124221Y-84033614D01*
X159184298Y-84071342D01*
X159194500Y-84114176D01*
X159149645Y-84232868D01*
X159071021Y-84324946D01*
X158986184Y-84408369D01*
X158998015Y-84464074D01*
X159071021Y-84521037D01*
X159168491Y-84635111D01*
X159194500Y-84723018D01*
X159178188Y-84782877D01*
G36*
X159178188Y-85735377D02*
G01*
X159111681Y-85769691D01*
X158968626Y-85785157D01*
X158750000Y-85788500D01*
X158516402Y-85785073D01*
X158382577Y-85769622D01*
X158321369Y-85734386D01*
X158305624Y-85671609D01*
X158305500Y-85661500D01*
X158326233Y-85579763D01*
X158410176Y-85540997D01*
X158575375Y-85529486D01*
X158720296Y-85520171D01*
X158777195Y-85502348D01*
X158765875Y-85492445D01*
X158692078Y-85409097D01*
X158686500Y-85375750D01*
X158736722Y-85276767D01*
X158765875Y-85259054D01*
X158759762Y-85239002D01*
X158653122Y-85225026D01*
X158575375Y-85222013D01*
X158402504Y-85209045D01*
X158323439Y-85168073D01*
X158305500Y-85090000D01*
X158317493Y-85023257D01*
X158371573Y-84985021D01*
X158494896Y-84967533D01*
X158714618Y-84963035D01*
X158750000Y-84963000D01*
X158987872Y-84967797D01*
X159124221Y-84986114D01*
X159184298Y-85023842D01*
X159194500Y-85066676D01*
X159149645Y-85185368D01*
X159071021Y-85277446D01*
X158986184Y-85360869D01*
X158998015Y-85416574D01*
X159071021Y-85473537D01*
X159168491Y-85587611D01*
X159194500Y-85675518D01*
X159178188Y-85735377D01*
G37*
X159178188Y-85735377D02*
X159111681Y-85769691D01*
X158968626Y-85785157D01*
X158750000Y-85788500D01*
X158516402Y-85785073D01*
X158382577Y-85769622D01*
X158321369Y-85734386D01*
X158305624Y-85671609D01*
X158305500Y-85661500D01*
X158326233Y-85579763D01*
X158410176Y-85540997D01*
X158575375Y-85529486D01*
X158720296Y-85520171D01*
X158777195Y-85502348D01*
X158765875Y-85492445D01*
X158692078Y-85409097D01*
X158686500Y-85375750D01*
X158736722Y-85276767D01*
X158765875Y-85259054D01*
X158759762Y-85239002D01*
X158653122Y-85225026D01*
X158575375Y-85222013D01*
X158402504Y-85209045D01*
X158323439Y-85168073D01*
X158305500Y-85090000D01*
X158317493Y-85023257D01*
X158371573Y-84985021D01*
X158494896Y-84967533D01*
X158714618Y-84963035D01*
X158750000Y-84963000D01*
X158987872Y-84967797D01*
X159124221Y-84986114D01*
X159184298Y-85023842D01*
X159194500Y-85066676D01*
X159149645Y-85185368D01*
X159071021Y-85277446D01*
X158986184Y-85360869D01*
X158998015Y-85416574D01*
X159071021Y-85473537D01*
X159168491Y-85587611D01*
X159194500Y-85675518D01*
X159178188Y-85735377D01*
G36*
X159161478Y-86427031D02*
G01*
X159103786Y-86523285D01*
X158969363Y-86587069D01*
X158771681Y-86611064D01*
X158568090Y-86595270D01*
X158415938Y-86539686D01*
X158396215Y-86523285D01*
X158323991Y-86377933D01*
X158314875Y-86192753D01*
X158368344Y-86032213D01*
X158400486Y-85994875D01*
X158537849Y-85937141D01*
X158736122Y-85917955D01*
X158750000Y-85919222D01*
X158750000Y-86169500D01*
X158550337Y-86179696D01*
X158452817Y-86215001D01*
X158432500Y-86264750D01*
X158466490Y-86324649D01*
X158584171Y-86353904D01*
X158750000Y-86360000D01*
X158949664Y-86349803D01*
X159047184Y-86314498D01*
X159067500Y-86264750D01*
X159033511Y-86204850D01*
X158915830Y-86175595D01*
X158750000Y-86169500D01*
X158750000Y-85919222D01*
X158938024Y-85936393D01*
X159086277Y-85991532D01*
X159103786Y-86006214D01*
X159173656Y-86137175D01*
X159194500Y-86264750D01*
X159161478Y-86427031D01*
G37*
X159161478Y-86427031D02*
X159103786Y-86523285D01*
X158969363Y-86587069D01*
X158771681Y-86611064D01*
X158568090Y-86595270D01*
X158415938Y-86539686D01*
X158396215Y-86523285D01*
X158323991Y-86377933D01*
X158314875Y-86192753D01*
X158368344Y-86032213D01*
X158400486Y-85994875D01*
X158537849Y-85937141D01*
X158736122Y-85917955D01*
X158750000Y-85919222D01*
X158750000Y-86169500D01*
X158550337Y-86179696D01*
X158452817Y-86215001D01*
X158432500Y-86264750D01*
X158466490Y-86324649D01*
X158584171Y-86353904D01*
X158750000Y-86360000D01*
X158949664Y-86349803D01*
X159047184Y-86314498D01*
X159067500Y-86264750D01*
X159033511Y-86204850D01*
X158915830Y-86175595D01*
X158750000Y-86169500D01*
X158750000Y-85919222D01*
X158938024Y-85936393D01*
X159086277Y-85991532D01*
X159103786Y-86006214D01*
X159173656Y-86137175D01*
X159194500Y-86264750D01*
X159161478Y-86427031D01*
G36*
X159178199Y-87294598D02*
G01*
X159118563Y-87384199D01*
X159067500Y-87407750D01*
X158964877Y-87464759D01*
X158940500Y-87507279D01*
X158885303Y-87548865D01*
X158752315Y-87566495D01*
X158750000Y-87566500D01*
X158616226Y-87549340D01*
X158559514Y-87507998D01*
X158559500Y-87507279D01*
X158507092Y-87442791D01*
X158432500Y-87407750D01*
X158345177Y-87347981D01*
X158309235Y-87219310D01*
X158305500Y-87117720D01*
X158305500Y-86868000D01*
X158750000Y-86868000D01*
X158750000Y-87122000D01*
X158563747Y-87125973D01*
X158483481Y-87143632D01*
X158488290Y-87183589D01*
X158518679Y-87217250D01*
X158660166Y-87296949D01*
X158750000Y-87312500D01*
X158907108Y-87269248D01*
X158981322Y-87217250D01*
X159023183Y-87161767D01*
X158991197Y-87133205D01*
X158864452Y-87122953D01*
X158750000Y-87122000D01*
X158750000Y-86868000D01*
X159194500Y-86868000D01*
X159194500Y-87117720D01*
X159178199Y-87294598D01*
G37*
X159178199Y-87294598D02*
X159118563Y-87384199D01*
X159067500Y-87407750D01*
X158964877Y-87464759D01*
X158940500Y-87507279D01*
X158885303Y-87548865D01*
X158752315Y-87566495D01*
X158750000Y-87566500D01*
X158616226Y-87549340D01*
X158559514Y-87507998D01*
X158559500Y-87507279D01*
X158507092Y-87442791D01*
X158432500Y-87407750D01*
X158345177Y-87347981D01*
X158309235Y-87219310D01*
X158305500Y-87117720D01*
X158305500Y-86868000D01*
X158750000Y-86868000D01*
X158750000Y-87122000D01*
X158563747Y-87125973D01*
X158483481Y-87143632D01*
X158488290Y-87183589D01*
X158518679Y-87217250D01*
X158660166Y-87296949D01*
X158750000Y-87312500D01*
X158907108Y-87269248D01*
X158981322Y-87217250D01*
X159023183Y-87161767D01*
X158991197Y-87133205D01*
X158864452Y-87122953D01*
X158750000Y-87122000D01*
X158750000Y-86868000D01*
X159194500Y-86868000D01*
X159194500Y-87117720D01*
X159178199Y-87294598D01*
G36*
X159161478Y-88332031D02*
G01*
X159103786Y-88428285D01*
X158969363Y-88492069D01*
X158771681Y-88516064D01*
X158568090Y-88500270D01*
X158415938Y-88444686D01*
X158396215Y-88428285D01*
X158323991Y-88282933D01*
X158314875Y-88097753D01*
X158368344Y-87937213D01*
X158400486Y-87899875D01*
X158537849Y-87842141D01*
X158736122Y-87822955D01*
X158750000Y-87824222D01*
X158750000Y-88074500D01*
X158550337Y-88084696D01*
X158452817Y-88120001D01*
X158432500Y-88169750D01*
X158466490Y-88229649D01*
X158584171Y-88258904D01*
X158750000Y-88265000D01*
X158949664Y-88254803D01*
X159047184Y-88219498D01*
X159067500Y-88169750D01*
X159033511Y-88109850D01*
X158915830Y-88080595D01*
X158750000Y-88074500D01*
X158750000Y-87824222D01*
X158938024Y-87841393D01*
X159086277Y-87896532D01*
X159103786Y-87911214D01*
X159173656Y-88042175D01*
X159194500Y-88169750D01*
X159161478Y-88332031D01*
G37*
X159161478Y-88332031D02*
X159103786Y-88428285D01*
X158969363Y-88492069D01*
X158771681Y-88516064D01*
X158568090Y-88500270D01*
X158415938Y-88444686D01*
X158396215Y-88428285D01*
X158323991Y-88282933D01*
X158314875Y-88097753D01*
X158368344Y-87937213D01*
X158400486Y-87899875D01*
X158537849Y-87842141D01*
X158736122Y-87822955D01*
X158750000Y-87824222D01*
X158750000Y-88074500D01*
X158550337Y-88084696D01*
X158452817Y-88120001D01*
X158432500Y-88169750D01*
X158466490Y-88229649D01*
X158584171Y-88258904D01*
X158750000Y-88265000D01*
X158949664Y-88254803D01*
X159047184Y-88219498D01*
X159067500Y-88169750D01*
X159033511Y-88109850D01*
X158915830Y-88080595D01*
X158750000Y-88074500D01*
X158750000Y-87824222D01*
X158938024Y-87841393D01*
X159086277Y-87896532D01*
X159103786Y-87911214D01*
X159173656Y-88042175D01*
X159194500Y-88169750D01*
X159161478Y-88332031D01*
G36*
X159161909Y-89262278D02*
G01*
X159075532Y-89411473D01*
X158952464Y-89465150D01*
X158809799Y-89409340D01*
X158772679Y-89376250D01*
X158672004Y-89298587D01*
X158623000Y-89281000D01*
X158538350Y-89321271D01*
X158473322Y-89376250D01*
X158365402Y-89461829D01*
X158313831Y-89438958D01*
X158305500Y-89367823D01*
X158350385Y-89252255D01*
X158442217Y-89145573D01*
X158578933Y-89027000D01*
X158442217Y-89027000D01*
X158329799Y-88987052D01*
X158305500Y-88900000D01*
X158317493Y-88833257D01*
X158371573Y-88795021D01*
X158494896Y-88777533D01*
X158714618Y-88773035D01*
X158750000Y-88773000D01*
X158940500Y-88773000D01*
X158940500Y-89027000D01*
X158837072Y-89066704D01*
X158813500Y-89122250D01*
X158866440Y-89199821D01*
X158940500Y-89217500D01*
X159043929Y-89177795D01*
X159067500Y-89122250D01*
X159014561Y-89044678D01*
X158940500Y-89027000D01*
X158940500Y-88773000D01*
X159194500Y-88773000D01*
X159194500Y-89031535D01*
X159161909Y-89262278D01*
G37*
X159161909Y-89262278D02*
X159075532Y-89411473D01*
X158952464Y-89465150D01*
X158809799Y-89409340D01*
X158772679Y-89376250D01*
X158672004Y-89298587D01*
X158623000Y-89281000D01*
X158538350Y-89321271D01*
X158473322Y-89376250D01*
X158365402Y-89461829D01*
X158313831Y-89438958D01*
X158305500Y-89367823D01*
X158350385Y-89252255D01*
X158442217Y-89145573D01*
X158578933Y-89027000D01*
X158442217Y-89027000D01*
X158329799Y-88987052D01*
X158305500Y-88900000D01*
X158317493Y-88833257D01*
X158371573Y-88795021D01*
X158494896Y-88777533D01*
X158714618Y-88773035D01*
X158750000Y-88773000D01*
X158940500Y-88773000D01*
X158940500Y-89027000D01*
X158837072Y-89066704D01*
X158813500Y-89122250D01*
X158866440Y-89199821D01*
X158940500Y-89217500D01*
X159043929Y-89177795D01*
X159067500Y-89122250D01*
X159014561Y-89044678D01*
X158940500Y-89027000D01*
X158940500Y-88773000D01*
X159194500Y-88773000D01*
X159194500Y-89031535D01*
X159161909Y-89262278D01*
G36*
X159184062Y-90266011D02*
G01*
X159157134Y-90392867D01*
X159131000Y-90424000D01*
X159089029Y-90368178D01*
X159068049Y-90230917D01*
X159067500Y-90201750D01*
X159053294Y-90048570D01*
X158997834Y-89986764D01*
X158940500Y-89979500D01*
X158834372Y-90024401D01*
X158813500Y-90106500D01*
X158786908Y-90209685D01*
X158750000Y-90233500D01*
X158698408Y-90180315D01*
X158686500Y-90106500D01*
X158641599Y-90000371D01*
X158559500Y-89979500D01*
X158471969Y-90004361D01*
X158436652Y-90101416D01*
X158432500Y-90201750D01*
X158416551Y-90348650D01*
X158377334Y-90422080D01*
X158369000Y-90424000D01*
X158334226Y-90366586D01*
X158311161Y-90218481D01*
X158305500Y-90074750D01*
X158305500Y-89725500D01*
X159194500Y-89725500D01*
X159194500Y-90074750D01*
X159184062Y-90266011D01*
G37*
X159184062Y-90266011D02*
X159157134Y-90392867D01*
X159131000Y-90424000D01*
X159089029Y-90368178D01*
X159068049Y-90230917D01*
X159067500Y-90201750D01*
X159053294Y-90048570D01*
X158997834Y-89986764D01*
X158940500Y-89979500D01*
X158834372Y-90024401D01*
X158813500Y-90106500D01*
X158786908Y-90209685D01*
X158750000Y-90233500D01*
X158698408Y-90180315D01*
X158686500Y-90106500D01*
X158641599Y-90000371D01*
X158559500Y-89979500D01*
X158471969Y-90004361D01*
X158436652Y-90101416D01*
X158432500Y-90201750D01*
X158416551Y-90348650D01*
X158377334Y-90422080D01*
X158369000Y-90424000D01*
X158334226Y-90366586D01*
X158311161Y-90218481D01*
X158305500Y-90074750D01*
X158305500Y-89725500D01*
X159194500Y-89725500D01*
X159194500Y-90074750D01*
X159184062Y-90266011D01*
G36*
X159160608Y-92133330D02*
G01*
X159079954Y-92266480D01*
X158984075Y-92328612D01*
X158976786Y-92329000D01*
X158947264Y-92275616D01*
X158940500Y-92202000D01*
X158967093Y-92098814D01*
X159004000Y-92075000D01*
X159060336Y-92023567D01*
X159067500Y-91979750D01*
X159014561Y-91902178D01*
X158940500Y-91884500D01*
X158835098Y-91928627D01*
X158813500Y-92016035D01*
X158769327Y-92168224D01*
X158664561Y-92289134D01*
X158559500Y-92329000D01*
X158432273Y-92274404D01*
X158345406Y-92139394D01*
X158309985Y-91967137D01*
X158337097Y-91800798D01*
X158400486Y-91709875D01*
X158537849Y-91652141D01*
X158559500Y-91650046D01*
X158559500Y-91884500D01*
X158456072Y-91924204D01*
X158432500Y-91979750D01*
X158485440Y-92057321D01*
X158559500Y-92075000D01*
X158662929Y-92035295D01*
X158686500Y-91979750D01*
X158633561Y-91902178D01*
X158559500Y-91884500D01*
X158559500Y-91650046D01*
X158736122Y-91632955D01*
X158938024Y-91651393D01*
X159086277Y-91706532D01*
X159103786Y-91721214D01*
X159173656Y-91852175D01*
X159194500Y-91979750D01*
X159160608Y-92133330D01*
G37*
X159160608Y-92133330D02*
X159079954Y-92266480D01*
X158984075Y-92328612D01*
X158976786Y-92329000D01*
X158947264Y-92275616D01*
X158940500Y-92202000D01*
X158967093Y-92098814D01*
X159004000Y-92075000D01*
X159060336Y-92023567D01*
X159067500Y-91979750D01*
X159014561Y-91902178D01*
X158940500Y-91884500D01*
X158835098Y-91928627D01*
X158813500Y-92016035D01*
X158769327Y-92168224D01*
X158664561Y-92289134D01*
X158559500Y-92329000D01*
X158432273Y-92274404D01*
X158345406Y-92139394D01*
X158309985Y-91967137D01*
X158337097Y-91800798D01*
X158400486Y-91709875D01*
X158537849Y-91652141D01*
X158559500Y-91650046D01*
X158559500Y-91884500D01*
X158456072Y-91924204D01*
X158432500Y-91979750D01*
X158485440Y-92057321D01*
X158559500Y-92075000D01*
X158662929Y-92035295D01*
X158686500Y-91979750D01*
X158633561Y-91902178D01*
X158559500Y-91884500D01*
X158559500Y-91650046D01*
X158736122Y-91632955D01*
X158938024Y-91651393D01*
X159086277Y-91706532D01*
X159103786Y-91721214D01*
X159173656Y-91852175D01*
X159194500Y-91979750D01*
X159160608Y-92133330D01*
G36*
X159111264Y-93262104D02*
G01*
X158945792Y-93281500D01*
X158777854Y-93300018D01*
X158671372Y-93346013D01*
X158660042Y-93360875D01*
X158618340Y-93407573D01*
X158585959Y-93360875D01*
X158498662Y-93294091D01*
X158427209Y-93281500D01*
X158324898Y-93234071D01*
X158305500Y-93154500D01*
X158350402Y-93048371D01*
X158432500Y-93027500D01*
X158520032Y-93002638D01*
X158555349Y-92905583D01*
X158559500Y-92805250D01*
X158573707Y-92652070D01*
X158629167Y-92590264D01*
X158686500Y-92583000D01*
X158750000Y-92600967D01*
X158750000Y-92837000D01*
X158693665Y-92888432D01*
X158686500Y-92932250D01*
X158720789Y-93016753D01*
X158750000Y-93027500D01*
X158806336Y-92976067D01*
X158813500Y-92932250D01*
X158779212Y-92847746D01*
X158750000Y-92837000D01*
X158750000Y-92600967D01*
X158789642Y-92612185D01*
X158813500Y-92652773D01*
X158856388Y-92736816D01*
X158963333Y-92860899D01*
X159004000Y-92900500D01*
X159156132Y-93071698D01*
X159191880Y-93192270D01*
X159111264Y-93262104D01*
G37*
X159111264Y-93262104D02*
X158945792Y-93281500D01*
X158777854Y-93300018D01*
X158671372Y-93346013D01*
X158660042Y-93360875D01*
X158618340Y-93407573D01*
X158585959Y-93360875D01*
X158498662Y-93294091D01*
X158427209Y-93281500D01*
X158324898Y-93234071D01*
X158305500Y-93154500D01*
X158350402Y-93048371D01*
X158432500Y-93027500D01*
X158520032Y-93002638D01*
X158555349Y-92905583D01*
X158559500Y-92805250D01*
X158573707Y-92652070D01*
X158629167Y-92590264D01*
X158686500Y-92583000D01*
X158750000Y-92600967D01*
X158750000Y-92837000D01*
X158693665Y-92888432D01*
X158686500Y-92932250D01*
X158720789Y-93016753D01*
X158750000Y-93027500D01*
X158806336Y-92976067D01*
X158813500Y-92932250D01*
X158779212Y-92847746D01*
X158750000Y-92837000D01*
X158750000Y-92600967D01*
X158789642Y-92612185D01*
X158813500Y-92652773D01*
X158856388Y-92736816D01*
X158963333Y-92860899D01*
X159004000Y-92900500D01*
X159156132Y-93071698D01*
X159191880Y-93192270D01*
X159111264Y-93262104D01*
G36*
X159158707Y-94982368D02*
G01*
X159059476Y-95135459D01*
X158918578Y-95186500D01*
X158811024Y-95140102D01*
X158787042Y-95107125D01*
X158745340Y-95060426D01*
X158712959Y-95107125D01*
X158624050Y-95179281D01*
X158581423Y-95186500D01*
X158433521Y-95129425D01*
X158337511Y-94971201D01*
X158305500Y-94746535D01*
X158305500Y-94488000D01*
X158559500Y-94488000D01*
X158559500Y-94742000D01*
X158456072Y-94781704D01*
X158432500Y-94837250D01*
X158485440Y-94914821D01*
X158559500Y-94932500D01*
X158662929Y-94892795D01*
X158686500Y-94837250D01*
X158633561Y-94759678D01*
X158559500Y-94742000D01*
X158559500Y-94488000D01*
X158940500Y-94488000D01*
X158940500Y-94742000D01*
X158837072Y-94781704D01*
X158813500Y-94837250D01*
X158866440Y-94914821D01*
X158940500Y-94932500D01*
X159043929Y-94892795D01*
X159067500Y-94837250D01*
X159014561Y-94759678D01*
X158940500Y-94742000D01*
X158940500Y-94488000D01*
X159194500Y-94488000D01*
X159194500Y-94746535D01*
X159158707Y-94982368D01*
G37*
X159158707Y-94982368D02*
X159059476Y-95135459D01*
X158918578Y-95186500D01*
X158811024Y-95140102D01*
X158787042Y-95107125D01*
X158745340Y-95060426D01*
X158712959Y-95107125D01*
X158624050Y-95179281D01*
X158581423Y-95186500D01*
X158433521Y-95129425D01*
X158337511Y-94971201D01*
X158305500Y-94746535D01*
X158305500Y-94488000D01*
X158559500Y-94488000D01*
X158559500Y-94742000D01*
X158456072Y-94781704D01*
X158432500Y-94837250D01*
X158485440Y-94914821D01*
X158559500Y-94932500D01*
X158662929Y-94892795D01*
X158686500Y-94837250D01*
X158633561Y-94759678D01*
X158559500Y-94742000D01*
X158559500Y-94488000D01*
X158940500Y-94488000D01*
X158940500Y-94742000D01*
X158837072Y-94781704D01*
X158813500Y-94837250D01*
X158866440Y-94914821D01*
X158940500Y-94932500D01*
X159043929Y-94892795D01*
X159067500Y-94837250D01*
X159014561Y-94759678D01*
X158940500Y-94742000D01*
X158940500Y-94488000D01*
X159194500Y-94488000D01*
X159194500Y-94746535D01*
X159158707Y-94982368D01*
G36*
X159171479Y-95803758D02*
G01*
X159053102Y-95968403D01*
X159038637Y-95983136D01*
X158889365Y-96092032D01*
X158700025Y-96135455D01*
X158594137Y-96139000D01*
X158414466Y-96130862D01*
X158329050Y-96096998D01*
X158305669Y-96023232D01*
X158305500Y-96012000D01*
X158335437Y-95919039D01*
X158446825Y-95886310D01*
X158496000Y-95885000D01*
X158647240Y-95856601D01*
X158686500Y-95789750D01*
X158629704Y-95714130D01*
X158496000Y-95694500D01*
X158356560Y-95674542D01*
X158307466Y-95600283D01*
X158305500Y-95567500D01*
X158322217Y-95491324D01*
X158393169Y-95453333D01*
X158549563Y-95441043D01*
X158623000Y-95440500D01*
X158804126Y-95451153D01*
X158877000Y-95468420D01*
X158877000Y-95694500D01*
X158820665Y-95745932D01*
X158813500Y-95789750D01*
X158847789Y-95874253D01*
X158877000Y-95885000D01*
X158933336Y-95833567D01*
X158940500Y-95789750D01*
X158906212Y-95705246D01*
X158877000Y-95694500D01*
X158877000Y-95468420D01*
X158919083Y-95478392D01*
X158940500Y-95499720D01*
X158992909Y-95564208D01*
X159067500Y-95599250D01*
X159176477Y-95678066D01*
X159171479Y-95803758D01*
G37*
X159171479Y-95803758D02*
X159053102Y-95968403D01*
X159038637Y-95983136D01*
X158889365Y-96092032D01*
X158700025Y-96135455D01*
X158594137Y-96139000D01*
X158414466Y-96130862D01*
X158329050Y-96096998D01*
X158305669Y-96023232D01*
X158305500Y-96012000D01*
X158335437Y-95919039D01*
X158446825Y-95886310D01*
X158496000Y-95885000D01*
X158647240Y-95856601D01*
X158686500Y-95789750D01*
X158629704Y-95714130D01*
X158496000Y-95694500D01*
X158356560Y-95674542D01*
X158307466Y-95600283D01*
X158305500Y-95567500D01*
X158322217Y-95491324D01*
X158393169Y-95453333D01*
X158549563Y-95441043D01*
X158623000Y-95440500D01*
X158804126Y-95451153D01*
X158877000Y-95468420D01*
X158877000Y-95694500D01*
X158820665Y-95745932D01*
X158813500Y-95789750D01*
X158847789Y-95874253D01*
X158877000Y-95885000D01*
X158933336Y-95833567D01*
X158940500Y-95789750D01*
X158906212Y-95705246D01*
X158877000Y-95694500D01*
X158877000Y-95468420D01*
X158919083Y-95478392D01*
X158940500Y-95499720D01*
X158992909Y-95564208D01*
X159067500Y-95599250D01*
X159176477Y-95678066D01*
X159171479Y-95803758D01*
G36*
X159160608Y-96895830D02*
G01*
X159079954Y-97028980D01*
X158984075Y-97091112D01*
X158976786Y-97091500D01*
X158947264Y-97038116D01*
X158940500Y-96964500D01*
X158967093Y-96861314D01*
X159004000Y-96837500D01*
X159060336Y-96786067D01*
X159067500Y-96742250D01*
X159014561Y-96664678D01*
X158940500Y-96647000D01*
X158835098Y-96691127D01*
X158813500Y-96778535D01*
X158769327Y-96930724D01*
X158664561Y-97051634D01*
X158559500Y-97091500D01*
X158432273Y-97036904D01*
X158345406Y-96901894D01*
X158309985Y-96729637D01*
X158337097Y-96563298D01*
X158400486Y-96472375D01*
X158505663Y-96400264D01*
X158552203Y-96434855D01*
X158559500Y-96520000D01*
X158532908Y-96623185D01*
X158496000Y-96647000D01*
X158439665Y-96698432D01*
X158432500Y-96742250D01*
X158485440Y-96819821D01*
X158559500Y-96837500D01*
X158664903Y-96793372D01*
X158686500Y-96705964D01*
X158730674Y-96553775D01*
X158835440Y-96432865D01*
X158940500Y-96393000D01*
X159067292Y-96449082D01*
X159162516Y-96587663D01*
X159194500Y-96742250D01*
X159160608Y-96895830D01*
G37*
X159160608Y-96895830D02*
X159079954Y-97028980D01*
X158984075Y-97091112D01*
X158976786Y-97091500D01*
X158947264Y-97038116D01*
X158940500Y-96964500D01*
X158967093Y-96861314D01*
X159004000Y-96837500D01*
X159060336Y-96786067D01*
X159067500Y-96742250D01*
X159014561Y-96664678D01*
X158940500Y-96647000D01*
X158835098Y-96691127D01*
X158813500Y-96778535D01*
X158769327Y-96930724D01*
X158664561Y-97051634D01*
X158559500Y-97091500D01*
X158432273Y-97036904D01*
X158345406Y-96901894D01*
X158309985Y-96729637D01*
X158337097Y-96563298D01*
X158400486Y-96472375D01*
X158505663Y-96400264D01*
X158552203Y-96434855D01*
X158559500Y-96520000D01*
X158532908Y-96623185D01*
X158496000Y-96647000D01*
X158439665Y-96698432D01*
X158432500Y-96742250D01*
X158485440Y-96819821D01*
X158559500Y-96837500D01*
X158664903Y-96793372D01*
X158686500Y-96705964D01*
X158730674Y-96553775D01*
X158835440Y-96432865D01*
X158940500Y-96393000D01*
X159067292Y-96449082D01*
X159162516Y-96587663D01*
X159194500Y-96742250D01*
X159160608Y-96895830D01*
G36*
X159177417Y-97851092D02*
G01*
X159135808Y-97916410D01*
X159131000Y-97917000D01*
X159069346Y-97868678D01*
X159067500Y-97853500D01*
X159010390Y-97817276D01*
X158864369Y-97794285D01*
X158750000Y-97790000D01*
X158568885Y-97801422D01*
X158453927Y-97830626D01*
X158432500Y-97853500D01*
X158384179Y-97915154D01*
X158369000Y-97917000D01*
X158325780Y-97861480D01*
X158305682Y-97726248D01*
X158305500Y-97710625D01*
X158305500Y-97504250D01*
X159194500Y-97504250D01*
X159194500Y-97710625D01*
X159177417Y-97851092D01*
G37*
X159177417Y-97851092D02*
X159135808Y-97916410D01*
X159131000Y-97917000D01*
X159069346Y-97868678D01*
X159067500Y-97853500D01*
X159010390Y-97817276D01*
X158864369Y-97794285D01*
X158750000Y-97790000D01*
X158568885Y-97801422D01*
X158453927Y-97830626D01*
X158432500Y-97853500D01*
X158384179Y-97915154D01*
X158369000Y-97917000D01*
X158325780Y-97861480D01*
X158305682Y-97726248D01*
X158305500Y-97710625D01*
X158305500Y-97504250D01*
X159194500Y-97504250D01*
X159194500Y-97710625D01*
X159177417Y-97851092D01*
G36*
X159160608Y-98800830D02*
G01*
X159079954Y-98933980D01*
X158984075Y-98996112D01*
X158976786Y-98996500D01*
X158947264Y-98943116D01*
X158940500Y-98869500D01*
X158967093Y-98766314D01*
X159004000Y-98742500D01*
X159060336Y-98691067D01*
X159067500Y-98647250D01*
X159033511Y-98587350D01*
X158915830Y-98558095D01*
X158750000Y-98552000D01*
X158550337Y-98562196D01*
X158452817Y-98597501D01*
X158432500Y-98647250D01*
X158466789Y-98731753D01*
X158496000Y-98742500D01*
X158547593Y-98795684D01*
X158559500Y-98869500D01*
X158540974Y-98978621D01*
X158476866Y-98975296D01*
X158396215Y-98905785D01*
X158323991Y-98760433D01*
X158314875Y-98575253D01*
X158368344Y-98414713D01*
X158400486Y-98377375D01*
X158537849Y-98319641D01*
X158736122Y-98300455D01*
X158938024Y-98318893D01*
X159086277Y-98374032D01*
X159103786Y-98388714D01*
X159173656Y-98519675D01*
X159194500Y-98647250D01*
X159160608Y-98800830D01*
G37*
X159160608Y-98800830D02*
X159079954Y-98933980D01*
X158984075Y-98996112D01*
X158976786Y-98996500D01*
X158947264Y-98943116D01*
X158940500Y-98869500D01*
X158967093Y-98766314D01*
X159004000Y-98742500D01*
X159060336Y-98691067D01*
X159067500Y-98647250D01*
X159033511Y-98587350D01*
X158915830Y-98558095D01*
X158750000Y-98552000D01*
X158550337Y-98562196D01*
X158452817Y-98597501D01*
X158432500Y-98647250D01*
X158466789Y-98731753D01*
X158496000Y-98742500D01*
X158547593Y-98795684D01*
X158559500Y-98869500D01*
X158540974Y-98978621D01*
X158476866Y-98975296D01*
X158396215Y-98905785D01*
X158323991Y-98760433D01*
X158314875Y-98575253D01*
X158368344Y-98414713D01*
X158400486Y-98377375D01*
X158537849Y-98319641D01*
X158736122Y-98300455D01*
X158938024Y-98318893D01*
X159086277Y-98374032D01*
X159103786Y-98388714D01*
X159173656Y-98519675D01*
X159194500Y-98647250D01*
X159160608Y-98800830D01*
G36*
X159176006Y-100853555D02*
G01*
X159099043Y-100891138D01*
X158931392Y-100901426D01*
X158905864Y-100901500D01*
X158682402Y-100879697D01*
X158523193Y-100800902D01*
X158461364Y-100745636D01*
X158335814Y-100587745D01*
X158322611Y-100460011D01*
X158420803Y-100335214D01*
X158446257Y-100314125D01*
X158638717Y-100229405D01*
X158889916Y-100203000D01*
X159075586Y-100210280D01*
X159166327Y-100240924D01*
X159193801Y-100308133D01*
X159194500Y-100330000D01*
X159177784Y-100406175D01*
X159106832Y-100444166D01*
X158950438Y-100456456D01*
X158877000Y-100457000D01*
X158677337Y-100467196D01*
X158579817Y-100502501D01*
X158559500Y-100552250D01*
X158593490Y-100612149D01*
X158711171Y-100641404D01*
X158877000Y-100647500D01*
X159067438Y-100654186D01*
X159162417Y-100682567D01*
X159193142Y-100745125D01*
X159194500Y-100774500D01*
X159176006Y-100853555D01*
G37*
X159176006Y-100853555D02*
X159099043Y-100891138D01*
X158931392Y-100901426D01*
X158905864Y-100901500D01*
X158682402Y-100879697D01*
X158523193Y-100800902D01*
X158461364Y-100745636D01*
X158335814Y-100587745D01*
X158322611Y-100460011D01*
X158420803Y-100335214D01*
X158446257Y-100314125D01*
X158638717Y-100229405D01*
X158889916Y-100203000D01*
X159075586Y-100210280D01*
X159166327Y-100240924D01*
X159193801Y-100308133D01*
X159194500Y-100330000D01*
X159177784Y-100406175D01*
X159106832Y-100444166D01*
X158950438Y-100456456D01*
X158877000Y-100457000D01*
X158677337Y-100467196D01*
X158579817Y-100502501D01*
X158559500Y-100552250D01*
X158593490Y-100612149D01*
X158711171Y-100641404D01*
X158877000Y-100647500D01*
X159067438Y-100654186D01*
X159162417Y-100682567D01*
X159193142Y-100745125D01*
X159194500Y-100774500D01*
X159176006Y-100853555D01*
G36*
X159158788Y-101654044D02*
G01*
X159065319Y-101801063D01*
X158940500Y-101854000D01*
X158822920Y-101802634D01*
X158721241Y-101686323D01*
X158686500Y-101579579D01*
X158633541Y-101483691D01*
X158514943Y-101417546D01*
X158459057Y-101409500D01*
X158441492Y-101465407D01*
X158432726Y-101602853D01*
X158432500Y-101631750D01*
X158416551Y-101778650D01*
X158377334Y-101852080D01*
X158369000Y-101854000D01*
X158334226Y-101796586D01*
X158311161Y-101648481D01*
X158305500Y-101504750D01*
X158315034Y-101290397D01*
X158347192Y-101181163D01*
X158395557Y-101155500D01*
X158569112Y-101188547D01*
X158672673Y-101273063D01*
X158686500Y-101325579D01*
X158739820Y-101462827D01*
X158863479Y-101570543D01*
X158967715Y-101600000D01*
X159054779Y-101551144D01*
X159067500Y-101504750D01*
X159033212Y-101420246D01*
X159004000Y-101409500D01*
X158953303Y-101356030D01*
X158940500Y-101275706D01*
X158967001Y-101178949D01*
X159040944Y-101180456D01*
X159142170Y-101214077D01*
X159167944Y-101219000D01*
X159185367Y-101274984D01*
X159194221Y-101412963D01*
X159194500Y-101445785D01*
X159158788Y-101654044D01*
G37*
X159158788Y-101654044D02*
X159065319Y-101801063D01*
X158940500Y-101854000D01*
X158822920Y-101802634D01*
X158721241Y-101686323D01*
X158686500Y-101579579D01*
X158633541Y-101483691D01*
X158514943Y-101417546D01*
X158459057Y-101409500D01*
X158441492Y-101465407D01*
X158432726Y-101602853D01*
X158432500Y-101631750D01*
X158416551Y-101778650D01*
X158377334Y-101852080D01*
X158369000Y-101854000D01*
X158334226Y-101796586D01*
X158311161Y-101648481D01*
X158305500Y-101504750D01*
X158315034Y-101290397D01*
X158347192Y-101181163D01*
X158395557Y-101155500D01*
X158569112Y-101188547D01*
X158672673Y-101273063D01*
X158686500Y-101325579D01*
X158739820Y-101462827D01*
X158863479Y-101570543D01*
X158967715Y-101600000D01*
X159054779Y-101551144D01*
X159067500Y-101504750D01*
X159033212Y-101420246D01*
X159004000Y-101409500D01*
X158953303Y-101356030D01*
X158940500Y-101275706D01*
X158967001Y-101178949D01*
X159040944Y-101180456D01*
X159142170Y-101214077D01*
X159167944Y-101219000D01*
X159185367Y-101274984D01*
X159194221Y-101412963D01*
X159194500Y-101445785D01*
X159158788Y-101654044D01*
G36*
X159042164Y-80871190D02*
G01*
X158945717Y-80868878D01*
X158940500Y-80867250D01*
X158837508Y-80862809D01*
X158813500Y-80926470D01*
X158780502Y-81013685D01*
X158750000Y-81026000D01*
X158694357Y-80974278D01*
X158686500Y-80926470D01*
X158650455Y-80857196D01*
X158559500Y-80867250D01*
X158459904Y-80872670D01*
X158432527Y-80781663D01*
X158432500Y-80776279D01*
X158458314Y-80670792D01*
X158496000Y-80645000D01*
X158552336Y-80593567D01*
X158559500Y-80549750D01*
X158525212Y-80465246D01*
X158496000Y-80454500D01*
X158444408Y-80401315D01*
X158432500Y-80327500D01*
X158459093Y-80224314D01*
X158496000Y-80200500D01*
X158557655Y-80248821D01*
X158559500Y-80264000D01*
X158607822Y-80325654D01*
X158623000Y-80327500D01*
X158664653Y-80271602D01*
X158685829Y-80133831D01*
X158686500Y-80100970D01*
X158677301Y-79952929D01*
X158636470Y-79902233D01*
X158559500Y-79914750D01*
X158459904Y-79920170D01*
X158432527Y-79829163D01*
X158432500Y-79823779D01*
X158458314Y-79718292D01*
X158496000Y-79692500D01*
X158552336Y-79641067D01*
X158559500Y-79597250D01*
X158525212Y-79512746D01*
X158496000Y-79502000D01*
X158444408Y-79448815D01*
X158432500Y-79375000D01*
X158459093Y-79271814D01*
X158496000Y-79248000D01*
X158557655Y-79296321D01*
X158559500Y-79311500D01*
X158607822Y-79373154D01*
X158623000Y-79375000D01*
X158664653Y-79319102D01*
X158685829Y-79181331D01*
X158686500Y-79148470D01*
X158677301Y-79000429D01*
X158636470Y-78949733D01*
X158559500Y-78962250D01*
X158459904Y-78967670D01*
X158432527Y-78876663D01*
X158432500Y-78871279D01*
X158458314Y-78765792D01*
X158496000Y-78740000D01*
X158552336Y-78688567D01*
X158559500Y-78644750D01*
X158525212Y-78560246D01*
X158496000Y-78549500D01*
X158444408Y-78496315D01*
X158432500Y-78422500D01*
X158459093Y-78319314D01*
X158496000Y-78295500D01*
X158557655Y-78343821D01*
X158559500Y-78359000D01*
X158607822Y-78420654D01*
X158623000Y-78422500D01*
X158664653Y-78366602D01*
X158685829Y-78228831D01*
X158686500Y-78195970D01*
X158677301Y-78047929D01*
X158636470Y-77997233D01*
X158559500Y-78009750D01*
X158459904Y-78015170D01*
X158432527Y-77924163D01*
X158432500Y-77918779D01*
X158458314Y-77813292D01*
X158496000Y-77787500D01*
X158552336Y-77736067D01*
X158559500Y-77692250D01*
X158525212Y-77607746D01*
X158496000Y-77597000D01*
X158444408Y-77543815D01*
X158432500Y-77470000D01*
X158459093Y-77366814D01*
X158496000Y-77343000D01*
X158557655Y-77391321D01*
X158559500Y-77406500D01*
X158607822Y-77468154D01*
X158623000Y-77470000D01*
X158674593Y-77416815D01*
X158686500Y-77343000D01*
X158713093Y-77239814D01*
X158750000Y-77216000D01*
X158801593Y-77269184D01*
X158813500Y-77343000D01*
X158840093Y-77446185D01*
X158877000Y-77470000D01*
X158938655Y-77421678D01*
X158940500Y-77406500D01*
X158988822Y-77344845D01*
X159004000Y-77343000D01*
X159055593Y-77396184D01*
X159067500Y-77470000D01*
X159040908Y-77573185D01*
X159004000Y-77597000D01*
X158947665Y-77648432D01*
X158940500Y-77692250D01*
X158974789Y-77776753D01*
X159004000Y-77787500D01*
X159055025Y-77840866D01*
X159067500Y-77918779D01*
X159042164Y-78013690D01*
X158945717Y-78011378D01*
X158940500Y-78009750D01*
X158855866Y-77999296D01*
X158820179Y-78060800D01*
X158813500Y-78195970D01*
X158829169Y-78344562D01*
X158867789Y-78420105D01*
X158877000Y-78422500D01*
X158938655Y-78374178D01*
X158940500Y-78359000D01*
X158988822Y-78297345D01*
X159004000Y-78295500D01*
X159055593Y-78348684D01*
X159067500Y-78422500D01*
X159040908Y-78525685D01*
X159004000Y-78549500D01*
X158947665Y-78600932D01*
X158940500Y-78644750D01*
X158974789Y-78729253D01*
X159004000Y-78740000D01*
X159055025Y-78793366D01*
X159067500Y-78871279D01*
X159042164Y-78966190D01*
X158945717Y-78963878D01*
X158940500Y-78962250D01*
X158855866Y-78951796D01*
X158820179Y-79013300D01*
X158813500Y-79148470D01*
X158829169Y-79297062D01*
X158867789Y-79372605D01*
X158877000Y-79375000D01*
X158938655Y-79326678D01*
X158940500Y-79311500D01*
X158988822Y-79249845D01*
X159004000Y-79248000D01*
X159055593Y-79301184D01*
X159067500Y-79375000D01*
X159040908Y-79478185D01*
X159004000Y-79502000D01*
X158947665Y-79553432D01*
X158940500Y-79597250D01*
X158974789Y-79681753D01*
X159004000Y-79692500D01*
X159055025Y-79745866D01*
X159067500Y-79823779D01*
X159042164Y-79918690D01*
X158945717Y-79916378D01*
X158940500Y-79914749D01*
X158855866Y-79904296D01*
X158820179Y-79965800D01*
X158813500Y-80100970D01*
X158829169Y-80249562D01*
X158867789Y-80325105D01*
X158877000Y-80327500D01*
X158938655Y-80279178D01*
X158940500Y-80264000D01*
X158988822Y-80202345D01*
X159004000Y-80200500D01*
X159055593Y-80253684D01*
X159067500Y-80327500D01*
X159040908Y-80430685D01*
X159004000Y-80454500D01*
X158947665Y-80505932D01*
X158940500Y-80549750D01*
X158974789Y-80634253D01*
X159004000Y-80645000D01*
X159055025Y-80698366D01*
X159067500Y-80776279D01*
X159042164Y-80871190D01*
G37*
X159042164Y-80871190D02*
X158945717Y-80868878D01*
X158940500Y-80867250D01*
X158837508Y-80862809D01*
X158813500Y-80926470D01*
X158780502Y-81013685D01*
X158750000Y-81026000D01*
X158694357Y-80974278D01*
X158686500Y-80926470D01*
X158650455Y-80857196D01*
X158559500Y-80867250D01*
X158459904Y-80872670D01*
X158432527Y-80781663D01*
X158432500Y-80776279D01*
X158458314Y-80670792D01*
X158496000Y-80645000D01*
X158552336Y-80593567D01*
X158559500Y-80549750D01*
X158525212Y-80465246D01*
X158496000Y-80454500D01*
X158444408Y-80401315D01*
X158432500Y-80327500D01*
X158459093Y-80224314D01*
X158496000Y-80200500D01*
X158557655Y-80248821D01*
X158559500Y-80264000D01*
X158607822Y-80325654D01*
X158623000Y-80327500D01*
X158664653Y-80271602D01*
X158685829Y-80133831D01*
X158686500Y-80100970D01*
X158677301Y-79952929D01*
X158636470Y-79902233D01*
X158559500Y-79914750D01*
X158459904Y-79920170D01*
X158432527Y-79829163D01*
X158432500Y-79823779D01*
X158458314Y-79718292D01*
X158496000Y-79692500D01*
X158552336Y-79641067D01*
X158559500Y-79597250D01*
X158525212Y-79512746D01*
X158496000Y-79502000D01*
X158444408Y-79448815D01*
X158432500Y-79375000D01*
X158459093Y-79271814D01*
X158496000Y-79248000D01*
X158557655Y-79296321D01*
X158559500Y-79311500D01*
X158607822Y-79373154D01*
X158623000Y-79375000D01*
X158664653Y-79319102D01*
X158685829Y-79181331D01*
X158686500Y-79148470D01*
X158677301Y-79000429D01*
X158636470Y-78949733D01*
X158559500Y-78962250D01*
X158459904Y-78967670D01*
X158432527Y-78876663D01*
X158432500Y-78871279D01*
X158458314Y-78765792D01*
X158496000Y-78740000D01*
X158552336Y-78688567D01*
X158559500Y-78644750D01*
X158525212Y-78560246D01*
X158496000Y-78549500D01*
X158444408Y-78496315D01*
X158432500Y-78422500D01*
X158459093Y-78319314D01*
X158496000Y-78295500D01*
X158557655Y-78343821D01*
X158559500Y-78359000D01*
X158607822Y-78420654D01*
X158623000Y-78422500D01*
X158664653Y-78366602D01*
X158685829Y-78228831D01*
X158686500Y-78195970D01*
X158677301Y-78047929D01*
X158636470Y-77997233D01*
X158559500Y-78009750D01*
X158459904Y-78015170D01*
X158432527Y-77924163D01*
X158432500Y-77918779D01*
X158458314Y-77813292D01*
X158496000Y-77787500D01*
X158552336Y-77736067D01*
X158559500Y-77692250D01*
X158525212Y-77607746D01*
X158496000Y-77597000D01*
X158444408Y-77543815D01*
X158432500Y-77470000D01*
X158459093Y-77366814D01*
X158496000Y-77343000D01*
X158557655Y-77391321D01*
X158559500Y-77406500D01*
X158607822Y-77468154D01*
X158623000Y-77470000D01*
X158674593Y-77416815D01*
X158686500Y-77343000D01*
X158713093Y-77239814D01*
X158750000Y-77216000D01*
X158801593Y-77269184D01*
X158813500Y-77343000D01*
X158840093Y-77446185D01*
X158877000Y-77470000D01*
X158938655Y-77421678D01*
X158940500Y-77406500D01*
X158988822Y-77344845D01*
X159004000Y-77343000D01*
X159055593Y-77396184D01*
X159067500Y-77470000D01*
X159040908Y-77573185D01*
X159004000Y-77597000D01*
X158947665Y-77648432D01*
X158940500Y-77692250D01*
X158974789Y-77776753D01*
X159004000Y-77787500D01*
X159055025Y-77840866D01*
X159067500Y-77918779D01*
X159042164Y-78013690D01*
X158945717Y-78011378D01*
X158940500Y-78009750D01*
X158855866Y-77999296D01*
X158820179Y-78060800D01*
X158813500Y-78195970D01*
X158829169Y-78344562D01*
X158867789Y-78420105D01*
X158877000Y-78422500D01*
X158938655Y-78374178D01*
X158940500Y-78359000D01*
X158988822Y-78297345D01*
X159004000Y-78295500D01*
X159055593Y-78348684D01*
X159067500Y-78422500D01*
X159040908Y-78525685D01*
X159004000Y-78549500D01*
X158947665Y-78600932D01*
X158940500Y-78644750D01*
X158974789Y-78729253D01*
X159004000Y-78740000D01*
X159055025Y-78793366D01*
X159067500Y-78871279D01*
X159042164Y-78966190D01*
X158945717Y-78963878D01*
X158940500Y-78962250D01*
X158855866Y-78951796D01*
X158820179Y-79013300D01*
X158813500Y-79148470D01*
X158829169Y-79297062D01*
X158867789Y-79372605D01*
X158877000Y-79375000D01*
X158938655Y-79326678D01*
X158940500Y-79311500D01*
X158988822Y-79249845D01*
X159004000Y-79248000D01*
X159055593Y-79301184D01*
X159067500Y-79375000D01*
X159040908Y-79478185D01*
X159004000Y-79502000D01*
X158947665Y-79553432D01*
X158940500Y-79597250D01*
X158974789Y-79681753D01*
X159004000Y-79692500D01*
X159055025Y-79745866D01*
X159067500Y-79823779D01*
X159042164Y-79918690D01*
X158945717Y-79916378D01*
X158940500Y-79914749D01*
X158855866Y-79904296D01*
X158820179Y-79965800D01*
X158813500Y-80100970D01*
X158829169Y-80249562D01*
X158867789Y-80325105D01*
X158877000Y-80327500D01*
X158938655Y-80279178D01*
X158940500Y-80264000D01*
X158988822Y-80202345D01*
X159004000Y-80200500D01*
X159055593Y-80253684D01*
X159067500Y-80327500D01*
X159040908Y-80430685D01*
X159004000Y-80454500D01*
X158947665Y-80505932D01*
X158940500Y-80549750D01*
X158974789Y-80634253D01*
X159004000Y-80645000D01*
X159055025Y-80698366D01*
X159067500Y-80776279D01*
X159042164Y-80871190D01*
G36*
X159040908Y-106592685D02*
G01*
X159004000Y-106616500D01*
X158942346Y-106568178D01*
X158940500Y-106553000D01*
X158892179Y-106491345D01*
X158877000Y-106489500D01*
X158825408Y-106542684D01*
X158813500Y-106616500D01*
X158786908Y-106719685D01*
X158750000Y-106743500D01*
X158698408Y-106690315D01*
X158686500Y-106616500D01*
X158659908Y-106513314D01*
X158623000Y-106489500D01*
X158561346Y-106537821D01*
X158559500Y-106553000D01*
X158511179Y-106614654D01*
X158496000Y-106616500D01*
X158444408Y-106563315D01*
X158432500Y-106489500D01*
X158459093Y-106386314D01*
X158496000Y-106362500D01*
X158552336Y-106311067D01*
X158559500Y-106267250D01*
X158525212Y-106182746D01*
X158496000Y-106172000D01*
X158444976Y-106118633D01*
X158432500Y-106040720D01*
X158457837Y-105945809D01*
X158554284Y-105948121D01*
X158559500Y-105949750D01*
X158644135Y-105960203D01*
X158679822Y-105898699D01*
X158686500Y-105763529D01*
X158670832Y-105614937D01*
X158632212Y-105539394D01*
X158623000Y-105537000D01*
X158561346Y-105585321D01*
X158559500Y-105600500D01*
X158511179Y-105662154D01*
X158496000Y-105664000D01*
X158444408Y-105610815D01*
X158432500Y-105537000D01*
X158459093Y-105433814D01*
X158496000Y-105410000D01*
X158552336Y-105358567D01*
X158559500Y-105314750D01*
X158525212Y-105230246D01*
X158496000Y-105219500D01*
X158444976Y-105166133D01*
X158432500Y-105088220D01*
X158457837Y-104993309D01*
X158554284Y-104995621D01*
X158559500Y-104997250D01*
X158644135Y-105007703D01*
X158679822Y-104946199D01*
X158686500Y-104811029D01*
X158670832Y-104662437D01*
X158632212Y-104586894D01*
X158623000Y-104584500D01*
X158561346Y-104632821D01*
X158559500Y-104648000D01*
X158511179Y-104709654D01*
X158496000Y-104711500D01*
X158444408Y-104658315D01*
X158432500Y-104584500D01*
X158459093Y-104481314D01*
X158496000Y-104457500D01*
X158552336Y-104406067D01*
X158559500Y-104362250D01*
X158525212Y-104277746D01*
X158496000Y-104267000D01*
X158444976Y-104213633D01*
X158432500Y-104135720D01*
X158457837Y-104040809D01*
X158554284Y-104043121D01*
X158559500Y-104044750D01*
X158644135Y-104055203D01*
X158679822Y-103993699D01*
X158686500Y-103858529D01*
X158670832Y-103709937D01*
X158632212Y-103634394D01*
X158623000Y-103632000D01*
X158561346Y-103680321D01*
X158559500Y-103695500D01*
X158511179Y-103757154D01*
X158496000Y-103759000D01*
X158444408Y-103705815D01*
X158432500Y-103632000D01*
X158459093Y-103528814D01*
X158496000Y-103505000D01*
X158552336Y-103453567D01*
X158559500Y-103409750D01*
X158525212Y-103325246D01*
X158496000Y-103314500D01*
X158444976Y-103261133D01*
X158432500Y-103183220D01*
X158457837Y-103088309D01*
X158554284Y-103090621D01*
X158559500Y-103092250D01*
X158662493Y-103096690D01*
X158686500Y-103033029D01*
X158719499Y-102945814D01*
X158750000Y-102933500D01*
X158805644Y-102985221D01*
X158813500Y-103033029D01*
X158849546Y-103102303D01*
X158940500Y-103092250D01*
X159040097Y-103086829D01*
X159067474Y-103177836D01*
X159067500Y-103183220D01*
X159041687Y-103288707D01*
X159004000Y-103314500D01*
X158947665Y-103365932D01*
X158940500Y-103409750D01*
X158974789Y-103494253D01*
X159004000Y-103505000D01*
X159055593Y-103558184D01*
X159067500Y-103632000D01*
X159040908Y-103735185D01*
X159004000Y-103759000D01*
X158942346Y-103710678D01*
X158940500Y-103695500D01*
X158892179Y-103633845D01*
X158877000Y-103632000D01*
X158835348Y-103687897D01*
X158814172Y-103825668D01*
X158813500Y-103858529D01*
X158822700Y-104006570D01*
X158863531Y-104057266D01*
X158940500Y-104044750D01*
X159040097Y-104039329D01*
X159067474Y-104130336D01*
X159067500Y-104135720D01*
X159041687Y-104241207D01*
X159004000Y-104267000D01*
X158947665Y-104318432D01*
X158940500Y-104362250D01*
X158974789Y-104446753D01*
X159004000Y-104457500D01*
X159055593Y-104510684D01*
X159067500Y-104584500D01*
X159040908Y-104687685D01*
X159004000Y-104711500D01*
X158942346Y-104663178D01*
X158940500Y-104648000D01*
X158892179Y-104586345D01*
X158877000Y-104584500D01*
X158835348Y-104640397D01*
X158814172Y-104778168D01*
X158813500Y-104811029D01*
X158822700Y-104959070D01*
X158863531Y-105009766D01*
X158940500Y-104997250D01*
X159040097Y-104991829D01*
X159067474Y-105082836D01*
X159067500Y-105088220D01*
X159041687Y-105193707D01*
X159004000Y-105219500D01*
X158947665Y-105270932D01*
X158940500Y-105314750D01*
X158974789Y-105399253D01*
X159004000Y-105410000D01*
X159055593Y-105463184D01*
X159067500Y-105537000D01*
X159040908Y-105640185D01*
X159004000Y-105664000D01*
X158942346Y-105615678D01*
X158940500Y-105600500D01*
X158892179Y-105538845D01*
X158877000Y-105537000D01*
X158835348Y-105592897D01*
X158814172Y-105730668D01*
X158813500Y-105763529D01*
X158822700Y-105911570D01*
X158863531Y-105962266D01*
X158940500Y-105949750D01*
X159040097Y-105944329D01*
X159067474Y-106035336D01*
X159067500Y-106040720D01*
X159041687Y-106146207D01*
X159004000Y-106172000D01*
X158947665Y-106223432D01*
X158940500Y-106267250D01*
X158974789Y-106351753D01*
X159004000Y-106362500D01*
X159055593Y-106415684D01*
X159067500Y-106489500D01*
X159040908Y-106592685D01*
G37*
X159040908Y-106592685D02*
X159004000Y-106616500D01*
X158942346Y-106568178D01*
X158940500Y-106553000D01*
X158892179Y-106491345D01*
X158877000Y-106489500D01*
X158825408Y-106542684D01*
X158813500Y-106616500D01*
X158786908Y-106719685D01*
X158750000Y-106743500D01*
X158698408Y-106690315D01*
X158686500Y-106616500D01*
X158659908Y-106513314D01*
X158623000Y-106489500D01*
X158561346Y-106537821D01*
X158559500Y-106553000D01*
X158511179Y-106614654D01*
X158496000Y-106616500D01*
X158444408Y-106563315D01*
X158432500Y-106489500D01*
X158459093Y-106386314D01*
X158496000Y-106362500D01*
X158552336Y-106311067D01*
X158559500Y-106267250D01*
X158525212Y-106182746D01*
X158496000Y-106172000D01*
X158444976Y-106118633D01*
X158432500Y-106040720D01*
X158457837Y-105945809D01*
X158554284Y-105948121D01*
X158559500Y-105949750D01*
X158644135Y-105960203D01*
X158679822Y-105898699D01*
X158686500Y-105763529D01*
X158670832Y-105614937D01*
X158632212Y-105539394D01*
X158623000Y-105537000D01*
X158561346Y-105585321D01*
X158559500Y-105600500D01*
X158511179Y-105662154D01*
X158496000Y-105664000D01*
X158444408Y-105610815D01*
X158432500Y-105537000D01*
X158459093Y-105433814D01*
X158496000Y-105410000D01*
X158552336Y-105358567D01*
X158559500Y-105314750D01*
X158525212Y-105230246D01*
X158496000Y-105219500D01*
X158444976Y-105166133D01*
X158432500Y-105088220D01*
X158457837Y-104993309D01*
X158554284Y-104995621D01*
X158559500Y-104997250D01*
X158644135Y-105007703D01*
X158679822Y-104946199D01*
X158686500Y-104811029D01*
X158670832Y-104662437D01*
X158632212Y-104586894D01*
X158623000Y-104584500D01*
X158561346Y-104632821D01*
X158559500Y-104648000D01*
X158511179Y-104709654D01*
X158496000Y-104711500D01*
X158444408Y-104658315D01*
X158432500Y-104584500D01*
X158459093Y-104481314D01*
X158496000Y-104457500D01*
X158552336Y-104406067D01*
X158559500Y-104362250D01*
X158525212Y-104277746D01*
X158496000Y-104267000D01*
X158444976Y-104213633D01*
X158432500Y-104135720D01*
X158457837Y-104040809D01*
X158554284Y-104043121D01*
X158559500Y-104044750D01*
X158644135Y-104055203D01*
X158679822Y-103993699D01*
X158686500Y-103858529D01*
X158670832Y-103709937D01*
X158632212Y-103634394D01*
X158623000Y-103632000D01*
X158561346Y-103680321D01*
X158559500Y-103695500D01*
X158511179Y-103757154D01*
X158496000Y-103759000D01*
X158444408Y-103705815D01*
X158432500Y-103632000D01*
X158459093Y-103528814D01*
X158496000Y-103505000D01*
X158552336Y-103453567D01*
X158559500Y-103409750D01*
X158525212Y-103325246D01*
X158496000Y-103314500D01*
X158444976Y-103261133D01*
X158432500Y-103183220D01*
X158457837Y-103088309D01*
X158554284Y-103090621D01*
X158559500Y-103092250D01*
X158662493Y-103096690D01*
X158686500Y-103033029D01*
X158719499Y-102945814D01*
X158750000Y-102933500D01*
X158805644Y-102985221D01*
X158813500Y-103033029D01*
X158849546Y-103102303D01*
X158940500Y-103092250D01*
X159040097Y-103086829D01*
X159067474Y-103177836D01*
X159067500Y-103183220D01*
X159041687Y-103288707D01*
X159004000Y-103314500D01*
X158947665Y-103365932D01*
X158940500Y-103409750D01*
X158974789Y-103494253D01*
X159004000Y-103505000D01*
X159055593Y-103558184D01*
X159067500Y-103632000D01*
X159040908Y-103735185D01*
X159004000Y-103759000D01*
X158942346Y-103710678D01*
X158940500Y-103695500D01*
X158892179Y-103633845D01*
X158877000Y-103632000D01*
X158835348Y-103687897D01*
X158814172Y-103825668D01*
X158813500Y-103858529D01*
X158822700Y-104006570D01*
X158863531Y-104057266D01*
X158940500Y-104044750D01*
X159040097Y-104039329D01*
X159067474Y-104130336D01*
X159067500Y-104135720D01*
X159041687Y-104241207D01*
X159004000Y-104267000D01*
X158947665Y-104318432D01*
X158940500Y-104362250D01*
X158974789Y-104446753D01*
X159004000Y-104457500D01*
X159055593Y-104510684D01*
X159067500Y-104584500D01*
X159040908Y-104687685D01*
X159004000Y-104711500D01*
X158942346Y-104663178D01*
X158940500Y-104648000D01*
X158892179Y-104586345D01*
X158877000Y-104584500D01*
X158835348Y-104640397D01*
X158814172Y-104778168D01*
X158813500Y-104811029D01*
X158822700Y-104959070D01*
X158863531Y-105009766D01*
X158940500Y-104997250D01*
X159040097Y-104991829D01*
X159067474Y-105082836D01*
X159067500Y-105088220D01*
X159041687Y-105193707D01*
X159004000Y-105219500D01*
X158947665Y-105270932D01*
X158940500Y-105314750D01*
X158974789Y-105399253D01*
X159004000Y-105410000D01*
X159055593Y-105463184D01*
X159067500Y-105537000D01*
X159040908Y-105640185D01*
X159004000Y-105664000D01*
X158942346Y-105615678D01*
X158940500Y-105600500D01*
X158892179Y-105538845D01*
X158877000Y-105537000D01*
X158835348Y-105592897D01*
X158814172Y-105730668D01*
X158813500Y-105763529D01*
X158822700Y-105911570D01*
X158863531Y-105962266D01*
X158940500Y-105949750D01*
X159040097Y-105944329D01*
X159067474Y-106035336D01*
X159067500Y-106040720D01*
X159041687Y-106146207D01*
X159004000Y-106172000D01*
X158947665Y-106223432D01*
X158940500Y-106267250D01*
X158974789Y-106351753D01*
X159004000Y-106362500D01*
X159055593Y-106415684D01*
X159067500Y-106489500D01*
X159040908Y-106592685D01*
%TD*%
M02*
