%TF.GenerationSoftware,KiCad,Pcbnew,(5.1.8)-1*%
%TF.CreationDate,2021-02-07T20:14:13+01:00*%
%TF.ProjectId,C64 Joystick Faceplate A1,43363420-4a6f-4797-9374-69636b204661,rev?*%
%TF.SameCoordinates,Original*%
%TF.FileFunction,Copper,L2,Bot*%
%TF.FilePolarity,Positive*%
%FSLAX46Y46*%
G04 Gerber Fmt 4.6, Leading zero omitted, Abs format (unit mm)*
G04 Created by KiCad (PCBNEW (5.1.8)-1) date 2021-02-07 20:14:13*
%MOMM*%
%LPD*%
G01*
G04 APERTURE LIST*
%TA.AperFunction,ComponentPad*%
%ADD10C,3.500000*%
%TD*%
%TA.AperFunction,Conductor*%
%ADD11C,0.254000*%
%TD*%
%TA.AperFunction,Conductor*%
%ADD12C,0.100000*%
%TD*%
G04 APERTURE END LIST*
D10*
%TO.P,M1,1*%
%TO.N,Net-(M1-Pad1)*%
X99695000Y-108585000D03*
%TD*%
%TO.P,M2,1*%
%TO.N,Net-(M1-Pad1)*%
X173355000Y-75565000D03*
%TD*%
%TO.P,M3,1*%
%TO.N,Net-(M1-Pad1)*%
X99695000Y-75565000D03*
%TD*%
%TO.P,M4,1*%
%TO.N,Net-(M1-Pad1)*%
X173355000Y-108585000D03*
%TD*%
D11*
%TO.N,Net-(M1-Pad1)*%
X107162513Y-72415666D02*
X107163001Y-72420310D01*
X107163000Y-74898918D01*
X107165758Y-74926919D01*
X107165731Y-74930755D01*
X107166631Y-74939926D01*
X107179586Y-75063177D01*
X107191615Y-75121774D01*
X107202822Y-75180528D01*
X107205486Y-75189350D01*
X107242133Y-75307738D01*
X107265308Y-75362868D01*
X107287722Y-75418347D01*
X107292049Y-75426483D01*
X107350992Y-75535498D01*
X107384437Y-75585082D01*
X107417197Y-75635145D01*
X107423022Y-75642286D01*
X107502018Y-75737776D01*
X107544467Y-75779930D01*
X107586315Y-75822665D01*
X107593416Y-75828539D01*
X107689455Y-75906867D01*
X107739281Y-75939972D01*
X107788638Y-75973767D01*
X107796744Y-75978150D01*
X107906167Y-76036332D01*
X107961459Y-76059121D01*
X108016455Y-76082693D01*
X108025258Y-76085418D01*
X108143899Y-76121237D01*
X108202583Y-76132857D01*
X108261094Y-76145294D01*
X108270250Y-76146256D01*
X108270255Y-76146257D01*
X108270259Y-76146257D01*
X108306000Y-76149761D01*
X108306001Y-79407419D01*
X108308724Y-79435062D01*
X108308719Y-79435709D01*
X108309619Y-79444881D01*
X108310756Y-79455700D01*
X108315551Y-79504383D01*
X108326754Y-79541314D01*
X108335445Y-79586876D01*
X108338108Y-79595698D01*
X108345437Y-79619375D01*
X108368616Y-79674516D01*
X108391030Y-79729993D01*
X108395357Y-79738129D01*
X108407146Y-79759932D01*
X108440577Y-79809495D01*
X108473346Y-79859572D01*
X108479170Y-79866713D01*
X108494969Y-79885811D01*
X108537418Y-79927965D01*
X108579266Y-79970700D01*
X108586366Y-79976574D01*
X108605575Y-79992240D01*
X108655358Y-80025316D01*
X108704771Y-80059149D01*
X108712877Y-80063531D01*
X108734762Y-80075167D01*
X108790054Y-80097956D01*
X108845038Y-80121522D01*
X108853841Y-80124247D01*
X108877569Y-80131411D01*
X108925640Y-80140930D01*
X108963617Y-80152450D01*
X109002317Y-80156262D01*
X109003920Y-80156430D01*
X109003925Y-80156431D01*
X109003930Y-80156431D01*
X109028578Y-80158848D01*
X109060581Y-80162000D01*
X112554419Y-80162000D01*
X112582071Y-80159277D01*
X112582709Y-80159281D01*
X112591881Y-80158381D01*
X112602549Y-80157260D01*
X112651383Y-80152450D01*
X112688323Y-80141244D01*
X112733876Y-80132555D01*
X112742698Y-80129892D01*
X112766375Y-80122563D01*
X112821516Y-80099384D01*
X112876993Y-80076970D01*
X112885129Y-80072643D01*
X112906932Y-80060854D01*
X112956495Y-80027423D01*
X113006572Y-79994654D01*
X113013713Y-79988830D01*
X113032811Y-79973031D01*
X113074965Y-79930582D01*
X113117700Y-79888734D01*
X113123574Y-79881634D01*
X113139240Y-79862425D01*
X113172316Y-79812642D01*
X113206149Y-79763229D01*
X113210531Y-79755123D01*
X113222167Y-79733238D01*
X113244956Y-79677946D01*
X113268522Y-79622962D01*
X113271247Y-79614159D01*
X113278411Y-79590431D01*
X113287930Y-79542360D01*
X113299450Y-79504383D01*
X113303262Y-79465683D01*
X113303430Y-79464080D01*
X113303431Y-79464075D01*
X113303431Y-79464066D01*
X113305849Y-79439412D01*
X113309000Y-79407419D01*
X113309000Y-76161500D01*
X113696225Y-76161500D01*
X113703013Y-76162166D01*
X113703501Y-76166810D01*
X113703500Y-83280918D01*
X113706258Y-83308919D01*
X113706231Y-83312755D01*
X113707131Y-83321926D01*
X113720086Y-83445177D01*
X113732115Y-83503774D01*
X113743322Y-83562528D01*
X113745986Y-83571350D01*
X113782633Y-83689738D01*
X113805808Y-83744868D01*
X113828222Y-83800347D01*
X113832549Y-83808483D01*
X113891492Y-83917498D01*
X113924937Y-83967082D01*
X113957697Y-84017145D01*
X113963522Y-84024286D01*
X114042518Y-84119776D01*
X114084967Y-84161930D01*
X114126815Y-84204665D01*
X114133916Y-84210539D01*
X114229955Y-84288867D01*
X114279781Y-84321972D01*
X114329138Y-84355767D01*
X114337244Y-84360150D01*
X114446667Y-84418332D01*
X114501959Y-84441121D01*
X114556955Y-84464693D01*
X114565758Y-84467418D01*
X114684399Y-84503237D01*
X114743083Y-84514857D01*
X114801594Y-84527294D01*
X114810750Y-84528256D01*
X114810755Y-84528257D01*
X114810759Y-84528257D01*
X114934097Y-84540350D01*
X114934098Y-84540350D01*
X114966081Y-84543500D01*
X131794919Y-84543500D01*
X131822919Y-84540742D01*
X131826755Y-84540769D01*
X131835926Y-84539869D01*
X131959177Y-84526914D01*
X132017774Y-84514885D01*
X132076528Y-84503678D01*
X132085350Y-84501014D01*
X132203738Y-84464367D01*
X132258868Y-84441192D01*
X132314347Y-84418778D01*
X132322483Y-84414451D01*
X132431498Y-84355508D01*
X132481082Y-84322063D01*
X132531145Y-84289303D01*
X132538286Y-84283478D01*
X132633776Y-84204482D01*
X132675930Y-84162033D01*
X132718665Y-84120185D01*
X132724539Y-84113084D01*
X132802867Y-84017045D01*
X132835972Y-83967219D01*
X132869767Y-83917862D01*
X132874150Y-83909756D01*
X132932332Y-83800333D01*
X132955121Y-83745041D01*
X132978693Y-83690045D01*
X132981418Y-83681242D01*
X133017237Y-83562601D01*
X133028859Y-83503908D01*
X133041294Y-83445406D01*
X133042256Y-83436250D01*
X133042257Y-83436245D01*
X133042257Y-83436241D01*
X133054350Y-83312903D01*
X133054350Y-83312902D01*
X133057500Y-83280919D01*
X133057500Y-76168775D01*
X133058166Y-76161987D01*
X133062801Y-76161500D01*
X133452000Y-76161500D01*
X133452001Y-79407419D01*
X133454724Y-79435062D01*
X133454719Y-79435709D01*
X133455619Y-79444881D01*
X133456756Y-79455700D01*
X133461551Y-79504383D01*
X133472754Y-79541314D01*
X133481445Y-79586876D01*
X133484108Y-79595698D01*
X133491437Y-79619375D01*
X133514616Y-79674516D01*
X133537030Y-79729993D01*
X133541357Y-79738129D01*
X133553146Y-79759932D01*
X133586577Y-79809495D01*
X133619346Y-79859572D01*
X133625170Y-79866713D01*
X133640969Y-79885811D01*
X133683418Y-79927965D01*
X133725266Y-79970700D01*
X133732366Y-79976574D01*
X133751575Y-79992240D01*
X133801358Y-80025316D01*
X133850771Y-80059149D01*
X133858877Y-80063531D01*
X133880762Y-80075167D01*
X133936054Y-80097956D01*
X133991038Y-80121522D01*
X133999841Y-80124247D01*
X134023569Y-80131411D01*
X134071640Y-80140930D01*
X134109617Y-80152450D01*
X134148317Y-80156262D01*
X134149920Y-80156430D01*
X134149925Y-80156431D01*
X134149930Y-80156431D01*
X134174578Y-80158848D01*
X134206581Y-80162000D01*
X137700419Y-80162000D01*
X137728071Y-80159277D01*
X137728709Y-80159281D01*
X137737881Y-80158381D01*
X137748549Y-80157260D01*
X137797383Y-80152450D01*
X137834323Y-80141244D01*
X137879876Y-80132555D01*
X137888698Y-80129892D01*
X137912375Y-80122563D01*
X137967516Y-80099384D01*
X138022993Y-80076970D01*
X138031129Y-80072643D01*
X138052932Y-80060854D01*
X138102495Y-80027423D01*
X138152572Y-79994654D01*
X138159713Y-79988830D01*
X138178811Y-79973031D01*
X138220965Y-79930582D01*
X138263700Y-79888734D01*
X138269574Y-79881634D01*
X138285240Y-79862425D01*
X138318316Y-79812642D01*
X138352149Y-79763229D01*
X138356531Y-79755123D01*
X138368167Y-79733238D01*
X138390956Y-79677946D01*
X138414522Y-79622962D01*
X138417247Y-79614159D01*
X138424411Y-79590431D01*
X138433930Y-79542360D01*
X138445450Y-79504383D01*
X138449262Y-79465683D01*
X138449430Y-79464080D01*
X138449431Y-79464075D01*
X138449431Y-79464066D01*
X138451849Y-79439412D01*
X138455000Y-79407419D01*
X138455000Y-76149610D01*
X138499677Y-76144914D01*
X138558274Y-76132885D01*
X138617028Y-76121678D01*
X138625850Y-76119014D01*
X138744238Y-76082367D01*
X138799368Y-76059192D01*
X138854847Y-76036778D01*
X138862983Y-76032451D01*
X138971998Y-75973508D01*
X139021582Y-75940063D01*
X139071645Y-75907303D01*
X139078786Y-75901478D01*
X139174276Y-75822482D01*
X139216430Y-75780033D01*
X139259165Y-75738185D01*
X139265039Y-75731084D01*
X139343367Y-75635045D01*
X139376472Y-75585219D01*
X139410267Y-75535862D01*
X139414650Y-75527756D01*
X139472832Y-75418333D01*
X139495621Y-75363041D01*
X139511188Y-75326720D01*
X162045706Y-75326720D01*
X162045706Y-75803280D01*
X162138678Y-76270682D01*
X162321049Y-76710965D01*
X162585812Y-77107210D01*
X162922790Y-77444188D01*
X163319035Y-77708951D01*
X163759318Y-77891322D01*
X164226720Y-77984294D01*
X164703280Y-77984294D01*
X165170682Y-77891322D01*
X165610965Y-77708951D01*
X166007210Y-77444188D01*
X166216789Y-77234609D01*
X171864997Y-77234609D01*
X172051073Y-77575766D01*
X172468409Y-77791513D01*
X172919815Y-77921696D01*
X173387946Y-77961313D01*
X173854811Y-77908842D01*
X174302468Y-77766297D01*
X174658927Y-77575766D01*
X174845003Y-77234609D01*
X173355000Y-75744605D01*
X171864997Y-77234609D01*
X166216789Y-77234609D01*
X166344188Y-77107210D01*
X166608951Y-76710965D01*
X166791322Y-76270682D01*
X166884294Y-75803280D01*
X166884294Y-75597946D01*
X170958687Y-75597946D01*
X171011158Y-76064811D01*
X171153703Y-76512468D01*
X171344234Y-76868927D01*
X171685391Y-77055003D01*
X173175395Y-75565000D01*
X173534605Y-75565000D01*
X175024609Y-77055003D01*
X175365766Y-76868927D01*
X175581513Y-76451591D01*
X175711696Y-76000185D01*
X175751313Y-75532054D01*
X175698842Y-75065189D01*
X175556297Y-74617532D01*
X175365766Y-74261073D01*
X175024609Y-74074997D01*
X173534605Y-75565000D01*
X173175395Y-75565000D01*
X171685391Y-74074997D01*
X171344234Y-74261073D01*
X171128487Y-74678409D01*
X170998304Y-75129815D01*
X170958687Y-75597946D01*
X166884294Y-75597946D01*
X166884294Y-75326720D01*
X166791322Y-74859318D01*
X166608951Y-74419035D01*
X166344188Y-74022790D01*
X166216789Y-73895391D01*
X171864997Y-73895391D01*
X173355000Y-75385395D01*
X174845003Y-73895391D01*
X174658927Y-73554234D01*
X174241591Y-73338487D01*
X173790185Y-73208304D01*
X173322054Y-73168687D01*
X172855189Y-73221158D01*
X172407532Y-73363703D01*
X172051073Y-73554234D01*
X171864997Y-73895391D01*
X166216789Y-73895391D01*
X166007210Y-73685812D01*
X165610965Y-73421049D01*
X165170682Y-73238678D01*
X164703280Y-73145706D01*
X164226720Y-73145706D01*
X163759318Y-73238678D01*
X163319035Y-73421049D01*
X162922790Y-73685812D01*
X162585812Y-74022790D01*
X162321049Y-74419035D01*
X162138678Y-74859318D01*
X162045706Y-75326720D01*
X139511188Y-75326720D01*
X139519193Y-75308045D01*
X139521918Y-75299242D01*
X139557737Y-75180601D01*
X139569359Y-75121908D01*
X139581794Y-75063406D01*
X139582756Y-75054250D01*
X139582757Y-75054245D01*
X139582757Y-75054241D01*
X139594850Y-74930903D01*
X139594850Y-74930902D01*
X139598000Y-74898919D01*
X139598000Y-72422275D01*
X139598666Y-72415487D01*
X139603301Y-72415000D01*
X173322721Y-72415000D01*
X173966222Y-72478096D01*
X174554164Y-72655606D01*
X175096436Y-72943937D01*
X175572364Y-73332094D01*
X175963845Y-73805314D01*
X176255951Y-74345552D01*
X176437563Y-74932244D01*
X176505000Y-75573879D01*
X176505001Y-108552711D01*
X176441904Y-109196221D01*
X176264394Y-109784164D01*
X175976063Y-110326436D01*
X175587906Y-110802364D01*
X175114686Y-111193845D01*
X174574449Y-111485950D01*
X173987756Y-111667563D01*
X173346130Y-111735000D01*
X139605275Y-111735000D01*
X139598487Y-111734335D01*
X139598000Y-111729699D01*
X139598000Y-109251081D01*
X139595242Y-109223081D01*
X139595269Y-109219245D01*
X139594369Y-109210074D01*
X139581414Y-109086823D01*
X139569387Y-109028233D01*
X139558178Y-108969471D01*
X139555514Y-108960649D01*
X139518867Y-108842262D01*
X139495692Y-108787132D01*
X139473278Y-108731653D01*
X139468951Y-108723517D01*
X139410007Y-108614502D01*
X139376565Y-108564922D01*
X139343803Y-108514855D01*
X139337978Y-108507714D01*
X139258982Y-108412224D01*
X139216566Y-108370103D01*
X139193668Y-108346720D01*
X162045706Y-108346720D01*
X162045706Y-108823280D01*
X162138678Y-109290682D01*
X162321049Y-109730965D01*
X162585812Y-110127210D01*
X162922790Y-110464188D01*
X163319035Y-110728951D01*
X163759318Y-110911322D01*
X164226720Y-111004294D01*
X164703280Y-111004294D01*
X165170682Y-110911322D01*
X165610965Y-110728951D01*
X166007210Y-110464188D01*
X166216789Y-110254609D01*
X171864997Y-110254609D01*
X172051073Y-110595766D01*
X172468409Y-110811513D01*
X172919815Y-110941696D01*
X173387946Y-110981313D01*
X173854811Y-110928842D01*
X174302468Y-110786297D01*
X174658927Y-110595766D01*
X174845003Y-110254609D01*
X173355000Y-108764605D01*
X171864997Y-110254609D01*
X166216789Y-110254609D01*
X166344188Y-110127210D01*
X166608951Y-109730965D01*
X166791322Y-109290682D01*
X166884294Y-108823280D01*
X166884294Y-108617946D01*
X170958687Y-108617946D01*
X171011158Y-109084811D01*
X171153703Y-109532468D01*
X171344234Y-109888927D01*
X171685391Y-110075003D01*
X173175395Y-108585000D01*
X173534605Y-108585000D01*
X175024609Y-110075003D01*
X175365766Y-109888927D01*
X175581513Y-109471591D01*
X175711696Y-109020185D01*
X175751313Y-108552054D01*
X175698842Y-108085189D01*
X175556297Y-107637532D01*
X175365766Y-107281073D01*
X175024609Y-107094997D01*
X173534605Y-108585000D01*
X173175395Y-108585000D01*
X171685391Y-107094997D01*
X171344234Y-107281073D01*
X171128487Y-107698409D01*
X170998304Y-108149815D01*
X170958687Y-108617946D01*
X166884294Y-108617946D01*
X166884294Y-108346720D01*
X166791322Y-107879318D01*
X166608951Y-107439035D01*
X166344188Y-107042790D01*
X166216789Y-106915391D01*
X171864997Y-106915391D01*
X173355000Y-108405395D01*
X174845003Y-106915391D01*
X174658927Y-106574234D01*
X174241591Y-106358487D01*
X173790185Y-106228304D01*
X173322054Y-106188687D01*
X172855189Y-106241158D01*
X172407532Y-106383703D01*
X172051073Y-106574234D01*
X171864997Y-106915391D01*
X166216789Y-106915391D01*
X166007210Y-106705812D01*
X165610965Y-106441049D01*
X165170682Y-106258678D01*
X164703280Y-106165706D01*
X164226720Y-106165706D01*
X163759318Y-106258678D01*
X163319035Y-106441049D01*
X162922790Y-106705812D01*
X162585812Y-107042790D01*
X162321049Y-107439035D01*
X162138678Y-107879318D01*
X162045706Y-108346720D01*
X139193668Y-108346720D01*
X139174684Y-108327334D01*
X139167584Y-108321461D01*
X139071545Y-108243133D01*
X139021703Y-108210018D01*
X138972362Y-108176233D01*
X138964256Y-108171850D01*
X138854832Y-108113668D01*
X138799554Y-108090884D01*
X138744545Y-108067307D01*
X138735741Y-108064582D01*
X138617101Y-108028762D01*
X138558372Y-108017133D01*
X138499905Y-108004706D01*
X138490747Y-108003744D01*
X138490744Y-108003743D01*
X138490741Y-108003743D01*
X138455000Y-108000239D01*
X138455000Y-104742581D01*
X138452277Y-104714929D01*
X138452281Y-104714291D01*
X138451381Y-104705120D01*
X138450261Y-104694460D01*
X138445450Y-104645617D01*
X138434244Y-104608678D01*
X138425555Y-104563123D01*
X138422892Y-104554302D01*
X138415563Y-104530625D01*
X138392384Y-104475484D01*
X138369970Y-104420007D01*
X138365643Y-104411871D01*
X138353854Y-104390068D01*
X138320413Y-104340490D01*
X138287654Y-104290428D01*
X138281830Y-104283287D01*
X138266031Y-104264189D01*
X138223602Y-104222055D01*
X138181735Y-104179300D01*
X138174634Y-104173426D01*
X138155426Y-104157760D01*
X138105609Y-104124661D01*
X138056229Y-104090851D01*
X138048123Y-104086468D01*
X138026238Y-104074833D01*
X137970960Y-104052050D01*
X137915963Y-104028478D01*
X137907159Y-104025753D01*
X137883431Y-104018589D01*
X137835360Y-104009070D01*
X137797383Y-103997550D01*
X137758683Y-103993738D01*
X137757080Y-103993570D01*
X137757075Y-103993569D01*
X137757070Y-103993569D01*
X137732412Y-103991151D01*
X137700419Y-103988000D01*
X134206581Y-103988000D01*
X134178929Y-103990723D01*
X134178291Y-103990719D01*
X134169120Y-103991619D01*
X134158460Y-103992739D01*
X134109617Y-103997550D01*
X134072678Y-104008756D01*
X134027123Y-104017445D01*
X134018302Y-104020108D01*
X133994625Y-104027437D01*
X133939484Y-104050616D01*
X133884007Y-104073030D01*
X133875871Y-104077357D01*
X133854068Y-104089146D01*
X133804490Y-104122587D01*
X133754428Y-104155346D01*
X133747287Y-104161170D01*
X133728189Y-104176969D01*
X133686055Y-104219398D01*
X133643300Y-104261265D01*
X133637426Y-104268366D01*
X133621760Y-104287574D01*
X133588661Y-104337391D01*
X133554851Y-104386771D01*
X133550468Y-104394877D01*
X133538833Y-104416762D01*
X133516050Y-104472040D01*
X133492478Y-104527037D01*
X133489753Y-104535841D01*
X133482589Y-104559569D01*
X133473068Y-104607650D01*
X133461551Y-104645617D01*
X133457754Y-104684165D01*
X133457570Y-104685920D01*
X133457569Y-104685925D01*
X133457569Y-104685930D01*
X133455151Y-104710588D01*
X133455151Y-104710598D01*
X133452001Y-104742581D01*
X133452000Y-107988500D01*
X133064775Y-107988500D01*
X133057987Y-107987835D01*
X133057500Y-107983199D01*
X133057500Y-100869081D01*
X133054742Y-100841081D01*
X133054769Y-100837245D01*
X133053869Y-100828074D01*
X133040914Y-100704823D01*
X133028887Y-100646233D01*
X133017678Y-100587471D01*
X133015014Y-100578649D01*
X132978367Y-100460262D01*
X132955192Y-100405132D01*
X132932778Y-100349653D01*
X132928451Y-100341517D01*
X132869507Y-100232502D01*
X132836065Y-100182922D01*
X132803303Y-100132855D01*
X132797478Y-100125714D01*
X132718482Y-100030224D01*
X132676066Y-99988103D01*
X132634184Y-99945334D01*
X132627084Y-99939461D01*
X132531045Y-99861133D01*
X132481203Y-99828018D01*
X132431862Y-99794233D01*
X132423756Y-99789850D01*
X132314332Y-99731668D01*
X132259054Y-99708884D01*
X132204045Y-99685307D01*
X132195241Y-99682582D01*
X132076601Y-99646762D01*
X132017872Y-99635133D01*
X131959405Y-99622706D01*
X131950247Y-99621744D01*
X131950244Y-99621743D01*
X131950241Y-99621743D01*
X131826902Y-99609650D01*
X131794919Y-99606500D01*
X114966081Y-99606500D01*
X114938081Y-99609258D01*
X114934245Y-99609231D01*
X114925074Y-99610131D01*
X114801823Y-99623086D01*
X114743233Y-99635113D01*
X114684471Y-99646322D01*
X114675649Y-99648986D01*
X114557262Y-99685633D01*
X114502132Y-99708808D01*
X114446653Y-99731222D01*
X114438517Y-99735549D01*
X114329502Y-99794493D01*
X114279922Y-99827935D01*
X114229855Y-99860697D01*
X114222714Y-99866522D01*
X114127224Y-99945518D01*
X114085103Y-99987934D01*
X114042334Y-100029816D01*
X114036461Y-100036916D01*
X113958133Y-100132955D01*
X113925018Y-100182797D01*
X113891233Y-100232138D01*
X113886850Y-100240244D01*
X113828668Y-100349668D01*
X113805884Y-100404946D01*
X113782307Y-100459955D01*
X113779582Y-100468759D01*
X113743762Y-100587399D01*
X113732141Y-100646092D01*
X113719706Y-100704595D01*
X113718744Y-100713753D01*
X113718744Y-100713754D01*
X113718743Y-100713759D01*
X113706650Y-100837098D01*
X113703500Y-100869082D01*
X113703501Y-107981215D01*
X113702835Y-107988013D01*
X113698199Y-107988500D01*
X113309000Y-107988500D01*
X113309000Y-104742581D01*
X113306277Y-104714929D01*
X113306281Y-104714291D01*
X113305381Y-104705120D01*
X113304261Y-104694460D01*
X113299450Y-104645617D01*
X113288244Y-104608678D01*
X113279555Y-104563123D01*
X113276892Y-104554302D01*
X113269563Y-104530625D01*
X113246384Y-104475484D01*
X113223970Y-104420007D01*
X113219643Y-104411871D01*
X113207854Y-104390068D01*
X113174413Y-104340490D01*
X113141654Y-104290428D01*
X113135830Y-104283287D01*
X113120031Y-104264189D01*
X113077602Y-104222055D01*
X113035735Y-104179300D01*
X113028634Y-104173426D01*
X113009426Y-104157760D01*
X112959609Y-104124661D01*
X112910229Y-104090851D01*
X112902123Y-104086468D01*
X112880238Y-104074833D01*
X112824960Y-104052050D01*
X112769963Y-104028478D01*
X112761159Y-104025753D01*
X112737431Y-104018589D01*
X112689360Y-104009070D01*
X112651383Y-103997550D01*
X112612683Y-103993738D01*
X112611080Y-103993570D01*
X112611075Y-103993569D01*
X112611070Y-103993569D01*
X112586412Y-103991151D01*
X112554419Y-103988000D01*
X109060581Y-103988000D01*
X109032929Y-103990723D01*
X109032291Y-103990719D01*
X109023120Y-103991619D01*
X109012460Y-103992739D01*
X108963617Y-103997550D01*
X108926678Y-104008756D01*
X108881123Y-104017445D01*
X108872302Y-104020108D01*
X108848625Y-104027437D01*
X108793484Y-104050616D01*
X108738007Y-104073030D01*
X108729871Y-104077357D01*
X108708068Y-104089146D01*
X108658490Y-104122587D01*
X108608428Y-104155346D01*
X108601287Y-104161170D01*
X108582189Y-104176969D01*
X108540055Y-104219398D01*
X108497300Y-104261265D01*
X108491426Y-104268366D01*
X108475760Y-104287574D01*
X108442661Y-104337391D01*
X108408851Y-104386771D01*
X108404468Y-104394877D01*
X108392833Y-104416762D01*
X108370050Y-104472040D01*
X108346478Y-104527037D01*
X108343753Y-104535841D01*
X108336589Y-104559569D01*
X108327068Y-104607650D01*
X108315551Y-104645617D01*
X108311754Y-104684165D01*
X108311570Y-104685920D01*
X108311569Y-104685925D01*
X108311569Y-104685930D01*
X108309151Y-104710588D01*
X108309151Y-104710598D01*
X108306001Y-104742581D01*
X108306000Y-108000390D01*
X108261323Y-108005086D01*
X108202733Y-108017113D01*
X108143971Y-108028322D01*
X108135149Y-108030986D01*
X108016762Y-108067633D01*
X107961632Y-108090808D01*
X107906153Y-108113222D01*
X107898017Y-108117549D01*
X107789002Y-108176493D01*
X107739422Y-108209935D01*
X107689355Y-108242697D01*
X107682214Y-108248522D01*
X107586724Y-108327518D01*
X107544603Y-108369934D01*
X107501834Y-108411816D01*
X107495961Y-108418916D01*
X107417633Y-108514955D01*
X107384518Y-108564797D01*
X107350733Y-108614138D01*
X107346350Y-108622244D01*
X107288168Y-108731668D01*
X107265390Y-108786932D01*
X107241807Y-108841955D01*
X107239082Y-108850759D01*
X107203262Y-108969399D01*
X107191641Y-109028092D01*
X107179206Y-109086595D01*
X107178244Y-109095753D01*
X107178244Y-109095754D01*
X107178243Y-109095759D01*
X107166150Y-109219098D01*
X107163000Y-109251082D01*
X107163001Y-111727716D01*
X107162335Y-111734513D01*
X107157699Y-111735000D01*
X99727279Y-111735000D01*
X99083779Y-111671904D01*
X98495836Y-111494394D01*
X97953564Y-111206063D01*
X97477636Y-110817906D01*
X97086155Y-110344686D01*
X97037451Y-110254609D01*
X98204997Y-110254609D01*
X98391073Y-110595766D01*
X98808409Y-110811513D01*
X99259815Y-110941696D01*
X99727946Y-110981313D01*
X100194811Y-110928842D01*
X100642468Y-110786297D01*
X100998927Y-110595766D01*
X101185003Y-110254609D01*
X99695000Y-108764605D01*
X98204997Y-110254609D01*
X97037451Y-110254609D01*
X96794050Y-109804449D01*
X96612437Y-109217756D01*
X96549395Y-108617946D01*
X97298687Y-108617946D01*
X97351158Y-109084811D01*
X97493703Y-109532468D01*
X97684234Y-109888927D01*
X98025391Y-110075003D01*
X99515395Y-108585000D01*
X99874605Y-108585000D01*
X101364609Y-110075003D01*
X101705766Y-109888927D01*
X101921513Y-109471591D01*
X102051696Y-109020185D01*
X102091313Y-108552054D01*
X102038842Y-108085189D01*
X101896297Y-107637532D01*
X101705766Y-107281073D01*
X101364609Y-107094997D01*
X99874605Y-108585000D01*
X99515395Y-108585000D01*
X98025391Y-107094997D01*
X97684234Y-107281073D01*
X97468487Y-107698409D01*
X97338304Y-108149815D01*
X97298687Y-108617946D01*
X96549395Y-108617946D01*
X96545000Y-108576130D01*
X96545000Y-106915391D01*
X98204997Y-106915391D01*
X99695000Y-108405395D01*
X101185003Y-106915391D01*
X100998927Y-106574234D01*
X100581591Y-106358487D01*
X100130185Y-106228304D01*
X99662054Y-106188687D01*
X99195189Y-106241158D01*
X98747532Y-106383703D01*
X98391073Y-106574234D01*
X98204997Y-106915391D01*
X96545000Y-106915391D01*
X96545000Y-77234609D01*
X98204997Y-77234609D01*
X98391073Y-77575766D01*
X98808409Y-77791513D01*
X99259815Y-77921696D01*
X99727946Y-77961313D01*
X100194811Y-77908842D01*
X100642468Y-77766297D01*
X100998927Y-77575766D01*
X101185003Y-77234609D01*
X99695000Y-75744605D01*
X98204997Y-77234609D01*
X96545000Y-77234609D01*
X96545000Y-75597946D01*
X97298687Y-75597946D01*
X97351158Y-76064811D01*
X97493703Y-76512468D01*
X97684234Y-76868927D01*
X98025391Y-77055003D01*
X99515395Y-75565000D01*
X99874605Y-75565000D01*
X101364609Y-77055003D01*
X101705766Y-76868927D01*
X101921513Y-76451591D01*
X102051696Y-76000185D01*
X102091313Y-75532054D01*
X102038842Y-75065189D01*
X101896297Y-74617532D01*
X101705766Y-74261073D01*
X101364609Y-74074997D01*
X99874605Y-75565000D01*
X99515395Y-75565000D01*
X98025391Y-74074997D01*
X97684234Y-74261073D01*
X97468487Y-74678409D01*
X97338304Y-75129815D01*
X97298687Y-75597946D01*
X96545000Y-75597946D01*
X96545000Y-75597279D01*
X96608096Y-74953778D01*
X96785606Y-74365836D01*
X97035745Y-73895391D01*
X98204997Y-73895391D01*
X99695000Y-75385395D01*
X101185003Y-73895391D01*
X100998927Y-73554234D01*
X100581591Y-73338487D01*
X100130185Y-73208304D01*
X99662054Y-73168687D01*
X99195189Y-73221158D01*
X98747532Y-73363703D01*
X98391073Y-73554234D01*
X98204997Y-73895391D01*
X97035745Y-73895391D01*
X97073937Y-73823564D01*
X97462094Y-73347636D01*
X97935314Y-72956155D01*
X98475552Y-72664049D01*
X99062244Y-72482437D01*
X99703879Y-72415000D01*
X107155725Y-72415000D01*
X107162513Y-72415666D01*
%TA.AperFunction,Conductor*%
D12*
G36*
X107162513Y-72415666D02*
G01*
X107163001Y-72420310D01*
X107163000Y-74898918D01*
X107165758Y-74926919D01*
X107165731Y-74930755D01*
X107166631Y-74939926D01*
X107179586Y-75063177D01*
X107191615Y-75121774D01*
X107202822Y-75180528D01*
X107205486Y-75189350D01*
X107242133Y-75307738D01*
X107265308Y-75362868D01*
X107287722Y-75418347D01*
X107292049Y-75426483D01*
X107350992Y-75535498D01*
X107384437Y-75585082D01*
X107417197Y-75635145D01*
X107423022Y-75642286D01*
X107502018Y-75737776D01*
X107544467Y-75779930D01*
X107586315Y-75822665D01*
X107593416Y-75828539D01*
X107689455Y-75906867D01*
X107739281Y-75939972D01*
X107788638Y-75973767D01*
X107796744Y-75978150D01*
X107906167Y-76036332D01*
X107961459Y-76059121D01*
X108016455Y-76082693D01*
X108025258Y-76085418D01*
X108143899Y-76121237D01*
X108202583Y-76132857D01*
X108261094Y-76145294D01*
X108270250Y-76146256D01*
X108270255Y-76146257D01*
X108270259Y-76146257D01*
X108306000Y-76149761D01*
X108306001Y-79407419D01*
X108308724Y-79435062D01*
X108308719Y-79435709D01*
X108309619Y-79444881D01*
X108310756Y-79455700D01*
X108315551Y-79504383D01*
X108326754Y-79541314D01*
X108335445Y-79586876D01*
X108338108Y-79595698D01*
X108345437Y-79619375D01*
X108368616Y-79674516D01*
X108391030Y-79729993D01*
X108395357Y-79738129D01*
X108407146Y-79759932D01*
X108440577Y-79809495D01*
X108473346Y-79859572D01*
X108479170Y-79866713D01*
X108494969Y-79885811D01*
X108537418Y-79927965D01*
X108579266Y-79970700D01*
X108586366Y-79976574D01*
X108605575Y-79992240D01*
X108655358Y-80025316D01*
X108704771Y-80059149D01*
X108712877Y-80063531D01*
X108734762Y-80075167D01*
X108790054Y-80097956D01*
X108845038Y-80121522D01*
X108853841Y-80124247D01*
X108877569Y-80131411D01*
X108925640Y-80140930D01*
X108963617Y-80152450D01*
X109002317Y-80156262D01*
X109003920Y-80156430D01*
X109003925Y-80156431D01*
X109003930Y-80156431D01*
X109028578Y-80158848D01*
X109060581Y-80162000D01*
X112554419Y-80162000D01*
X112582071Y-80159277D01*
X112582709Y-80159281D01*
X112591881Y-80158381D01*
X112602549Y-80157260D01*
X112651383Y-80152450D01*
X112688323Y-80141244D01*
X112733876Y-80132555D01*
X112742698Y-80129892D01*
X112766375Y-80122563D01*
X112821516Y-80099384D01*
X112876993Y-80076970D01*
X112885129Y-80072643D01*
X112906932Y-80060854D01*
X112956495Y-80027423D01*
X113006572Y-79994654D01*
X113013713Y-79988830D01*
X113032811Y-79973031D01*
X113074965Y-79930582D01*
X113117700Y-79888734D01*
X113123574Y-79881634D01*
X113139240Y-79862425D01*
X113172316Y-79812642D01*
X113206149Y-79763229D01*
X113210531Y-79755123D01*
X113222167Y-79733238D01*
X113244956Y-79677946D01*
X113268522Y-79622962D01*
X113271247Y-79614159D01*
X113278411Y-79590431D01*
X113287930Y-79542360D01*
X113299450Y-79504383D01*
X113303262Y-79465683D01*
X113303430Y-79464080D01*
X113303431Y-79464075D01*
X113303431Y-79464066D01*
X113305849Y-79439412D01*
X113309000Y-79407419D01*
X113309000Y-76161500D01*
X113696225Y-76161500D01*
X113703013Y-76162166D01*
X113703501Y-76166810D01*
X113703500Y-83280918D01*
X113706258Y-83308919D01*
X113706231Y-83312755D01*
X113707131Y-83321926D01*
X113720086Y-83445177D01*
X113732115Y-83503774D01*
X113743322Y-83562528D01*
X113745986Y-83571350D01*
X113782633Y-83689738D01*
X113805808Y-83744868D01*
X113828222Y-83800347D01*
X113832549Y-83808483D01*
X113891492Y-83917498D01*
X113924937Y-83967082D01*
X113957697Y-84017145D01*
X113963522Y-84024286D01*
X114042518Y-84119776D01*
X114084967Y-84161930D01*
X114126815Y-84204665D01*
X114133916Y-84210539D01*
X114229955Y-84288867D01*
X114279781Y-84321972D01*
X114329138Y-84355767D01*
X114337244Y-84360150D01*
X114446667Y-84418332D01*
X114501959Y-84441121D01*
X114556955Y-84464693D01*
X114565758Y-84467418D01*
X114684399Y-84503237D01*
X114743083Y-84514857D01*
X114801594Y-84527294D01*
X114810750Y-84528256D01*
X114810755Y-84528257D01*
X114810759Y-84528257D01*
X114934097Y-84540350D01*
X114934098Y-84540350D01*
X114966081Y-84543500D01*
X131794919Y-84543500D01*
X131822919Y-84540742D01*
X131826755Y-84540769D01*
X131835926Y-84539869D01*
X131959177Y-84526914D01*
X132017774Y-84514885D01*
X132076528Y-84503678D01*
X132085350Y-84501014D01*
X132203738Y-84464367D01*
X132258868Y-84441192D01*
X132314347Y-84418778D01*
X132322483Y-84414451D01*
X132431498Y-84355508D01*
X132481082Y-84322063D01*
X132531145Y-84289303D01*
X132538286Y-84283478D01*
X132633776Y-84204482D01*
X132675930Y-84162033D01*
X132718665Y-84120185D01*
X132724539Y-84113084D01*
X132802867Y-84017045D01*
X132835972Y-83967219D01*
X132869767Y-83917862D01*
X132874150Y-83909756D01*
X132932332Y-83800333D01*
X132955121Y-83745041D01*
X132978693Y-83690045D01*
X132981418Y-83681242D01*
X133017237Y-83562601D01*
X133028859Y-83503908D01*
X133041294Y-83445406D01*
X133042256Y-83436250D01*
X133042257Y-83436245D01*
X133042257Y-83436241D01*
X133054350Y-83312903D01*
X133054350Y-83312902D01*
X133057500Y-83280919D01*
X133057500Y-76168775D01*
X133058166Y-76161987D01*
X133062801Y-76161500D01*
X133452000Y-76161500D01*
X133452001Y-79407419D01*
X133454724Y-79435062D01*
X133454719Y-79435709D01*
X133455619Y-79444881D01*
X133456756Y-79455700D01*
X133461551Y-79504383D01*
X133472754Y-79541314D01*
X133481445Y-79586876D01*
X133484108Y-79595698D01*
X133491437Y-79619375D01*
X133514616Y-79674516D01*
X133537030Y-79729993D01*
X133541357Y-79738129D01*
X133553146Y-79759932D01*
X133586577Y-79809495D01*
X133619346Y-79859572D01*
X133625170Y-79866713D01*
X133640969Y-79885811D01*
X133683418Y-79927965D01*
X133725266Y-79970700D01*
X133732366Y-79976574D01*
X133751575Y-79992240D01*
X133801358Y-80025316D01*
X133850771Y-80059149D01*
X133858877Y-80063531D01*
X133880762Y-80075167D01*
X133936054Y-80097956D01*
X133991038Y-80121522D01*
X133999841Y-80124247D01*
X134023569Y-80131411D01*
X134071640Y-80140930D01*
X134109617Y-80152450D01*
X134148317Y-80156262D01*
X134149920Y-80156430D01*
X134149925Y-80156431D01*
X134149930Y-80156431D01*
X134174578Y-80158848D01*
X134206581Y-80162000D01*
X137700419Y-80162000D01*
X137728071Y-80159277D01*
X137728709Y-80159281D01*
X137737881Y-80158381D01*
X137748549Y-80157260D01*
X137797383Y-80152450D01*
X137834323Y-80141244D01*
X137879876Y-80132555D01*
X137888698Y-80129892D01*
X137912375Y-80122563D01*
X137967516Y-80099384D01*
X138022993Y-80076970D01*
X138031129Y-80072643D01*
X138052932Y-80060854D01*
X138102495Y-80027423D01*
X138152572Y-79994654D01*
X138159713Y-79988830D01*
X138178811Y-79973031D01*
X138220965Y-79930582D01*
X138263700Y-79888734D01*
X138269574Y-79881634D01*
X138285240Y-79862425D01*
X138318316Y-79812642D01*
X138352149Y-79763229D01*
X138356531Y-79755123D01*
X138368167Y-79733238D01*
X138390956Y-79677946D01*
X138414522Y-79622962D01*
X138417247Y-79614159D01*
X138424411Y-79590431D01*
X138433930Y-79542360D01*
X138445450Y-79504383D01*
X138449262Y-79465683D01*
X138449430Y-79464080D01*
X138449431Y-79464075D01*
X138449431Y-79464066D01*
X138451849Y-79439412D01*
X138455000Y-79407419D01*
X138455000Y-76149610D01*
X138499677Y-76144914D01*
X138558274Y-76132885D01*
X138617028Y-76121678D01*
X138625850Y-76119014D01*
X138744238Y-76082367D01*
X138799368Y-76059192D01*
X138854847Y-76036778D01*
X138862983Y-76032451D01*
X138971998Y-75973508D01*
X139021582Y-75940063D01*
X139071645Y-75907303D01*
X139078786Y-75901478D01*
X139174276Y-75822482D01*
X139216430Y-75780033D01*
X139259165Y-75738185D01*
X139265039Y-75731084D01*
X139343367Y-75635045D01*
X139376472Y-75585219D01*
X139410267Y-75535862D01*
X139414650Y-75527756D01*
X139472832Y-75418333D01*
X139495621Y-75363041D01*
X139511188Y-75326720D01*
X162045706Y-75326720D01*
X162045706Y-75803280D01*
X162138678Y-76270682D01*
X162321049Y-76710965D01*
X162585812Y-77107210D01*
X162922790Y-77444188D01*
X163319035Y-77708951D01*
X163759318Y-77891322D01*
X164226720Y-77984294D01*
X164703280Y-77984294D01*
X165170682Y-77891322D01*
X165610965Y-77708951D01*
X166007210Y-77444188D01*
X166216789Y-77234609D01*
X171864997Y-77234609D01*
X172051073Y-77575766D01*
X172468409Y-77791513D01*
X172919815Y-77921696D01*
X173387946Y-77961313D01*
X173854811Y-77908842D01*
X174302468Y-77766297D01*
X174658927Y-77575766D01*
X174845003Y-77234609D01*
X173355000Y-75744605D01*
X171864997Y-77234609D01*
X166216789Y-77234609D01*
X166344188Y-77107210D01*
X166608951Y-76710965D01*
X166791322Y-76270682D01*
X166884294Y-75803280D01*
X166884294Y-75597946D01*
X170958687Y-75597946D01*
X171011158Y-76064811D01*
X171153703Y-76512468D01*
X171344234Y-76868927D01*
X171685391Y-77055003D01*
X173175395Y-75565000D01*
X173534605Y-75565000D01*
X175024609Y-77055003D01*
X175365766Y-76868927D01*
X175581513Y-76451591D01*
X175711696Y-76000185D01*
X175751313Y-75532054D01*
X175698842Y-75065189D01*
X175556297Y-74617532D01*
X175365766Y-74261073D01*
X175024609Y-74074997D01*
X173534605Y-75565000D01*
X173175395Y-75565000D01*
X171685391Y-74074997D01*
X171344234Y-74261073D01*
X171128487Y-74678409D01*
X170998304Y-75129815D01*
X170958687Y-75597946D01*
X166884294Y-75597946D01*
X166884294Y-75326720D01*
X166791322Y-74859318D01*
X166608951Y-74419035D01*
X166344188Y-74022790D01*
X166216789Y-73895391D01*
X171864997Y-73895391D01*
X173355000Y-75385395D01*
X174845003Y-73895391D01*
X174658927Y-73554234D01*
X174241591Y-73338487D01*
X173790185Y-73208304D01*
X173322054Y-73168687D01*
X172855189Y-73221158D01*
X172407532Y-73363703D01*
X172051073Y-73554234D01*
X171864997Y-73895391D01*
X166216789Y-73895391D01*
X166007210Y-73685812D01*
X165610965Y-73421049D01*
X165170682Y-73238678D01*
X164703280Y-73145706D01*
X164226720Y-73145706D01*
X163759318Y-73238678D01*
X163319035Y-73421049D01*
X162922790Y-73685812D01*
X162585812Y-74022790D01*
X162321049Y-74419035D01*
X162138678Y-74859318D01*
X162045706Y-75326720D01*
X139511188Y-75326720D01*
X139519193Y-75308045D01*
X139521918Y-75299242D01*
X139557737Y-75180601D01*
X139569359Y-75121908D01*
X139581794Y-75063406D01*
X139582756Y-75054250D01*
X139582757Y-75054245D01*
X139582757Y-75054241D01*
X139594850Y-74930903D01*
X139594850Y-74930902D01*
X139598000Y-74898919D01*
X139598000Y-72422275D01*
X139598666Y-72415487D01*
X139603301Y-72415000D01*
X173322721Y-72415000D01*
X173966222Y-72478096D01*
X174554164Y-72655606D01*
X175096436Y-72943937D01*
X175572364Y-73332094D01*
X175963845Y-73805314D01*
X176255951Y-74345552D01*
X176437563Y-74932244D01*
X176505000Y-75573879D01*
X176505001Y-108552711D01*
X176441904Y-109196221D01*
X176264394Y-109784164D01*
X175976063Y-110326436D01*
X175587906Y-110802364D01*
X175114686Y-111193845D01*
X174574449Y-111485950D01*
X173987756Y-111667563D01*
X173346130Y-111735000D01*
X139605275Y-111735000D01*
X139598487Y-111734335D01*
X139598000Y-111729699D01*
X139598000Y-109251081D01*
X139595242Y-109223081D01*
X139595269Y-109219245D01*
X139594369Y-109210074D01*
X139581414Y-109086823D01*
X139569387Y-109028233D01*
X139558178Y-108969471D01*
X139555514Y-108960649D01*
X139518867Y-108842262D01*
X139495692Y-108787132D01*
X139473278Y-108731653D01*
X139468951Y-108723517D01*
X139410007Y-108614502D01*
X139376565Y-108564922D01*
X139343803Y-108514855D01*
X139337978Y-108507714D01*
X139258982Y-108412224D01*
X139216566Y-108370103D01*
X139193668Y-108346720D01*
X162045706Y-108346720D01*
X162045706Y-108823280D01*
X162138678Y-109290682D01*
X162321049Y-109730965D01*
X162585812Y-110127210D01*
X162922790Y-110464188D01*
X163319035Y-110728951D01*
X163759318Y-110911322D01*
X164226720Y-111004294D01*
X164703280Y-111004294D01*
X165170682Y-110911322D01*
X165610965Y-110728951D01*
X166007210Y-110464188D01*
X166216789Y-110254609D01*
X171864997Y-110254609D01*
X172051073Y-110595766D01*
X172468409Y-110811513D01*
X172919815Y-110941696D01*
X173387946Y-110981313D01*
X173854811Y-110928842D01*
X174302468Y-110786297D01*
X174658927Y-110595766D01*
X174845003Y-110254609D01*
X173355000Y-108764605D01*
X171864997Y-110254609D01*
X166216789Y-110254609D01*
X166344188Y-110127210D01*
X166608951Y-109730965D01*
X166791322Y-109290682D01*
X166884294Y-108823280D01*
X166884294Y-108617946D01*
X170958687Y-108617946D01*
X171011158Y-109084811D01*
X171153703Y-109532468D01*
X171344234Y-109888927D01*
X171685391Y-110075003D01*
X173175395Y-108585000D01*
X173534605Y-108585000D01*
X175024609Y-110075003D01*
X175365766Y-109888927D01*
X175581513Y-109471591D01*
X175711696Y-109020185D01*
X175751313Y-108552054D01*
X175698842Y-108085189D01*
X175556297Y-107637532D01*
X175365766Y-107281073D01*
X175024609Y-107094997D01*
X173534605Y-108585000D01*
X173175395Y-108585000D01*
X171685391Y-107094997D01*
X171344234Y-107281073D01*
X171128487Y-107698409D01*
X170998304Y-108149815D01*
X170958687Y-108617946D01*
X166884294Y-108617946D01*
X166884294Y-108346720D01*
X166791322Y-107879318D01*
X166608951Y-107439035D01*
X166344188Y-107042790D01*
X166216789Y-106915391D01*
X171864997Y-106915391D01*
X173355000Y-108405395D01*
X174845003Y-106915391D01*
X174658927Y-106574234D01*
X174241591Y-106358487D01*
X173790185Y-106228304D01*
X173322054Y-106188687D01*
X172855189Y-106241158D01*
X172407532Y-106383703D01*
X172051073Y-106574234D01*
X171864997Y-106915391D01*
X166216789Y-106915391D01*
X166007210Y-106705812D01*
X165610965Y-106441049D01*
X165170682Y-106258678D01*
X164703280Y-106165706D01*
X164226720Y-106165706D01*
X163759318Y-106258678D01*
X163319035Y-106441049D01*
X162922790Y-106705812D01*
X162585812Y-107042790D01*
X162321049Y-107439035D01*
X162138678Y-107879318D01*
X162045706Y-108346720D01*
X139193668Y-108346720D01*
X139174684Y-108327334D01*
X139167584Y-108321461D01*
X139071545Y-108243133D01*
X139021703Y-108210018D01*
X138972362Y-108176233D01*
X138964256Y-108171850D01*
X138854832Y-108113668D01*
X138799554Y-108090884D01*
X138744545Y-108067307D01*
X138735741Y-108064582D01*
X138617101Y-108028762D01*
X138558372Y-108017133D01*
X138499905Y-108004706D01*
X138490747Y-108003744D01*
X138490744Y-108003743D01*
X138490741Y-108003743D01*
X138455000Y-108000239D01*
X138455000Y-104742581D01*
X138452277Y-104714929D01*
X138452281Y-104714291D01*
X138451381Y-104705120D01*
X138450261Y-104694460D01*
X138445450Y-104645617D01*
X138434244Y-104608678D01*
X138425555Y-104563123D01*
X138422892Y-104554302D01*
X138415563Y-104530625D01*
X138392384Y-104475484D01*
X138369970Y-104420007D01*
X138365643Y-104411871D01*
X138353854Y-104390068D01*
X138320413Y-104340490D01*
X138287654Y-104290428D01*
X138281830Y-104283287D01*
X138266031Y-104264189D01*
X138223602Y-104222055D01*
X138181735Y-104179300D01*
X138174634Y-104173426D01*
X138155426Y-104157760D01*
X138105609Y-104124661D01*
X138056229Y-104090851D01*
X138048123Y-104086468D01*
X138026238Y-104074833D01*
X137970960Y-104052050D01*
X137915963Y-104028478D01*
X137907159Y-104025753D01*
X137883431Y-104018589D01*
X137835360Y-104009070D01*
X137797383Y-103997550D01*
X137758683Y-103993738D01*
X137757080Y-103993570D01*
X137757075Y-103993569D01*
X137757070Y-103993569D01*
X137732412Y-103991151D01*
X137700419Y-103988000D01*
X134206581Y-103988000D01*
X134178929Y-103990723D01*
X134178291Y-103990719D01*
X134169120Y-103991619D01*
X134158460Y-103992739D01*
X134109617Y-103997550D01*
X134072678Y-104008756D01*
X134027123Y-104017445D01*
X134018302Y-104020108D01*
X133994625Y-104027437D01*
X133939484Y-104050616D01*
X133884007Y-104073030D01*
X133875871Y-104077357D01*
X133854068Y-104089146D01*
X133804490Y-104122587D01*
X133754428Y-104155346D01*
X133747287Y-104161170D01*
X133728189Y-104176969D01*
X133686055Y-104219398D01*
X133643300Y-104261265D01*
X133637426Y-104268366D01*
X133621760Y-104287574D01*
X133588661Y-104337391D01*
X133554851Y-104386771D01*
X133550468Y-104394877D01*
X133538833Y-104416762D01*
X133516050Y-104472040D01*
X133492478Y-104527037D01*
X133489753Y-104535841D01*
X133482589Y-104559569D01*
X133473068Y-104607650D01*
X133461551Y-104645617D01*
X133457754Y-104684165D01*
X133457570Y-104685920D01*
X133457569Y-104685925D01*
X133457569Y-104685930D01*
X133455151Y-104710588D01*
X133455151Y-104710598D01*
X133452001Y-104742581D01*
X133452000Y-107988500D01*
X133064775Y-107988500D01*
X133057987Y-107987835D01*
X133057500Y-107983199D01*
X133057500Y-100869081D01*
X133054742Y-100841081D01*
X133054769Y-100837245D01*
X133053869Y-100828074D01*
X133040914Y-100704823D01*
X133028887Y-100646233D01*
X133017678Y-100587471D01*
X133015014Y-100578649D01*
X132978367Y-100460262D01*
X132955192Y-100405132D01*
X132932778Y-100349653D01*
X132928451Y-100341517D01*
X132869507Y-100232502D01*
X132836065Y-100182922D01*
X132803303Y-100132855D01*
X132797478Y-100125714D01*
X132718482Y-100030224D01*
X132676066Y-99988103D01*
X132634184Y-99945334D01*
X132627084Y-99939461D01*
X132531045Y-99861133D01*
X132481203Y-99828018D01*
X132431862Y-99794233D01*
X132423756Y-99789850D01*
X132314332Y-99731668D01*
X132259054Y-99708884D01*
X132204045Y-99685307D01*
X132195241Y-99682582D01*
X132076601Y-99646762D01*
X132017872Y-99635133D01*
X131959405Y-99622706D01*
X131950247Y-99621744D01*
X131950244Y-99621743D01*
X131950241Y-99621743D01*
X131826902Y-99609650D01*
X131794919Y-99606500D01*
X114966081Y-99606500D01*
X114938081Y-99609258D01*
X114934245Y-99609231D01*
X114925074Y-99610131D01*
X114801823Y-99623086D01*
X114743233Y-99635113D01*
X114684471Y-99646322D01*
X114675649Y-99648986D01*
X114557262Y-99685633D01*
X114502132Y-99708808D01*
X114446653Y-99731222D01*
X114438517Y-99735549D01*
X114329502Y-99794493D01*
X114279922Y-99827935D01*
X114229855Y-99860697D01*
X114222714Y-99866522D01*
X114127224Y-99945518D01*
X114085103Y-99987934D01*
X114042334Y-100029816D01*
X114036461Y-100036916D01*
X113958133Y-100132955D01*
X113925018Y-100182797D01*
X113891233Y-100232138D01*
X113886850Y-100240244D01*
X113828668Y-100349668D01*
X113805884Y-100404946D01*
X113782307Y-100459955D01*
X113779582Y-100468759D01*
X113743762Y-100587399D01*
X113732141Y-100646092D01*
X113719706Y-100704595D01*
X113718744Y-100713753D01*
X113718744Y-100713754D01*
X113718743Y-100713759D01*
X113706650Y-100837098D01*
X113703500Y-100869082D01*
X113703501Y-107981215D01*
X113702835Y-107988013D01*
X113698199Y-107988500D01*
X113309000Y-107988500D01*
X113309000Y-104742581D01*
X113306277Y-104714929D01*
X113306281Y-104714291D01*
X113305381Y-104705120D01*
X113304261Y-104694460D01*
X113299450Y-104645617D01*
X113288244Y-104608678D01*
X113279555Y-104563123D01*
X113276892Y-104554302D01*
X113269563Y-104530625D01*
X113246384Y-104475484D01*
X113223970Y-104420007D01*
X113219643Y-104411871D01*
X113207854Y-104390068D01*
X113174413Y-104340490D01*
X113141654Y-104290428D01*
X113135830Y-104283287D01*
X113120031Y-104264189D01*
X113077602Y-104222055D01*
X113035735Y-104179300D01*
X113028634Y-104173426D01*
X113009426Y-104157760D01*
X112959609Y-104124661D01*
X112910229Y-104090851D01*
X112902123Y-104086468D01*
X112880238Y-104074833D01*
X112824960Y-104052050D01*
X112769963Y-104028478D01*
X112761159Y-104025753D01*
X112737431Y-104018589D01*
X112689360Y-104009070D01*
X112651383Y-103997550D01*
X112612683Y-103993738D01*
X112611080Y-103993570D01*
X112611075Y-103993569D01*
X112611070Y-103993569D01*
X112586412Y-103991151D01*
X112554419Y-103988000D01*
X109060581Y-103988000D01*
X109032929Y-103990723D01*
X109032291Y-103990719D01*
X109023120Y-103991619D01*
X109012460Y-103992739D01*
X108963617Y-103997550D01*
X108926678Y-104008756D01*
X108881123Y-104017445D01*
X108872302Y-104020108D01*
X108848625Y-104027437D01*
X108793484Y-104050616D01*
X108738007Y-104073030D01*
X108729871Y-104077357D01*
X108708068Y-104089146D01*
X108658490Y-104122587D01*
X108608428Y-104155346D01*
X108601287Y-104161170D01*
X108582189Y-104176969D01*
X108540055Y-104219398D01*
X108497300Y-104261265D01*
X108491426Y-104268366D01*
X108475760Y-104287574D01*
X108442661Y-104337391D01*
X108408851Y-104386771D01*
X108404468Y-104394877D01*
X108392833Y-104416762D01*
X108370050Y-104472040D01*
X108346478Y-104527037D01*
X108343753Y-104535841D01*
X108336589Y-104559569D01*
X108327068Y-104607650D01*
X108315551Y-104645617D01*
X108311754Y-104684165D01*
X108311570Y-104685920D01*
X108311569Y-104685925D01*
X108311569Y-104685930D01*
X108309151Y-104710588D01*
X108309151Y-104710598D01*
X108306001Y-104742581D01*
X108306000Y-108000390D01*
X108261323Y-108005086D01*
X108202733Y-108017113D01*
X108143971Y-108028322D01*
X108135149Y-108030986D01*
X108016762Y-108067633D01*
X107961632Y-108090808D01*
X107906153Y-108113222D01*
X107898017Y-108117549D01*
X107789002Y-108176493D01*
X107739422Y-108209935D01*
X107689355Y-108242697D01*
X107682214Y-108248522D01*
X107586724Y-108327518D01*
X107544603Y-108369934D01*
X107501834Y-108411816D01*
X107495961Y-108418916D01*
X107417633Y-108514955D01*
X107384518Y-108564797D01*
X107350733Y-108614138D01*
X107346350Y-108622244D01*
X107288168Y-108731668D01*
X107265390Y-108786932D01*
X107241807Y-108841955D01*
X107239082Y-108850759D01*
X107203262Y-108969399D01*
X107191641Y-109028092D01*
X107179206Y-109086595D01*
X107178244Y-109095753D01*
X107178244Y-109095754D01*
X107178243Y-109095759D01*
X107166150Y-109219098D01*
X107163000Y-109251082D01*
X107163001Y-111727716D01*
X107162335Y-111734513D01*
X107157699Y-111735000D01*
X99727279Y-111735000D01*
X99083779Y-111671904D01*
X98495836Y-111494394D01*
X97953564Y-111206063D01*
X97477636Y-110817906D01*
X97086155Y-110344686D01*
X97037451Y-110254609D01*
X98204997Y-110254609D01*
X98391073Y-110595766D01*
X98808409Y-110811513D01*
X99259815Y-110941696D01*
X99727946Y-110981313D01*
X100194811Y-110928842D01*
X100642468Y-110786297D01*
X100998927Y-110595766D01*
X101185003Y-110254609D01*
X99695000Y-108764605D01*
X98204997Y-110254609D01*
X97037451Y-110254609D01*
X96794050Y-109804449D01*
X96612437Y-109217756D01*
X96549395Y-108617946D01*
X97298687Y-108617946D01*
X97351158Y-109084811D01*
X97493703Y-109532468D01*
X97684234Y-109888927D01*
X98025391Y-110075003D01*
X99515395Y-108585000D01*
X99874605Y-108585000D01*
X101364609Y-110075003D01*
X101705766Y-109888927D01*
X101921513Y-109471591D01*
X102051696Y-109020185D01*
X102091313Y-108552054D01*
X102038842Y-108085189D01*
X101896297Y-107637532D01*
X101705766Y-107281073D01*
X101364609Y-107094997D01*
X99874605Y-108585000D01*
X99515395Y-108585000D01*
X98025391Y-107094997D01*
X97684234Y-107281073D01*
X97468487Y-107698409D01*
X97338304Y-108149815D01*
X97298687Y-108617946D01*
X96549395Y-108617946D01*
X96545000Y-108576130D01*
X96545000Y-106915391D01*
X98204997Y-106915391D01*
X99695000Y-108405395D01*
X101185003Y-106915391D01*
X100998927Y-106574234D01*
X100581591Y-106358487D01*
X100130185Y-106228304D01*
X99662054Y-106188687D01*
X99195189Y-106241158D01*
X98747532Y-106383703D01*
X98391073Y-106574234D01*
X98204997Y-106915391D01*
X96545000Y-106915391D01*
X96545000Y-77234609D01*
X98204997Y-77234609D01*
X98391073Y-77575766D01*
X98808409Y-77791513D01*
X99259815Y-77921696D01*
X99727946Y-77961313D01*
X100194811Y-77908842D01*
X100642468Y-77766297D01*
X100998927Y-77575766D01*
X101185003Y-77234609D01*
X99695000Y-75744605D01*
X98204997Y-77234609D01*
X96545000Y-77234609D01*
X96545000Y-75597946D01*
X97298687Y-75597946D01*
X97351158Y-76064811D01*
X97493703Y-76512468D01*
X97684234Y-76868927D01*
X98025391Y-77055003D01*
X99515395Y-75565000D01*
X99874605Y-75565000D01*
X101364609Y-77055003D01*
X101705766Y-76868927D01*
X101921513Y-76451591D01*
X102051696Y-76000185D01*
X102091313Y-75532054D01*
X102038842Y-75065189D01*
X101896297Y-74617532D01*
X101705766Y-74261073D01*
X101364609Y-74074997D01*
X99874605Y-75565000D01*
X99515395Y-75565000D01*
X98025391Y-74074997D01*
X97684234Y-74261073D01*
X97468487Y-74678409D01*
X97338304Y-75129815D01*
X97298687Y-75597946D01*
X96545000Y-75597946D01*
X96545000Y-75597279D01*
X96608096Y-74953778D01*
X96785606Y-74365836D01*
X97035745Y-73895391D01*
X98204997Y-73895391D01*
X99695000Y-75385395D01*
X101185003Y-73895391D01*
X100998927Y-73554234D01*
X100581591Y-73338487D01*
X100130185Y-73208304D01*
X99662054Y-73168687D01*
X99195189Y-73221158D01*
X98747532Y-73363703D01*
X98391073Y-73554234D01*
X98204997Y-73895391D01*
X97035745Y-73895391D01*
X97073937Y-73823564D01*
X97462094Y-73347636D01*
X97935314Y-72956155D01*
X98475552Y-72664049D01*
X99062244Y-72482437D01*
X99703879Y-72415000D01*
X107155725Y-72415000D01*
X107162513Y-72415666D01*
G37*
%TD.AperFunction*%
%TD*%
M02*
