%TF.GenerationSoftware,KiCad,Pcbnew,(5.1.8)-1*%
%TF.CreationDate,2021-02-24T02:49:34+01:00*%
%TF.ProjectId,C64 Joystick Faceplate A1,43363420-4a6f-4797-9374-69636b204661,rev?*%
%TF.SameCoordinates,Original*%
%TF.FileFunction,Copper,L2,Bot*%
%TF.FilePolarity,Positive*%
%FSLAX46Y46*%
G04 Gerber Fmt 4.6, Leading zero omitted, Abs format (unit mm)*
G04 Created by KiCad (PCBNEW (5.1.8)-1) date 2021-02-24 02:49:34*
%MOMM*%
%LPD*%
G01*
G04 APERTURE LIST*
%TA.AperFunction,ComponentPad*%
%ADD10C,3.500000*%
%TD*%
%TA.AperFunction,Conductor*%
%ADD11C,0.254000*%
%TD*%
%TA.AperFunction,Conductor*%
%ADD12C,0.100000*%
%TD*%
G04 APERTURE END LIST*
D10*
%TO.P,M1,1*%
%TO.N,Net-(M1-Pad1)*%
X99695000Y-108585000D03*
%TD*%
%TO.P,M2,1*%
%TO.N,Net-(M1-Pad1)*%
X173355000Y-75565000D03*
%TD*%
%TO.P,M3,1*%
%TO.N,Net-(M1-Pad1)*%
X99695000Y-75565000D03*
%TD*%
%TO.P,M4,1*%
%TO.N,Net-(M1-Pad1)*%
X173355000Y-108585000D03*
%TD*%
D11*
%TO.N,Net-(M1-Pad1)*%
X107035513Y-72415666D02*
X107036001Y-72420310D01*
X107036000Y-75787918D01*
X107038723Y-75815570D01*
X107038719Y-75816209D01*
X107039619Y-75825381D01*
X107040742Y-75836064D01*
X107045550Y-75884882D01*
X107056755Y-75921821D01*
X107065445Y-75967376D01*
X107068108Y-75976198D01*
X107075437Y-75999875D01*
X107098616Y-76055016D01*
X107121030Y-76110493D01*
X107125357Y-76118629D01*
X107137146Y-76140432D01*
X107170577Y-76189995D01*
X107203346Y-76240072D01*
X107209170Y-76247213D01*
X107224969Y-76266311D01*
X107267418Y-76308465D01*
X107309266Y-76351200D01*
X107316366Y-76357074D01*
X107335575Y-76372740D01*
X107385358Y-76405816D01*
X107434771Y-76439649D01*
X107442877Y-76444031D01*
X107464762Y-76455667D01*
X107520054Y-76478456D01*
X107575038Y-76502022D01*
X107583841Y-76504747D01*
X107607569Y-76511911D01*
X107655640Y-76521430D01*
X107693617Y-76532950D01*
X107732317Y-76536762D01*
X107733920Y-76536930D01*
X107733925Y-76536931D01*
X107733930Y-76536931D01*
X107758578Y-76539348D01*
X107790581Y-76542500D01*
X108306000Y-76542500D01*
X108306001Y-79788419D01*
X108308724Y-79816062D01*
X108308719Y-79816709D01*
X108309619Y-79825881D01*
X108310756Y-79836700D01*
X108315551Y-79885383D01*
X108326754Y-79922314D01*
X108335445Y-79967876D01*
X108338108Y-79976698D01*
X108345437Y-80000375D01*
X108368616Y-80055516D01*
X108391030Y-80110993D01*
X108395357Y-80119129D01*
X108407146Y-80140932D01*
X108440577Y-80190495D01*
X108473346Y-80240572D01*
X108479170Y-80247713D01*
X108494969Y-80266811D01*
X108537418Y-80308965D01*
X108579266Y-80351700D01*
X108586366Y-80357574D01*
X108605575Y-80373240D01*
X108655358Y-80406316D01*
X108704771Y-80440149D01*
X108712877Y-80444531D01*
X108734762Y-80456167D01*
X108790054Y-80478956D01*
X108845038Y-80502522D01*
X108853841Y-80505247D01*
X108877569Y-80512411D01*
X108925640Y-80521930D01*
X108963617Y-80533450D01*
X109002317Y-80537262D01*
X109003920Y-80537430D01*
X109003925Y-80537431D01*
X109003930Y-80537431D01*
X109028578Y-80539848D01*
X109060581Y-80543000D01*
X112554419Y-80543000D01*
X112582071Y-80540277D01*
X112582709Y-80540281D01*
X112591881Y-80539381D01*
X112602549Y-80538260D01*
X112651383Y-80533450D01*
X112688323Y-80522244D01*
X112733876Y-80513555D01*
X112742698Y-80510892D01*
X112766375Y-80503563D01*
X112821516Y-80480384D01*
X112876993Y-80457970D01*
X112885129Y-80453643D01*
X112906932Y-80441854D01*
X112956495Y-80408423D01*
X113006572Y-80375654D01*
X113013713Y-80369830D01*
X113032811Y-80354031D01*
X113074965Y-80311582D01*
X113117700Y-80269734D01*
X113123574Y-80262634D01*
X113139240Y-80243425D01*
X113172316Y-80193642D01*
X113206149Y-80144229D01*
X113210531Y-80136123D01*
X113222167Y-80114238D01*
X113244956Y-80058946D01*
X113268522Y-80003962D01*
X113271247Y-79995159D01*
X113278411Y-79971431D01*
X113287930Y-79923360D01*
X113299450Y-79885383D01*
X113303262Y-79846683D01*
X113303430Y-79845080D01*
X113303431Y-79845075D01*
X113303431Y-79845066D01*
X113305849Y-79820412D01*
X113309000Y-79788419D01*
X113309000Y-76542500D01*
X113696225Y-76542500D01*
X113703013Y-76543166D01*
X113703501Y-76547810D01*
X113703500Y-83661918D01*
X113706258Y-83689919D01*
X113706231Y-83693755D01*
X113707131Y-83702926D01*
X113720086Y-83826177D01*
X113732115Y-83884774D01*
X113743322Y-83943528D01*
X113745986Y-83952350D01*
X113782633Y-84070738D01*
X113805808Y-84125868D01*
X113828222Y-84181347D01*
X113832549Y-84189483D01*
X113891492Y-84298498D01*
X113924937Y-84348082D01*
X113957697Y-84398145D01*
X113963522Y-84405286D01*
X114042518Y-84500776D01*
X114084967Y-84542930D01*
X114126815Y-84585665D01*
X114133916Y-84591539D01*
X114229955Y-84669867D01*
X114279781Y-84702972D01*
X114329138Y-84736767D01*
X114337244Y-84741150D01*
X114446667Y-84799332D01*
X114501959Y-84822121D01*
X114556955Y-84845693D01*
X114565758Y-84848418D01*
X114684399Y-84884237D01*
X114743083Y-84895857D01*
X114801594Y-84908294D01*
X114810750Y-84909256D01*
X114810755Y-84909257D01*
X114810759Y-84909257D01*
X114934097Y-84921350D01*
X114934098Y-84921350D01*
X114966081Y-84924500D01*
X131794919Y-84924500D01*
X131822919Y-84921742D01*
X131826755Y-84921769D01*
X131835926Y-84920869D01*
X131959177Y-84907914D01*
X132017774Y-84895885D01*
X132076528Y-84884678D01*
X132085350Y-84882014D01*
X132203738Y-84845367D01*
X132258868Y-84822192D01*
X132314347Y-84799778D01*
X132322483Y-84795451D01*
X132431498Y-84736508D01*
X132481082Y-84703063D01*
X132531145Y-84670303D01*
X132538286Y-84664478D01*
X132633776Y-84585482D01*
X132675930Y-84543033D01*
X132718665Y-84501185D01*
X132724539Y-84494084D01*
X132802867Y-84398045D01*
X132835972Y-84348219D01*
X132869767Y-84298862D01*
X132874150Y-84290756D01*
X132932332Y-84181333D01*
X132955121Y-84126041D01*
X132978693Y-84071045D01*
X132981418Y-84062242D01*
X133017237Y-83943601D01*
X133028859Y-83884908D01*
X133041294Y-83826406D01*
X133042256Y-83817250D01*
X133042257Y-83817245D01*
X133042257Y-83817241D01*
X133054350Y-83693903D01*
X133054350Y-83693902D01*
X133057500Y-83661919D01*
X133057500Y-76549775D01*
X133058166Y-76542987D01*
X133062801Y-76542500D01*
X133452000Y-76542500D01*
X133452001Y-79788419D01*
X133454724Y-79816062D01*
X133454719Y-79816709D01*
X133455619Y-79825881D01*
X133456756Y-79836700D01*
X133461551Y-79885383D01*
X133472754Y-79922314D01*
X133481445Y-79967876D01*
X133484108Y-79976698D01*
X133491437Y-80000375D01*
X133514616Y-80055516D01*
X133537030Y-80110993D01*
X133541357Y-80119129D01*
X133553146Y-80140932D01*
X133586577Y-80190495D01*
X133619346Y-80240572D01*
X133625170Y-80247713D01*
X133640969Y-80266811D01*
X133683418Y-80308965D01*
X133725266Y-80351700D01*
X133732366Y-80357574D01*
X133751575Y-80373240D01*
X133801358Y-80406316D01*
X133850771Y-80440149D01*
X133858877Y-80444531D01*
X133880762Y-80456167D01*
X133936054Y-80478956D01*
X133991038Y-80502522D01*
X133999841Y-80505247D01*
X134023569Y-80512411D01*
X134071640Y-80521930D01*
X134109617Y-80533450D01*
X134148317Y-80537262D01*
X134149920Y-80537430D01*
X134149925Y-80537431D01*
X134149930Y-80537431D01*
X134174578Y-80539848D01*
X134206581Y-80543000D01*
X137700419Y-80543000D01*
X137728071Y-80540277D01*
X137728709Y-80540281D01*
X137737881Y-80539381D01*
X137748549Y-80538260D01*
X137797383Y-80533450D01*
X137834323Y-80522244D01*
X137879876Y-80513555D01*
X137888698Y-80510892D01*
X137912375Y-80503563D01*
X137967516Y-80480384D01*
X138022993Y-80457970D01*
X138031129Y-80453643D01*
X138052932Y-80441854D01*
X138102495Y-80408423D01*
X138152572Y-80375654D01*
X138159713Y-80369830D01*
X138178811Y-80354031D01*
X138220965Y-80311582D01*
X138263700Y-80269734D01*
X138269574Y-80262634D01*
X138285240Y-80243425D01*
X138318316Y-80193642D01*
X138352149Y-80144229D01*
X138356531Y-80136123D01*
X138368167Y-80114238D01*
X138390956Y-80058946D01*
X138414522Y-80003962D01*
X138417247Y-79995159D01*
X138424411Y-79971431D01*
X138433930Y-79923360D01*
X138445450Y-79885383D01*
X138449262Y-79846683D01*
X138449430Y-79845080D01*
X138449431Y-79845075D01*
X138449431Y-79845066D01*
X138451849Y-79820412D01*
X138455000Y-79788419D01*
X138455000Y-76542500D01*
X138970419Y-76542500D01*
X138998071Y-76539777D01*
X138998709Y-76539781D01*
X139007881Y-76538881D01*
X139018549Y-76537760D01*
X139067383Y-76532950D01*
X139104323Y-76521744D01*
X139149876Y-76513055D01*
X139158698Y-76510392D01*
X139182375Y-76503063D01*
X139237516Y-76479884D01*
X139292993Y-76457470D01*
X139301129Y-76453143D01*
X139322932Y-76441354D01*
X139372495Y-76407923D01*
X139422572Y-76375154D01*
X139429713Y-76369330D01*
X139448811Y-76353531D01*
X139490965Y-76311082D01*
X139533700Y-76269234D01*
X139539574Y-76262134D01*
X139555240Y-76242925D01*
X139588316Y-76193142D01*
X139622149Y-76143729D01*
X139626531Y-76135623D01*
X139638167Y-76113738D01*
X139660956Y-76058446D01*
X139684522Y-76003462D01*
X139687247Y-75994659D01*
X139694411Y-75970931D01*
X139703930Y-75922860D01*
X139715450Y-75884883D01*
X139719262Y-75846183D01*
X139719430Y-75844580D01*
X139719431Y-75844575D01*
X139719431Y-75844566D01*
X139721849Y-75819912D01*
X139725000Y-75787919D01*
X139725000Y-75326720D01*
X162045706Y-75326720D01*
X162045706Y-75803280D01*
X162138678Y-76270682D01*
X162321049Y-76710965D01*
X162585812Y-77107210D01*
X162922790Y-77444188D01*
X163319035Y-77708951D01*
X163759318Y-77891322D01*
X164226720Y-77984294D01*
X164703280Y-77984294D01*
X165170682Y-77891322D01*
X165610965Y-77708951D01*
X166007210Y-77444188D01*
X166216789Y-77234609D01*
X171864997Y-77234609D01*
X172051073Y-77575766D01*
X172468409Y-77791513D01*
X172919815Y-77921696D01*
X173387946Y-77961313D01*
X173854811Y-77908842D01*
X174302468Y-77766297D01*
X174658927Y-77575766D01*
X174845003Y-77234609D01*
X173355000Y-75744605D01*
X171864997Y-77234609D01*
X166216789Y-77234609D01*
X166344188Y-77107210D01*
X166608951Y-76710965D01*
X166791322Y-76270682D01*
X166884294Y-75803280D01*
X166884294Y-75597946D01*
X170958687Y-75597946D01*
X171011158Y-76064811D01*
X171153703Y-76512468D01*
X171344234Y-76868927D01*
X171685391Y-77055003D01*
X173175395Y-75565000D01*
X173534605Y-75565000D01*
X175024609Y-77055003D01*
X175365766Y-76868927D01*
X175581513Y-76451591D01*
X175711696Y-76000185D01*
X175751313Y-75532054D01*
X175698842Y-75065189D01*
X175556297Y-74617532D01*
X175365766Y-74261073D01*
X175024609Y-74074997D01*
X173534605Y-75565000D01*
X173175395Y-75565000D01*
X171685391Y-74074997D01*
X171344234Y-74261073D01*
X171128487Y-74678409D01*
X170998304Y-75129815D01*
X170958687Y-75597946D01*
X166884294Y-75597946D01*
X166884294Y-75326720D01*
X166791322Y-74859318D01*
X166608951Y-74419035D01*
X166344188Y-74022790D01*
X166216789Y-73895391D01*
X171864997Y-73895391D01*
X173355000Y-75385395D01*
X174845003Y-73895391D01*
X174658927Y-73554234D01*
X174241591Y-73338487D01*
X173790185Y-73208304D01*
X173322054Y-73168687D01*
X172855189Y-73221158D01*
X172407532Y-73363703D01*
X172051073Y-73554234D01*
X171864997Y-73895391D01*
X166216789Y-73895391D01*
X166007210Y-73685812D01*
X165610965Y-73421049D01*
X165170682Y-73238678D01*
X164703280Y-73145706D01*
X164226720Y-73145706D01*
X163759318Y-73238678D01*
X163319035Y-73421049D01*
X162922790Y-73685812D01*
X162585812Y-74022790D01*
X162321049Y-74419035D01*
X162138678Y-74859318D01*
X162045706Y-75326720D01*
X139725000Y-75326720D01*
X139725000Y-72422275D01*
X139725666Y-72415487D01*
X139730301Y-72415000D01*
X173322721Y-72415000D01*
X173966222Y-72478096D01*
X174554164Y-72655606D01*
X175096436Y-72943937D01*
X175572364Y-73332094D01*
X175963845Y-73805314D01*
X176255951Y-74345552D01*
X176437563Y-74932244D01*
X176505000Y-75573879D01*
X176505001Y-108552711D01*
X176441904Y-109196221D01*
X176264394Y-109784164D01*
X175976063Y-110326436D01*
X175587906Y-110802364D01*
X175114686Y-111193845D01*
X174574449Y-111485950D01*
X173987756Y-111667563D01*
X173346130Y-111735000D01*
X139732275Y-111735000D01*
X139725487Y-111734335D01*
X139725000Y-111729699D01*
X139725000Y-108362081D01*
X139723488Y-108346720D01*
X162045706Y-108346720D01*
X162045706Y-108823280D01*
X162138678Y-109290682D01*
X162321049Y-109730965D01*
X162585812Y-110127210D01*
X162922790Y-110464188D01*
X163319035Y-110728951D01*
X163759318Y-110911322D01*
X164226720Y-111004294D01*
X164703280Y-111004294D01*
X165170682Y-110911322D01*
X165610965Y-110728951D01*
X166007210Y-110464188D01*
X166216789Y-110254609D01*
X171864997Y-110254609D01*
X172051073Y-110595766D01*
X172468409Y-110811513D01*
X172919815Y-110941696D01*
X173387946Y-110981313D01*
X173854811Y-110928842D01*
X174302468Y-110786297D01*
X174658927Y-110595766D01*
X174845003Y-110254609D01*
X173355000Y-108764605D01*
X171864997Y-110254609D01*
X166216789Y-110254609D01*
X166344188Y-110127210D01*
X166608951Y-109730965D01*
X166791322Y-109290682D01*
X166884294Y-108823280D01*
X166884294Y-108617946D01*
X170958687Y-108617946D01*
X171011158Y-109084811D01*
X171153703Y-109532468D01*
X171344234Y-109888927D01*
X171685391Y-110075003D01*
X173175395Y-108585000D01*
X173534605Y-108585000D01*
X175024609Y-110075003D01*
X175365766Y-109888927D01*
X175581513Y-109471591D01*
X175711696Y-109020185D01*
X175751313Y-108552054D01*
X175698842Y-108085189D01*
X175556297Y-107637532D01*
X175365766Y-107281073D01*
X175024609Y-107094997D01*
X173534605Y-108585000D01*
X173175395Y-108585000D01*
X171685391Y-107094997D01*
X171344234Y-107281073D01*
X171128487Y-107698409D01*
X170998304Y-108149815D01*
X170958687Y-108617946D01*
X166884294Y-108617946D01*
X166884294Y-108346720D01*
X166791322Y-107879318D01*
X166608951Y-107439035D01*
X166344188Y-107042790D01*
X166216789Y-106915391D01*
X171864997Y-106915391D01*
X173355000Y-108405395D01*
X174845003Y-106915391D01*
X174658927Y-106574234D01*
X174241591Y-106358487D01*
X173790185Y-106228304D01*
X173322054Y-106188687D01*
X172855189Y-106241158D01*
X172407532Y-106383703D01*
X172051073Y-106574234D01*
X171864997Y-106915391D01*
X166216789Y-106915391D01*
X166007210Y-106705812D01*
X165610965Y-106441049D01*
X165170682Y-106258678D01*
X164703280Y-106165706D01*
X164226720Y-106165706D01*
X163759318Y-106258678D01*
X163319035Y-106441049D01*
X162922790Y-106705812D01*
X162585812Y-107042790D01*
X162321049Y-107439035D01*
X162138678Y-107879318D01*
X162045706Y-108346720D01*
X139723488Y-108346720D01*
X139722277Y-108334429D01*
X139722281Y-108333791D01*
X139721381Y-108324620D01*
X139720261Y-108313960D01*
X139715450Y-108265117D01*
X139704244Y-108228178D01*
X139695555Y-108182623D01*
X139692892Y-108173802D01*
X139685563Y-108150125D01*
X139662384Y-108094984D01*
X139639970Y-108039507D01*
X139635643Y-108031371D01*
X139623854Y-108009568D01*
X139590413Y-107959990D01*
X139557654Y-107909928D01*
X139551830Y-107902787D01*
X139536031Y-107883689D01*
X139493602Y-107841555D01*
X139451735Y-107798800D01*
X139444634Y-107792926D01*
X139425426Y-107777260D01*
X139375609Y-107744161D01*
X139326229Y-107710351D01*
X139318123Y-107705968D01*
X139296238Y-107694333D01*
X139240960Y-107671550D01*
X139185963Y-107647978D01*
X139177159Y-107645253D01*
X139153431Y-107638089D01*
X139105360Y-107628570D01*
X139067383Y-107617050D01*
X139028683Y-107613238D01*
X139027080Y-107613070D01*
X139027075Y-107613069D01*
X139027070Y-107613069D01*
X139002412Y-107610651D01*
X138970419Y-107607500D01*
X138455000Y-107607500D01*
X138455000Y-104361581D01*
X138452277Y-104333929D01*
X138452281Y-104333291D01*
X138451381Y-104324120D01*
X138450261Y-104313460D01*
X138445450Y-104264617D01*
X138434244Y-104227678D01*
X138425555Y-104182123D01*
X138422892Y-104173302D01*
X138415563Y-104149625D01*
X138392384Y-104094484D01*
X138369970Y-104039007D01*
X138365643Y-104030871D01*
X138353854Y-104009068D01*
X138320413Y-103959490D01*
X138287654Y-103909428D01*
X138281830Y-103902287D01*
X138266031Y-103883189D01*
X138223602Y-103841055D01*
X138181735Y-103798300D01*
X138174634Y-103792426D01*
X138155426Y-103776760D01*
X138105609Y-103743661D01*
X138056229Y-103709851D01*
X138048123Y-103705468D01*
X138026238Y-103693833D01*
X137970960Y-103671050D01*
X137915963Y-103647478D01*
X137907159Y-103644753D01*
X137883431Y-103637589D01*
X137835360Y-103628070D01*
X137797383Y-103616550D01*
X137758683Y-103612738D01*
X137757080Y-103612570D01*
X137757075Y-103612569D01*
X137757070Y-103612569D01*
X137732412Y-103610151D01*
X137700419Y-103607000D01*
X134206581Y-103607000D01*
X134178929Y-103609723D01*
X134178291Y-103609719D01*
X134169120Y-103610619D01*
X134158460Y-103611739D01*
X134109617Y-103616550D01*
X134072678Y-103627756D01*
X134027123Y-103636445D01*
X134018302Y-103639108D01*
X133994625Y-103646437D01*
X133939484Y-103669616D01*
X133884007Y-103692030D01*
X133875871Y-103696357D01*
X133854068Y-103708146D01*
X133804490Y-103741587D01*
X133754428Y-103774346D01*
X133747287Y-103780170D01*
X133728189Y-103795969D01*
X133686055Y-103838398D01*
X133643300Y-103880265D01*
X133637426Y-103887366D01*
X133621760Y-103906574D01*
X133588661Y-103956391D01*
X133554851Y-104005771D01*
X133550468Y-104013877D01*
X133538833Y-104035762D01*
X133516050Y-104091040D01*
X133492478Y-104146037D01*
X133489753Y-104154841D01*
X133482589Y-104178569D01*
X133473068Y-104226650D01*
X133461551Y-104264617D01*
X133457754Y-104303165D01*
X133457570Y-104304920D01*
X133457569Y-104304925D01*
X133457569Y-104304930D01*
X133455151Y-104329588D01*
X133455151Y-104329598D01*
X133452001Y-104361581D01*
X133452000Y-107607500D01*
X133064775Y-107607500D01*
X133057987Y-107606835D01*
X133057500Y-107602199D01*
X133057500Y-100488081D01*
X133054742Y-100460081D01*
X133054769Y-100456245D01*
X133053869Y-100447074D01*
X133040914Y-100323823D01*
X133028887Y-100265233D01*
X133017678Y-100206471D01*
X133015014Y-100197649D01*
X132978367Y-100079262D01*
X132955192Y-100024132D01*
X132932778Y-99968653D01*
X132928451Y-99960517D01*
X132869507Y-99851502D01*
X132836065Y-99801922D01*
X132803303Y-99751855D01*
X132797478Y-99744714D01*
X132718482Y-99649224D01*
X132676066Y-99607103D01*
X132634184Y-99564334D01*
X132627084Y-99558461D01*
X132531045Y-99480133D01*
X132481203Y-99447018D01*
X132431862Y-99413233D01*
X132423756Y-99408850D01*
X132314332Y-99350668D01*
X132259054Y-99327884D01*
X132204045Y-99304307D01*
X132195241Y-99301582D01*
X132076601Y-99265762D01*
X132017872Y-99254133D01*
X131959405Y-99241706D01*
X131950247Y-99240744D01*
X131950244Y-99240743D01*
X131950241Y-99240743D01*
X131826902Y-99228650D01*
X131794919Y-99225500D01*
X114966081Y-99225500D01*
X114938081Y-99228258D01*
X114934245Y-99228231D01*
X114925074Y-99229131D01*
X114801823Y-99242086D01*
X114743233Y-99254113D01*
X114684471Y-99265322D01*
X114675649Y-99267986D01*
X114557262Y-99304633D01*
X114502132Y-99327808D01*
X114446653Y-99350222D01*
X114438517Y-99354549D01*
X114329502Y-99413493D01*
X114279922Y-99446935D01*
X114229855Y-99479697D01*
X114222714Y-99485522D01*
X114127224Y-99564518D01*
X114085103Y-99606934D01*
X114042334Y-99648816D01*
X114036461Y-99655916D01*
X113958133Y-99751955D01*
X113925018Y-99801797D01*
X113891233Y-99851138D01*
X113886850Y-99859244D01*
X113828668Y-99968668D01*
X113805884Y-100023946D01*
X113782307Y-100078955D01*
X113779582Y-100087759D01*
X113743762Y-100206399D01*
X113732141Y-100265092D01*
X113719706Y-100323595D01*
X113718744Y-100332753D01*
X113718744Y-100332754D01*
X113718743Y-100332759D01*
X113706650Y-100456098D01*
X113703500Y-100488082D01*
X113703501Y-107600215D01*
X113702835Y-107607013D01*
X113698199Y-107607500D01*
X113309000Y-107607500D01*
X113309000Y-104361581D01*
X113306277Y-104333929D01*
X113306281Y-104333291D01*
X113305381Y-104324120D01*
X113304261Y-104313460D01*
X113299450Y-104264617D01*
X113288244Y-104227678D01*
X113279555Y-104182123D01*
X113276892Y-104173302D01*
X113269563Y-104149625D01*
X113246384Y-104094484D01*
X113223970Y-104039007D01*
X113219643Y-104030871D01*
X113207854Y-104009068D01*
X113174413Y-103959490D01*
X113141654Y-103909428D01*
X113135830Y-103902287D01*
X113120031Y-103883189D01*
X113077602Y-103841055D01*
X113035735Y-103798300D01*
X113028634Y-103792426D01*
X113009426Y-103776760D01*
X112959609Y-103743661D01*
X112910229Y-103709851D01*
X112902123Y-103705468D01*
X112880238Y-103693833D01*
X112824960Y-103671050D01*
X112769963Y-103647478D01*
X112761159Y-103644753D01*
X112737431Y-103637589D01*
X112689360Y-103628070D01*
X112651383Y-103616550D01*
X112612683Y-103612738D01*
X112611080Y-103612570D01*
X112611075Y-103612569D01*
X112611070Y-103612569D01*
X112586412Y-103610151D01*
X112554419Y-103607000D01*
X109060581Y-103607000D01*
X109032929Y-103609723D01*
X109032291Y-103609719D01*
X109023120Y-103610619D01*
X109012460Y-103611739D01*
X108963617Y-103616550D01*
X108926678Y-103627756D01*
X108881123Y-103636445D01*
X108872302Y-103639108D01*
X108848625Y-103646437D01*
X108793484Y-103669616D01*
X108738007Y-103692030D01*
X108729871Y-103696357D01*
X108708068Y-103708146D01*
X108658490Y-103741587D01*
X108608428Y-103774346D01*
X108601287Y-103780170D01*
X108582189Y-103795969D01*
X108540055Y-103838398D01*
X108497300Y-103880265D01*
X108491426Y-103887366D01*
X108475760Y-103906574D01*
X108442661Y-103956391D01*
X108408851Y-104005771D01*
X108404468Y-104013877D01*
X108392833Y-104035762D01*
X108370050Y-104091040D01*
X108346478Y-104146037D01*
X108343753Y-104154841D01*
X108336589Y-104178569D01*
X108327068Y-104226650D01*
X108315551Y-104264617D01*
X108311754Y-104303165D01*
X108311570Y-104304920D01*
X108311569Y-104304925D01*
X108311569Y-104304930D01*
X108309151Y-104329588D01*
X108309151Y-104329598D01*
X108306001Y-104361581D01*
X108306000Y-107607500D01*
X107790581Y-107607500D01*
X107762929Y-107610223D01*
X107762291Y-107610219D01*
X107753120Y-107611119D01*
X107742460Y-107612239D01*
X107693617Y-107617050D01*
X107656678Y-107628256D01*
X107611123Y-107636945D01*
X107602302Y-107639608D01*
X107578625Y-107646937D01*
X107523484Y-107670116D01*
X107468007Y-107692530D01*
X107459871Y-107696857D01*
X107438068Y-107708646D01*
X107388490Y-107742087D01*
X107338428Y-107774846D01*
X107331287Y-107780670D01*
X107312189Y-107796469D01*
X107270055Y-107838898D01*
X107227300Y-107880765D01*
X107221426Y-107887866D01*
X107205760Y-107907074D01*
X107172661Y-107956891D01*
X107138851Y-108006271D01*
X107134468Y-108014377D01*
X107122833Y-108036262D01*
X107100050Y-108091540D01*
X107076478Y-108146537D01*
X107073753Y-108155341D01*
X107066589Y-108179069D01*
X107057070Y-108227143D01*
X107045550Y-108265118D01*
X107041740Y-108303802D01*
X107041570Y-108305420D01*
X107041569Y-108305425D01*
X107041569Y-108305430D01*
X107039228Y-108329305D01*
X107036000Y-108362082D01*
X107036001Y-111727715D01*
X107035335Y-111734513D01*
X107030699Y-111735000D01*
X99727279Y-111735000D01*
X99083779Y-111671904D01*
X98495836Y-111494394D01*
X97953564Y-111206063D01*
X97477636Y-110817906D01*
X97086155Y-110344686D01*
X97037451Y-110254609D01*
X98204997Y-110254609D01*
X98391073Y-110595766D01*
X98808409Y-110811513D01*
X99259815Y-110941696D01*
X99727946Y-110981313D01*
X100194811Y-110928842D01*
X100642468Y-110786297D01*
X100998927Y-110595766D01*
X101185003Y-110254609D01*
X99695000Y-108764605D01*
X98204997Y-110254609D01*
X97037451Y-110254609D01*
X96794050Y-109804449D01*
X96612437Y-109217756D01*
X96549395Y-108617946D01*
X97298687Y-108617946D01*
X97351158Y-109084811D01*
X97493703Y-109532468D01*
X97684234Y-109888927D01*
X98025391Y-110075003D01*
X99515395Y-108585000D01*
X99874605Y-108585000D01*
X101364609Y-110075003D01*
X101705766Y-109888927D01*
X101921513Y-109471591D01*
X102051696Y-109020185D01*
X102091313Y-108552054D01*
X102038842Y-108085189D01*
X101896297Y-107637532D01*
X101705766Y-107281073D01*
X101364609Y-107094997D01*
X99874605Y-108585000D01*
X99515395Y-108585000D01*
X98025391Y-107094997D01*
X97684234Y-107281073D01*
X97468487Y-107698409D01*
X97338304Y-108149815D01*
X97298687Y-108617946D01*
X96549395Y-108617946D01*
X96545000Y-108576130D01*
X96545000Y-106915391D01*
X98204997Y-106915391D01*
X99695000Y-108405395D01*
X101185003Y-106915391D01*
X100998927Y-106574234D01*
X100581591Y-106358487D01*
X100130185Y-106228304D01*
X99662054Y-106188687D01*
X99195189Y-106241158D01*
X98747532Y-106383703D01*
X98391073Y-106574234D01*
X98204997Y-106915391D01*
X96545000Y-106915391D01*
X96545000Y-77234609D01*
X98204997Y-77234609D01*
X98391073Y-77575766D01*
X98808409Y-77791513D01*
X99259815Y-77921696D01*
X99727946Y-77961313D01*
X100194811Y-77908842D01*
X100642468Y-77766297D01*
X100998927Y-77575766D01*
X101185003Y-77234609D01*
X99695000Y-75744605D01*
X98204997Y-77234609D01*
X96545000Y-77234609D01*
X96545000Y-75597946D01*
X97298687Y-75597946D01*
X97351158Y-76064811D01*
X97493703Y-76512468D01*
X97684234Y-76868927D01*
X98025391Y-77055003D01*
X99515395Y-75565000D01*
X99874605Y-75565000D01*
X101364609Y-77055003D01*
X101705766Y-76868927D01*
X101921513Y-76451591D01*
X102051696Y-76000185D01*
X102091313Y-75532054D01*
X102038842Y-75065189D01*
X101896297Y-74617532D01*
X101705766Y-74261073D01*
X101364609Y-74074997D01*
X99874605Y-75565000D01*
X99515395Y-75565000D01*
X98025391Y-74074997D01*
X97684234Y-74261073D01*
X97468487Y-74678409D01*
X97338304Y-75129815D01*
X97298687Y-75597946D01*
X96545000Y-75597946D01*
X96545000Y-75597279D01*
X96608096Y-74953778D01*
X96785606Y-74365836D01*
X97035745Y-73895391D01*
X98204997Y-73895391D01*
X99695000Y-75385395D01*
X101185003Y-73895391D01*
X100998927Y-73554234D01*
X100581591Y-73338487D01*
X100130185Y-73208304D01*
X99662054Y-73168687D01*
X99195189Y-73221158D01*
X98747532Y-73363703D01*
X98391073Y-73554234D01*
X98204997Y-73895391D01*
X97035745Y-73895391D01*
X97073937Y-73823564D01*
X97462094Y-73347636D01*
X97935314Y-72956155D01*
X98475552Y-72664049D01*
X99062244Y-72482437D01*
X99703879Y-72415000D01*
X107028725Y-72415000D01*
X107035513Y-72415666D01*
%TA.AperFunction,Conductor*%
D12*
G36*
X107035513Y-72415666D02*
G01*
X107036001Y-72420310D01*
X107036000Y-75787918D01*
X107038723Y-75815570D01*
X107038719Y-75816209D01*
X107039619Y-75825381D01*
X107040742Y-75836064D01*
X107045550Y-75884882D01*
X107056755Y-75921821D01*
X107065445Y-75967376D01*
X107068108Y-75976198D01*
X107075437Y-75999875D01*
X107098616Y-76055016D01*
X107121030Y-76110493D01*
X107125357Y-76118629D01*
X107137146Y-76140432D01*
X107170577Y-76189995D01*
X107203346Y-76240072D01*
X107209170Y-76247213D01*
X107224969Y-76266311D01*
X107267418Y-76308465D01*
X107309266Y-76351200D01*
X107316366Y-76357074D01*
X107335575Y-76372740D01*
X107385358Y-76405816D01*
X107434771Y-76439649D01*
X107442877Y-76444031D01*
X107464762Y-76455667D01*
X107520054Y-76478456D01*
X107575038Y-76502022D01*
X107583841Y-76504747D01*
X107607569Y-76511911D01*
X107655640Y-76521430D01*
X107693617Y-76532950D01*
X107732317Y-76536762D01*
X107733920Y-76536930D01*
X107733925Y-76536931D01*
X107733930Y-76536931D01*
X107758578Y-76539348D01*
X107790581Y-76542500D01*
X108306000Y-76542500D01*
X108306001Y-79788419D01*
X108308724Y-79816062D01*
X108308719Y-79816709D01*
X108309619Y-79825881D01*
X108310756Y-79836700D01*
X108315551Y-79885383D01*
X108326754Y-79922314D01*
X108335445Y-79967876D01*
X108338108Y-79976698D01*
X108345437Y-80000375D01*
X108368616Y-80055516D01*
X108391030Y-80110993D01*
X108395357Y-80119129D01*
X108407146Y-80140932D01*
X108440577Y-80190495D01*
X108473346Y-80240572D01*
X108479170Y-80247713D01*
X108494969Y-80266811D01*
X108537418Y-80308965D01*
X108579266Y-80351700D01*
X108586366Y-80357574D01*
X108605575Y-80373240D01*
X108655358Y-80406316D01*
X108704771Y-80440149D01*
X108712877Y-80444531D01*
X108734762Y-80456167D01*
X108790054Y-80478956D01*
X108845038Y-80502522D01*
X108853841Y-80505247D01*
X108877569Y-80512411D01*
X108925640Y-80521930D01*
X108963617Y-80533450D01*
X109002317Y-80537262D01*
X109003920Y-80537430D01*
X109003925Y-80537431D01*
X109003930Y-80537431D01*
X109028578Y-80539848D01*
X109060581Y-80543000D01*
X112554419Y-80543000D01*
X112582071Y-80540277D01*
X112582709Y-80540281D01*
X112591881Y-80539381D01*
X112602549Y-80538260D01*
X112651383Y-80533450D01*
X112688323Y-80522244D01*
X112733876Y-80513555D01*
X112742698Y-80510892D01*
X112766375Y-80503563D01*
X112821516Y-80480384D01*
X112876993Y-80457970D01*
X112885129Y-80453643D01*
X112906932Y-80441854D01*
X112956495Y-80408423D01*
X113006572Y-80375654D01*
X113013713Y-80369830D01*
X113032811Y-80354031D01*
X113074965Y-80311582D01*
X113117700Y-80269734D01*
X113123574Y-80262634D01*
X113139240Y-80243425D01*
X113172316Y-80193642D01*
X113206149Y-80144229D01*
X113210531Y-80136123D01*
X113222167Y-80114238D01*
X113244956Y-80058946D01*
X113268522Y-80003962D01*
X113271247Y-79995159D01*
X113278411Y-79971431D01*
X113287930Y-79923360D01*
X113299450Y-79885383D01*
X113303262Y-79846683D01*
X113303430Y-79845080D01*
X113303431Y-79845075D01*
X113303431Y-79845066D01*
X113305849Y-79820412D01*
X113309000Y-79788419D01*
X113309000Y-76542500D01*
X113696225Y-76542500D01*
X113703013Y-76543166D01*
X113703501Y-76547810D01*
X113703500Y-83661918D01*
X113706258Y-83689919D01*
X113706231Y-83693755D01*
X113707131Y-83702926D01*
X113720086Y-83826177D01*
X113732115Y-83884774D01*
X113743322Y-83943528D01*
X113745986Y-83952350D01*
X113782633Y-84070738D01*
X113805808Y-84125868D01*
X113828222Y-84181347D01*
X113832549Y-84189483D01*
X113891492Y-84298498D01*
X113924937Y-84348082D01*
X113957697Y-84398145D01*
X113963522Y-84405286D01*
X114042518Y-84500776D01*
X114084967Y-84542930D01*
X114126815Y-84585665D01*
X114133916Y-84591539D01*
X114229955Y-84669867D01*
X114279781Y-84702972D01*
X114329138Y-84736767D01*
X114337244Y-84741150D01*
X114446667Y-84799332D01*
X114501959Y-84822121D01*
X114556955Y-84845693D01*
X114565758Y-84848418D01*
X114684399Y-84884237D01*
X114743083Y-84895857D01*
X114801594Y-84908294D01*
X114810750Y-84909256D01*
X114810755Y-84909257D01*
X114810759Y-84909257D01*
X114934097Y-84921350D01*
X114934098Y-84921350D01*
X114966081Y-84924500D01*
X131794919Y-84924500D01*
X131822919Y-84921742D01*
X131826755Y-84921769D01*
X131835926Y-84920869D01*
X131959177Y-84907914D01*
X132017774Y-84895885D01*
X132076528Y-84884678D01*
X132085350Y-84882014D01*
X132203738Y-84845367D01*
X132258868Y-84822192D01*
X132314347Y-84799778D01*
X132322483Y-84795451D01*
X132431498Y-84736508D01*
X132481082Y-84703063D01*
X132531145Y-84670303D01*
X132538286Y-84664478D01*
X132633776Y-84585482D01*
X132675930Y-84543033D01*
X132718665Y-84501185D01*
X132724539Y-84494084D01*
X132802867Y-84398045D01*
X132835972Y-84348219D01*
X132869767Y-84298862D01*
X132874150Y-84290756D01*
X132932332Y-84181333D01*
X132955121Y-84126041D01*
X132978693Y-84071045D01*
X132981418Y-84062242D01*
X133017237Y-83943601D01*
X133028859Y-83884908D01*
X133041294Y-83826406D01*
X133042256Y-83817250D01*
X133042257Y-83817245D01*
X133042257Y-83817241D01*
X133054350Y-83693903D01*
X133054350Y-83693902D01*
X133057500Y-83661919D01*
X133057500Y-76549775D01*
X133058166Y-76542987D01*
X133062801Y-76542500D01*
X133452000Y-76542500D01*
X133452001Y-79788419D01*
X133454724Y-79816062D01*
X133454719Y-79816709D01*
X133455619Y-79825881D01*
X133456756Y-79836700D01*
X133461551Y-79885383D01*
X133472754Y-79922314D01*
X133481445Y-79967876D01*
X133484108Y-79976698D01*
X133491437Y-80000375D01*
X133514616Y-80055516D01*
X133537030Y-80110993D01*
X133541357Y-80119129D01*
X133553146Y-80140932D01*
X133586577Y-80190495D01*
X133619346Y-80240572D01*
X133625170Y-80247713D01*
X133640969Y-80266811D01*
X133683418Y-80308965D01*
X133725266Y-80351700D01*
X133732366Y-80357574D01*
X133751575Y-80373240D01*
X133801358Y-80406316D01*
X133850771Y-80440149D01*
X133858877Y-80444531D01*
X133880762Y-80456167D01*
X133936054Y-80478956D01*
X133991038Y-80502522D01*
X133999841Y-80505247D01*
X134023569Y-80512411D01*
X134071640Y-80521930D01*
X134109617Y-80533450D01*
X134148317Y-80537262D01*
X134149920Y-80537430D01*
X134149925Y-80537431D01*
X134149930Y-80537431D01*
X134174578Y-80539848D01*
X134206581Y-80543000D01*
X137700419Y-80543000D01*
X137728071Y-80540277D01*
X137728709Y-80540281D01*
X137737881Y-80539381D01*
X137748549Y-80538260D01*
X137797383Y-80533450D01*
X137834323Y-80522244D01*
X137879876Y-80513555D01*
X137888698Y-80510892D01*
X137912375Y-80503563D01*
X137967516Y-80480384D01*
X138022993Y-80457970D01*
X138031129Y-80453643D01*
X138052932Y-80441854D01*
X138102495Y-80408423D01*
X138152572Y-80375654D01*
X138159713Y-80369830D01*
X138178811Y-80354031D01*
X138220965Y-80311582D01*
X138263700Y-80269734D01*
X138269574Y-80262634D01*
X138285240Y-80243425D01*
X138318316Y-80193642D01*
X138352149Y-80144229D01*
X138356531Y-80136123D01*
X138368167Y-80114238D01*
X138390956Y-80058946D01*
X138414522Y-80003962D01*
X138417247Y-79995159D01*
X138424411Y-79971431D01*
X138433930Y-79923360D01*
X138445450Y-79885383D01*
X138449262Y-79846683D01*
X138449430Y-79845080D01*
X138449431Y-79845075D01*
X138449431Y-79845066D01*
X138451849Y-79820412D01*
X138455000Y-79788419D01*
X138455000Y-76542500D01*
X138970419Y-76542500D01*
X138998071Y-76539777D01*
X138998709Y-76539781D01*
X139007881Y-76538881D01*
X139018549Y-76537760D01*
X139067383Y-76532950D01*
X139104323Y-76521744D01*
X139149876Y-76513055D01*
X139158698Y-76510392D01*
X139182375Y-76503063D01*
X139237516Y-76479884D01*
X139292993Y-76457470D01*
X139301129Y-76453143D01*
X139322932Y-76441354D01*
X139372495Y-76407923D01*
X139422572Y-76375154D01*
X139429713Y-76369330D01*
X139448811Y-76353531D01*
X139490965Y-76311082D01*
X139533700Y-76269234D01*
X139539574Y-76262134D01*
X139555240Y-76242925D01*
X139588316Y-76193142D01*
X139622149Y-76143729D01*
X139626531Y-76135623D01*
X139638167Y-76113738D01*
X139660956Y-76058446D01*
X139684522Y-76003462D01*
X139687247Y-75994659D01*
X139694411Y-75970931D01*
X139703930Y-75922860D01*
X139715450Y-75884883D01*
X139719262Y-75846183D01*
X139719430Y-75844580D01*
X139719431Y-75844575D01*
X139719431Y-75844566D01*
X139721849Y-75819912D01*
X139725000Y-75787919D01*
X139725000Y-75326720D01*
X162045706Y-75326720D01*
X162045706Y-75803280D01*
X162138678Y-76270682D01*
X162321049Y-76710965D01*
X162585812Y-77107210D01*
X162922790Y-77444188D01*
X163319035Y-77708951D01*
X163759318Y-77891322D01*
X164226720Y-77984294D01*
X164703280Y-77984294D01*
X165170682Y-77891322D01*
X165610965Y-77708951D01*
X166007210Y-77444188D01*
X166216789Y-77234609D01*
X171864997Y-77234609D01*
X172051073Y-77575766D01*
X172468409Y-77791513D01*
X172919815Y-77921696D01*
X173387946Y-77961313D01*
X173854811Y-77908842D01*
X174302468Y-77766297D01*
X174658927Y-77575766D01*
X174845003Y-77234609D01*
X173355000Y-75744605D01*
X171864997Y-77234609D01*
X166216789Y-77234609D01*
X166344188Y-77107210D01*
X166608951Y-76710965D01*
X166791322Y-76270682D01*
X166884294Y-75803280D01*
X166884294Y-75597946D01*
X170958687Y-75597946D01*
X171011158Y-76064811D01*
X171153703Y-76512468D01*
X171344234Y-76868927D01*
X171685391Y-77055003D01*
X173175395Y-75565000D01*
X173534605Y-75565000D01*
X175024609Y-77055003D01*
X175365766Y-76868927D01*
X175581513Y-76451591D01*
X175711696Y-76000185D01*
X175751313Y-75532054D01*
X175698842Y-75065189D01*
X175556297Y-74617532D01*
X175365766Y-74261073D01*
X175024609Y-74074997D01*
X173534605Y-75565000D01*
X173175395Y-75565000D01*
X171685391Y-74074997D01*
X171344234Y-74261073D01*
X171128487Y-74678409D01*
X170998304Y-75129815D01*
X170958687Y-75597946D01*
X166884294Y-75597946D01*
X166884294Y-75326720D01*
X166791322Y-74859318D01*
X166608951Y-74419035D01*
X166344188Y-74022790D01*
X166216789Y-73895391D01*
X171864997Y-73895391D01*
X173355000Y-75385395D01*
X174845003Y-73895391D01*
X174658927Y-73554234D01*
X174241591Y-73338487D01*
X173790185Y-73208304D01*
X173322054Y-73168687D01*
X172855189Y-73221158D01*
X172407532Y-73363703D01*
X172051073Y-73554234D01*
X171864997Y-73895391D01*
X166216789Y-73895391D01*
X166007210Y-73685812D01*
X165610965Y-73421049D01*
X165170682Y-73238678D01*
X164703280Y-73145706D01*
X164226720Y-73145706D01*
X163759318Y-73238678D01*
X163319035Y-73421049D01*
X162922790Y-73685812D01*
X162585812Y-74022790D01*
X162321049Y-74419035D01*
X162138678Y-74859318D01*
X162045706Y-75326720D01*
X139725000Y-75326720D01*
X139725000Y-72422275D01*
X139725666Y-72415487D01*
X139730301Y-72415000D01*
X173322721Y-72415000D01*
X173966222Y-72478096D01*
X174554164Y-72655606D01*
X175096436Y-72943937D01*
X175572364Y-73332094D01*
X175963845Y-73805314D01*
X176255951Y-74345552D01*
X176437563Y-74932244D01*
X176505000Y-75573879D01*
X176505001Y-108552711D01*
X176441904Y-109196221D01*
X176264394Y-109784164D01*
X175976063Y-110326436D01*
X175587906Y-110802364D01*
X175114686Y-111193845D01*
X174574449Y-111485950D01*
X173987756Y-111667563D01*
X173346130Y-111735000D01*
X139732275Y-111735000D01*
X139725487Y-111734335D01*
X139725000Y-111729699D01*
X139725000Y-108362081D01*
X139723488Y-108346720D01*
X162045706Y-108346720D01*
X162045706Y-108823280D01*
X162138678Y-109290682D01*
X162321049Y-109730965D01*
X162585812Y-110127210D01*
X162922790Y-110464188D01*
X163319035Y-110728951D01*
X163759318Y-110911322D01*
X164226720Y-111004294D01*
X164703280Y-111004294D01*
X165170682Y-110911322D01*
X165610965Y-110728951D01*
X166007210Y-110464188D01*
X166216789Y-110254609D01*
X171864997Y-110254609D01*
X172051073Y-110595766D01*
X172468409Y-110811513D01*
X172919815Y-110941696D01*
X173387946Y-110981313D01*
X173854811Y-110928842D01*
X174302468Y-110786297D01*
X174658927Y-110595766D01*
X174845003Y-110254609D01*
X173355000Y-108764605D01*
X171864997Y-110254609D01*
X166216789Y-110254609D01*
X166344188Y-110127210D01*
X166608951Y-109730965D01*
X166791322Y-109290682D01*
X166884294Y-108823280D01*
X166884294Y-108617946D01*
X170958687Y-108617946D01*
X171011158Y-109084811D01*
X171153703Y-109532468D01*
X171344234Y-109888927D01*
X171685391Y-110075003D01*
X173175395Y-108585000D01*
X173534605Y-108585000D01*
X175024609Y-110075003D01*
X175365766Y-109888927D01*
X175581513Y-109471591D01*
X175711696Y-109020185D01*
X175751313Y-108552054D01*
X175698842Y-108085189D01*
X175556297Y-107637532D01*
X175365766Y-107281073D01*
X175024609Y-107094997D01*
X173534605Y-108585000D01*
X173175395Y-108585000D01*
X171685391Y-107094997D01*
X171344234Y-107281073D01*
X171128487Y-107698409D01*
X170998304Y-108149815D01*
X170958687Y-108617946D01*
X166884294Y-108617946D01*
X166884294Y-108346720D01*
X166791322Y-107879318D01*
X166608951Y-107439035D01*
X166344188Y-107042790D01*
X166216789Y-106915391D01*
X171864997Y-106915391D01*
X173355000Y-108405395D01*
X174845003Y-106915391D01*
X174658927Y-106574234D01*
X174241591Y-106358487D01*
X173790185Y-106228304D01*
X173322054Y-106188687D01*
X172855189Y-106241158D01*
X172407532Y-106383703D01*
X172051073Y-106574234D01*
X171864997Y-106915391D01*
X166216789Y-106915391D01*
X166007210Y-106705812D01*
X165610965Y-106441049D01*
X165170682Y-106258678D01*
X164703280Y-106165706D01*
X164226720Y-106165706D01*
X163759318Y-106258678D01*
X163319035Y-106441049D01*
X162922790Y-106705812D01*
X162585812Y-107042790D01*
X162321049Y-107439035D01*
X162138678Y-107879318D01*
X162045706Y-108346720D01*
X139723488Y-108346720D01*
X139722277Y-108334429D01*
X139722281Y-108333791D01*
X139721381Y-108324620D01*
X139720261Y-108313960D01*
X139715450Y-108265117D01*
X139704244Y-108228178D01*
X139695555Y-108182623D01*
X139692892Y-108173802D01*
X139685563Y-108150125D01*
X139662384Y-108094984D01*
X139639970Y-108039507D01*
X139635643Y-108031371D01*
X139623854Y-108009568D01*
X139590413Y-107959990D01*
X139557654Y-107909928D01*
X139551830Y-107902787D01*
X139536031Y-107883689D01*
X139493602Y-107841555D01*
X139451735Y-107798800D01*
X139444634Y-107792926D01*
X139425426Y-107777260D01*
X139375609Y-107744161D01*
X139326229Y-107710351D01*
X139318123Y-107705968D01*
X139296238Y-107694333D01*
X139240960Y-107671550D01*
X139185963Y-107647978D01*
X139177159Y-107645253D01*
X139153431Y-107638089D01*
X139105360Y-107628570D01*
X139067383Y-107617050D01*
X139028683Y-107613238D01*
X139027080Y-107613070D01*
X139027075Y-107613069D01*
X139027070Y-107613069D01*
X139002412Y-107610651D01*
X138970419Y-107607500D01*
X138455000Y-107607500D01*
X138455000Y-104361581D01*
X138452277Y-104333929D01*
X138452281Y-104333291D01*
X138451381Y-104324120D01*
X138450261Y-104313460D01*
X138445450Y-104264617D01*
X138434244Y-104227678D01*
X138425555Y-104182123D01*
X138422892Y-104173302D01*
X138415563Y-104149625D01*
X138392384Y-104094484D01*
X138369970Y-104039007D01*
X138365643Y-104030871D01*
X138353854Y-104009068D01*
X138320413Y-103959490D01*
X138287654Y-103909428D01*
X138281830Y-103902287D01*
X138266031Y-103883189D01*
X138223602Y-103841055D01*
X138181735Y-103798300D01*
X138174634Y-103792426D01*
X138155426Y-103776760D01*
X138105609Y-103743661D01*
X138056229Y-103709851D01*
X138048123Y-103705468D01*
X138026238Y-103693833D01*
X137970960Y-103671050D01*
X137915963Y-103647478D01*
X137907159Y-103644753D01*
X137883431Y-103637589D01*
X137835360Y-103628070D01*
X137797383Y-103616550D01*
X137758683Y-103612738D01*
X137757080Y-103612570D01*
X137757075Y-103612569D01*
X137757070Y-103612569D01*
X137732412Y-103610151D01*
X137700419Y-103607000D01*
X134206581Y-103607000D01*
X134178929Y-103609723D01*
X134178291Y-103609719D01*
X134169120Y-103610619D01*
X134158460Y-103611739D01*
X134109617Y-103616550D01*
X134072678Y-103627756D01*
X134027123Y-103636445D01*
X134018302Y-103639108D01*
X133994625Y-103646437D01*
X133939484Y-103669616D01*
X133884007Y-103692030D01*
X133875871Y-103696357D01*
X133854068Y-103708146D01*
X133804490Y-103741587D01*
X133754428Y-103774346D01*
X133747287Y-103780170D01*
X133728189Y-103795969D01*
X133686055Y-103838398D01*
X133643300Y-103880265D01*
X133637426Y-103887366D01*
X133621760Y-103906574D01*
X133588661Y-103956391D01*
X133554851Y-104005771D01*
X133550468Y-104013877D01*
X133538833Y-104035762D01*
X133516050Y-104091040D01*
X133492478Y-104146037D01*
X133489753Y-104154841D01*
X133482589Y-104178569D01*
X133473068Y-104226650D01*
X133461551Y-104264617D01*
X133457754Y-104303165D01*
X133457570Y-104304920D01*
X133457569Y-104304925D01*
X133457569Y-104304930D01*
X133455151Y-104329588D01*
X133455151Y-104329598D01*
X133452001Y-104361581D01*
X133452000Y-107607500D01*
X133064775Y-107607500D01*
X133057987Y-107606835D01*
X133057500Y-107602199D01*
X133057500Y-100488081D01*
X133054742Y-100460081D01*
X133054769Y-100456245D01*
X133053869Y-100447074D01*
X133040914Y-100323823D01*
X133028887Y-100265233D01*
X133017678Y-100206471D01*
X133015014Y-100197649D01*
X132978367Y-100079262D01*
X132955192Y-100024132D01*
X132932778Y-99968653D01*
X132928451Y-99960517D01*
X132869507Y-99851502D01*
X132836065Y-99801922D01*
X132803303Y-99751855D01*
X132797478Y-99744714D01*
X132718482Y-99649224D01*
X132676066Y-99607103D01*
X132634184Y-99564334D01*
X132627084Y-99558461D01*
X132531045Y-99480133D01*
X132481203Y-99447018D01*
X132431862Y-99413233D01*
X132423756Y-99408850D01*
X132314332Y-99350668D01*
X132259054Y-99327884D01*
X132204045Y-99304307D01*
X132195241Y-99301582D01*
X132076601Y-99265762D01*
X132017872Y-99254133D01*
X131959405Y-99241706D01*
X131950247Y-99240744D01*
X131950244Y-99240743D01*
X131950241Y-99240743D01*
X131826902Y-99228650D01*
X131794919Y-99225500D01*
X114966081Y-99225500D01*
X114938081Y-99228258D01*
X114934245Y-99228231D01*
X114925074Y-99229131D01*
X114801823Y-99242086D01*
X114743233Y-99254113D01*
X114684471Y-99265322D01*
X114675649Y-99267986D01*
X114557262Y-99304633D01*
X114502132Y-99327808D01*
X114446653Y-99350222D01*
X114438517Y-99354549D01*
X114329502Y-99413493D01*
X114279922Y-99446935D01*
X114229855Y-99479697D01*
X114222714Y-99485522D01*
X114127224Y-99564518D01*
X114085103Y-99606934D01*
X114042334Y-99648816D01*
X114036461Y-99655916D01*
X113958133Y-99751955D01*
X113925018Y-99801797D01*
X113891233Y-99851138D01*
X113886850Y-99859244D01*
X113828668Y-99968668D01*
X113805884Y-100023946D01*
X113782307Y-100078955D01*
X113779582Y-100087759D01*
X113743762Y-100206399D01*
X113732141Y-100265092D01*
X113719706Y-100323595D01*
X113718744Y-100332753D01*
X113718744Y-100332754D01*
X113718743Y-100332759D01*
X113706650Y-100456098D01*
X113703500Y-100488082D01*
X113703501Y-107600215D01*
X113702835Y-107607013D01*
X113698199Y-107607500D01*
X113309000Y-107607500D01*
X113309000Y-104361581D01*
X113306277Y-104333929D01*
X113306281Y-104333291D01*
X113305381Y-104324120D01*
X113304261Y-104313460D01*
X113299450Y-104264617D01*
X113288244Y-104227678D01*
X113279555Y-104182123D01*
X113276892Y-104173302D01*
X113269563Y-104149625D01*
X113246384Y-104094484D01*
X113223970Y-104039007D01*
X113219643Y-104030871D01*
X113207854Y-104009068D01*
X113174413Y-103959490D01*
X113141654Y-103909428D01*
X113135830Y-103902287D01*
X113120031Y-103883189D01*
X113077602Y-103841055D01*
X113035735Y-103798300D01*
X113028634Y-103792426D01*
X113009426Y-103776760D01*
X112959609Y-103743661D01*
X112910229Y-103709851D01*
X112902123Y-103705468D01*
X112880238Y-103693833D01*
X112824960Y-103671050D01*
X112769963Y-103647478D01*
X112761159Y-103644753D01*
X112737431Y-103637589D01*
X112689360Y-103628070D01*
X112651383Y-103616550D01*
X112612683Y-103612738D01*
X112611080Y-103612570D01*
X112611075Y-103612569D01*
X112611070Y-103612569D01*
X112586412Y-103610151D01*
X112554419Y-103607000D01*
X109060581Y-103607000D01*
X109032929Y-103609723D01*
X109032291Y-103609719D01*
X109023120Y-103610619D01*
X109012460Y-103611739D01*
X108963617Y-103616550D01*
X108926678Y-103627756D01*
X108881123Y-103636445D01*
X108872302Y-103639108D01*
X108848625Y-103646437D01*
X108793484Y-103669616D01*
X108738007Y-103692030D01*
X108729871Y-103696357D01*
X108708068Y-103708146D01*
X108658490Y-103741587D01*
X108608428Y-103774346D01*
X108601287Y-103780170D01*
X108582189Y-103795969D01*
X108540055Y-103838398D01*
X108497300Y-103880265D01*
X108491426Y-103887366D01*
X108475760Y-103906574D01*
X108442661Y-103956391D01*
X108408851Y-104005771D01*
X108404468Y-104013877D01*
X108392833Y-104035762D01*
X108370050Y-104091040D01*
X108346478Y-104146037D01*
X108343753Y-104154841D01*
X108336589Y-104178569D01*
X108327068Y-104226650D01*
X108315551Y-104264617D01*
X108311754Y-104303165D01*
X108311570Y-104304920D01*
X108311569Y-104304925D01*
X108311569Y-104304930D01*
X108309151Y-104329588D01*
X108309151Y-104329598D01*
X108306001Y-104361581D01*
X108306000Y-107607500D01*
X107790581Y-107607500D01*
X107762929Y-107610223D01*
X107762291Y-107610219D01*
X107753120Y-107611119D01*
X107742460Y-107612239D01*
X107693617Y-107617050D01*
X107656678Y-107628256D01*
X107611123Y-107636945D01*
X107602302Y-107639608D01*
X107578625Y-107646937D01*
X107523484Y-107670116D01*
X107468007Y-107692530D01*
X107459871Y-107696857D01*
X107438068Y-107708646D01*
X107388490Y-107742087D01*
X107338428Y-107774846D01*
X107331287Y-107780670D01*
X107312189Y-107796469D01*
X107270055Y-107838898D01*
X107227300Y-107880765D01*
X107221426Y-107887866D01*
X107205760Y-107907074D01*
X107172661Y-107956891D01*
X107138851Y-108006271D01*
X107134468Y-108014377D01*
X107122833Y-108036262D01*
X107100050Y-108091540D01*
X107076478Y-108146537D01*
X107073753Y-108155341D01*
X107066589Y-108179069D01*
X107057070Y-108227143D01*
X107045550Y-108265118D01*
X107041740Y-108303802D01*
X107041570Y-108305420D01*
X107041569Y-108305425D01*
X107041569Y-108305430D01*
X107039228Y-108329305D01*
X107036000Y-108362082D01*
X107036001Y-111727715D01*
X107035335Y-111734513D01*
X107030699Y-111735000D01*
X99727279Y-111735000D01*
X99083779Y-111671904D01*
X98495836Y-111494394D01*
X97953564Y-111206063D01*
X97477636Y-110817906D01*
X97086155Y-110344686D01*
X97037451Y-110254609D01*
X98204997Y-110254609D01*
X98391073Y-110595766D01*
X98808409Y-110811513D01*
X99259815Y-110941696D01*
X99727946Y-110981313D01*
X100194811Y-110928842D01*
X100642468Y-110786297D01*
X100998927Y-110595766D01*
X101185003Y-110254609D01*
X99695000Y-108764605D01*
X98204997Y-110254609D01*
X97037451Y-110254609D01*
X96794050Y-109804449D01*
X96612437Y-109217756D01*
X96549395Y-108617946D01*
X97298687Y-108617946D01*
X97351158Y-109084811D01*
X97493703Y-109532468D01*
X97684234Y-109888927D01*
X98025391Y-110075003D01*
X99515395Y-108585000D01*
X99874605Y-108585000D01*
X101364609Y-110075003D01*
X101705766Y-109888927D01*
X101921513Y-109471591D01*
X102051696Y-109020185D01*
X102091313Y-108552054D01*
X102038842Y-108085189D01*
X101896297Y-107637532D01*
X101705766Y-107281073D01*
X101364609Y-107094997D01*
X99874605Y-108585000D01*
X99515395Y-108585000D01*
X98025391Y-107094997D01*
X97684234Y-107281073D01*
X97468487Y-107698409D01*
X97338304Y-108149815D01*
X97298687Y-108617946D01*
X96549395Y-108617946D01*
X96545000Y-108576130D01*
X96545000Y-106915391D01*
X98204997Y-106915391D01*
X99695000Y-108405395D01*
X101185003Y-106915391D01*
X100998927Y-106574234D01*
X100581591Y-106358487D01*
X100130185Y-106228304D01*
X99662054Y-106188687D01*
X99195189Y-106241158D01*
X98747532Y-106383703D01*
X98391073Y-106574234D01*
X98204997Y-106915391D01*
X96545000Y-106915391D01*
X96545000Y-77234609D01*
X98204997Y-77234609D01*
X98391073Y-77575766D01*
X98808409Y-77791513D01*
X99259815Y-77921696D01*
X99727946Y-77961313D01*
X100194811Y-77908842D01*
X100642468Y-77766297D01*
X100998927Y-77575766D01*
X101185003Y-77234609D01*
X99695000Y-75744605D01*
X98204997Y-77234609D01*
X96545000Y-77234609D01*
X96545000Y-75597946D01*
X97298687Y-75597946D01*
X97351158Y-76064811D01*
X97493703Y-76512468D01*
X97684234Y-76868927D01*
X98025391Y-77055003D01*
X99515395Y-75565000D01*
X99874605Y-75565000D01*
X101364609Y-77055003D01*
X101705766Y-76868927D01*
X101921513Y-76451591D01*
X102051696Y-76000185D01*
X102091313Y-75532054D01*
X102038842Y-75065189D01*
X101896297Y-74617532D01*
X101705766Y-74261073D01*
X101364609Y-74074997D01*
X99874605Y-75565000D01*
X99515395Y-75565000D01*
X98025391Y-74074997D01*
X97684234Y-74261073D01*
X97468487Y-74678409D01*
X97338304Y-75129815D01*
X97298687Y-75597946D01*
X96545000Y-75597946D01*
X96545000Y-75597279D01*
X96608096Y-74953778D01*
X96785606Y-74365836D01*
X97035745Y-73895391D01*
X98204997Y-73895391D01*
X99695000Y-75385395D01*
X101185003Y-73895391D01*
X100998927Y-73554234D01*
X100581591Y-73338487D01*
X100130185Y-73208304D01*
X99662054Y-73168687D01*
X99195189Y-73221158D01*
X98747532Y-73363703D01*
X98391073Y-73554234D01*
X98204997Y-73895391D01*
X97035745Y-73895391D01*
X97073937Y-73823564D01*
X97462094Y-73347636D01*
X97935314Y-72956155D01*
X98475552Y-72664049D01*
X99062244Y-72482437D01*
X99703879Y-72415000D01*
X107028725Y-72415000D01*
X107035513Y-72415666D01*
G37*
%TD.AperFunction*%
%TD*%
M02*
