%TF.GenerationSoftware,KiCad,Pcbnew,(5.1.8)-1*%
%TF.CreationDate,2021-02-24T02:49:34+01:00*%
%TF.ProjectId,C64 Joystick Faceplate A1,43363420-4a6f-4797-9374-69636b204661,rev?*%
%TF.SameCoordinates,Original*%
%TF.FileFunction,Legend,Bot*%
%TF.FilePolarity,Positive*%
%FSLAX46Y46*%
G04 Gerber Fmt 4.6, Leading zero omitted, Abs format (unit mm)*
G04 Created by KiCad (PCBNEW (5.1.8)-1) date 2021-02-24 02:49:34*
%MOMM*%
%LPD*%
G01*
G04 APERTURE LIST*
%ADD10C,0.150000*%
%ADD11C,0.100000*%
%ADD12C,0.010000*%
G04 APERTURE END LIST*
D10*
X101020000Y-94694047D02*
X101067619Y-94789285D01*
X101067619Y-94932142D01*
X101020000Y-95075000D01*
X100924761Y-95170238D01*
X100829523Y-95217857D01*
X100639047Y-95265476D01*
X100496190Y-95265476D01*
X100305714Y-95217857D01*
X100210476Y-95170238D01*
X100115238Y-95075000D01*
X100067619Y-94932142D01*
X100067619Y-94836904D01*
X100115238Y-94694047D01*
X100162857Y-94646428D01*
X100496190Y-94646428D01*
X100496190Y-94836904D01*
X100353333Y-94265476D02*
X100353333Y-93789285D01*
X100067619Y-94360714D02*
X101067619Y-94027380D01*
X100067619Y-93694047D01*
X100067619Y-93360714D02*
X101067619Y-93360714D01*
X100353333Y-93027380D01*
X101067619Y-92694047D01*
X100067619Y-92694047D01*
X100591428Y-92217857D02*
X100591428Y-91884523D01*
X100067619Y-91741666D02*
X100067619Y-92217857D01*
X101067619Y-92217857D01*
X101067619Y-91741666D01*
X100067619Y-91313095D02*
X101067619Y-91313095D01*
X101067619Y-90932142D01*
X101020000Y-90836904D01*
X100972380Y-90789285D01*
X100877142Y-90741666D01*
X100734285Y-90741666D01*
X100639047Y-90789285D01*
X100591428Y-90836904D01*
X100543809Y-90932142D01*
X100543809Y-91313095D01*
X100353333Y-90360714D02*
X100353333Y-89884523D01*
X100067619Y-90455952D02*
X101067619Y-90122619D01*
X100067619Y-89789285D01*
X100067619Y-89455952D02*
X101067619Y-89455952D01*
X101067619Y-89217857D01*
X101020000Y-89074999D01*
X100924761Y-88979761D01*
X100829523Y-88932142D01*
X100639047Y-88884523D01*
X100496190Y-88884523D01*
X100305714Y-88932142D01*
X100210476Y-88979761D01*
X100115238Y-89074999D01*
X100067619Y-89217857D01*
X100067619Y-89455952D01*
X98703333Y-95075000D02*
X98703333Y-94598809D01*
X98417619Y-95170238D02*
X99417619Y-94836904D01*
X98417619Y-94503571D01*
X98417619Y-94170238D02*
X99417619Y-94170238D01*
X99417619Y-93932142D01*
X99370000Y-93789285D01*
X99274761Y-93694047D01*
X99179523Y-93646428D01*
X98989047Y-93598809D01*
X98846190Y-93598809D01*
X98655714Y-93646428D01*
X98560476Y-93694047D01*
X98465238Y-93789285D01*
X98417619Y-93932142D01*
X98417619Y-94170238D01*
X98703333Y-93217857D02*
X98703333Y-92741666D01*
X98417619Y-93313095D02*
X99417619Y-92979761D01*
X98417619Y-92646428D01*
X98417619Y-92313095D02*
X99417619Y-92313095D01*
X99417619Y-91932142D01*
X99370000Y-91836904D01*
X99322380Y-91789285D01*
X99227142Y-91741666D01*
X99084285Y-91741666D01*
X98989047Y-91789285D01*
X98941428Y-91836904D01*
X98893809Y-91932142D01*
X98893809Y-92313095D01*
X99417619Y-91455952D02*
X99417619Y-90884523D01*
X98417619Y-91170238D02*
X99417619Y-91170238D01*
X98941428Y-90551190D02*
X98941428Y-90217857D01*
X98417619Y-90075000D02*
X98417619Y-90551190D01*
X99417619Y-90551190D01*
X99417619Y-90075000D01*
X98417619Y-89075000D02*
X98893809Y-89408333D01*
X98417619Y-89646428D02*
X99417619Y-89646428D01*
X99417619Y-89265476D01*
X99370000Y-89170238D01*
X99322380Y-89122619D01*
X99227142Y-89075000D01*
X99084285Y-89075000D01*
X98989047Y-89122619D01*
X98941428Y-89170238D01*
X98893809Y-89265476D01*
X98893809Y-89646428D01*
D11*
X166643095Y-76695166D02*
X167443095Y-76695166D01*
X167443095Y-76390404D01*
X167405000Y-76314214D01*
X167366904Y-76276119D01*
X167290714Y-76238023D01*
X167176428Y-76238023D01*
X167100238Y-76276119D01*
X167062142Y-76314214D01*
X167024047Y-76390404D01*
X167024047Y-76695166D01*
X167443095Y-75971357D02*
X166643095Y-75780880D01*
X167214523Y-75628500D01*
X166643095Y-75476119D01*
X167443095Y-75285642D01*
X166643095Y-74523738D02*
X167024047Y-74790404D01*
X166643095Y-74980880D02*
X167443095Y-74980880D01*
X167443095Y-74676119D01*
X167405000Y-74599928D01*
X167366904Y-74561833D01*
X167290714Y-74523738D01*
X167176428Y-74523738D01*
X167100238Y-74561833D01*
X167062142Y-74599928D01*
X167024047Y-74676119D01*
X167024047Y-74980880D01*
X166643095Y-110096119D02*
X167443095Y-110096119D01*
X166871666Y-109829452D01*
X167443095Y-109562785D01*
X166643095Y-109562785D01*
X167443095Y-109029452D02*
X167443095Y-108877071D01*
X167405000Y-108800880D01*
X167328809Y-108724690D01*
X167176428Y-108686595D01*
X166909761Y-108686595D01*
X166757380Y-108724690D01*
X166681190Y-108800880D01*
X166643095Y-108877071D01*
X166643095Y-109029452D01*
X166681190Y-109105642D01*
X166757380Y-109181833D01*
X166909761Y-109219928D01*
X167176428Y-109219928D01*
X167328809Y-109181833D01*
X167405000Y-109105642D01*
X167443095Y-109029452D01*
X166643095Y-108343738D02*
X167443095Y-108343738D01*
X167443095Y-108153261D01*
X167405000Y-108038976D01*
X167328809Y-107962785D01*
X167252619Y-107924690D01*
X167100238Y-107886595D01*
X166985952Y-107886595D01*
X166833571Y-107924690D01*
X166757380Y-107962785D01*
X166681190Y-108038976D01*
X166643095Y-108153261D01*
X166643095Y-108343738D01*
X167062142Y-107543738D02*
X167062142Y-107277071D01*
X166643095Y-107162785D02*
X166643095Y-107543738D01*
X167443095Y-107543738D01*
X167443095Y-107162785D01*
X113176095Y-80568547D02*
X113976095Y-80568547D01*
X113976095Y-80263785D01*
X113938000Y-80187595D01*
X113899904Y-80149500D01*
X113823714Y-80111404D01*
X113709428Y-80111404D01*
X113633238Y-80149500D01*
X113595142Y-80187595D01*
X113557047Y-80263785D01*
X113557047Y-80568547D01*
X113976095Y-79616166D02*
X113976095Y-79463785D01*
X113938000Y-79387595D01*
X113861809Y-79311404D01*
X113709428Y-79273309D01*
X113442761Y-79273309D01*
X113290380Y-79311404D01*
X113214190Y-79387595D01*
X113176095Y-79463785D01*
X113176095Y-79616166D01*
X113214190Y-79692357D01*
X113290380Y-79768547D01*
X113442761Y-79806642D01*
X113709428Y-79806642D01*
X113861809Y-79768547D01*
X113938000Y-79692357D01*
X113976095Y-79616166D01*
X113176095Y-78473309D02*
X113557047Y-78739976D01*
X113176095Y-78930452D02*
X113976095Y-78930452D01*
X113976095Y-78625690D01*
X113938000Y-78549500D01*
X113899904Y-78511404D01*
X113823714Y-78473309D01*
X113709428Y-78473309D01*
X113633238Y-78511404D01*
X113595142Y-78549500D01*
X113557047Y-78625690D01*
X113557047Y-78930452D01*
X113976095Y-78244738D02*
X113976095Y-77787595D01*
X113176095Y-78016166D02*
X113976095Y-78016166D01*
X113899904Y-76949500D02*
X113938000Y-76911404D01*
X113976095Y-76835214D01*
X113976095Y-76644738D01*
X113938000Y-76568547D01*
X113899904Y-76530452D01*
X113823714Y-76492357D01*
X113747523Y-76492357D01*
X113633238Y-76530452D01*
X113176095Y-76987595D01*
X113176095Y-76492357D01*
X113176095Y-107619547D02*
X113976095Y-107619547D01*
X113976095Y-107314785D01*
X113938000Y-107238595D01*
X113899904Y-107200500D01*
X113823714Y-107162404D01*
X113709428Y-107162404D01*
X113633238Y-107200500D01*
X113595142Y-107238595D01*
X113557047Y-107314785D01*
X113557047Y-107619547D01*
X113976095Y-106667166D02*
X113976095Y-106514785D01*
X113938000Y-106438595D01*
X113861809Y-106362404D01*
X113709428Y-106324309D01*
X113442761Y-106324309D01*
X113290380Y-106362404D01*
X113214190Y-106438595D01*
X113176095Y-106514785D01*
X113176095Y-106667166D01*
X113214190Y-106743357D01*
X113290380Y-106819547D01*
X113442761Y-106857642D01*
X113709428Y-106857642D01*
X113861809Y-106819547D01*
X113938000Y-106743357D01*
X113976095Y-106667166D01*
X113176095Y-105524309D02*
X113557047Y-105790976D01*
X113176095Y-105981452D02*
X113976095Y-105981452D01*
X113976095Y-105676690D01*
X113938000Y-105600500D01*
X113899904Y-105562404D01*
X113823714Y-105524309D01*
X113709428Y-105524309D01*
X113633238Y-105562404D01*
X113595142Y-105600500D01*
X113557047Y-105676690D01*
X113557047Y-105981452D01*
X113976095Y-105295738D02*
X113976095Y-104838595D01*
X113176095Y-105067166D02*
X113976095Y-105067166D01*
X113176095Y-103543357D02*
X113176095Y-104000500D01*
X113176095Y-103771928D02*
X113976095Y-103771928D01*
X113861809Y-103848119D01*
X113785619Y-103924309D01*
X113747523Y-104000500D01*
D12*
%TO.C,G\u002A\u002A\u002A*%
G36*
X154352257Y-97308091D02*
G01*
X154282235Y-97309330D01*
X154134425Y-97341196D01*
X154058435Y-97362126D01*
X153789202Y-97440750D01*
X154010750Y-97655123D01*
X154232299Y-97869495D01*
X154304573Y-97601088D01*
X154343365Y-97433063D01*
X154356214Y-97324993D01*
X154352257Y-97308091D01*
G37*
X154352257Y-97308091D02*
X154282235Y-97309330D01*
X154134425Y-97341196D01*
X154058435Y-97362126D01*
X153789202Y-97440750D01*
X154010750Y-97655123D01*
X154232299Y-97869495D01*
X154304573Y-97601088D01*
X154343365Y-97433063D01*
X154356214Y-97324993D01*
X154352257Y-97308091D01*
G36*
X154316621Y-100464680D02*
G01*
X154294865Y-100394845D01*
X154208001Y-100134252D01*
X154000397Y-100348445D01*
X153792793Y-100562637D01*
X154055079Y-100641220D01*
X154222308Y-100682525D01*
X154332043Y-100693286D01*
X154349547Y-100687620D01*
X154351002Y-100613372D01*
X154316621Y-100464680D01*
G37*
X154316621Y-100464680D02*
X154294865Y-100394845D01*
X154208001Y-100134252D01*
X154000397Y-100348445D01*
X153792793Y-100562637D01*
X154055079Y-100641220D01*
X154222308Y-100682525D01*
X154332043Y-100693286D01*
X154349547Y-100687620D01*
X154351002Y-100613372D01*
X154316621Y-100464680D01*
G36*
X151290459Y-97365399D02*
G01*
X151122870Y-97334255D01*
X151021802Y-97329436D01*
X151007881Y-97338435D01*
X151028102Y-97418802D01*
X151072358Y-97570652D01*
X151087256Y-97619570D01*
X151161750Y-97861889D01*
X151369834Y-97646534D01*
X151577917Y-97431179D01*
X151290459Y-97365399D01*
G37*
X151290459Y-97365399D02*
X151122870Y-97334255D01*
X151021802Y-97329436D01*
X151007881Y-97338435D01*
X151028102Y-97418802D01*
X151072358Y-97570652D01*
X151087256Y-97619570D01*
X151161750Y-97861889D01*
X151369834Y-97646534D01*
X151577917Y-97431179D01*
X151290459Y-97365399D01*
G36*
X151485233Y-100470702D02*
G01*
X151413953Y-100391624D01*
X151271440Y-100254506D01*
X151185554Y-100215172D01*
X151133154Y-100272583D01*
X151102119Y-100377625D01*
X151059022Y-100548931D01*
X151028102Y-100661339D01*
X151020784Y-100729684D01*
X151077362Y-100739193D01*
X151205743Y-100703371D01*
X151375570Y-100649293D01*
X151500688Y-100609700D01*
X151505208Y-100608282D01*
X151540318Y-100564540D01*
X151485233Y-100470702D01*
G37*
X151485233Y-100470702D02*
X151413953Y-100391624D01*
X151271440Y-100254506D01*
X151185554Y-100215172D01*
X151133154Y-100272583D01*
X151102119Y-100377625D01*
X151059022Y-100548931D01*
X151028102Y-100661339D01*
X151020784Y-100729684D01*
X151077362Y-100739193D01*
X151205743Y-100703371D01*
X151375570Y-100649293D01*
X151500688Y-100609700D01*
X151505208Y-100608282D01*
X151540318Y-100564540D01*
X151485233Y-100470702D01*
G36*
X156993418Y-96941120D02*
G01*
X156945993Y-96712613D01*
X156749155Y-96189785D01*
X156449699Y-95730745D01*
X156059000Y-95343297D01*
X155588435Y-95035245D01*
X155049380Y-94814393D01*
X154453211Y-94688543D01*
X153955750Y-94661354D01*
X153239039Y-94729974D01*
X152529953Y-94913712D01*
X151847361Y-95201815D01*
X151210133Y-95583529D01*
X150637137Y-96048101D01*
X150147243Y-96584778D01*
X149867799Y-96991062D01*
X149647623Y-97390842D01*
X149492427Y-97766722D01*
X149391588Y-98157707D01*
X149334484Y-98602802D01*
X149313039Y-99028250D01*
X149310966Y-99561485D01*
X149337250Y-99981351D01*
X149380849Y-100250552D01*
X149564607Y-100790071D01*
X149850656Y-101259003D01*
X150231313Y-101650279D01*
X150698894Y-101956827D01*
X151245714Y-102171575D01*
X151545099Y-102242063D01*
X151873031Y-102277764D01*
X152278092Y-102283274D01*
X152714657Y-102260972D01*
X152724988Y-102259805D01*
X152724988Y-101658680D01*
X152468783Y-101653297D01*
X152235579Y-101636928D01*
X152056461Y-101610464D01*
X151962516Y-101574798D01*
X151955500Y-101560844D01*
X152014862Y-101551710D01*
X152176414Y-101544916D01*
X152415360Y-101541125D01*
X152683545Y-101540975D01*
X152683545Y-99666394D01*
X152442942Y-99600805D01*
X152233644Y-99439701D01*
X152109768Y-99216364D01*
X152078439Y-98965380D01*
X152146783Y-98721339D01*
X152235838Y-98595591D01*
X152461267Y-98429547D01*
X152706098Y-98371187D01*
X152943972Y-98410284D01*
X153148532Y-98536610D01*
X153293421Y-98739939D01*
X153352280Y-99010044D01*
X153352500Y-99028864D01*
X153297833Y-99299456D01*
X153150973Y-99506688D01*
X152937639Y-99634391D01*
X152683545Y-99666394D01*
X152683545Y-101540975D01*
X152701625Y-101540964D01*
X153024199Y-101546971D01*
X153236228Y-101560124D01*
X153331875Y-101579867D01*
X153320750Y-101600000D01*
X153182058Y-101632924D01*
X152973108Y-101652186D01*
X152724988Y-101658680D01*
X152724988Y-102259805D01*
X153137104Y-102213240D01*
X153499809Y-102142458D01*
X153511250Y-102139490D01*
X153576861Y-102115794D01*
X153576861Y-101536500D01*
X153564252Y-101476937D01*
X153553773Y-101313983D01*
X153546395Y-101071241D01*
X153543089Y-100772315D01*
X153543000Y-100712844D01*
X153543000Y-99889187D01*
X154384375Y-99871469D01*
X155225750Y-99853750D01*
X155225750Y-98139250D01*
X153543000Y-98103814D01*
X153543000Y-96456500D01*
X151828500Y-96456500D01*
X151828500Y-98107500D01*
X150177500Y-98107500D01*
X150177500Y-99885500D01*
X151828500Y-99885500D01*
X151828500Y-101533357D01*
X151653875Y-101467514D01*
X151196604Y-101230744D01*
X150784349Y-100893033D01*
X150436156Y-100477759D01*
X150171071Y-100008298D01*
X150008139Y-99508026D01*
X149993261Y-99429276D01*
X149960716Y-99037515D01*
X149980322Y-98613682D01*
X150048151Y-98227553D01*
X150064098Y-98171000D01*
X150284387Y-97643656D01*
X150595950Y-97188731D01*
X150983293Y-96812483D01*
X151430920Y-96521167D01*
X151923335Y-96321041D01*
X152445044Y-96218360D01*
X152980550Y-96219381D01*
X153514358Y-96330361D01*
X154030973Y-96557555D01*
X154043038Y-96564491D01*
X154522566Y-96910900D01*
X154904544Y-97337846D01*
X155187074Y-97842324D01*
X155368257Y-98421327D01*
X155421443Y-98747891D01*
X155418658Y-99245950D01*
X155304000Y-99747722D01*
X155089953Y-100231148D01*
X154789001Y-100674169D01*
X154413629Y-101054726D01*
X153976321Y-101350760D01*
X153936737Y-101371297D01*
X153754775Y-101460752D01*
X153622345Y-101520744D01*
X153576861Y-101536500D01*
X153576861Y-102115794D01*
X154126680Y-101917215D01*
X154730507Y-101582700D01*
X155304688Y-101150540D01*
X155831178Y-100635333D01*
X156291935Y-100051673D01*
X156503811Y-99718726D01*
X156732842Y-99231608D01*
X156901803Y-98673002D01*
X157005209Y-98080193D01*
X157037576Y-97490470D01*
X156993418Y-96941120D01*
G37*
X156993418Y-96941120D02*
X156945993Y-96712613D01*
X156749155Y-96189785D01*
X156449699Y-95730745D01*
X156059000Y-95343297D01*
X155588435Y-95035245D01*
X155049380Y-94814393D01*
X154453211Y-94688543D01*
X153955750Y-94661354D01*
X153239039Y-94729974D01*
X152529953Y-94913712D01*
X151847361Y-95201815D01*
X151210133Y-95583529D01*
X150637137Y-96048101D01*
X150147243Y-96584778D01*
X149867799Y-96991062D01*
X149647623Y-97390842D01*
X149492427Y-97766722D01*
X149391588Y-98157707D01*
X149334484Y-98602802D01*
X149313039Y-99028250D01*
X149310966Y-99561485D01*
X149337250Y-99981351D01*
X149380849Y-100250552D01*
X149564607Y-100790071D01*
X149850656Y-101259003D01*
X150231313Y-101650279D01*
X150698894Y-101956827D01*
X151245714Y-102171575D01*
X151545099Y-102242063D01*
X151873031Y-102277764D01*
X152278092Y-102283274D01*
X152714657Y-102260972D01*
X152724988Y-102259805D01*
X152724988Y-101658680D01*
X152468783Y-101653297D01*
X152235579Y-101636928D01*
X152056461Y-101610464D01*
X151962516Y-101574798D01*
X151955500Y-101560844D01*
X152014862Y-101551710D01*
X152176414Y-101544916D01*
X152415360Y-101541125D01*
X152683545Y-101540975D01*
X152683545Y-99666394D01*
X152442942Y-99600805D01*
X152233644Y-99439701D01*
X152109768Y-99216364D01*
X152078439Y-98965380D01*
X152146783Y-98721339D01*
X152235838Y-98595591D01*
X152461267Y-98429547D01*
X152706098Y-98371187D01*
X152943972Y-98410284D01*
X153148532Y-98536610D01*
X153293421Y-98739939D01*
X153352280Y-99010044D01*
X153352500Y-99028864D01*
X153297833Y-99299456D01*
X153150973Y-99506688D01*
X152937639Y-99634391D01*
X152683545Y-99666394D01*
X152683545Y-101540975D01*
X152701625Y-101540964D01*
X153024199Y-101546971D01*
X153236228Y-101560124D01*
X153331875Y-101579867D01*
X153320750Y-101600000D01*
X153182058Y-101632924D01*
X152973108Y-101652186D01*
X152724988Y-101658680D01*
X152724988Y-102259805D01*
X153137104Y-102213240D01*
X153499809Y-102142458D01*
X153511250Y-102139490D01*
X153576861Y-102115794D01*
X153576861Y-101536500D01*
X153564252Y-101476937D01*
X153553773Y-101313983D01*
X153546395Y-101071241D01*
X153543089Y-100772315D01*
X153543000Y-100712844D01*
X153543000Y-99889187D01*
X154384375Y-99871469D01*
X155225750Y-99853750D01*
X155225750Y-98139250D01*
X153543000Y-98103814D01*
X153543000Y-96456500D01*
X151828500Y-96456500D01*
X151828500Y-98107500D01*
X150177500Y-98107500D01*
X150177500Y-99885500D01*
X151828500Y-99885500D01*
X151828500Y-101533357D01*
X151653875Y-101467514D01*
X151196604Y-101230744D01*
X150784349Y-100893033D01*
X150436156Y-100477759D01*
X150171071Y-100008298D01*
X150008139Y-99508026D01*
X149993261Y-99429276D01*
X149960716Y-99037515D01*
X149980322Y-98613682D01*
X150048151Y-98227553D01*
X150064098Y-98171000D01*
X150284387Y-97643656D01*
X150595950Y-97188731D01*
X150983293Y-96812483D01*
X151430920Y-96521167D01*
X151923335Y-96321041D01*
X152445044Y-96218360D01*
X152980550Y-96219381D01*
X153514358Y-96330361D01*
X154030973Y-96557555D01*
X154043038Y-96564491D01*
X154522566Y-96910900D01*
X154904544Y-97337846D01*
X155187074Y-97842324D01*
X155368257Y-98421327D01*
X155421443Y-98747891D01*
X155418658Y-99245950D01*
X155304000Y-99747722D01*
X155089953Y-100231148D01*
X154789001Y-100674169D01*
X154413629Y-101054726D01*
X153976321Y-101350760D01*
X153936737Y-101371297D01*
X153754775Y-101460752D01*
X153622345Y-101520744D01*
X153576861Y-101536500D01*
X153576861Y-102115794D01*
X154126680Y-101917215D01*
X154730507Y-101582700D01*
X155304688Y-101150540D01*
X155831178Y-100635333D01*
X156291935Y-100051673D01*
X156503811Y-99718726D01*
X156732842Y-99231608D01*
X156901803Y-98673002D01*
X157005209Y-98080193D01*
X157037576Y-97490470D01*
X156993418Y-96941120D01*
G36*
X156932621Y-85840293D02*
G01*
X156835670Y-85276023D01*
X156757353Y-84994750D01*
X156530190Y-84449418D01*
X156205139Y-83902226D01*
X155802776Y-83375596D01*
X155343679Y-82891948D01*
X154848424Y-82473703D01*
X154337586Y-82143283D01*
X153990202Y-81979565D01*
X153778286Y-81897599D01*
X153664138Y-81862862D01*
X153627491Y-81875720D01*
X153648077Y-81936534D01*
X153673606Y-81985237D01*
X153720843Y-82134877D01*
X153747452Y-82336522D01*
X153749179Y-82383531D01*
X153698867Y-82737059D01*
X153550201Y-83033823D01*
X153323724Y-83261701D01*
X153039980Y-83408569D01*
X152719511Y-83462301D01*
X152382860Y-83410774D01*
X152167985Y-83316726D01*
X151909756Y-83105670D01*
X151731195Y-82824964D01*
X151640931Y-82505596D01*
X151647597Y-82178550D01*
X151759821Y-81874814D01*
X151764305Y-81867375D01*
X151890134Y-81661000D01*
X151712092Y-81661000D01*
X151487212Y-81689002D01*
X151193677Y-81764205D01*
X150874548Y-81873409D01*
X150572886Y-82003412D01*
X150537069Y-82021218D01*
X150216067Y-82228387D01*
X149907320Y-82505384D01*
X149653090Y-82811011D01*
X149546276Y-82987100D01*
X149405928Y-83345126D01*
X149297061Y-83788329D01*
X149225125Y-84277581D01*
X149195572Y-84773755D01*
X149213854Y-85237724D01*
X149222322Y-85312250D01*
X149263846Y-85579928D01*
X149317337Y-85847886D01*
X149349207Y-85977040D01*
X149399276Y-86143468D01*
X149435570Y-86202778D01*
X149474684Y-86171168D01*
X149501070Y-86125248D01*
X149676307Y-85916498D01*
X149932816Y-85748151D01*
X150226425Y-85640772D01*
X150512965Y-85614922D01*
X150578514Y-85623645D01*
X150921160Y-85744867D01*
X151187604Y-85950860D01*
X151370371Y-86219594D01*
X151461986Y-86529043D01*
X151454973Y-86857179D01*
X151341857Y-87181974D01*
X151184254Y-87408580D01*
X150921524Y-87619981D01*
X150700712Y-87714301D01*
X150411572Y-87798610D01*
X150818411Y-88128447D01*
X151361455Y-88507807D01*
X151689840Y-88678310D01*
X151689840Y-85587929D01*
X151361834Y-85573181D01*
X151044219Y-85437287D01*
X150897149Y-85326174D01*
X150648303Y-85036798D01*
X150517478Y-84715678D01*
X150507943Y-84375294D01*
X150580792Y-84118594D01*
X150724903Y-83890564D01*
X150940507Y-83680147D01*
X151183941Y-83524298D01*
X151350893Y-83466816D01*
X151700765Y-83450989D01*
X152010698Y-83549026D01*
X152300439Y-83767353D01*
X152313106Y-83779895D01*
X152542608Y-84083500D01*
X152648343Y-84403482D01*
X152630309Y-84727747D01*
X152488506Y-85044204D01*
X152313106Y-85257106D01*
X152012257Y-85482311D01*
X151689840Y-85587929D01*
X151689840Y-88678310D01*
X151959616Y-88818384D01*
X152589867Y-89054012D01*
X152965572Y-89144814D01*
X152965572Y-88137580D01*
X152711472Y-88102690D01*
X152477438Y-87985319D01*
X152290323Y-87787896D01*
X152199955Y-87598250D01*
X152161595Y-87460543D01*
X152163783Y-87354611D01*
X152211518Y-87215630D01*
X152233556Y-87162373D01*
X152394707Y-86913180D01*
X152614790Y-86753566D01*
X152866697Y-86684853D01*
X153123323Y-86708361D01*
X153357559Y-86825411D01*
X153542298Y-87037326D01*
X153573724Y-87097057D01*
X153646520Y-87288225D01*
X153646520Y-86531850D01*
X153476290Y-86485671D01*
X153237804Y-86324585D01*
X153085953Y-86091170D01*
X153030105Y-85813887D01*
X153079631Y-85521197D01*
X153124833Y-85417977D01*
X153293987Y-85211628D01*
X153520985Y-85096254D01*
X153776568Y-85070406D01*
X154031478Y-85132632D01*
X154256457Y-85281485D01*
X154405643Y-85481428D01*
X154479509Y-85743726D01*
X154446946Y-85999525D01*
X154327659Y-86227531D01*
X154141356Y-86406450D01*
X153907741Y-86514988D01*
X153646520Y-86531850D01*
X153646520Y-87288225D01*
X153651952Y-87302490D01*
X153658345Y-87478946D01*
X153593511Y-87689578D01*
X153579753Y-87723073D01*
X153426565Y-87950200D01*
X153212888Y-88087560D01*
X152965572Y-88137580D01*
X152965572Y-89144814D01*
X153229180Y-89208524D01*
X153854528Y-89275754D01*
X154442884Y-89249537D01*
X154583399Y-89222280D01*
X154583399Y-84899500D01*
X154379585Y-84883381D01*
X154228229Y-84816657D01*
X154076400Y-84683600D01*
X153934254Y-84516808D01*
X153871663Y-84358142D01*
X153860500Y-84205116D01*
X153886193Y-83994059D01*
X153949563Y-83809542D01*
X153965180Y-83782771D01*
X154165540Y-83571530D01*
X154402801Y-83462718D01*
X154653085Y-83447250D01*
X154892517Y-83516041D01*
X155097219Y-83660006D01*
X155243317Y-83870062D01*
X155306933Y-84137122D01*
X155300146Y-84290710D01*
X155205980Y-84571289D01*
X155018648Y-84773275D01*
X154754026Y-84883182D01*
X154583399Y-84899500D01*
X154583399Y-89222280D01*
X154768976Y-89186280D01*
X155274986Y-89003330D01*
X155754313Y-88733907D01*
X156177881Y-88398902D01*
X156516611Y-88019208D01*
X156626416Y-87851724D01*
X156804496Y-87441857D01*
X156915748Y-86951282D01*
X156958885Y-86408069D01*
X156932621Y-85840293D01*
G37*
X156932621Y-85840293D02*
X156835670Y-85276023D01*
X156757353Y-84994750D01*
X156530190Y-84449418D01*
X156205139Y-83902226D01*
X155802776Y-83375596D01*
X155343679Y-82891948D01*
X154848424Y-82473703D01*
X154337586Y-82143283D01*
X153990202Y-81979565D01*
X153778286Y-81897599D01*
X153664138Y-81862862D01*
X153627491Y-81875720D01*
X153648077Y-81936534D01*
X153673606Y-81985237D01*
X153720843Y-82134877D01*
X153747452Y-82336522D01*
X153749179Y-82383531D01*
X153698867Y-82737059D01*
X153550201Y-83033823D01*
X153323724Y-83261701D01*
X153039980Y-83408569D01*
X152719511Y-83462301D01*
X152382860Y-83410774D01*
X152167985Y-83316726D01*
X151909756Y-83105670D01*
X151731195Y-82824964D01*
X151640931Y-82505596D01*
X151647597Y-82178550D01*
X151759821Y-81874814D01*
X151764305Y-81867375D01*
X151890134Y-81661000D01*
X151712092Y-81661000D01*
X151487212Y-81689002D01*
X151193677Y-81764205D01*
X150874548Y-81873409D01*
X150572886Y-82003412D01*
X150537069Y-82021218D01*
X150216067Y-82228387D01*
X149907320Y-82505384D01*
X149653090Y-82811011D01*
X149546276Y-82987100D01*
X149405928Y-83345126D01*
X149297061Y-83788329D01*
X149225125Y-84277581D01*
X149195572Y-84773755D01*
X149213854Y-85237724D01*
X149222322Y-85312250D01*
X149263846Y-85579928D01*
X149317337Y-85847886D01*
X149349207Y-85977040D01*
X149399276Y-86143468D01*
X149435570Y-86202778D01*
X149474684Y-86171168D01*
X149501070Y-86125248D01*
X149676307Y-85916498D01*
X149932816Y-85748151D01*
X150226425Y-85640772D01*
X150512965Y-85614922D01*
X150578514Y-85623645D01*
X150921160Y-85744867D01*
X151187604Y-85950860D01*
X151370371Y-86219594D01*
X151461986Y-86529043D01*
X151454973Y-86857179D01*
X151341857Y-87181974D01*
X151184254Y-87408580D01*
X150921524Y-87619981D01*
X150700712Y-87714301D01*
X150411572Y-87798610D01*
X150818411Y-88128447D01*
X151361455Y-88507807D01*
X151689840Y-88678310D01*
X151689840Y-85587929D01*
X151361834Y-85573181D01*
X151044219Y-85437287D01*
X150897149Y-85326174D01*
X150648303Y-85036798D01*
X150517478Y-84715678D01*
X150507943Y-84375294D01*
X150580792Y-84118594D01*
X150724903Y-83890564D01*
X150940507Y-83680147D01*
X151183941Y-83524298D01*
X151350893Y-83466816D01*
X151700765Y-83450989D01*
X152010698Y-83549026D01*
X152300439Y-83767353D01*
X152313106Y-83779895D01*
X152542608Y-84083500D01*
X152648343Y-84403482D01*
X152630309Y-84727747D01*
X152488506Y-85044204D01*
X152313106Y-85257106D01*
X152012257Y-85482311D01*
X151689840Y-85587929D01*
X151689840Y-88678310D01*
X151959616Y-88818384D01*
X152589867Y-89054012D01*
X152965572Y-89144814D01*
X152965572Y-88137580D01*
X152711472Y-88102690D01*
X152477438Y-87985319D01*
X152290323Y-87787896D01*
X152199955Y-87598250D01*
X152161595Y-87460543D01*
X152163783Y-87354611D01*
X152211518Y-87215630D01*
X152233556Y-87162373D01*
X152394707Y-86913180D01*
X152614790Y-86753566D01*
X152866697Y-86684853D01*
X153123323Y-86708361D01*
X153357559Y-86825411D01*
X153542298Y-87037326D01*
X153573724Y-87097057D01*
X153646520Y-87288225D01*
X153646520Y-86531850D01*
X153476290Y-86485671D01*
X153237804Y-86324585D01*
X153085953Y-86091170D01*
X153030105Y-85813887D01*
X153079631Y-85521197D01*
X153124833Y-85417977D01*
X153293987Y-85211628D01*
X153520985Y-85096254D01*
X153776568Y-85070406D01*
X154031478Y-85132632D01*
X154256457Y-85281485D01*
X154405643Y-85481428D01*
X154479509Y-85743726D01*
X154446946Y-85999525D01*
X154327659Y-86227531D01*
X154141356Y-86406450D01*
X153907741Y-86514988D01*
X153646520Y-86531850D01*
X153646520Y-87288225D01*
X153651952Y-87302490D01*
X153658345Y-87478946D01*
X153593511Y-87689578D01*
X153579753Y-87723073D01*
X153426565Y-87950200D01*
X153212888Y-88087560D01*
X152965572Y-88137580D01*
X152965572Y-89144814D01*
X153229180Y-89208524D01*
X153854528Y-89275754D01*
X154442884Y-89249537D01*
X154583399Y-89222280D01*
X154583399Y-84899500D01*
X154379585Y-84883381D01*
X154228229Y-84816657D01*
X154076400Y-84683600D01*
X153934254Y-84516808D01*
X153871663Y-84358142D01*
X153860500Y-84205116D01*
X153886193Y-83994059D01*
X153949563Y-83809542D01*
X153965180Y-83782771D01*
X154165540Y-83571530D01*
X154402801Y-83462718D01*
X154653085Y-83447250D01*
X154892517Y-83516041D01*
X155097219Y-83660006D01*
X155243317Y-83870062D01*
X155306933Y-84137122D01*
X155300146Y-84290710D01*
X155205980Y-84571289D01*
X155018648Y-84773275D01*
X154754026Y-84883182D01*
X154583399Y-84899500D01*
X154583399Y-89222280D01*
X154768976Y-89186280D01*
X155274986Y-89003330D01*
X155754313Y-88733907D01*
X156177881Y-88398902D01*
X156516611Y-88019208D01*
X156626416Y-87851724D01*
X156804496Y-87441857D01*
X156915748Y-86951282D01*
X156958885Y-86408069D01*
X156932621Y-85840293D01*
G36*
X159472424Y-91370766D02*
G01*
X159462372Y-90878791D01*
X159441109Y-90444915D01*
X159405182Y-90041976D01*
X159351142Y-89642812D01*
X159275536Y-89220261D01*
X159174913Y-88747162D01*
X159045823Y-88196354D01*
X158946237Y-87788750D01*
X158795680Y-87201440D01*
X158654959Y-86708542D01*
X158513311Y-86279148D01*
X158359971Y-85882353D01*
X158184176Y-85487249D01*
X158045110Y-85201361D01*
X157570076Y-84325661D01*
X157071380Y-83557044D01*
X156535072Y-82875962D01*
X155948655Y-82264250D01*
X155470949Y-81845947D01*
X154991697Y-81504126D01*
X154458915Y-81203428D01*
X154214379Y-81084496D01*
X153343636Y-80726017D01*
X152508966Y-80485436D01*
X151702071Y-80361654D01*
X150914648Y-80353574D01*
X150138396Y-80460098D01*
X149904936Y-80514628D01*
X149402848Y-80672672D01*
X148980130Y-80879148D01*
X148591712Y-81159787D01*
X148298372Y-81431832D01*
X148069058Y-81671873D01*
X147907101Y-81874572D01*
X147782742Y-82084427D01*
X147666220Y-82345932D01*
X147635454Y-82423000D01*
X147536457Y-82686681D01*
X147473787Y-82899686D01*
X147439190Y-83108513D01*
X147424413Y-83359658D01*
X147421297Y-83629500D01*
X147419679Y-84296250D01*
X148001377Y-86010750D01*
X148212550Y-86637959D01*
X148385648Y-87164926D01*
X148525946Y-87610786D01*
X148638718Y-87994671D01*
X148729236Y-88335713D01*
X148802777Y-88653045D01*
X148864613Y-88965800D01*
X148920018Y-89293110D01*
X148937854Y-89408000D01*
X149018977Y-90098596D01*
X149067290Y-90868462D01*
X149084026Y-91691519D01*
X149070417Y-92541688D01*
X149027695Y-93392889D01*
X148957092Y-94219042D01*
X148859840Y-94994068D01*
X148737173Y-95691888D01*
X148617309Y-96192430D01*
X148569845Y-96349909D01*
X148487951Y-96607121D01*
X148378327Y-96943643D01*
X148247670Y-97339053D01*
X148102680Y-97772928D01*
X147968328Y-98171000D01*
X147804319Y-98655797D01*
X147676544Y-99039652D01*
X147580290Y-99341841D01*
X147510842Y-99581641D01*
X147463484Y-99778327D01*
X147433503Y-99951174D01*
X147416185Y-100119460D01*
X147406814Y-100302459D01*
X147401454Y-100488750D01*
X147398404Y-100853878D01*
X147413124Y-101130811D01*
X147449247Y-101357567D01*
X147502790Y-101549347D01*
X147751781Y-102114097D01*
X148097798Y-102606045D01*
X148531376Y-103021590D01*
X149043053Y-103357130D01*
X149623362Y-103609064D01*
X150262838Y-103773789D01*
X150952019Y-103847705D01*
X151681437Y-103827208D01*
X152036969Y-103771783D01*
X152036969Y-102567873D01*
X151383406Y-102486217D01*
X150791580Y-102308709D01*
X150270054Y-102039162D01*
X149827385Y-101681386D01*
X149472135Y-101239193D01*
X149357786Y-101042121D01*
X149236891Y-100731495D01*
X149142088Y-100328304D01*
X149075919Y-99864782D01*
X149040926Y-99373161D01*
X149039651Y-98885673D01*
X149074634Y-98434552D01*
X149128235Y-98130735D01*
X149354783Y-97441702D01*
X149694606Y-96796831D01*
X150138947Y-96205106D01*
X150679049Y-95675512D01*
X151306156Y-95217034D01*
X152011511Y-94838656D01*
X152542083Y-94627998D01*
X152897482Y-94513608D01*
X153196362Y-94440812D01*
X153497659Y-94398294D01*
X153714638Y-94384203D01*
X153714638Y-93398780D01*
X153502445Y-93381729D01*
X153411826Y-93342766D01*
X153369949Y-93313071D01*
X153338825Y-93263647D01*
X153316868Y-93177275D01*
X153302494Y-93036737D01*
X153294119Y-92824812D01*
X153290158Y-92524282D01*
X153289027Y-92117927D01*
X153289000Y-92007905D01*
X153289000Y-90738778D01*
X153450309Y-90665281D01*
X153673005Y-90626641D01*
X153783684Y-90652247D01*
X153949321Y-90710451D01*
X153949321Y-89583321D01*
X153733500Y-89576135D01*
X153288898Y-89536657D01*
X152896328Y-89468331D01*
X152516330Y-89360013D01*
X152109443Y-89200559D01*
X151660101Y-88990604D01*
X151358755Y-88836982D01*
X151111822Y-88694630D01*
X150887022Y-88540558D01*
X150652076Y-88351780D01*
X150374705Y-88105306D01*
X150231598Y-87973303D01*
X149938858Y-87699999D01*
X149725428Y-87494726D01*
X149576784Y-87339939D01*
X149478399Y-87218092D01*
X149415748Y-87111637D01*
X149374304Y-87003029D01*
X149347233Y-86905054D01*
X149298996Y-86745249D01*
X149221547Y-86517592D01*
X149135437Y-86281547D01*
X149039554Y-85991153D01*
X148956203Y-85675410D01*
X148912591Y-85456047D01*
X148878981Y-85077166D01*
X148877213Y-84631089D01*
X148904734Y-84170850D01*
X148958995Y-83749483D01*
X149005232Y-83529909D01*
X149204428Y-82962076D01*
X149489813Y-82484903D01*
X149867887Y-82090163D01*
X150345149Y-81769627D01*
X150431596Y-81724452D01*
X150931288Y-81522808D01*
X151487438Y-81398480D01*
X152123136Y-81346739D01*
X152285951Y-81344603D01*
X152995083Y-81406015D01*
X153693701Y-81589533D01*
X154371363Y-81890261D01*
X155017627Y-82303305D01*
X155622051Y-82823771D01*
X155774732Y-82979974D01*
X156286074Y-83580027D01*
X156678836Y-84177005D01*
X156959822Y-84788044D01*
X157135835Y-85430281D01*
X157213675Y-86120851D01*
X157214720Y-86607428D01*
X157200425Y-86937404D01*
X157179957Y-87177987D01*
X157145527Y-87366775D01*
X157089347Y-87541364D01*
X157003627Y-87739353D01*
X156961789Y-87828332D01*
X156650046Y-88342087D01*
X156246589Y-88775775D01*
X155763104Y-89123068D01*
X155211274Y-89377641D01*
X154602785Y-89533167D01*
X153949321Y-89583321D01*
X153949321Y-90710451D01*
X153955750Y-90712711D01*
X153972948Y-91959497D01*
X153977720Y-92396835D01*
X153977578Y-92724600D01*
X153971440Y-92960159D01*
X153958227Y-93120883D01*
X153936855Y-93224139D01*
X153906245Y-93287295D01*
X153889038Y-93307392D01*
X153714638Y-93398780D01*
X153714638Y-94384203D01*
X153860308Y-94374742D01*
X153861687Y-94374683D01*
X154365032Y-94370090D01*
X154789201Y-94409890D01*
X155176787Y-94502421D01*
X155570388Y-94656018D01*
X155757895Y-94745816D01*
X156276753Y-95071987D01*
X156702431Y-95480186D01*
X157030869Y-95961963D01*
X157258004Y-96508864D01*
X157379775Y-97112437D01*
X157392120Y-97764228D01*
X157359727Y-98079408D01*
X157214905Y-98781239D01*
X156979813Y-99427536D01*
X156644678Y-100037144D01*
X156199725Y-100628911D01*
X155829000Y-101031186D01*
X155267363Y-101544414D01*
X154702986Y-101942220D01*
X154114993Y-102234879D01*
X153482506Y-102432670D01*
X152784650Y-102545866D01*
X152743711Y-102549865D01*
X152036969Y-102567873D01*
X152036969Y-103771783D01*
X152441630Y-103708698D01*
X152882638Y-103596619D01*
X153677052Y-103330730D01*
X154378679Y-103014457D01*
X155017410Y-102630261D01*
X155623137Y-102160602D01*
X156116418Y-101699163D01*
X156697749Y-101065094D01*
X157214819Y-100389530D01*
X157672732Y-99661032D01*
X158076592Y-98868158D01*
X158431502Y-97999469D01*
X158473934Y-97869070D01*
X158473934Y-96164275D01*
X158327271Y-96050875D01*
X158220940Y-95909502D01*
X158145700Y-95757163D01*
X158100033Y-95574690D01*
X158082420Y-95342916D01*
X158091342Y-95042673D01*
X158125281Y-94654794D01*
X158179518Y-94186005D01*
X158231319Y-93744232D01*
X158267412Y-93369936D01*
X158289392Y-93025430D01*
X158298850Y-92673030D01*
X158297378Y-92275051D01*
X158286569Y-91793809D01*
X158284165Y-91709505D01*
X158258563Y-91083370D01*
X158220487Y-90506360D01*
X158172063Y-90005775D01*
X158124564Y-89662000D01*
X158037312Y-89050393D01*
X157998050Y-88552546D01*
X158006756Y-88164641D01*
X158063410Y-87882863D01*
X158114305Y-87772875D01*
X158254154Y-87608253D01*
X158395788Y-87561427D01*
X158536753Y-87623266D01*
X158674596Y-87784636D01*
X158806865Y-88036405D01*
X158931105Y-88369442D01*
X159044863Y-88774612D01*
X159145687Y-89242785D01*
X159231123Y-89764827D01*
X159298717Y-90331605D01*
X159346018Y-90933988D01*
X159370571Y-91562843D01*
X159369923Y-92209037D01*
X159363771Y-92424250D01*
X159324949Y-93199095D01*
X159267392Y-93897147D01*
X159192694Y-94512822D01*
X159102452Y-95040536D01*
X158998262Y-95474706D01*
X158881720Y-95809749D01*
X158754420Y-96040080D01*
X158617960Y-96160117D01*
X158473934Y-96164275D01*
X158473934Y-97869070D01*
X158742567Y-97043523D01*
X159014891Y-95988881D01*
X159253577Y-94824102D01*
X159300228Y-94562581D01*
X159355072Y-94237731D01*
X159397068Y-93956215D01*
X159427922Y-93692464D01*
X159449340Y-93420913D01*
X159463028Y-93115995D01*
X159470693Y-92752144D01*
X159474041Y-92303795D01*
X159474715Y-91948000D01*
X159472424Y-91370766D01*
G37*
X159472424Y-91370766D02*
X159462372Y-90878791D01*
X159441109Y-90444915D01*
X159405182Y-90041976D01*
X159351142Y-89642812D01*
X159275536Y-89220261D01*
X159174913Y-88747162D01*
X159045823Y-88196354D01*
X158946237Y-87788750D01*
X158795680Y-87201440D01*
X158654959Y-86708542D01*
X158513311Y-86279148D01*
X158359971Y-85882353D01*
X158184176Y-85487249D01*
X158045110Y-85201361D01*
X157570076Y-84325661D01*
X157071380Y-83557044D01*
X156535072Y-82875962D01*
X155948655Y-82264250D01*
X155470949Y-81845947D01*
X154991697Y-81504126D01*
X154458915Y-81203428D01*
X154214379Y-81084496D01*
X153343636Y-80726017D01*
X152508966Y-80485436D01*
X151702071Y-80361654D01*
X150914648Y-80353574D01*
X150138396Y-80460098D01*
X149904936Y-80514628D01*
X149402848Y-80672672D01*
X148980130Y-80879148D01*
X148591712Y-81159787D01*
X148298372Y-81431832D01*
X148069058Y-81671873D01*
X147907101Y-81874572D01*
X147782742Y-82084427D01*
X147666220Y-82345932D01*
X147635454Y-82423000D01*
X147536457Y-82686681D01*
X147473787Y-82899686D01*
X147439190Y-83108513D01*
X147424413Y-83359658D01*
X147421297Y-83629500D01*
X147419679Y-84296250D01*
X148001377Y-86010750D01*
X148212550Y-86637959D01*
X148385648Y-87164926D01*
X148525946Y-87610786D01*
X148638718Y-87994671D01*
X148729236Y-88335713D01*
X148802777Y-88653045D01*
X148864613Y-88965800D01*
X148920018Y-89293110D01*
X148937854Y-89408000D01*
X149018977Y-90098596D01*
X149067290Y-90868462D01*
X149084026Y-91691519D01*
X149070417Y-92541688D01*
X149027695Y-93392889D01*
X148957092Y-94219042D01*
X148859840Y-94994068D01*
X148737173Y-95691888D01*
X148617309Y-96192430D01*
X148569845Y-96349909D01*
X148487951Y-96607121D01*
X148378327Y-96943643D01*
X148247670Y-97339053D01*
X148102680Y-97772928D01*
X147968328Y-98171000D01*
X147804319Y-98655797D01*
X147676544Y-99039652D01*
X147580290Y-99341841D01*
X147510842Y-99581641D01*
X147463484Y-99778327D01*
X147433503Y-99951174D01*
X147416185Y-100119460D01*
X147406814Y-100302459D01*
X147401454Y-100488750D01*
X147398404Y-100853878D01*
X147413124Y-101130811D01*
X147449247Y-101357567D01*
X147502790Y-101549347D01*
X147751781Y-102114097D01*
X148097798Y-102606045D01*
X148531376Y-103021590D01*
X149043053Y-103357130D01*
X149623362Y-103609064D01*
X150262838Y-103773789D01*
X150952019Y-103847705D01*
X151681437Y-103827208D01*
X152036969Y-103771783D01*
X152036969Y-102567873D01*
X151383406Y-102486217D01*
X150791580Y-102308709D01*
X150270054Y-102039162D01*
X149827385Y-101681386D01*
X149472135Y-101239193D01*
X149357786Y-101042121D01*
X149236891Y-100731495D01*
X149142088Y-100328304D01*
X149075919Y-99864782D01*
X149040926Y-99373161D01*
X149039651Y-98885673D01*
X149074634Y-98434552D01*
X149128235Y-98130735D01*
X149354783Y-97441702D01*
X149694606Y-96796831D01*
X150138947Y-96205106D01*
X150679049Y-95675512D01*
X151306156Y-95217034D01*
X152011511Y-94838656D01*
X152542083Y-94627998D01*
X152897482Y-94513608D01*
X153196362Y-94440812D01*
X153497659Y-94398294D01*
X153714638Y-94384203D01*
X153714638Y-93398780D01*
X153502445Y-93381729D01*
X153411826Y-93342766D01*
X153369949Y-93313071D01*
X153338825Y-93263647D01*
X153316868Y-93177275D01*
X153302494Y-93036737D01*
X153294119Y-92824812D01*
X153290158Y-92524282D01*
X153289027Y-92117927D01*
X153289000Y-92007905D01*
X153289000Y-90738778D01*
X153450309Y-90665281D01*
X153673005Y-90626641D01*
X153783684Y-90652247D01*
X153949321Y-90710451D01*
X153949321Y-89583321D01*
X153733500Y-89576135D01*
X153288898Y-89536657D01*
X152896328Y-89468331D01*
X152516330Y-89360013D01*
X152109443Y-89200559D01*
X151660101Y-88990604D01*
X151358755Y-88836982D01*
X151111822Y-88694630D01*
X150887022Y-88540558D01*
X150652076Y-88351780D01*
X150374705Y-88105306D01*
X150231598Y-87973303D01*
X149938858Y-87699999D01*
X149725428Y-87494726D01*
X149576784Y-87339939D01*
X149478399Y-87218092D01*
X149415748Y-87111637D01*
X149374304Y-87003029D01*
X149347233Y-86905054D01*
X149298996Y-86745249D01*
X149221547Y-86517592D01*
X149135437Y-86281547D01*
X149039554Y-85991153D01*
X148956203Y-85675410D01*
X148912591Y-85456047D01*
X148878981Y-85077166D01*
X148877213Y-84631089D01*
X148904734Y-84170850D01*
X148958995Y-83749483D01*
X149005232Y-83529909D01*
X149204428Y-82962076D01*
X149489813Y-82484903D01*
X149867887Y-82090163D01*
X150345149Y-81769627D01*
X150431596Y-81724452D01*
X150931288Y-81522808D01*
X151487438Y-81398480D01*
X152123136Y-81346739D01*
X152285951Y-81344603D01*
X152995083Y-81406015D01*
X153693701Y-81589533D01*
X154371363Y-81890261D01*
X155017627Y-82303305D01*
X155622051Y-82823771D01*
X155774732Y-82979974D01*
X156286074Y-83580027D01*
X156678836Y-84177005D01*
X156959822Y-84788044D01*
X157135835Y-85430281D01*
X157213675Y-86120851D01*
X157214720Y-86607428D01*
X157200425Y-86937404D01*
X157179957Y-87177987D01*
X157145527Y-87366775D01*
X157089347Y-87541364D01*
X157003627Y-87739353D01*
X156961789Y-87828332D01*
X156650046Y-88342087D01*
X156246589Y-88775775D01*
X155763104Y-89123068D01*
X155211274Y-89377641D01*
X154602785Y-89533167D01*
X153949321Y-89583321D01*
X153949321Y-90710451D01*
X153955750Y-90712711D01*
X153972948Y-91959497D01*
X153977720Y-92396835D01*
X153977578Y-92724600D01*
X153971440Y-92960159D01*
X153958227Y-93120883D01*
X153936855Y-93224139D01*
X153906245Y-93287295D01*
X153889038Y-93307392D01*
X153714638Y-93398780D01*
X153714638Y-94384203D01*
X153860308Y-94374742D01*
X153861687Y-94374683D01*
X154365032Y-94370090D01*
X154789201Y-94409890D01*
X155176787Y-94502421D01*
X155570388Y-94656018D01*
X155757895Y-94745816D01*
X156276753Y-95071987D01*
X156702431Y-95480186D01*
X157030869Y-95961963D01*
X157258004Y-96508864D01*
X157379775Y-97112437D01*
X157392120Y-97764228D01*
X157359727Y-98079408D01*
X157214905Y-98781239D01*
X156979813Y-99427536D01*
X156644678Y-100037144D01*
X156199725Y-100628911D01*
X155829000Y-101031186D01*
X155267363Y-101544414D01*
X154702986Y-101942220D01*
X154114993Y-102234879D01*
X153482506Y-102432670D01*
X152784650Y-102545866D01*
X152743711Y-102549865D01*
X152036969Y-102567873D01*
X152036969Y-103771783D01*
X152441630Y-103708698D01*
X152882638Y-103596619D01*
X153677052Y-103330730D01*
X154378679Y-103014457D01*
X155017410Y-102630261D01*
X155623137Y-102160602D01*
X156116418Y-101699163D01*
X156697749Y-101065094D01*
X157214819Y-100389530D01*
X157672732Y-99661032D01*
X158076592Y-98868158D01*
X158431502Y-97999469D01*
X158473934Y-97869070D01*
X158473934Y-96164275D01*
X158327271Y-96050875D01*
X158220940Y-95909502D01*
X158145700Y-95757163D01*
X158100033Y-95574690D01*
X158082420Y-95342916D01*
X158091342Y-95042673D01*
X158125281Y-94654794D01*
X158179518Y-94186005D01*
X158231319Y-93744232D01*
X158267412Y-93369936D01*
X158289392Y-93025430D01*
X158298850Y-92673030D01*
X158297378Y-92275051D01*
X158286569Y-91793809D01*
X158284165Y-91709505D01*
X158258563Y-91083370D01*
X158220487Y-90506360D01*
X158172063Y-90005775D01*
X158124564Y-89662000D01*
X158037312Y-89050393D01*
X157998050Y-88552546D01*
X158006756Y-88164641D01*
X158063410Y-87882863D01*
X158114305Y-87772875D01*
X158254154Y-87608253D01*
X158395788Y-87561427D01*
X158536753Y-87623266D01*
X158674596Y-87784636D01*
X158806865Y-88036405D01*
X158931105Y-88369442D01*
X159044863Y-88774612D01*
X159145687Y-89242785D01*
X159231123Y-89764827D01*
X159298717Y-90331605D01*
X159346018Y-90933988D01*
X159370571Y-91562843D01*
X159369923Y-92209037D01*
X159363771Y-92424250D01*
X159324949Y-93199095D01*
X159267392Y-93897147D01*
X159192694Y-94512822D01*
X159102452Y-95040536D01*
X158998262Y-95474706D01*
X158881720Y-95809749D01*
X158754420Y-96040080D01*
X158617960Y-96160117D01*
X158473934Y-96164275D01*
X158473934Y-97869070D01*
X158742567Y-97043523D01*
X159014891Y-95988881D01*
X159253577Y-94824102D01*
X159300228Y-94562581D01*
X159355072Y-94237731D01*
X159397068Y-93956215D01*
X159427922Y-93692464D01*
X159449340Y-93420913D01*
X159463028Y-93115995D01*
X159470693Y-92752144D01*
X159474041Y-92303795D01*
X159474715Y-91948000D01*
X159472424Y-91370766D01*
%TD*%
M02*
