%TF.GenerationSoftware,KiCad,Pcbnew,(5.1.8)-1*%
%TF.CreationDate,2021-02-06T02:04:06+01:00*%
%TF.ProjectId,C64 Joystick Faceplate A1,43363420-4a6f-4797-9374-69636b204661,rev?*%
%TF.SameCoordinates,Original*%
%TF.FileFunction,Legend,Bot*%
%TF.FilePolarity,Positive*%
%FSLAX46Y46*%
G04 Gerber Fmt 4.6, Leading zero omitted, Abs format (unit mm)*
G04 Created by KiCad (PCBNEW (5.1.8)-1) date 2021-02-06 02:04:06*
%MOMM*%
%LPD*%
G01*
G04 APERTURE LIST*
%ADD10C,0.100000*%
%ADD11C,0.010000*%
G04 APERTURE END LIST*
D10*
X166643095Y-76695166D02*
X167443095Y-76695166D01*
X167443095Y-76390404D01*
X167405000Y-76314214D01*
X167366904Y-76276119D01*
X167290714Y-76238023D01*
X167176428Y-76238023D01*
X167100238Y-76276119D01*
X167062142Y-76314214D01*
X167024047Y-76390404D01*
X167024047Y-76695166D01*
X167443095Y-75971357D02*
X166643095Y-75780880D01*
X167214523Y-75628500D01*
X166643095Y-75476119D01*
X167443095Y-75285642D01*
X166643095Y-74523738D02*
X167024047Y-74790404D01*
X166643095Y-74980880D02*
X167443095Y-74980880D01*
X167443095Y-74676119D01*
X167405000Y-74599928D01*
X167366904Y-74561833D01*
X167290714Y-74523738D01*
X167176428Y-74523738D01*
X167100238Y-74561833D01*
X167062142Y-74599928D01*
X167024047Y-74676119D01*
X167024047Y-74980880D01*
X166643095Y-110096119D02*
X167443095Y-110096119D01*
X166871666Y-109829452D01*
X167443095Y-109562785D01*
X166643095Y-109562785D01*
X167443095Y-109029452D02*
X167443095Y-108877071D01*
X167405000Y-108800880D01*
X167328809Y-108724690D01*
X167176428Y-108686595D01*
X166909761Y-108686595D01*
X166757380Y-108724690D01*
X166681190Y-108800880D01*
X166643095Y-108877071D01*
X166643095Y-109029452D01*
X166681190Y-109105642D01*
X166757380Y-109181833D01*
X166909761Y-109219928D01*
X167176428Y-109219928D01*
X167328809Y-109181833D01*
X167405000Y-109105642D01*
X167443095Y-109029452D01*
X166643095Y-108343738D02*
X167443095Y-108343738D01*
X167443095Y-108153261D01*
X167405000Y-108038976D01*
X167328809Y-107962785D01*
X167252619Y-107924690D01*
X167100238Y-107886595D01*
X166985952Y-107886595D01*
X166833571Y-107924690D01*
X166757380Y-107962785D01*
X166681190Y-108038976D01*
X166643095Y-108153261D01*
X166643095Y-108343738D01*
X167062142Y-107543738D02*
X167062142Y-107277071D01*
X166643095Y-107162785D02*
X166643095Y-107543738D01*
X167443095Y-107543738D01*
X167443095Y-107162785D01*
X113176095Y-80187547D02*
X113976095Y-80187547D01*
X113976095Y-79882785D01*
X113938000Y-79806595D01*
X113899904Y-79768500D01*
X113823714Y-79730404D01*
X113709428Y-79730404D01*
X113633238Y-79768500D01*
X113595142Y-79806595D01*
X113557047Y-79882785D01*
X113557047Y-80187547D01*
X113976095Y-79235166D02*
X113976095Y-79082785D01*
X113938000Y-79006595D01*
X113861809Y-78930404D01*
X113709428Y-78892309D01*
X113442761Y-78892309D01*
X113290380Y-78930404D01*
X113214190Y-79006595D01*
X113176095Y-79082785D01*
X113176095Y-79235166D01*
X113214190Y-79311357D01*
X113290380Y-79387547D01*
X113442761Y-79425642D01*
X113709428Y-79425642D01*
X113861809Y-79387547D01*
X113938000Y-79311357D01*
X113976095Y-79235166D01*
X113176095Y-78092309D02*
X113557047Y-78358976D01*
X113176095Y-78549452D02*
X113976095Y-78549452D01*
X113976095Y-78244690D01*
X113938000Y-78168500D01*
X113899904Y-78130404D01*
X113823714Y-78092309D01*
X113709428Y-78092309D01*
X113633238Y-78130404D01*
X113595142Y-78168500D01*
X113557047Y-78244690D01*
X113557047Y-78549452D01*
X113976095Y-77863738D02*
X113976095Y-77406595D01*
X113176095Y-77635166D02*
X113976095Y-77635166D01*
X113899904Y-76568500D02*
X113938000Y-76530404D01*
X113976095Y-76454214D01*
X113976095Y-76263738D01*
X113938000Y-76187547D01*
X113899904Y-76149452D01*
X113823714Y-76111357D01*
X113747523Y-76111357D01*
X113633238Y-76149452D01*
X113176095Y-76606595D01*
X113176095Y-76111357D01*
X113176095Y-108000547D02*
X113976095Y-108000547D01*
X113976095Y-107695785D01*
X113938000Y-107619595D01*
X113899904Y-107581500D01*
X113823714Y-107543404D01*
X113709428Y-107543404D01*
X113633238Y-107581500D01*
X113595142Y-107619595D01*
X113557047Y-107695785D01*
X113557047Y-108000547D01*
X113976095Y-107048166D02*
X113976095Y-106895785D01*
X113938000Y-106819595D01*
X113861809Y-106743404D01*
X113709428Y-106705309D01*
X113442761Y-106705309D01*
X113290380Y-106743404D01*
X113214190Y-106819595D01*
X113176095Y-106895785D01*
X113176095Y-107048166D01*
X113214190Y-107124357D01*
X113290380Y-107200547D01*
X113442761Y-107238642D01*
X113709428Y-107238642D01*
X113861809Y-107200547D01*
X113938000Y-107124357D01*
X113976095Y-107048166D01*
X113176095Y-105905309D02*
X113557047Y-106171976D01*
X113176095Y-106362452D02*
X113976095Y-106362452D01*
X113976095Y-106057690D01*
X113938000Y-105981500D01*
X113899904Y-105943404D01*
X113823714Y-105905309D01*
X113709428Y-105905309D01*
X113633238Y-105943404D01*
X113595142Y-105981500D01*
X113557047Y-106057690D01*
X113557047Y-106362452D01*
X113976095Y-105676738D02*
X113976095Y-105219595D01*
X113176095Y-105448166D02*
X113976095Y-105448166D01*
X113176095Y-103924357D02*
X113176095Y-104381500D01*
X113176095Y-104152928D02*
X113976095Y-104152928D01*
X113861809Y-104229119D01*
X113785619Y-104305309D01*
X113747523Y-104381500D01*
D11*
%TO.C,G\u002A\u002A\u002A*%
G36*
X166100624Y-92022708D02*
G01*
X166089517Y-91817457D01*
X166069596Y-91639782D01*
X166056546Y-91567000D01*
X165946052Y-91155532D01*
X165793741Y-90772626D01*
X165599046Y-90417191D01*
X165361396Y-90088135D01*
X165177988Y-89882018D01*
X164865140Y-89592539D01*
X164526900Y-89346817D01*
X164164469Y-89145526D01*
X163779049Y-88989339D01*
X163398200Y-88884540D01*
X163246258Y-88860399D01*
X163059294Y-88844186D01*
X162851678Y-88835937D01*
X162637784Y-88835689D01*
X162431984Y-88843479D01*
X162248650Y-88859343D01*
X162111454Y-88881257D01*
X161701748Y-88992724D01*
X161322190Y-89144307D01*
X160969777Y-89337629D01*
X160641506Y-89574313D01*
X160364253Y-89825713D01*
X160083969Y-90138006D01*
X159850864Y-90466548D01*
X159663088Y-90814303D01*
X159522786Y-91171914D01*
X159474896Y-91307019D01*
X159434739Y-91394662D01*
X159401097Y-91437384D01*
X159393583Y-91441335D01*
X159355130Y-91446942D01*
X159274068Y-91453093D01*
X159158582Y-91459364D01*
X159016855Y-91465331D01*
X158857068Y-91470569D01*
X158799940Y-91472113D01*
X158252979Y-91486082D01*
X158109181Y-91202691D01*
X158053117Y-91095659D01*
X157974199Y-90950228D01*
X157873975Y-90769050D01*
X157753995Y-90554776D01*
X157615807Y-90310057D01*
X157460960Y-90037544D01*
X157291005Y-89739887D01*
X157107489Y-89419738D01*
X156911962Y-89079747D01*
X156705973Y-88722566D01*
X156491071Y-88350845D01*
X156268806Y-87967236D01*
X156040725Y-87574389D01*
X155808379Y-87174956D01*
X155573316Y-86771586D01*
X155337086Y-86366932D01*
X155101237Y-85963645D01*
X154867319Y-85564374D01*
X154636881Y-85171772D01*
X154411471Y-84788488D01*
X154192640Y-84417175D01*
X153981935Y-84060483D01*
X153780906Y-83721062D01*
X153591103Y-83401565D01*
X153414073Y-83104641D01*
X153251367Y-82832942D01*
X153104534Y-82589119D01*
X152975122Y-82375822D01*
X152864680Y-82195704D01*
X152774758Y-82051413D01*
X152706904Y-81945603D01*
X152662669Y-81880923D01*
X152659666Y-81876900D01*
X152538862Y-81744985D01*
X152372834Y-81609605D01*
X152159958Y-81469594D01*
X151898606Y-81323787D01*
X151862981Y-81305369D01*
X151516462Y-81127600D01*
X149771791Y-81127600D01*
X148027120Y-81127601D01*
X147756110Y-81266367D01*
X147526719Y-81390472D01*
X147319655Y-81515698D01*
X147142621Y-81636985D01*
X147003317Y-81749276D01*
X146963336Y-81787074D01*
X146909302Y-81850968D01*
X146831341Y-81958622D01*
X146729425Y-82110085D01*
X146603524Y-82305405D01*
X146453610Y-82544631D01*
X146279655Y-82827809D01*
X146081631Y-83154988D01*
X145859509Y-83526217D01*
X145613261Y-83941542D01*
X145342858Y-84401014D01*
X145048272Y-84904678D01*
X144729474Y-85452584D01*
X144386436Y-86044779D01*
X144019130Y-86681312D01*
X143627527Y-87362231D01*
X143211599Y-88087583D01*
X142771316Y-88857416D01*
X142507761Y-89319100D01*
X142309257Y-89667104D01*
X142134387Y-89973885D01*
X141981583Y-90242331D01*
X141849279Y-90475327D01*
X141735909Y-90675760D01*
X141639905Y-90846518D01*
X141559703Y-90990488D01*
X141493736Y-91110555D01*
X141440436Y-91209607D01*
X141398239Y-91290531D01*
X141365577Y-91356213D01*
X141340884Y-91409540D01*
X141322594Y-91453399D01*
X141309140Y-91490677D01*
X141298957Y-91524260D01*
X141290477Y-91557036D01*
X141288066Y-91567000D01*
X141268803Y-91677351D01*
X141253336Y-91823972D01*
X141242216Y-91992437D01*
X141235994Y-92168319D01*
X141235223Y-92337192D01*
X141240452Y-92484629D01*
X141249419Y-92578102D01*
X141277493Y-92737510D01*
X141316977Y-92883440D01*
X141373284Y-93031029D01*
X141451825Y-93195412D01*
X141508003Y-93301301D01*
X141585701Y-93442491D01*
X141687004Y-93624091D01*
X141809919Y-93842632D01*
X141952456Y-94094642D01*
X142112624Y-94376651D01*
X142288431Y-94685189D01*
X142477886Y-95016786D01*
X142678997Y-95367972D01*
X142889774Y-95735275D01*
X143108226Y-96115226D01*
X143332360Y-96504354D01*
X143560185Y-96899190D01*
X143789712Y-97296262D01*
X144018947Y-97692100D01*
X144245900Y-98083235D01*
X144468579Y-98466195D01*
X144666607Y-98806000D01*
X144961412Y-99310919D01*
X145231769Y-99773178D01*
X145478515Y-100194177D01*
X145702490Y-100575315D01*
X145904530Y-100917994D01*
X146085474Y-101223611D01*
X146246161Y-101493568D01*
X146387428Y-101729263D01*
X146510114Y-101932096D01*
X146615056Y-102103468D01*
X146703094Y-102244777D01*
X146775065Y-102357424D01*
X146831806Y-102442809D01*
X146874158Y-102502330D01*
X146897191Y-102531079D01*
X147044056Y-102673917D01*
X147228976Y-102815630D01*
X147439636Y-102948500D01*
X147663720Y-103064807D01*
X147888912Y-103156835D01*
X147903998Y-103162031D01*
X147979277Y-103186540D01*
X148053109Y-103207523D01*
X148129840Y-103225199D01*
X148213820Y-103239785D01*
X148309398Y-103251500D01*
X148420923Y-103260560D01*
X148552744Y-103267185D01*
X148709209Y-103271591D01*
X148894667Y-103273997D01*
X149113468Y-103274620D01*
X149369960Y-103273679D01*
X149668491Y-103271390D01*
X150013412Y-103267973D01*
X150018016Y-103267924D01*
X151509532Y-103252128D01*
X151821416Y-103096123D01*
X152067184Y-102966899D01*
X152268342Y-102846891D01*
X152314937Y-102813973D01*
X152314937Y-100431600D01*
X152146385Y-100406932D01*
X151987797Y-100335067D01*
X151842838Y-100219219D01*
X151715172Y-100062598D01*
X151608463Y-99868416D01*
X151572387Y-99780731D01*
X151508085Y-99549141D01*
X151477825Y-99296967D01*
X151482395Y-99042025D01*
X151522586Y-98802137D01*
X151528123Y-98781365D01*
X151589322Y-98605024D01*
X151671840Y-98456908D01*
X151785904Y-98317258D01*
X151940380Y-98181478D01*
X152100993Y-98094102D01*
X152263740Y-98053755D01*
X152424614Y-98059062D01*
X152579612Y-98108650D01*
X152724728Y-98201144D01*
X152855957Y-98335170D01*
X152920700Y-98434671D01*
X152920700Y-95821500D01*
X152361900Y-95821450D01*
X152177523Y-95821148D01*
X152035875Y-95819823D01*
X151928888Y-95816793D01*
X151848492Y-95811374D01*
X151786618Y-95802883D01*
X151735197Y-95790637D01*
X151686161Y-95773952D01*
X151654636Y-95761572D01*
X151466197Y-95667945D01*
X151264847Y-95536596D01*
X151059803Y-95375532D01*
X150860279Y-95192759D01*
X150675493Y-94996283D01*
X150514660Y-94794110D01*
X150474152Y-94736057D01*
X150297460Y-94447447D01*
X150140100Y-94137241D01*
X150006807Y-93817326D01*
X149902314Y-93499590D01*
X149831355Y-93195922D01*
X149812620Y-93074877D01*
X149804521Y-92981934D01*
X149797986Y-92847596D01*
X149793030Y-92681242D01*
X149789665Y-92492255D01*
X149787908Y-92290014D01*
X149787771Y-92083901D01*
X149789269Y-91883295D01*
X149792416Y-91697579D01*
X149797227Y-91536132D01*
X149803716Y-91408336D01*
X149809989Y-91337734D01*
X149868520Y-91014913D01*
X149965284Y-90676872D01*
X150095633Y-90335629D01*
X150254917Y-90003201D01*
X150438490Y-89691607D01*
X150458223Y-89661727D01*
X150606682Y-89462464D01*
X150782206Y-89265085D01*
X150975664Y-89077567D01*
X151177922Y-88907884D01*
X151379845Y-88764012D01*
X151572301Y-88653926D01*
X151654636Y-88617029D01*
X151706103Y-88597365D01*
X151755128Y-88582547D01*
X151809781Y-88571892D01*
X151878130Y-88564718D01*
X151968246Y-88560341D01*
X152088196Y-88558079D01*
X152246051Y-88557247D01*
X152361900Y-88557151D01*
X152920700Y-88557100D01*
X153147669Y-88666144D01*
X153448629Y-88838676D01*
X153729970Y-89057107D01*
X153990130Y-89319854D01*
X154227543Y-89625333D01*
X154440646Y-89971960D01*
X154444757Y-89979500D01*
X154522000Y-90133080D01*
X154598914Y-90306890D01*
X154672488Y-90491921D01*
X154739710Y-90679161D01*
X154797568Y-90859602D01*
X154843052Y-91024231D01*
X154873149Y-91164040D01*
X154884848Y-91270017D01*
X154884274Y-91294507D01*
X154879584Y-91339691D01*
X154869460Y-91376435D01*
X154848982Y-91405778D01*
X154813229Y-91428761D01*
X154757280Y-91446424D01*
X154676214Y-91459809D01*
X154565110Y-91469955D01*
X154419049Y-91477903D01*
X154233108Y-91484694D01*
X154002367Y-91491368D01*
X153945994Y-91492899D01*
X153746325Y-91499093D01*
X153558688Y-91506412D01*
X153390315Y-91514459D01*
X153248437Y-91522836D01*
X153140286Y-91531145D01*
X153073096Y-91538987D01*
X153060348Y-91541615D01*
X152928703Y-91603092D01*
X152810400Y-91712041D01*
X152716139Y-91851002D01*
X152676813Y-91928820D01*
X152654148Y-91998135D01*
X152643769Y-92078724D01*
X152641300Y-92189300D01*
X152643815Y-92300617D01*
X152654274Y-92381038D01*
X152677055Y-92450342D01*
X152716139Y-92527599D01*
X152819812Y-92677523D01*
X152938831Y-92782311D01*
X153059437Y-92836741D01*
X153109937Y-92844303D01*
X153203993Y-92852550D01*
X153334373Y-92861074D01*
X153493845Y-92869468D01*
X153675177Y-92877327D01*
X153871137Y-92884244D01*
X153942420Y-92886383D01*
X154139833Y-92892808D01*
X154323401Y-92900261D01*
X154486260Y-92908346D01*
X154621548Y-92916671D01*
X154722405Y-92924841D01*
X154781966Y-92932463D01*
X154792406Y-92935158D01*
X154845067Y-92962419D01*
X154880609Y-93000641D01*
X154898766Y-93055394D01*
X154899273Y-93132245D01*
X154881864Y-93236766D01*
X154846275Y-93374525D01*
X154792238Y-93551092D01*
X154758044Y-93656202D01*
X154595784Y-94083168D01*
X154403516Y-94469890D01*
X154180520Y-94817632D01*
X153926077Y-95127659D01*
X153910151Y-95144710D01*
X153682423Y-95364040D01*
X153447519Y-95542715D01*
X153192285Y-95690529D01*
X153147669Y-95712457D01*
X152920700Y-95821500D01*
X152920700Y-98434671D01*
X152969295Y-98509355D01*
X153060736Y-98722324D01*
X153072713Y-98758784D01*
X153134227Y-99025227D01*
X153151555Y-99288788D01*
X153125834Y-99543399D01*
X153058199Y-99782991D01*
X152949788Y-100001496D01*
X152804790Y-100189628D01*
X152674801Y-100309477D01*
X152548705Y-100385984D01*
X152415760Y-100424457D01*
X152314937Y-100431600D01*
X152314937Y-102813973D01*
X152429564Y-102732990D01*
X152555524Y-102622089D01*
X152592038Y-102583525D01*
X152633292Y-102530552D01*
X152696066Y-102439366D01*
X152780623Y-102309531D01*
X152887223Y-102140613D01*
X153016128Y-101932175D01*
X153167598Y-101683781D01*
X153341897Y-101394996D01*
X153539283Y-101065383D01*
X153760020Y-100694507D01*
X154004367Y-100281933D01*
X154272587Y-99827224D01*
X154564941Y-99329944D01*
X154881690Y-98789658D01*
X155223094Y-98205930D01*
X155465941Y-97790000D01*
X155787038Y-97239156D01*
X156091159Y-96716325D01*
X156377593Y-96222752D01*
X156645630Y-95759679D01*
X156894560Y-95328347D01*
X157123671Y-94929998D01*
X157332253Y-94565876D01*
X157519595Y-94237222D01*
X157684988Y-93945278D01*
X157827719Y-93691287D01*
X157947080Y-93476491D01*
X158042358Y-93302132D01*
X158112844Y-93169452D01*
X158143379Y-93109482D01*
X158251196Y-92892086D01*
X158735548Y-92903747D01*
X158943141Y-92909228D01*
X159105607Y-92914924D01*
X159228616Y-92921475D01*
X159317839Y-92929522D01*
X159378948Y-92939706D01*
X159417613Y-92952667D01*
X159439505Y-92969046D01*
X159448452Y-92984269D01*
X159464340Y-93026199D01*
X159492733Y-93102814D01*
X159528804Y-93201050D01*
X159549217Y-93256960D01*
X159719093Y-93654568D01*
X159926627Y-94019172D01*
X160170981Y-94349682D01*
X160451317Y-94645008D01*
X160766798Y-94904056D01*
X160867259Y-94973925D01*
X161130264Y-95136892D01*
X161387259Y-95267205D01*
X161656145Y-95372751D01*
X161954824Y-95461419D01*
X161999667Y-95472842D01*
X162104400Y-95497790D01*
X162196486Y-95515777D01*
X162288049Y-95527943D01*
X162391212Y-95535426D01*
X162518100Y-95539367D01*
X162680835Y-95540906D01*
X162725100Y-95541041D01*
X162941040Y-95539428D01*
X163119658Y-95532276D01*
X163274294Y-95517778D01*
X163418289Y-95494127D01*
X163564983Y-95459517D01*
X163727717Y-95412139D01*
X163766500Y-95399981D01*
X164112822Y-95267629D01*
X164118124Y-95264823D01*
X164118124Y-94447430D01*
X163885636Y-94431114D01*
X163656121Y-94366891D01*
X163433523Y-94254773D01*
X163221787Y-94094771D01*
X163151927Y-94028415D01*
X162975556Y-93821443D01*
X162847430Y-93604016D01*
X162768124Y-93377978D01*
X162738212Y-93145172D01*
X162758268Y-92907442D01*
X162776818Y-92824877D01*
X162867503Y-92570802D01*
X162999774Y-92345865D01*
X163174033Y-92149468D01*
X163296468Y-92046913D01*
X163518891Y-91907739D01*
X163749138Y-91818633D01*
X163985713Y-91779727D01*
X164227122Y-91791150D01*
X164471868Y-91853034D01*
X164649006Y-91928756D01*
X164873052Y-92066572D01*
X165061272Y-92235267D01*
X165211280Y-92429829D01*
X165320685Y-92645244D01*
X165387098Y-92876498D01*
X165408130Y-93118579D01*
X165381391Y-93366473D01*
X165365865Y-93433012D01*
X165309739Y-93600931D01*
X165229746Y-93753720D01*
X165117961Y-93904348D01*
X164998918Y-94033423D01*
X164793982Y-94208837D01*
X164576241Y-94336303D01*
X164349640Y-94415830D01*
X164118124Y-94447430D01*
X164118124Y-95264823D01*
X164438628Y-95095191D01*
X164749356Y-94879286D01*
X165050445Y-94616535D01*
X165090800Y-94577142D01*
X165376584Y-94261252D01*
X165617383Y-93923493D01*
X165812375Y-93565359D01*
X165960739Y-93188349D01*
X166056851Y-92818583D01*
X166081032Y-92653472D01*
X166096386Y-92455760D01*
X166102915Y-92240490D01*
X166100624Y-92022708D01*
G37*
X166100624Y-92022708D02*
X166089517Y-91817457D01*
X166069596Y-91639782D01*
X166056546Y-91567000D01*
X165946052Y-91155532D01*
X165793741Y-90772626D01*
X165599046Y-90417191D01*
X165361396Y-90088135D01*
X165177988Y-89882018D01*
X164865140Y-89592539D01*
X164526900Y-89346817D01*
X164164469Y-89145526D01*
X163779049Y-88989339D01*
X163398200Y-88884540D01*
X163246258Y-88860399D01*
X163059294Y-88844186D01*
X162851678Y-88835937D01*
X162637784Y-88835689D01*
X162431984Y-88843479D01*
X162248650Y-88859343D01*
X162111454Y-88881257D01*
X161701748Y-88992724D01*
X161322190Y-89144307D01*
X160969777Y-89337629D01*
X160641506Y-89574313D01*
X160364253Y-89825713D01*
X160083969Y-90138006D01*
X159850864Y-90466548D01*
X159663088Y-90814303D01*
X159522786Y-91171914D01*
X159474896Y-91307019D01*
X159434739Y-91394662D01*
X159401097Y-91437384D01*
X159393583Y-91441335D01*
X159355130Y-91446942D01*
X159274068Y-91453093D01*
X159158582Y-91459364D01*
X159016855Y-91465331D01*
X158857068Y-91470569D01*
X158799940Y-91472113D01*
X158252979Y-91486082D01*
X158109181Y-91202691D01*
X158053117Y-91095659D01*
X157974199Y-90950228D01*
X157873975Y-90769050D01*
X157753995Y-90554776D01*
X157615807Y-90310057D01*
X157460960Y-90037544D01*
X157291005Y-89739887D01*
X157107489Y-89419738D01*
X156911962Y-89079747D01*
X156705973Y-88722566D01*
X156491071Y-88350845D01*
X156268806Y-87967236D01*
X156040725Y-87574389D01*
X155808379Y-87174956D01*
X155573316Y-86771586D01*
X155337086Y-86366932D01*
X155101237Y-85963645D01*
X154867319Y-85564374D01*
X154636881Y-85171772D01*
X154411471Y-84788488D01*
X154192640Y-84417175D01*
X153981935Y-84060483D01*
X153780906Y-83721062D01*
X153591103Y-83401565D01*
X153414073Y-83104641D01*
X153251367Y-82832942D01*
X153104534Y-82589119D01*
X152975122Y-82375822D01*
X152864680Y-82195704D01*
X152774758Y-82051413D01*
X152706904Y-81945603D01*
X152662669Y-81880923D01*
X152659666Y-81876900D01*
X152538862Y-81744985D01*
X152372834Y-81609605D01*
X152159958Y-81469594D01*
X151898606Y-81323787D01*
X151862981Y-81305369D01*
X151516462Y-81127600D01*
X149771791Y-81127600D01*
X148027120Y-81127601D01*
X147756110Y-81266367D01*
X147526719Y-81390472D01*
X147319655Y-81515698D01*
X147142621Y-81636985D01*
X147003317Y-81749276D01*
X146963336Y-81787074D01*
X146909302Y-81850968D01*
X146831341Y-81958622D01*
X146729425Y-82110085D01*
X146603524Y-82305405D01*
X146453610Y-82544631D01*
X146279655Y-82827809D01*
X146081631Y-83154988D01*
X145859509Y-83526217D01*
X145613261Y-83941542D01*
X145342858Y-84401014D01*
X145048272Y-84904678D01*
X144729474Y-85452584D01*
X144386436Y-86044779D01*
X144019130Y-86681312D01*
X143627527Y-87362231D01*
X143211599Y-88087583D01*
X142771316Y-88857416D01*
X142507761Y-89319100D01*
X142309257Y-89667104D01*
X142134387Y-89973885D01*
X141981583Y-90242331D01*
X141849279Y-90475327D01*
X141735909Y-90675760D01*
X141639905Y-90846518D01*
X141559703Y-90990488D01*
X141493736Y-91110555D01*
X141440436Y-91209607D01*
X141398239Y-91290531D01*
X141365577Y-91356213D01*
X141340884Y-91409540D01*
X141322594Y-91453399D01*
X141309140Y-91490677D01*
X141298957Y-91524260D01*
X141290477Y-91557036D01*
X141288066Y-91567000D01*
X141268803Y-91677351D01*
X141253336Y-91823972D01*
X141242216Y-91992437D01*
X141235994Y-92168319D01*
X141235223Y-92337192D01*
X141240452Y-92484629D01*
X141249419Y-92578102D01*
X141277493Y-92737510D01*
X141316977Y-92883440D01*
X141373284Y-93031029D01*
X141451825Y-93195412D01*
X141508003Y-93301301D01*
X141585701Y-93442491D01*
X141687004Y-93624091D01*
X141809919Y-93842632D01*
X141952456Y-94094642D01*
X142112624Y-94376651D01*
X142288431Y-94685189D01*
X142477886Y-95016786D01*
X142678997Y-95367972D01*
X142889774Y-95735275D01*
X143108226Y-96115226D01*
X143332360Y-96504354D01*
X143560185Y-96899190D01*
X143789712Y-97296262D01*
X144018947Y-97692100D01*
X144245900Y-98083235D01*
X144468579Y-98466195D01*
X144666607Y-98806000D01*
X144961412Y-99310919D01*
X145231769Y-99773178D01*
X145478515Y-100194177D01*
X145702490Y-100575315D01*
X145904530Y-100917994D01*
X146085474Y-101223611D01*
X146246161Y-101493568D01*
X146387428Y-101729263D01*
X146510114Y-101932096D01*
X146615056Y-102103468D01*
X146703094Y-102244777D01*
X146775065Y-102357424D01*
X146831806Y-102442809D01*
X146874158Y-102502330D01*
X146897191Y-102531079D01*
X147044056Y-102673917D01*
X147228976Y-102815630D01*
X147439636Y-102948500D01*
X147663720Y-103064807D01*
X147888912Y-103156835D01*
X147903998Y-103162031D01*
X147979277Y-103186540D01*
X148053109Y-103207523D01*
X148129840Y-103225199D01*
X148213820Y-103239785D01*
X148309398Y-103251500D01*
X148420923Y-103260560D01*
X148552744Y-103267185D01*
X148709209Y-103271591D01*
X148894667Y-103273997D01*
X149113468Y-103274620D01*
X149369960Y-103273679D01*
X149668491Y-103271390D01*
X150013412Y-103267973D01*
X150018016Y-103267924D01*
X151509532Y-103252128D01*
X151821416Y-103096123D01*
X152067184Y-102966899D01*
X152268342Y-102846891D01*
X152314937Y-102813973D01*
X152314937Y-100431600D01*
X152146385Y-100406932D01*
X151987797Y-100335067D01*
X151842838Y-100219219D01*
X151715172Y-100062598D01*
X151608463Y-99868416D01*
X151572387Y-99780731D01*
X151508085Y-99549141D01*
X151477825Y-99296967D01*
X151482395Y-99042025D01*
X151522586Y-98802137D01*
X151528123Y-98781365D01*
X151589322Y-98605024D01*
X151671840Y-98456908D01*
X151785904Y-98317258D01*
X151940380Y-98181478D01*
X152100993Y-98094102D01*
X152263740Y-98053755D01*
X152424614Y-98059062D01*
X152579612Y-98108650D01*
X152724728Y-98201144D01*
X152855957Y-98335170D01*
X152920700Y-98434671D01*
X152920700Y-95821500D01*
X152361900Y-95821450D01*
X152177523Y-95821148D01*
X152035875Y-95819823D01*
X151928888Y-95816793D01*
X151848492Y-95811374D01*
X151786618Y-95802883D01*
X151735197Y-95790637D01*
X151686161Y-95773952D01*
X151654636Y-95761572D01*
X151466197Y-95667945D01*
X151264847Y-95536596D01*
X151059803Y-95375532D01*
X150860279Y-95192759D01*
X150675493Y-94996283D01*
X150514660Y-94794110D01*
X150474152Y-94736057D01*
X150297460Y-94447447D01*
X150140100Y-94137241D01*
X150006807Y-93817326D01*
X149902314Y-93499590D01*
X149831355Y-93195922D01*
X149812620Y-93074877D01*
X149804521Y-92981934D01*
X149797986Y-92847596D01*
X149793030Y-92681242D01*
X149789665Y-92492255D01*
X149787908Y-92290014D01*
X149787771Y-92083901D01*
X149789269Y-91883295D01*
X149792416Y-91697579D01*
X149797227Y-91536132D01*
X149803716Y-91408336D01*
X149809989Y-91337734D01*
X149868520Y-91014913D01*
X149965284Y-90676872D01*
X150095633Y-90335629D01*
X150254917Y-90003201D01*
X150438490Y-89691607D01*
X150458223Y-89661727D01*
X150606682Y-89462464D01*
X150782206Y-89265085D01*
X150975664Y-89077567D01*
X151177922Y-88907884D01*
X151379845Y-88764012D01*
X151572301Y-88653926D01*
X151654636Y-88617029D01*
X151706103Y-88597365D01*
X151755128Y-88582547D01*
X151809781Y-88571892D01*
X151878130Y-88564718D01*
X151968246Y-88560341D01*
X152088196Y-88558079D01*
X152246051Y-88557247D01*
X152361900Y-88557151D01*
X152920700Y-88557100D01*
X153147669Y-88666144D01*
X153448629Y-88838676D01*
X153729970Y-89057107D01*
X153990130Y-89319854D01*
X154227543Y-89625333D01*
X154440646Y-89971960D01*
X154444757Y-89979500D01*
X154522000Y-90133080D01*
X154598914Y-90306890D01*
X154672488Y-90491921D01*
X154739710Y-90679161D01*
X154797568Y-90859602D01*
X154843052Y-91024231D01*
X154873149Y-91164040D01*
X154884848Y-91270017D01*
X154884274Y-91294507D01*
X154879584Y-91339691D01*
X154869460Y-91376435D01*
X154848982Y-91405778D01*
X154813229Y-91428761D01*
X154757280Y-91446424D01*
X154676214Y-91459809D01*
X154565110Y-91469955D01*
X154419049Y-91477903D01*
X154233108Y-91484694D01*
X154002367Y-91491368D01*
X153945994Y-91492899D01*
X153746325Y-91499093D01*
X153558688Y-91506412D01*
X153390315Y-91514459D01*
X153248437Y-91522836D01*
X153140286Y-91531145D01*
X153073096Y-91538987D01*
X153060348Y-91541615D01*
X152928703Y-91603092D01*
X152810400Y-91712041D01*
X152716139Y-91851002D01*
X152676813Y-91928820D01*
X152654148Y-91998135D01*
X152643769Y-92078724D01*
X152641300Y-92189300D01*
X152643815Y-92300617D01*
X152654274Y-92381038D01*
X152677055Y-92450342D01*
X152716139Y-92527599D01*
X152819812Y-92677523D01*
X152938831Y-92782311D01*
X153059437Y-92836741D01*
X153109937Y-92844303D01*
X153203993Y-92852550D01*
X153334373Y-92861074D01*
X153493845Y-92869468D01*
X153675177Y-92877327D01*
X153871137Y-92884244D01*
X153942420Y-92886383D01*
X154139833Y-92892808D01*
X154323401Y-92900261D01*
X154486260Y-92908346D01*
X154621548Y-92916671D01*
X154722405Y-92924841D01*
X154781966Y-92932463D01*
X154792406Y-92935158D01*
X154845067Y-92962419D01*
X154880609Y-93000641D01*
X154898766Y-93055394D01*
X154899273Y-93132245D01*
X154881864Y-93236766D01*
X154846275Y-93374525D01*
X154792238Y-93551092D01*
X154758044Y-93656202D01*
X154595784Y-94083168D01*
X154403516Y-94469890D01*
X154180520Y-94817632D01*
X153926077Y-95127659D01*
X153910151Y-95144710D01*
X153682423Y-95364040D01*
X153447519Y-95542715D01*
X153192285Y-95690529D01*
X153147669Y-95712457D01*
X152920700Y-95821500D01*
X152920700Y-98434671D01*
X152969295Y-98509355D01*
X153060736Y-98722324D01*
X153072713Y-98758784D01*
X153134227Y-99025227D01*
X153151555Y-99288788D01*
X153125834Y-99543399D01*
X153058199Y-99782991D01*
X152949788Y-100001496D01*
X152804790Y-100189628D01*
X152674801Y-100309477D01*
X152548705Y-100385984D01*
X152415760Y-100424457D01*
X152314937Y-100431600D01*
X152314937Y-102813973D01*
X152429564Y-102732990D01*
X152555524Y-102622089D01*
X152592038Y-102583525D01*
X152633292Y-102530552D01*
X152696066Y-102439366D01*
X152780623Y-102309531D01*
X152887223Y-102140613D01*
X153016128Y-101932175D01*
X153167598Y-101683781D01*
X153341897Y-101394996D01*
X153539283Y-101065383D01*
X153760020Y-100694507D01*
X154004367Y-100281933D01*
X154272587Y-99827224D01*
X154564941Y-99329944D01*
X154881690Y-98789658D01*
X155223094Y-98205930D01*
X155465941Y-97790000D01*
X155787038Y-97239156D01*
X156091159Y-96716325D01*
X156377593Y-96222752D01*
X156645630Y-95759679D01*
X156894560Y-95328347D01*
X157123671Y-94929998D01*
X157332253Y-94565876D01*
X157519595Y-94237222D01*
X157684988Y-93945278D01*
X157827719Y-93691287D01*
X157947080Y-93476491D01*
X158042358Y-93302132D01*
X158112844Y-93169452D01*
X158143379Y-93109482D01*
X158251196Y-92892086D01*
X158735548Y-92903747D01*
X158943141Y-92909228D01*
X159105607Y-92914924D01*
X159228616Y-92921475D01*
X159317839Y-92929522D01*
X159378948Y-92939706D01*
X159417613Y-92952667D01*
X159439505Y-92969046D01*
X159448452Y-92984269D01*
X159464340Y-93026199D01*
X159492733Y-93102814D01*
X159528804Y-93201050D01*
X159549217Y-93256960D01*
X159719093Y-93654568D01*
X159926627Y-94019172D01*
X160170981Y-94349682D01*
X160451317Y-94645008D01*
X160766798Y-94904056D01*
X160867259Y-94973925D01*
X161130264Y-95136892D01*
X161387259Y-95267205D01*
X161656145Y-95372751D01*
X161954824Y-95461419D01*
X161999667Y-95472842D01*
X162104400Y-95497790D01*
X162196486Y-95515777D01*
X162288049Y-95527943D01*
X162391212Y-95535426D01*
X162518100Y-95539367D01*
X162680835Y-95540906D01*
X162725100Y-95541041D01*
X162941040Y-95539428D01*
X163119658Y-95532276D01*
X163274294Y-95517778D01*
X163418289Y-95494127D01*
X163564983Y-95459517D01*
X163727717Y-95412139D01*
X163766500Y-95399981D01*
X164112822Y-95267629D01*
X164118124Y-95264823D01*
X164118124Y-94447430D01*
X163885636Y-94431114D01*
X163656121Y-94366891D01*
X163433523Y-94254773D01*
X163221787Y-94094771D01*
X163151927Y-94028415D01*
X162975556Y-93821443D01*
X162847430Y-93604016D01*
X162768124Y-93377978D01*
X162738212Y-93145172D01*
X162758268Y-92907442D01*
X162776818Y-92824877D01*
X162867503Y-92570802D01*
X162999774Y-92345865D01*
X163174033Y-92149468D01*
X163296468Y-92046913D01*
X163518891Y-91907739D01*
X163749138Y-91818633D01*
X163985713Y-91779727D01*
X164227122Y-91791150D01*
X164471868Y-91853034D01*
X164649006Y-91928756D01*
X164873052Y-92066572D01*
X165061272Y-92235267D01*
X165211280Y-92429829D01*
X165320685Y-92645244D01*
X165387098Y-92876498D01*
X165408130Y-93118579D01*
X165381391Y-93366473D01*
X165365865Y-93433012D01*
X165309739Y-93600931D01*
X165229746Y-93753720D01*
X165117961Y-93904348D01*
X164998918Y-94033423D01*
X164793982Y-94208837D01*
X164576241Y-94336303D01*
X164349640Y-94415830D01*
X164118124Y-94447430D01*
X164118124Y-95264823D01*
X164438628Y-95095191D01*
X164749356Y-94879286D01*
X165050445Y-94616535D01*
X165090800Y-94577142D01*
X165376584Y-94261252D01*
X165617383Y-93923493D01*
X165812375Y-93565359D01*
X165960739Y-93188349D01*
X166056851Y-92818583D01*
X166081032Y-92653472D01*
X166096386Y-92455760D01*
X166102915Y-92240490D01*
X166100624Y-92022708D01*
%TD*%
M02*
