%TF.GenerationSoftware,KiCad,Pcbnew,(5.1.8)-1*%
%TF.CreationDate,2021-02-05T23:43:27+01:00*%
%TF.ProjectId,C64 Joystick Adapter,43363420-4a6f-4797-9374-69636b204164,rev?*%
%TF.SameCoordinates,Original*%
%TF.FileFunction,Legend,Top*%
%TF.FilePolarity,Positive*%
%FSLAX46Y46*%
G04 Gerber Fmt 4.6, Leading zero omitted, Abs format (unit mm)*
G04 Created by KiCad (PCBNEW (5.1.8)-1) date 2021-02-05 23:43:27*
%MOMM*%
%LPD*%
G01*
G04 APERTURE LIST*
%ADD10C,0.100000*%
%ADD11C,0.120000*%
%ADD12C,0.150000*%
G04 APERTURE END LIST*
D10*
X165499904Y-77743095D02*
X165766571Y-78124047D01*
X165957047Y-77743095D02*
X165957047Y-78543095D01*
X165652285Y-78543095D01*
X165576095Y-78505000D01*
X165538000Y-78466904D01*
X165499904Y-78390714D01*
X165499904Y-78276428D01*
X165538000Y-78200238D01*
X165576095Y-78162142D01*
X165652285Y-78124047D01*
X165957047Y-78124047D01*
X165157047Y-78162142D02*
X164890380Y-78162142D01*
X164776095Y-77743095D02*
X165157047Y-77743095D01*
X165157047Y-78543095D01*
X164776095Y-78543095D01*
X164471333Y-77781190D02*
X164357047Y-77743095D01*
X164166571Y-77743095D01*
X164090380Y-77781190D01*
X164052285Y-77819285D01*
X164014190Y-77895476D01*
X164014190Y-77971666D01*
X164052285Y-78047857D01*
X164090380Y-78085952D01*
X164166571Y-78124047D01*
X164318952Y-78162142D01*
X164395142Y-78200238D01*
X164433238Y-78238333D01*
X164471333Y-78314523D01*
X164471333Y-78390714D01*
X164433238Y-78466904D01*
X164395142Y-78505000D01*
X164318952Y-78543095D01*
X164128476Y-78543095D01*
X164014190Y-78505000D01*
X163671333Y-78162142D02*
X163404666Y-78162142D01*
X163290380Y-77743095D02*
X163671333Y-77743095D01*
X163671333Y-78543095D01*
X163290380Y-78543095D01*
X163061809Y-78543095D02*
X162604666Y-78543095D01*
X162833238Y-77743095D02*
X162833238Y-78543095D01*
X154482619Y-80283095D02*
X154482619Y-81083095D01*
X154215952Y-80511666D01*
X153949285Y-81083095D01*
X153949285Y-80283095D01*
X153415952Y-81083095D02*
X153263571Y-81083095D01*
X153187380Y-81045000D01*
X153111190Y-80968809D01*
X153073095Y-80816428D01*
X153073095Y-80549761D01*
X153111190Y-80397380D01*
X153187380Y-80321190D01*
X153263571Y-80283095D01*
X153415952Y-80283095D01*
X153492142Y-80321190D01*
X153568333Y-80397380D01*
X153606428Y-80549761D01*
X153606428Y-80816428D01*
X153568333Y-80968809D01*
X153492142Y-81045000D01*
X153415952Y-81083095D01*
X152730238Y-80283095D02*
X152730238Y-81083095D01*
X152539761Y-81083095D01*
X152425476Y-81045000D01*
X152349285Y-80968809D01*
X152311190Y-80892619D01*
X152273095Y-80740238D01*
X152273095Y-80625952D01*
X152311190Y-80473571D01*
X152349285Y-80397380D01*
X152425476Y-80321190D01*
X152539761Y-80283095D01*
X152730238Y-80283095D01*
X151930238Y-80702142D02*
X151663571Y-80702142D01*
X151549285Y-80283095D02*
X151930238Y-80283095D01*
X151930238Y-81083095D01*
X151549285Y-81083095D01*
X106394285Y-89179761D02*
X106356190Y-89141666D01*
X106318095Y-89027380D01*
X106318095Y-88951190D01*
X106356190Y-88836904D01*
X106432380Y-88760714D01*
X106508571Y-88722619D01*
X106660952Y-88684523D01*
X106775238Y-88684523D01*
X106927619Y-88722619D01*
X107003809Y-88760714D01*
X107080000Y-88836904D01*
X107118095Y-88951190D01*
X107118095Y-89027380D01*
X107080000Y-89141666D01*
X107041904Y-89179761D01*
X107118095Y-89865476D02*
X107118095Y-89713095D01*
X107080000Y-89636904D01*
X107041904Y-89598809D01*
X106927619Y-89522619D01*
X106775238Y-89484523D01*
X106470476Y-89484523D01*
X106394285Y-89522619D01*
X106356190Y-89560714D01*
X106318095Y-89636904D01*
X106318095Y-89789285D01*
X106356190Y-89865476D01*
X106394285Y-89903571D01*
X106470476Y-89941666D01*
X106660952Y-89941666D01*
X106737142Y-89903571D01*
X106775238Y-89865476D01*
X106813333Y-89789285D01*
X106813333Y-89636904D01*
X106775238Y-89560714D01*
X106737142Y-89522619D01*
X106660952Y-89484523D01*
X106851428Y-90627380D02*
X106318095Y-90627380D01*
X107156190Y-90436904D02*
X106584761Y-90246428D01*
X106584761Y-90741666D01*
X107118095Y-91884523D02*
X106546666Y-91884523D01*
X106432380Y-91846428D01*
X106356190Y-91770238D01*
X106318095Y-91655952D01*
X106318095Y-91579761D01*
X106318095Y-92379761D02*
X106356190Y-92303571D01*
X106394285Y-92265476D01*
X106470476Y-92227380D01*
X106699047Y-92227380D01*
X106775238Y-92265476D01*
X106813333Y-92303571D01*
X106851428Y-92379761D01*
X106851428Y-92494047D01*
X106813333Y-92570238D01*
X106775238Y-92608333D01*
X106699047Y-92646428D01*
X106470476Y-92646428D01*
X106394285Y-92608333D01*
X106356190Y-92570238D01*
X106318095Y-92494047D01*
X106318095Y-92379761D01*
X106851428Y-92913095D02*
X106318095Y-93103571D01*
X106851428Y-93294047D02*
X106318095Y-93103571D01*
X106127619Y-93027380D01*
X106089523Y-92989285D01*
X106051428Y-92913095D01*
X106318095Y-93598809D02*
X107118095Y-93598809D01*
X106318095Y-94055952D02*
X106775238Y-93713095D01*
X107118095Y-94055952D02*
X106660952Y-93598809D01*
X106737142Y-94398809D02*
X106737142Y-94665476D01*
X106318095Y-94779761D02*
X106318095Y-94398809D01*
X107118095Y-94398809D01*
X107118095Y-94779761D01*
X106699047Y-95275000D02*
X106318095Y-95275000D01*
X107118095Y-95008333D02*
X106699047Y-95275000D01*
X107118095Y-95541666D01*
D11*
X146050000Y-92710000D02*
X147320000Y-93980000D01*
X146050000Y-93980000D02*
X146050000Y-92710000D01*
X147320000Y-92710000D02*
X146050000Y-93980000D01*
D12*
X147709333Y-109228380D02*
X147376000Y-108752190D01*
X147137904Y-109228380D02*
X147137904Y-108228380D01*
X147518857Y-108228380D01*
X147614095Y-108276000D01*
X147661714Y-108323619D01*
X147709333Y-108418857D01*
X147709333Y-108561714D01*
X147661714Y-108656952D01*
X147614095Y-108704571D01*
X147518857Y-108752190D01*
X147137904Y-108752190D01*
X148518857Y-109180761D02*
X148423619Y-109228380D01*
X148233142Y-109228380D01*
X148137904Y-109180761D01*
X148090285Y-109085523D01*
X148090285Y-108704571D01*
X148137904Y-108609333D01*
X148233142Y-108561714D01*
X148423619Y-108561714D01*
X148518857Y-108609333D01*
X148566476Y-108704571D01*
X148566476Y-108799809D01*
X148090285Y-108895047D01*
X148899809Y-108561714D02*
X149137904Y-109228380D01*
X149376000Y-108561714D01*
X149756952Y-109228380D02*
X149756952Y-108561714D01*
X149756952Y-108228380D02*
X149709333Y-108276000D01*
X149756952Y-108323619D01*
X149804571Y-108276000D01*
X149756952Y-108228380D01*
X149756952Y-108323619D01*
X150185523Y-109180761D02*
X150280761Y-109228380D01*
X150471238Y-109228380D01*
X150566476Y-109180761D01*
X150614095Y-109085523D01*
X150614095Y-109037904D01*
X150566476Y-108942666D01*
X150471238Y-108895047D01*
X150328380Y-108895047D01*
X150233142Y-108847428D01*
X150185523Y-108752190D01*
X150185523Y-108704571D01*
X150233142Y-108609333D01*
X150328380Y-108561714D01*
X150471238Y-108561714D01*
X150566476Y-108609333D01*
X151042666Y-109228380D02*
X151042666Y-108561714D01*
X151042666Y-108228380D02*
X150995047Y-108276000D01*
X151042666Y-108323619D01*
X151090285Y-108276000D01*
X151042666Y-108228380D01*
X151042666Y-108323619D01*
X151661714Y-109228380D02*
X151566476Y-109180761D01*
X151518857Y-109133142D01*
X151471238Y-109037904D01*
X151471238Y-108752190D01*
X151518857Y-108656952D01*
X151566476Y-108609333D01*
X151661714Y-108561714D01*
X151804571Y-108561714D01*
X151899809Y-108609333D01*
X151947428Y-108656952D01*
X151995047Y-108752190D01*
X151995047Y-109037904D01*
X151947428Y-109133142D01*
X151899809Y-109180761D01*
X151804571Y-109228380D01*
X151661714Y-109228380D01*
X152423619Y-108561714D02*
X152423619Y-109228380D01*
X152423619Y-108656952D02*
X152471238Y-108609333D01*
X152566476Y-108561714D01*
X152709333Y-108561714D01*
X152804571Y-108609333D01*
X152852190Y-108704571D01*
X152852190Y-109228380D01*
X154423619Y-108704571D02*
X154566476Y-108752190D01*
X154614095Y-108799809D01*
X154661714Y-108895047D01*
X154661714Y-109037904D01*
X154614095Y-109133142D01*
X154566476Y-109180761D01*
X154471238Y-109228380D01*
X154090285Y-109228380D01*
X154090285Y-108228380D01*
X154423619Y-108228380D01*
X154518857Y-108276000D01*
X154566476Y-108323619D01*
X154614095Y-108418857D01*
X154614095Y-108514095D01*
X154566476Y-108609333D01*
X154518857Y-108656952D01*
X154423619Y-108704571D01*
X154090285Y-108704571D01*
X145471238Y-110211714D02*
X145471238Y-111021238D01*
X145423619Y-111116476D01*
X145376000Y-111164095D01*
X145280761Y-111211714D01*
X145137904Y-111211714D01*
X145042666Y-111164095D01*
X145471238Y-110830761D02*
X145376000Y-110878380D01*
X145185523Y-110878380D01*
X145090285Y-110830761D01*
X145042666Y-110783142D01*
X144995047Y-110687904D01*
X144995047Y-110402190D01*
X145042666Y-110306952D01*
X145090285Y-110259333D01*
X145185523Y-110211714D01*
X145376000Y-110211714D01*
X145471238Y-110259333D01*
X145947428Y-110878380D02*
X145947428Y-110211714D01*
X145947428Y-109878380D02*
X145899809Y-109926000D01*
X145947428Y-109973619D01*
X145995047Y-109926000D01*
X145947428Y-109878380D01*
X145947428Y-109973619D01*
X146280761Y-110211714D02*
X146661714Y-110211714D01*
X146423619Y-109878380D02*
X146423619Y-110735523D01*
X146471238Y-110830761D01*
X146566476Y-110878380D01*
X146661714Y-110878380D01*
X146995047Y-110878380D02*
X146995047Y-109878380D01*
X147423619Y-110878380D02*
X147423619Y-110354571D01*
X147376000Y-110259333D01*
X147280761Y-110211714D01*
X147137904Y-110211714D01*
X147042666Y-110259333D01*
X146995047Y-110306952D01*
X148328380Y-110211714D02*
X148328380Y-110878380D01*
X147899809Y-110211714D02*
X147899809Y-110735523D01*
X147947428Y-110830761D01*
X148042666Y-110878380D01*
X148185523Y-110878380D01*
X148280761Y-110830761D01*
X148328380Y-110783142D01*
X148804571Y-110878380D02*
X148804571Y-109878380D01*
X148804571Y-110259333D02*
X148899809Y-110211714D01*
X149090285Y-110211714D01*
X149185523Y-110259333D01*
X149233142Y-110306952D01*
X149280761Y-110402190D01*
X149280761Y-110687904D01*
X149233142Y-110783142D01*
X149185523Y-110830761D01*
X149090285Y-110878380D01*
X148899809Y-110878380D01*
X148804571Y-110830761D01*
X149709333Y-110783142D02*
X149756952Y-110830761D01*
X149709333Y-110878380D01*
X149661714Y-110830761D01*
X149709333Y-110783142D01*
X149709333Y-110878380D01*
X150614095Y-110830761D02*
X150518857Y-110878380D01*
X150328380Y-110878380D01*
X150233142Y-110830761D01*
X150185523Y-110783142D01*
X150137904Y-110687904D01*
X150137904Y-110402190D01*
X150185523Y-110306952D01*
X150233142Y-110259333D01*
X150328380Y-110211714D01*
X150518857Y-110211714D01*
X150614095Y-110259333D01*
X151185523Y-110878380D02*
X151090285Y-110830761D01*
X151042666Y-110783142D01*
X150995047Y-110687904D01*
X150995047Y-110402190D01*
X151042666Y-110306952D01*
X151090285Y-110259333D01*
X151185523Y-110211714D01*
X151328380Y-110211714D01*
X151423619Y-110259333D01*
X151471238Y-110306952D01*
X151518857Y-110402190D01*
X151518857Y-110687904D01*
X151471238Y-110783142D01*
X151423619Y-110830761D01*
X151328380Y-110878380D01*
X151185523Y-110878380D01*
X151947428Y-110878380D02*
X151947428Y-110211714D01*
X151947428Y-110306952D02*
X151995047Y-110259333D01*
X152090285Y-110211714D01*
X152233142Y-110211714D01*
X152328380Y-110259333D01*
X152376000Y-110354571D01*
X152376000Y-110878380D01*
X152376000Y-110354571D02*
X152423619Y-110259333D01*
X152518857Y-110211714D01*
X152661714Y-110211714D01*
X152756952Y-110259333D01*
X152804571Y-110354571D01*
X152804571Y-110878380D01*
X153995047Y-109830761D02*
X153137904Y-111116476D01*
X154185523Y-110211714D02*
X154566476Y-110211714D01*
X154328380Y-109878380D02*
X154328380Y-110735523D01*
X154376000Y-110830761D01*
X154471238Y-110878380D01*
X154566476Y-110878380D01*
X155280761Y-110830761D02*
X155185523Y-110878380D01*
X154995047Y-110878380D01*
X154899809Y-110830761D01*
X154852190Y-110735523D01*
X154852190Y-110354571D01*
X154899809Y-110259333D01*
X154995047Y-110211714D01*
X155185523Y-110211714D01*
X155280761Y-110259333D01*
X155328380Y-110354571D01*
X155328380Y-110449809D01*
X154852190Y-110545047D01*
X155756952Y-110878380D02*
X155756952Y-109878380D01*
X155756952Y-110259333D02*
X155852190Y-110211714D01*
X156042666Y-110211714D01*
X156137904Y-110259333D01*
X156185523Y-110306952D01*
X156233142Y-110402190D01*
X156233142Y-110687904D01*
X156185523Y-110783142D01*
X156137904Y-110830761D01*
X156042666Y-110878380D01*
X155852190Y-110878380D01*
X155756952Y-110830761D01*
X156804571Y-110878380D02*
X156709333Y-110830761D01*
X156661714Y-110735523D01*
X156661714Y-109878380D01*
X145971238Y-104688142D02*
X145923619Y-104735761D01*
X145780761Y-104783380D01*
X145685523Y-104783380D01*
X145542666Y-104735761D01*
X145447428Y-104640523D01*
X145399809Y-104545285D01*
X145352190Y-104354809D01*
X145352190Y-104211952D01*
X145399809Y-104021476D01*
X145447428Y-103926238D01*
X145542666Y-103831000D01*
X145685523Y-103783380D01*
X145780761Y-103783380D01*
X145923619Y-103831000D01*
X145971238Y-103878619D01*
X146542666Y-104783380D02*
X146447428Y-104735761D01*
X146399809Y-104688142D01*
X146352190Y-104592904D01*
X146352190Y-104307190D01*
X146399809Y-104211952D01*
X146447428Y-104164333D01*
X146542666Y-104116714D01*
X146685523Y-104116714D01*
X146780761Y-104164333D01*
X146828380Y-104211952D01*
X146876000Y-104307190D01*
X146876000Y-104592904D01*
X146828380Y-104688142D01*
X146780761Y-104735761D01*
X146685523Y-104783380D01*
X146542666Y-104783380D01*
X147304571Y-104783380D02*
X147304571Y-104116714D01*
X147304571Y-104211952D02*
X147352190Y-104164333D01*
X147447428Y-104116714D01*
X147590285Y-104116714D01*
X147685523Y-104164333D01*
X147733142Y-104259571D01*
X147733142Y-104783380D01*
X147733142Y-104259571D02*
X147780761Y-104164333D01*
X147876000Y-104116714D01*
X148018857Y-104116714D01*
X148114095Y-104164333D01*
X148161714Y-104259571D01*
X148161714Y-104783380D01*
X148637904Y-104783380D02*
X148637904Y-104116714D01*
X148637904Y-104211952D02*
X148685523Y-104164333D01*
X148780761Y-104116714D01*
X148923619Y-104116714D01*
X149018857Y-104164333D01*
X149066476Y-104259571D01*
X149066476Y-104783380D01*
X149066476Y-104259571D02*
X149114095Y-104164333D01*
X149209333Y-104116714D01*
X149352190Y-104116714D01*
X149447428Y-104164333D01*
X149495047Y-104259571D01*
X149495047Y-104783380D01*
X150114095Y-104783380D02*
X150018857Y-104735761D01*
X149971238Y-104688142D01*
X149923619Y-104592904D01*
X149923619Y-104307190D01*
X149971238Y-104211952D01*
X150018857Y-104164333D01*
X150114095Y-104116714D01*
X150256952Y-104116714D01*
X150352190Y-104164333D01*
X150399809Y-104211952D01*
X150447428Y-104307190D01*
X150447428Y-104592904D01*
X150399809Y-104688142D01*
X150352190Y-104735761D01*
X150256952Y-104783380D01*
X150114095Y-104783380D01*
X151304571Y-104783380D02*
X151304571Y-103783380D01*
X151304571Y-104735761D02*
X151209333Y-104783380D01*
X151018857Y-104783380D01*
X150923619Y-104735761D01*
X150876000Y-104688142D01*
X150828380Y-104592904D01*
X150828380Y-104307190D01*
X150876000Y-104211952D01*
X150923619Y-104164333D01*
X151018857Y-104116714D01*
X151209333Y-104116714D01*
X151304571Y-104164333D01*
X151923619Y-104783380D02*
X151828380Y-104735761D01*
X151780761Y-104688142D01*
X151733142Y-104592904D01*
X151733142Y-104307190D01*
X151780761Y-104211952D01*
X151828380Y-104164333D01*
X151923619Y-104116714D01*
X152066476Y-104116714D01*
X152161714Y-104164333D01*
X152209333Y-104211952D01*
X152256952Y-104307190D01*
X152256952Y-104592904D01*
X152209333Y-104688142D01*
X152161714Y-104735761D01*
X152066476Y-104783380D01*
X151923619Y-104783380D01*
X152685523Y-104783380D02*
X152685523Y-104116714D01*
X152685523Y-104307190D02*
X152733142Y-104211952D01*
X152780761Y-104164333D01*
X152876000Y-104116714D01*
X152971238Y-104116714D01*
X153685523Y-104735761D02*
X153590285Y-104783380D01*
X153399809Y-104783380D01*
X153304571Y-104735761D01*
X153256952Y-104640523D01*
X153256952Y-104259571D01*
X153304571Y-104164333D01*
X153399809Y-104116714D01*
X153590285Y-104116714D01*
X153685523Y-104164333D01*
X153733142Y-104259571D01*
X153733142Y-104354809D01*
X153256952Y-104450047D01*
X155352190Y-103783380D02*
X155161714Y-103783380D01*
X155066476Y-103831000D01*
X155018857Y-103878619D01*
X154923619Y-104021476D01*
X154876000Y-104211952D01*
X154876000Y-104592904D01*
X154923619Y-104688142D01*
X154971238Y-104735761D01*
X155066476Y-104783380D01*
X155256952Y-104783380D01*
X155352190Y-104735761D01*
X155399809Y-104688142D01*
X155447428Y-104592904D01*
X155447428Y-104354809D01*
X155399809Y-104259571D01*
X155352190Y-104211952D01*
X155256952Y-104164333D01*
X155066476Y-104164333D01*
X154971238Y-104211952D01*
X154923619Y-104259571D01*
X154876000Y-104354809D01*
X156304571Y-104116714D02*
X156304571Y-104783380D01*
X156066476Y-103735761D02*
X155828380Y-104450047D01*
X156447428Y-104450047D01*
X145233142Y-105433380D02*
X145233142Y-106147666D01*
X145185523Y-106290523D01*
X145090285Y-106385761D01*
X144947428Y-106433380D01*
X144852190Y-106433380D01*
X145852190Y-106433380D02*
X145756952Y-106385761D01*
X145709333Y-106338142D01*
X145661714Y-106242904D01*
X145661714Y-105957190D01*
X145709333Y-105861952D01*
X145756952Y-105814333D01*
X145852190Y-105766714D01*
X145995047Y-105766714D01*
X146090285Y-105814333D01*
X146137904Y-105861952D01*
X146185523Y-105957190D01*
X146185523Y-106242904D01*
X146137904Y-106338142D01*
X146090285Y-106385761D01*
X145995047Y-106433380D01*
X145852190Y-106433380D01*
X146518857Y-105766714D02*
X146756952Y-106433380D01*
X146995047Y-105766714D02*
X146756952Y-106433380D01*
X146661714Y-106671476D01*
X146614095Y-106719095D01*
X146518857Y-106766714D01*
X147328380Y-106385761D02*
X147423619Y-106433380D01*
X147614095Y-106433380D01*
X147709333Y-106385761D01*
X147756952Y-106290523D01*
X147756952Y-106242904D01*
X147709333Y-106147666D01*
X147614095Y-106100047D01*
X147471238Y-106100047D01*
X147376000Y-106052428D01*
X147328380Y-105957190D01*
X147328380Y-105909571D01*
X147376000Y-105814333D01*
X147471238Y-105766714D01*
X147614095Y-105766714D01*
X147709333Y-105814333D01*
X148042666Y-105766714D02*
X148423619Y-105766714D01*
X148185523Y-105433380D02*
X148185523Y-106290523D01*
X148233142Y-106385761D01*
X148328380Y-106433380D01*
X148423619Y-106433380D01*
X148756952Y-106433380D02*
X148756952Y-105766714D01*
X148756952Y-105433380D02*
X148709333Y-105481000D01*
X148756952Y-105528619D01*
X148804571Y-105481000D01*
X148756952Y-105433380D01*
X148756952Y-105528619D01*
X149661714Y-106385761D02*
X149566476Y-106433380D01*
X149376000Y-106433380D01*
X149280761Y-106385761D01*
X149233142Y-106338142D01*
X149185523Y-106242904D01*
X149185523Y-105957190D01*
X149233142Y-105861952D01*
X149280761Y-105814333D01*
X149376000Y-105766714D01*
X149566476Y-105766714D01*
X149661714Y-105814333D01*
X150090285Y-106433380D02*
X150090285Y-105433380D01*
X150185523Y-106052428D02*
X150471238Y-106433380D01*
X150471238Y-105766714D02*
X150090285Y-106147666D01*
X151614095Y-106147666D02*
X152090285Y-106147666D01*
X151518857Y-106433380D02*
X151852190Y-105433380D01*
X152185523Y-106433380D01*
X152947428Y-106433380D02*
X152947428Y-105433380D01*
X152947428Y-106385761D02*
X152852190Y-106433380D01*
X152661714Y-106433380D01*
X152566476Y-106385761D01*
X152518857Y-106338142D01*
X152471238Y-106242904D01*
X152471238Y-105957190D01*
X152518857Y-105861952D01*
X152566476Y-105814333D01*
X152661714Y-105766714D01*
X152852190Y-105766714D01*
X152947428Y-105814333D01*
X153852190Y-106433380D02*
X153852190Y-105909571D01*
X153804571Y-105814333D01*
X153709333Y-105766714D01*
X153518857Y-105766714D01*
X153423619Y-105814333D01*
X153852190Y-106385761D02*
X153756952Y-106433380D01*
X153518857Y-106433380D01*
X153423619Y-106385761D01*
X153376000Y-106290523D01*
X153376000Y-106195285D01*
X153423619Y-106100047D01*
X153518857Y-106052428D01*
X153756952Y-106052428D01*
X153852190Y-106004809D01*
X154328380Y-105766714D02*
X154328380Y-106766714D01*
X154328380Y-105814333D02*
X154423619Y-105766714D01*
X154614095Y-105766714D01*
X154709333Y-105814333D01*
X154756952Y-105861952D01*
X154804571Y-105957190D01*
X154804571Y-106242904D01*
X154756952Y-106338142D01*
X154709333Y-106385761D01*
X154614095Y-106433380D01*
X154423619Y-106433380D01*
X154328380Y-106385761D01*
X155090285Y-105766714D02*
X155471238Y-105766714D01*
X155233142Y-105433380D02*
X155233142Y-106290523D01*
X155280761Y-106385761D01*
X155376000Y-106433380D01*
X155471238Y-106433380D01*
X156185523Y-106385761D02*
X156090285Y-106433380D01*
X155899809Y-106433380D01*
X155804571Y-106385761D01*
X155756952Y-106290523D01*
X155756952Y-105909571D01*
X155804571Y-105814333D01*
X155899809Y-105766714D01*
X156090285Y-105766714D01*
X156185523Y-105814333D01*
X156233142Y-105909571D01*
X156233142Y-106004809D01*
X155756952Y-106100047D01*
X156661714Y-106433380D02*
X156661714Y-105766714D01*
X156661714Y-105957190D02*
X156709333Y-105861952D01*
X156756952Y-105814333D01*
X156852190Y-105766714D01*
X156947428Y-105766714D01*
D10*
X121170952Y-98786904D02*
X121170952Y-97986904D01*
X121475714Y-97986904D01*
X121551904Y-98025000D01*
X121590000Y-98063095D01*
X121628095Y-98139285D01*
X121628095Y-98253571D01*
X121590000Y-98329761D01*
X121551904Y-98367857D01*
X121475714Y-98405952D01*
X121170952Y-98405952D01*
X122123333Y-97986904D02*
X122275714Y-97986904D01*
X122351904Y-98025000D01*
X122428095Y-98101190D01*
X122466190Y-98253571D01*
X122466190Y-98520238D01*
X122428095Y-98672619D01*
X122351904Y-98748809D01*
X122275714Y-98786904D01*
X122123333Y-98786904D01*
X122047142Y-98748809D01*
X121970952Y-98672619D01*
X121932857Y-98520238D01*
X121932857Y-98253571D01*
X121970952Y-98101190D01*
X122047142Y-98025000D01*
X122123333Y-97986904D01*
X123266190Y-98786904D02*
X122999523Y-98405952D01*
X122809047Y-98786904D02*
X122809047Y-97986904D01*
X123113809Y-97986904D01*
X123190000Y-98025000D01*
X123228095Y-98063095D01*
X123266190Y-98139285D01*
X123266190Y-98253571D01*
X123228095Y-98329761D01*
X123190000Y-98367857D01*
X123113809Y-98405952D01*
X122809047Y-98405952D01*
X123494761Y-97986904D02*
X123951904Y-97986904D01*
X123723333Y-98786904D02*
X123723333Y-97986904D01*
X124790000Y-98063095D02*
X124828095Y-98025000D01*
X124904285Y-97986904D01*
X125094761Y-97986904D01*
X125170952Y-98025000D01*
X125209047Y-98063095D01*
X125247142Y-98139285D01*
X125247142Y-98215476D01*
X125209047Y-98329761D01*
X124751904Y-98786904D01*
X125247142Y-98786904D01*
X125209047Y-85363095D02*
X125209047Y-86163095D01*
X124904285Y-86163095D01*
X124828095Y-86125000D01*
X124790000Y-86086904D01*
X124751904Y-86010714D01*
X124751904Y-85896428D01*
X124790000Y-85820238D01*
X124828095Y-85782142D01*
X124904285Y-85744047D01*
X125209047Y-85744047D01*
X124256666Y-86163095D02*
X124104285Y-86163095D01*
X124028095Y-86125000D01*
X123951904Y-86048809D01*
X123913809Y-85896428D01*
X123913809Y-85629761D01*
X123951904Y-85477380D01*
X124028095Y-85401190D01*
X124104285Y-85363095D01*
X124256666Y-85363095D01*
X124332857Y-85401190D01*
X124409047Y-85477380D01*
X124447142Y-85629761D01*
X124447142Y-85896428D01*
X124409047Y-86048809D01*
X124332857Y-86125000D01*
X124256666Y-86163095D01*
X123113809Y-85363095D02*
X123380476Y-85744047D01*
X123570952Y-85363095D02*
X123570952Y-86163095D01*
X123266190Y-86163095D01*
X123190000Y-86125000D01*
X123151904Y-86086904D01*
X123113809Y-86010714D01*
X123113809Y-85896428D01*
X123151904Y-85820238D01*
X123190000Y-85782142D01*
X123266190Y-85744047D01*
X123570952Y-85744047D01*
X122885238Y-86163095D02*
X122428095Y-86163095D01*
X122656666Y-85363095D02*
X122656666Y-86163095D01*
X121132857Y-85363095D02*
X121590000Y-85363095D01*
X121361428Y-85363095D02*
X121361428Y-86163095D01*
X121437619Y-86048809D01*
X121513809Y-85972619D01*
X121590000Y-85934523D01*
D11*
%TO.C,J1*%
X138805000Y-72250000D02*
X138805000Y-84590000D01*
X138805000Y-84590000D02*
X107835000Y-84590000D01*
X107835000Y-84590000D02*
X107835000Y-72250000D01*
%TO.C,SW1*%
X150860000Y-79160000D02*
X155360000Y-79160000D01*
X149610000Y-75160000D02*
X149610000Y-76660000D01*
X155360000Y-72660000D02*
X150860000Y-72660000D01*
X156610000Y-76660000D02*
X156610000Y-75160000D01*
%TO.C,SW2*%
X162475000Y-75265000D02*
X165875000Y-75265000D01*
X160835000Y-75265000D02*
X161375000Y-75265000D01*
X168035000Y-78095000D02*
X168035000Y-78605000D01*
X167515000Y-78605000D02*
X168035000Y-78605000D01*
X167515000Y-78095000D02*
X167515000Y-78605000D01*
X166975000Y-75265000D02*
X167515000Y-75265000D01*
X160315000Y-78095000D02*
X160315000Y-78605000D01*
X160835000Y-78095000D02*
X160835000Y-78605000D01*
X167515000Y-75265000D02*
X167515000Y-75495000D01*
X160315000Y-71595000D02*
X160315000Y-75495000D01*
X160315000Y-78605000D02*
X160835000Y-78605000D01*
X168035000Y-71595000D02*
X168035000Y-75495000D01*
X160315000Y-71595000D02*
X168035000Y-71595000D01*
X160835000Y-75265000D02*
X160835000Y-75495000D01*
%TO.C,R4*%
X131540000Y-91540000D02*
X131540000Y-88800000D01*
X131540000Y-88800000D02*
X125000000Y-88800000D01*
X125000000Y-88800000D02*
X125000000Y-91540000D01*
X125000000Y-91540000D02*
X131540000Y-91540000D01*
X132310000Y-90170000D02*
X131540000Y-90170000D01*
X124230000Y-90170000D02*
X125000000Y-90170000D01*
D12*
%TO.C,A1*%
X142875000Y-81915000D02*
X142875000Y-102235000D01*
X177165000Y-81915000D02*
X142875000Y-81915000D01*
X142875000Y-102235000D02*
X177165000Y-102235000D01*
X178435000Y-88265000D02*
X178435000Y-95885000D01*
X177165000Y-88265000D02*
X178435000Y-88265000D01*
X177165000Y-81915000D02*
X177165000Y-88265000D01*
X177165000Y-95885000D02*
X177165000Y-102235000D01*
X178435000Y-95885000D02*
X177165000Y-95885000D01*
X144145000Y-93980000D02*
X145415000Y-93980000D01*
X144145000Y-92710000D02*
X144145000Y-93980000D01*
X145415000Y-92710000D02*
X144145000Y-92710000D01*
X145415000Y-93980000D02*
X145415000Y-92710000D01*
X147320000Y-92710000D02*
X146050000Y-92710000D01*
X147320000Y-93980000D02*
X147320000Y-92710000D01*
X146050000Y-93980000D02*
X147320000Y-93980000D01*
X146050000Y-92710000D02*
X146050000Y-93980000D01*
X177165000Y-84455000D02*
X175895000Y-84455000D01*
X174625000Y-84455000D02*
X173355000Y-84455000D01*
X172085000Y-84455000D02*
X170815000Y-84455000D01*
X169545000Y-84455000D02*
X168275000Y-84455000D01*
X167005000Y-84455000D02*
X165735000Y-84455000D01*
X164465000Y-84455000D02*
X163195000Y-84455000D01*
X161925000Y-84455000D02*
X160655000Y-84455000D01*
X159385000Y-84455000D02*
X158115000Y-84455000D01*
X156845000Y-84455000D02*
X155575000Y-84455000D01*
X154305000Y-84455000D02*
X153035000Y-84455000D01*
X151765000Y-84455000D02*
X150495000Y-84455000D01*
X149225000Y-84455000D02*
X147955000Y-84455000D01*
X146685000Y-84455000D02*
X145415000Y-84455000D01*
X144145000Y-84455000D02*
X142875000Y-84455000D01*
D11*
%TO.C,R5*%
X124230000Y-93980000D02*
X125000000Y-93980000D01*
X132310000Y-93980000D02*
X131540000Y-93980000D01*
X125000000Y-95350000D02*
X131540000Y-95350000D01*
X125000000Y-92610000D02*
X125000000Y-95350000D01*
X131540000Y-92610000D02*
X125000000Y-92610000D01*
X131540000Y-95350000D02*
X131540000Y-92610000D01*
%TO.C,J2*%
X138785000Y-99610000D02*
X138785000Y-111950000D01*
X107815000Y-99610000D02*
X138785000Y-99610000D01*
X107815000Y-111950000D02*
X107815000Y-99610000D01*
%TO.C,R1*%
X110395000Y-86895000D02*
X110395000Y-89635000D01*
X110395000Y-89635000D02*
X116935000Y-89635000D01*
X116935000Y-89635000D02*
X116935000Y-86895000D01*
X116935000Y-86895000D02*
X110395000Y-86895000D01*
X109625000Y-88265000D02*
X110395000Y-88265000D01*
X117705000Y-88265000D02*
X116935000Y-88265000D01*
%TO.C,R2*%
X110395000Y-90705000D02*
X110395000Y-93445000D01*
X110395000Y-93445000D02*
X116935000Y-93445000D01*
X116935000Y-93445000D02*
X116935000Y-90705000D01*
X116935000Y-90705000D02*
X110395000Y-90705000D01*
X109625000Y-92075000D02*
X110395000Y-92075000D01*
X117705000Y-92075000D02*
X116935000Y-92075000D01*
%TO.C,R3*%
X117705000Y-95885000D02*
X116935000Y-95885000D01*
X109625000Y-95885000D02*
X110395000Y-95885000D01*
X116935000Y-94515000D02*
X110395000Y-94515000D01*
X116935000Y-97255000D02*
X116935000Y-94515000D01*
X110395000Y-97255000D02*
X116935000Y-97255000D01*
X110395000Y-94515000D02*
X110395000Y-97255000D01*
%TO.C,D1*%
X166965000Y-108585000D02*
G75*
G03*
X166965000Y-108585000I-2500000J0D01*
G01*
X161905000Y-107040000D02*
X161905000Y-110130000D01*
X167455000Y-108585462D02*
G75*
G03*
X161905000Y-107040170I-2990000J462D01*
G01*
X167455000Y-108584538D02*
G75*
G02*
X161905000Y-110129830I-2990000J-462D01*
G01*
%TO.C,J3*%
X97809562Y-87308500D02*
X97809562Y-86808500D01*
X97809562Y-86808500D02*
X98242575Y-87058500D01*
X98242575Y-87058500D02*
X97809562Y-87308500D01*
X96040000Y-81395000D02*
X98580000Y-81395000D01*
X96040000Y-81395000D02*
X96040000Y-83935000D01*
X96290000Y-81645000D02*
X105640000Y-81645000D01*
X96290000Y-102505000D02*
X96290000Y-81645000D01*
X105640000Y-102505000D02*
X96290000Y-102505000D01*
X105640000Y-81645000D02*
X105640000Y-102505000D01*
D10*
X96540000Y-102255000D02*
X97090000Y-101695000D01*
X96540000Y-81895000D02*
X97090000Y-82435000D01*
X105390000Y-102255000D02*
X104840000Y-101695000D01*
X105390000Y-81895000D02*
X104840000Y-82435000D01*
X104840000Y-101695000D02*
X97090000Y-101695000D01*
X105390000Y-102255000D02*
X96540000Y-102255000D01*
X104840000Y-82435000D02*
X97090000Y-82435000D01*
X105390000Y-81895000D02*
X96540000Y-81895000D01*
X97090000Y-94325000D02*
X96540000Y-94325000D01*
X97090000Y-89825000D02*
X96540000Y-89825000D01*
X97090000Y-94325000D02*
X97090000Y-101695000D01*
X97090000Y-82435000D02*
X97090000Y-89825000D01*
X96540000Y-81895000D02*
X96540000Y-102255000D01*
X104840000Y-82435000D02*
X104840000Y-101695000D01*
X105390000Y-81895000D02*
X105390000Y-102255000D01*
%TO.C,J1*%
D12*
X131066666Y-82182380D02*
X131066666Y-82896666D01*
X131019047Y-83039523D01*
X130923809Y-83134761D01*
X130780952Y-83182380D01*
X130685714Y-83182380D01*
X132066666Y-83182380D02*
X131495238Y-83182380D01*
X131780952Y-83182380D02*
X131780952Y-82182380D01*
X131685714Y-82325238D01*
X131590476Y-82420476D01*
X131495238Y-82468095D01*
%TO.C,SW1*%
D10*
X152043333Y-71443809D02*
X152157619Y-71481904D01*
X152348095Y-71481904D01*
X152424285Y-71443809D01*
X152462380Y-71405714D01*
X152500476Y-71329523D01*
X152500476Y-71253333D01*
X152462380Y-71177142D01*
X152424285Y-71139047D01*
X152348095Y-71100952D01*
X152195714Y-71062857D01*
X152119523Y-71024761D01*
X152081428Y-70986666D01*
X152043333Y-70910476D01*
X152043333Y-70834285D01*
X152081428Y-70758095D01*
X152119523Y-70720000D01*
X152195714Y-70681904D01*
X152386190Y-70681904D01*
X152500476Y-70720000D01*
X152767142Y-70681904D02*
X152957619Y-71481904D01*
X153110000Y-70910476D01*
X153262380Y-71481904D01*
X153452857Y-70681904D01*
X154176666Y-71481904D02*
X153719523Y-71481904D01*
X153948095Y-71481904D02*
X153948095Y-70681904D01*
X153871904Y-70796190D01*
X153795714Y-70872380D01*
X153719523Y-70910476D01*
%TO.C,R4*%
D12*
X126436380Y-90336666D02*
X125960190Y-90670000D01*
X126436380Y-90908095D02*
X125436380Y-90908095D01*
X125436380Y-90527142D01*
X125484000Y-90431904D01*
X125531619Y-90384285D01*
X125626857Y-90336666D01*
X125769714Y-90336666D01*
X125864952Y-90384285D01*
X125912571Y-90431904D01*
X125960190Y-90527142D01*
X125960190Y-90908095D01*
X125769714Y-89479523D02*
X126436380Y-89479523D01*
X125388761Y-89717619D02*
X126103047Y-89955714D01*
X126103047Y-89336666D01*
X127293904Y-89717619D02*
X127341523Y-89670000D01*
X127436761Y-89622380D01*
X127674857Y-89622380D01*
X127770095Y-89670000D01*
X127817714Y-89717619D01*
X127865333Y-89812857D01*
X127865333Y-89908095D01*
X127817714Y-90050952D01*
X127246285Y-90622380D01*
X127865333Y-90622380D01*
X128246285Y-89717619D02*
X128293904Y-89670000D01*
X128389142Y-89622380D01*
X128627238Y-89622380D01*
X128722476Y-89670000D01*
X128770095Y-89717619D01*
X128817714Y-89812857D01*
X128817714Y-89908095D01*
X128770095Y-90050952D01*
X128198666Y-90622380D01*
X128817714Y-90622380D01*
X129436761Y-89622380D02*
X129532000Y-89622380D01*
X129627238Y-89670000D01*
X129674857Y-89717619D01*
X129722476Y-89812857D01*
X129770095Y-90003333D01*
X129770095Y-90241428D01*
X129722476Y-90431904D01*
X129674857Y-90527142D01*
X129627238Y-90574761D01*
X129532000Y-90622380D01*
X129436761Y-90622380D01*
X129341523Y-90574761D01*
X129293904Y-90527142D01*
X129246285Y-90431904D01*
X129198666Y-90241428D01*
X129198666Y-90003333D01*
X129246285Y-89812857D01*
X129293904Y-89717619D01*
X129341523Y-89670000D01*
X129436761Y-89622380D01*
X130198666Y-90622380D02*
X130198666Y-89622380D01*
X130770095Y-90622380D02*
X130341523Y-90050952D01*
X130770095Y-89622380D02*
X130198666Y-90193809D01*
%TO.C,A1*%
X158670714Y-93511666D02*
X159146904Y-93511666D01*
X158575476Y-93797380D02*
X158908809Y-92797380D01*
X159242142Y-93797380D01*
X160099285Y-93797380D02*
X159527857Y-93797380D01*
X159813571Y-93797380D02*
X159813571Y-92797380D01*
X159718333Y-92940238D01*
X159623095Y-93035476D01*
X159527857Y-93083095D01*
X152765952Y-90971666D02*
X153242142Y-90971666D01*
X152670714Y-91257380D02*
X153004047Y-90257380D01*
X153337380Y-91257380D01*
X153670714Y-91257380D02*
X153670714Y-90590714D01*
X153670714Y-90781190D02*
X153718333Y-90685952D01*
X153765952Y-90638333D01*
X153861190Y-90590714D01*
X153956428Y-90590714D01*
X154718333Y-91257380D02*
X154718333Y-90257380D01*
X154718333Y-91209761D02*
X154623095Y-91257380D01*
X154432619Y-91257380D01*
X154337380Y-91209761D01*
X154289761Y-91162142D01*
X154242142Y-91066904D01*
X154242142Y-90781190D01*
X154289761Y-90685952D01*
X154337380Y-90638333D01*
X154432619Y-90590714D01*
X154623095Y-90590714D01*
X154718333Y-90638333D01*
X155623095Y-90590714D02*
X155623095Y-91257380D01*
X155194523Y-90590714D02*
X155194523Y-91114523D01*
X155242142Y-91209761D01*
X155337380Y-91257380D01*
X155480238Y-91257380D01*
X155575476Y-91209761D01*
X155623095Y-91162142D01*
X156099285Y-91257380D02*
X156099285Y-90590714D01*
X156099285Y-90257380D02*
X156051666Y-90305000D01*
X156099285Y-90352619D01*
X156146904Y-90305000D01*
X156099285Y-90257380D01*
X156099285Y-90352619D01*
X156575476Y-90590714D02*
X156575476Y-91257380D01*
X156575476Y-90685952D02*
X156623095Y-90638333D01*
X156718333Y-90590714D01*
X156861190Y-90590714D01*
X156956428Y-90638333D01*
X157004047Y-90733571D01*
X157004047Y-91257380D01*
X157623095Y-91257380D02*
X157527857Y-91209761D01*
X157480238Y-91162142D01*
X157432619Y-91066904D01*
X157432619Y-90781190D01*
X157480238Y-90685952D01*
X157527857Y-90638333D01*
X157623095Y-90590714D01*
X157765952Y-90590714D01*
X157861190Y-90638333D01*
X157908809Y-90685952D01*
X157956428Y-90781190D01*
X157956428Y-91066904D01*
X157908809Y-91162142D01*
X157861190Y-91209761D01*
X157765952Y-91257380D01*
X157623095Y-91257380D01*
X158146904Y-91352619D02*
X158908809Y-91352619D01*
X159146904Y-91257380D02*
X159146904Y-90257380D01*
X159527857Y-90257380D01*
X159623095Y-90305000D01*
X159670714Y-90352619D01*
X159718333Y-90447857D01*
X159718333Y-90590714D01*
X159670714Y-90685952D01*
X159623095Y-90733571D01*
X159527857Y-90781190D01*
X159146904Y-90781190D01*
X160146904Y-91257380D02*
X160146904Y-90590714D01*
X160146904Y-90781190D02*
X160194523Y-90685952D01*
X160242142Y-90638333D01*
X160337380Y-90590714D01*
X160432619Y-90590714D01*
X160908809Y-91257380D02*
X160813571Y-91209761D01*
X160765952Y-91162142D01*
X160718333Y-91066904D01*
X160718333Y-90781190D01*
X160765952Y-90685952D01*
X160813571Y-90638333D01*
X160908809Y-90590714D01*
X161051666Y-90590714D01*
X161146904Y-90638333D01*
X161194523Y-90685952D01*
X161242142Y-90781190D01*
X161242142Y-91066904D01*
X161194523Y-91162142D01*
X161146904Y-91209761D01*
X161051666Y-91257380D01*
X160908809Y-91257380D01*
X161432619Y-91352619D02*
X162194523Y-91352619D01*
X162432619Y-91257380D02*
X162432619Y-90257380D01*
X162765952Y-90971666D01*
X163099285Y-90257380D01*
X163099285Y-91257380D01*
X163575476Y-91257380D02*
X163575476Y-90590714D01*
X163575476Y-90257380D02*
X163527857Y-90305000D01*
X163575476Y-90352619D01*
X163623095Y-90305000D01*
X163575476Y-90257380D01*
X163575476Y-90352619D01*
X164480238Y-91209761D02*
X164385000Y-91257380D01*
X164194523Y-91257380D01*
X164099285Y-91209761D01*
X164051666Y-91162142D01*
X164004047Y-91066904D01*
X164004047Y-90781190D01*
X164051666Y-90685952D01*
X164099285Y-90638333D01*
X164194523Y-90590714D01*
X164385000Y-90590714D01*
X164480238Y-90638333D01*
X164908809Y-91257380D02*
X164908809Y-90590714D01*
X164908809Y-90781190D02*
X164956428Y-90685952D01*
X165004047Y-90638333D01*
X165099285Y-90590714D01*
X165194523Y-90590714D01*
X165670714Y-91257380D02*
X165575476Y-91209761D01*
X165527857Y-91162142D01*
X165480238Y-91066904D01*
X165480238Y-90781190D01*
X165527857Y-90685952D01*
X165575476Y-90638333D01*
X165670714Y-90590714D01*
X165813571Y-90590714D01*
X165908809Y-90638333D01*
X165956428Y-90685952D01*
X166004047Y-90781190D01*
X166004047Y-91066904D01*
X165956428Y-91162142D01*
X165908809Y-91209761D01*
X165813571Y-91257380D01*
X165670714Y-91257380D01*
X144232380Y-91598571D02*
X144232380Y-90979523D01*
X144613333Y-91312857D01*
X144613333Y-91170000D01*
X144660952Y-91074761D01*
X144708571Y-91027142D01*
X144803809Y-90979523D01*
X145041904Y-90979523D01*
X145137142Y-91027142D01*
X145184761Y-91074761D01*
X145232380Y-91170000D01*
X145232380Y-91455714D01*
X145184761Y-91550952D01*
X145137142Y-91598571D01*
X145137142Y-90550952D02*
X145184761Y-90503333D01*
X145232380Y-90550952D01*
X145184761Y-90598571D01*
X145137142Y-90550952D01*
X145232380Y-90550952D01*
X144232380Y-90170000D02*
X144232380Y-89550952D01*
X144613333Y-89884285D01*
X144613333Y-89741428D01*
X144660952Y-89646190D01*
X144708571Y-89598571D01*
X144803809Y-89550952D01*
X145041904Y-89550952D01*
X145137142Y-89598571D01*
X145184761Y-89646190D01*
X145232380Y-89741428D01*
X145232380Y-90027142D01*
X145184761Y-90122380D01*
X145137142Y-90170000D01*
X144565714Y-89217619D02*
X145232380Y-88979523D01*
X144565714Y-88741428D01*
X146137380Y-90947857D02*
X146137380Y-91424047D01*
X146613571Y-91471666D01*
X146565952Y-91424047D01*
X146518333Y-91328809D01*
X146518333Y-91090714D01*
X146565952Y-90995476D01*
X146613571Y-90947857D01*
X146708809Y-90900238D01*
X146946904Y-90900238D01*
X147042142Y-90947857D01*
X147089761Y-90995476D01*
X147137380Y-91090714D01*
X147137380Y-91328809D01*
X147089761Y-91424047D01*
X147042142Y-91471666D01*
X146470714Y-90566904D02*
X147137380Y-90328809D01*
X146470714Y-90090714D01*
%TO.C,R5*%
X126436380Y-94146666D02*
X125960190Y-94480000D01*
X126436380Y-94718095D02*
X125436380Y-94718095D01*
X125436380Y-94337142D01*
X125484000Y-94241904D01*
X125531619Y-94194285D01*
X125626857Y-94146666D01*
X125769714Y-94146666D01*
X125864952Y-94194285D01*
X125912571Y-94241904D01*
X125960190Y-94337142D01*
X125960190Y-94718095D01*
X125436380Y-93241904D02*
X125436380Y-93718095D01*
X125912571Y-93765714D01*
X125864952Y-93718095D01*
X125817333Y-93622857D01*
X125817333Y-93384761D01*
X125864952Y-93289523D01*
X125912571Y-93241904D01*
X126007809Y-93194285D01*
X126245904Y-93194285D01*
X126341142Y-93241904D01*
X126388761Y-93289523D01*
X126436380Y-93384761D01*
X126436380Y-93622857D01*
X126388761Y-93718095D01*
X126341142Y-93765714D01*
X127746285Y-93432380D02*
X128365333Y-93432380D01*
X128032000Y-93813333D01*
X128174857Y-93813333D01*
X128270095Y-93860952D01*
X128317714Y-93908571D01*
X128365333Y-94003809D01*
X128365333Y-94241904D01*
X128317714Y-94337142D01*
X128270095Y-94384761D01*
X128174857Y-94432380D01*
X127889142Y-94432380D01*
X127793904Y-94384761D01*
X127746285Y-94337142D01*
X128698666Y-93432380D02*
X129317714Y-93432380D01*
X128984380Y-93813333D01*
X129127238Y-93813333D01*
X129222476Y-93860952D01*
X129270095Y-93908571D01*
X129317714Y-94003809D01*
X129317714Y-94241904D01*
X129270095Y-94337142D01*
X129222476Y-94384761D01*
X129127238Y-94432380D01*
X128841523Y-94432380D01*
X128746285Y-94384761D01*
X128698666Y-94337142D01*
X129936761Y-93432380D02*
X130032000Y-93432380D01*
X130127238Y-93480000D01*
X130174857Y-93527619D01*
X130222476Y-93622857D01*
X130270095Y-93813333D01*
X130270095Y-94051428D01*
X130222476Y-94241904D01*
X130174857Y-94337142D01*
X130127238Y-94384761D01*
X130032000Y-94432380D01*
X129936761Y-94432380D01*
X129841523Y-94384761D01*
X129793904Y-94337142D01*
X129746285Y-94241904D01*
X129698666Y-94051428D01*
X129698666Y-93813333D01*
X129746285Y-93622857D01*
X129793904Y-93527619D01*
X129841523Y-93480000D01*
X129936761Y-93432380D01*
%TO.C,J2*%
X115161666Y-100922380D02*
X115161666Y-101636666D01*
X115114047Y-101779523D01*
X115018809Y-101874761D01*
X114875952Y-101922380D01*
X114780714Y-101922380D01*
X115590238Y-101017619D02*
X115637857Y-100970000D01*
X115733095Y-100922380D01*
X115971190Y-100922380D01*
X116066428Y-100970000D01*
X116114047Y-101017619D01*
X116161666Y-101112857D01*
X116161666Y-101208095D01*
X116114047Y-101350952D01*
X115542619Y-101922380D01*
X116161666Y-101922380D01*
%TO.C,R1*%
X111704380Y-88431666D02*
X111228190Y-88765000D01*
X111704380Y-89003095D02*
X110704380Y-89003095D01*
X110704380Y-88622142D01*
X110752000Y-88526904D01*
X110799619Y-88479285D01*
X110894857Y-88431666D01*
X111037714Y-88431666D01*
X111132952Y-88479285D01*
X111180571Y-88526904D01*
X111228190Y-88622142D01*
X111228190Y-89003095D01*
X111704380Y-87479285D02*
X111704380Y-88050714D01*
X111704380Y-87765000D02*
X110704380Y-87765000D01*
X110847238Y-87860238D01*
X110942476Y-87955476D01*
X110990095Y-88050714D01*
X112561904Y-87812619D02*
X112609523Y-87765000D01*
X112704761Y-87717380D01*
X112942857Y-87717380D01*
X113038095Y-87765000D01*
X113085714Y-87812619D01*
X113133333Y-87907857D01*
X113133333Y-88003095D01*
X113085714Y-88145952D01*
X112514285Y-88717380D01*
X113133333Y-88717380D01*
X113514285Y-87812619D02*
X113561904Y-87765000D01*
X113657142Y-87717380D01*
X113895238Y-87717380D01*
X113990476Y-87765000D01*
X114038095Y-87812619D01*
X114085714Y-87907857D01*
X114085714Y-88003095D01*
X114038095Y-88145952D01*
X113466666Y-88717380D01*
X114085714Y-88717380D01*
X114704761Y-87717380D02*
X114800000Y-87717380D01*
X114895238Y-87765000D01*
X114942857Y-87812619D01*
X114990476Y-87907857D01*
X115038095Y-88098333D01*
X115038095Y-88336428D01*
X114990476Y-88526904D01*
X114942857Y-88622142D01*
X114895238Y-88669761D01*
X114800000Y-88717380D01*
X114704761Y-88717380D01*
X114609523Y-88669761D01*
X114561904Y-88622142D01*
X114514285Y-88526904D01*
X114466666Y-88336428D01*
X114466666Y-88098333D01*
X114514285Y-87907857D01*
X114561904Y-87812619D01*
X114609523Y-87765000D01*
X114704761Y-87717380D01*
X115466666Y-88717380D02*
X115466666Y-87717380D01*
X116038095Y-88717380D02*
X115609523Y-88145952D01*
X116038095Y-87717380D02*
X115466666Y-88288809D01*
%TO.C,R2*%
X111704380Y-92241666D02*
X111228190Y-92575000D01*
X111704380Y-92813095D02*
X110704380Y-92813095D01*
X110704380Y-92432142D01*
X110752000Y-92336904D01*
X110799619Y-92289285D01*
X110894857Y-92241666D01*
X111037714Y-92241666D01*
X111132952Y-92289285D01*
X111180571Y-92336904D01*
X111228190Y-92432142D01*
X111228190Y-92813095D01*
X110799619Y-91860714D02*
X110752000Y-91813095D01*
X110704380Y-91717857D01*
X110704380Y-91479761D01*
X110752000Y-91384523D01*
X110799619Y-91336904D01*
X110894857Y-91289285D01*
X110990095Y-91289285D01*
X111132952Y-91336904D01*
X111704380Y-91908333D01*
X111704380Y-91289285D01*
X112561904Y-91622619D02*
X112609523Y-91575000D01*
X112704761Y-91527380D01*
X112942857Y-91527380D01*
X113038095Y-91575000D01*
X113085714Y-91622619D01*
X113133333Y-91717857D01*
X113133333Y-91813095D01*
X113085714Y-91955952D01*
X112514285Y-92527380D01*
X113133333Y-92527380D01*
X113514285Y-91622619D02*
X113561904Y-91575000D01*
X113657142Y-91527380D01*
X113895238Y-91527380D01*
X113990476Y-91575000D01*
X114038095Y-91622619D01*
X114085714Y-91717857D01*
X114085714Y-91813095D01*
X114038095Y-91955952D01*
X113466666Y-92527380D01*
X114085714Y-92527380D01*
X114704761Y-91527380D02*
X114800000Y-91527380D01*
X114895238Y-91575000D01*
X114942857Y-91622619D01*
X114990476Y-91717857D01*
X115038095Y-91908333D01*
X115038095Y-92146428D01*
X114990476Y-92336904D01*
X114942857Y-92432142D01*
X114895238Y-92479761D01*
X114800000Y-92527380D01*
X114704761Y-92527380D01*
X114609523Y-92479761D01*
X114561904Y-92432142D01*
X114514285Y-92336904D01*
X114466666Y-92146428D01*
X114466666Y-91908333D01*
X114514285Y-91717857D01*
X114561904Y-91622619D01*
X114609523Y-91575000D01*
X114704761Y-91527380D01*
X115466666Y-92527380D02*
X115466666Y-91527380D01*
X116038095Y-92527380D02*
X115609523Y-91955952D01*
X116038095Y-91527380D02*
X115466666Y-92098809D01*
%TO.C,R3*%
X111704380Y-96051666D02*
X111228190Y-96385000D01*
X111704380Y-96623095D02*
X110704380Y-96623095D01*
X110704380Y-96242142D01*
X110752000Y-96146904D01*
X110799619Y-96099285D01*
X110894857Y-96051666D01*
X111037714Y-96051666D01*
X111132952Y-96099285D01*
X111180571Y-96146904D01*
X111228190Y-96242142D01*
X111228190Y-96623095D01*
X110704380Y-95718333D02*
X110704380Y-95099285D01*
X111085333Y-95432619D01*
X111085333Y-95289761D01*
X111132952Y-95194523D01*
X111180571Y-95146904D01*
X111275809Y-95099285D01*
X111513904Y-95099285D01*
X111609142Y-95146904D01*
X111656761Y-95194523D01*
X111704380Y-95289761D01*
X111704380Y-95575476D01*
X111656761Y-95670714D01*
X111609142Y-95718333D01*
X112561904Y-95432619D02*
X112609523Y-95385000D01*
X112704761Y-95337380D01*
X112942857Y-95337380D01*
X113038095Y-95385000D01*
X113085714Y-95432619D01*
X113133333Y-95527857D01*
X113133333Y-95623095D01*
X113085714Y-95765952D01*
X112514285Y-96337380D01*
X113133333Y-96337380D01*
X113514285Y-95432619D02*
X113561904Y-95385000D01*
X113657142Y-95337380D01*
X113895238Y-95337380D01*
X113990476Y-95385000D01*
X114038095Y-95432619D01*
X114085714Y-95527857D01*
X114085714Y-95623095D01*
X114038095Y-95765952D01*
X113466666Y-96337380D01*
X114085714Y-96337380D01*
X114704761Y-95337380D02*
X114800000Y-95337380D01*
X114895238Y-95385000D01*
X114942857Y-95432619D01*
X114990476Y-95527857D01*
X115038095Y-95718333D01*
X115038095Y-95956428D01*
X114990476Y-96146904D01*
X114942857Y-96242142D01*
X114895238Y-96289761D01*
X114800000Y-96337380D01*
X114704761Y-96337380D01*
X114609523Y-96289761D01*
X114561904Y-96242142D01*
X114514285Y-96146904D01*
X114466666Y-95956428D01*
X114466666Y-95718333D01*
X114514285Y-95527857D01*
X114561904Y-95432619D01*
X114609523Y-95385000D01*
X114704761Y-95337380D01*
X115466666Y-96337380D02*
X115466666Y-95337380D01*
X116038095Y-96337380D02*
X115609523Y-95765952D01*
X116038095Y-95337380D02*
X115466666Y-95908809D01*
%TO.C,J3*%
X99361666Y-83272380D02*
X99361666Y-83986666D01*
X99314047Y-84129523D01*
X99218809Y-84224761D01*
X99075952Y-84272380D01*
X98980714Y-84272380D01*
X99742619Y-83272380D02*
X100361666Y-83272380D01*
X100028333Y-83653333D01*
X100171190Y-83653333D01*
X100266428Y-83700952D01*
X100314047Y-83748571D01*
X100361666Y-83843809D01*
X100361666Y-84081904D01*
X100314047Y-84177142D01*
X100266428Y-84224761D01*
X100171190Y-84272380D01*
X99885476Y-84272380D01*
X99790238Y-84224761D01*
X99742619Y-84177142D01*
%TD*%
M02*
