M48
INCH,TZ
T1C0.0157
T2C0.0315
T3C0.0354
T4C0.0394
T5C0.0400
T6C0.0433
T7C0.1200
T8C0.1260
%
G90
G05
T1
X38250Y-36000
X41184Y-36830
X44715Y-36250
X44715Y-38750
X45715Y-34500
X46000Y-38785
X47150Y-42050
X47750Y-38785
X47824Y-37620
X48250Y-43750
X48543Y-39203
X49900Y-38215
X50500Y-38215
X50650Y-37800
X50700Y-37000
X50715Y-37400
X51500Y-41250
X52035Y-38050
X52050Y-38650
X52350Y-38950
X55215Y-32500
X56950Y-38650
X57000Y-35035
X58000Y-34785
X58600Y-37550
X59000Y-34535
X59250Y-41035
X59750Y-34550
X61250Y-38679
X61950Y-38965
X62350Y-38900
X64000Y-38250
X64750Y-30250
X64764Y-28864
X64789Y-39289
T2
X42750Y-34750
X46750Y-34750
X42750Y-36250
X46750Y-36250
X48500Y-37000
X52500Y-37000
X48500Y-35500
X52500Y-35500
X42750Y-37750
X46750Y-37750
T3
X64250Y-42750
X65250Y-42750
T4
X46362Y-39949
X46907Y-41067
X47453Y-39949
X47998Y-41067
X48543Y-39949
X49089Y-41067
X49634Y-39949
X50179Y-41067
X50724Y-39949
X57250Y-32750
X57250Y-33750
X57250Y-39750
X58250Y-32750
X58250Y-33750
X58250Y-39750
X59250Y-32750
X59250Y-33750
X59250Y-39750
X60250Y-32750
X60250Y-33750
X60250Y-39750
X61250Y-32750
X61250Y-33750
X61250Y-39750
X62250Y-32750
X62250Y-33750
X62250Y-39750
X63250Y-32750
X63250Y-33750
X63250Y-39750
X64250Y-32750
X64250Y-33750
X64250Y-39750
X65250Y-32750
X65250Y-33750
X65250Y-39750
X66250Y-32750
X66250Y-33750
X66250Y-39750
X67250Y-32750
X67250Y-33750
X67250Y-39750
X68250Y-32750
X68250Y-33750
X68250Y-39750
X46370Y-32571
X46915Y-31453
X47461Y-32571
X48006Y-31453
X48551Y-32571
X49096Y-31453
X49642Y-32571
X50187Y-31453
X50732Y-32571
T5
X39250Y-34250
X39250Y-35250
X39250Y-36250
X39250Y-37250
X39250Y-38250
X40250Y-34250
X40250Y-35250
X40250Y-36250
X40250Y-37250
X40250Y-38250
T6
X58970Y-28864
X58970Y-30636
X61530Y-28864
X61530Y-30636
X63470Y-28864
X63470Y-30636
X66030Y-28864
X66030Y-30636
T7
X39250Y-29750
X68250Y-29750
X39250Y-42750
X68250Y-42750
T8
X43622Y-40508
X53465Y-40508
X43630Y-32012
X53472Y-32012
T0
M30
