%TF.GenerationSoftware,KiCad,Pcbnew,(5.1.8)-1*%
%TF.CreationDate,2021-02-06T00:39:02+01:00*%
%TF.ProjectId,C64 Joystick Adapter,43363420-4a6f-4797-9374-69636b204164,rev?*%
%TF.SameCoordinates,Original*%
%TF.FileFunction,Copper,L2,Bot*%
%TF.FilePolarity,Positive*%
%FSLAX46Y46*%
G04 Gerber Fmt 4.6, Leading zero omitted, Abs format (unit mm)*
G04 Created by KiCad (PCBNEW (5.1.8)-1) date 2021-02-06 00:39:02*
%MOMM*%
%LPD*%
G01*
G04 APERTURE LIST*
%TA.AperFunction,ComponentPad*%
%ADD10C,4.000000*%
%TD*%
%TA.AperFunction,ComponentPad*%
%ADD11C,1.600000*%
%TD*%
%TA.AperFunction,ComponentPad*%
%ADD12R,1.600000X1.600000*%
%TD*%
%TA.AperFunction,ComponentPad*%
%ADD13O,1.600000X1.600000*%
%TD*%
%TA.AperFunction,ComponentPad*%
%ADD14C,1.700000*%
%TD*%
%TA.AperFunction,ComponentPad*%
%ADD15C,3.500000*%
%TD*%
%TA.AperFunction,ComponentPad*%
%ADD16R,1.800000X1.800000*%
%TD*%
%TA.AperFunction,ComponentPad*%
%ADD17C,1.800000*%
%TD*%
%TA.AperFunction,ComponentPad*%
%ADD18R,1.727200X1.727200*%
%TD*%
%TA.AperFunction,ComponentPad*%
%ADD19O,1.727200X1.727200*%
%TD*%
%TA.AperFunction,ComponentPad*%
%ADD20C,2.000000*%
%TD*%
%TA.AperFunction,ViaPad*%
%ADD21C,0.800000*%
%TD*%
%TA.AperFunction,Conductor*%
%ADD22C,0.250000*%
%TD*%
%TA.AperFunction,Conductor*%
%ADD23C,0.381000*%
%TD*%
%TA.AperFunction,Conductor*%
%ADD24C,0.254000*%
%TD*%
%TA.AperFunction,Conductor*%
%ADD25C,0.100000*%
%TD*%
G04 APERTURE END LIST*
D10*
%TO.P,J1,0*%
%TO.N,N/C*%
X110820000Y-81310000D03*
X135820000Y-81310000D03*
D11*
%TO.P,J1,9*%
%TO.N,POT_AX*%
X119165000Y-79890000D03*
%TO.P,J1,8*%
%TO.N,GND*%
X121935000Y-79890000D03*
%TO.P,J1,7*%
%TO.N,VCC*%
X124705000Y-79890000D03*
%TO.P,J1,6*%
%TO.N,P1_FIRE*%
X127475000Y-79890000D03*
%TO.P,J1,5*%
%TO.N,POT_AY*%
X117780000Y-82730000D03*
%TO.P,J1,4*%
%TO.N,P1_RIGHT*%
X120550000Y-82730000D03*
%TO.P,J1,3*%
%TO.N,P1_LEFT*%
X123320000Y-82730000D03*
%TO.P,J1,2*%
%TO.N,P1_DOWN*%
X126090000Y-82730000D03*
D12*
%TO.P,J1,1*%
%TO.N,P1_UP*%
X128860000Y-82730000D03*
%TD*%
D11*
%TO.P,R4,1*%
%TO.N,GND*%
X133350000Y-90170000D03*
D13*
%TO.P,R4,2*%
%TO.N,POT_AX*%
X123190000Y-90170000D03*
%TD*%
D14*
%TO.P,A1,12*%
%TO.N,P2_RIGHT*%
X145415000Y-85725000D03*
%TO.P,A1,11*%
%TO.N,P2_LEFT*%
X147955000Y-85725000D03*
%TO.P,A1,10*%
%TO.N,P2_DOWN*%
X150495000Y-85725000D03*
%TO.P,A1,9*%
%TO.N,P2_UP*%
X153035000Y-85725000D03*
%TO.P,A1,8*%
%TO.N,P1_RIGHT*%
X155575000Y-85725000D03*
%TO.P,A1,7*%
%TO.N,P1_LEFT*%
X158115000Y-85725000D03*
%TO.P,A1,6*%
%TO.N,P1_DOWN*%
X160655000Y-85725000D03*
%TO.P,A1,5*%
%TO.N,P1_UP*%
X163195000Y-85725000D03*
%TO.P,A1,4*%
%TO.N,GND*%
X165735000Y-85725000D03*
%TO.P,A1,3*%
X168275000Y-85725000D03*
%TO.P,A1,2*%
%TO.N,Net-(A1-Pad2)*%
X170815000Y-85725000D03*
%TO.P,A1,1*%
%TO.N,Net-(A1-Pad1)*%
X173355000Y-85725000D03*
%TO.P,A1,2*%
%TO.N,Net-(A1-Pad2)*%
X170815000Y-83185000D03*
%TO.P,A1,3*%
%TO.N,GND*%
X168275000Y-83185000D03*
%TO.P,A1,4*%
X165735000Y-83185000D03*
%TO.P,A1,5*%
%TO.N,P1_UP*%
X163195000Y-83185000D03*
%TO.P,A1,6*%
%TO.N,P1_DOWN*%
X160655000Y-83185000D03*
%TO.P,A1,7*%
%TO.N,P1_LEFT*%
X158115000Y-83185000D03*
%TO.P,A1,8*%
%TO.N,P1_RIGHT*%
X155575000Y-83185000D03*
%TO.P,A1,9*%
%TO.N,P2_UP*%
X153035000Y-83185000D03*
%TO.P,A1,10*%
%TO.N,P2_DOWN*%
X150495000Y-83185000D03*
%TO.P,A1,11*%
%TO.N,P2_LEFT*%
X147955000Y-83185000D03*
%TO.P,A1,12*%
%TO.N,P2_RIGHT*%
X145415000Y-83185000D03*
%TO.P,A1,13*%
%TO.N,Net-(A1-Pad13)*%
X145415000Y-100965000D03*
%TO.P,A1,14*%
%TO.N,Net-(A1-Pad14)*%
X147955000Y-100965000D03*
%TO.P,A1,15*%
%TO.N,P2_FIRE*%
X150495000Y-100965000D03*
%TO.P,A1,16*%
%TO.N,P1_FIRE*%
X153035000Y-100965000D03*
%TO.P,A1,17*%
%TO.N,POT_AX*%
X155575000Y-100965000D03*
%TO.P,A1,18*%
%TO.N,POT_AY*%
X158115000Y-100965000D03*
%TO.P,A1,19*%
%TO.N,POT_BX*%
X160655000Y-100965000D03*
%TO.P,A1,20*%
%TO.N,POT_BY*%
X163195000Y-100965000D03*
%TO.P,A1,21*%
%TO.N,VCC*%
X165735000Y-100965000D03*
%TO.P,A1,22*%
%TO.N,Net-(A1-Pad22)*%
X168275000Y-100965000D03*
%TO.P,A1,23*%
%TO.N,GND*%
X170815000Y-100965000D03*
%TO.P,A1,24*%
%TO.N,N/C*%
X173355000Y-100965000D03*
%TO.P,A1,1*%
%TO.N,Net-(A1-Pad1)*%
X173355000Y-83185000D03*
%TD*%
D13*
%TO.P,R5,2*%
%TO.N,Net-(A1-Pad13)*%
X123190000Y-93980000D03*
D11*
%TO.P,R5,1*%
%TO.N,Net-(D1-Pad2)*%
X133350000Y-93980000D03*
%TD*%
D12*
%TO.P,J2,1*%
%TO.N,P2_UP*%
X117760000Y-101470000D03*
D11*
%TO.P,J2,2*%
%TO.N,P2_DOWN*%
X120530000Y-101470000D03*
%TO.P,J2,3*%
%TO.N,P2_LEFT*%
X123300000Y-101470000D03*
%TO.P,J2,4*%
%TO.N,P2_RIGHT*%
X126070000Y-101470000D03*
%TO.P,J2,5*%
%TO.N,POT_BY*%
X128840000Y-101470000D03*
%TO.P,J2,6*%
%TO.N,P2_FIRE*%
X119145000Y-104310000D03*
%TO.P,J2,7*%
%TO.N,VCC*%
X121915000Y-104310000D03*
%TO.P,J2,8*%
%TO.N,GND*%
X124685000Y-104310000D03*
%TO.P,J2,9*%
%TO.N,POT_BX*%
X127455000Y-104310000D03*
D10*
%TO.P,J2,0*%
%TO.N,N/C*%
X110800000Y-102890000D03*
X135800000Y-102890000D03*
%TD*%
D15*
%TO.P,M1,1*%
%TO.N,N/C*%
X99695000Y-108585000D03*
%TD*%
%TO.P,M2,1*%
%TO.N,N/C*%
X173355000Y-75565000D03*
%TD*%
%TO.P,M3,1*%
%TO.N,N/C*%
X99695000Y-75565000D03*
%TD*%
%TO.P,M4,1*%
%TO.N,N/C*%
X173355000Y-108585000D03*
%TD*%
D11*
%TO.P,R1,1*%
%TO.N,GND*%
X108585000Y-88265000D03*
D13*
%TO.P,R1,2*%
%TO.N,POT_BY*%
X118745000Y-88265000D03*
%TD*%
D11*
%TO.P,R2,1*%
%TO.N,GND*%
X108585000Y-92075000D03*
D13*
%TO.P,R2,2*%
%TO.N,POT_BX*%
X118745000Y-92075000D03*
%TD*%
%TO.P,R3,2*%
%TO.N,POT_AY*%
X118745000Y-95885000D03*
D11*
%TO.P,R3,1*%
%TO.N,GND*%
X108585000Y-95885000D03*
%TD*%
D16*
%TO.P,D1,1*%
%TO.N,GND*%
X163195000Y-108585000D03*
D17*
%TO.P,D1,2*%
%TO.N,Net-(D1-Pad2)*%
X165735000Y-108585000D03*
%TD*%
D18*
%TO.P,J3,1*%
%TO.N,P2_UP*%
X99695000Y-86995000D03*
D19*
%TO.P,J3,2*%
%TO.N,P2_DOWN*%
X99695000Y-89535000D03*
%TO.P,J3,3*%
%TO.N,P2_LEFT*%
X99695000Y-92075000D03*
%TO.P,J3,4*%
%TO.N,P2_RIGHT*%
X99695000Y-94615000D03*
%TO.P,J3,5*%
%TO.N,POT_BY*%
X99695000Y-97155000D03*
%TO.P,J3,6*%
%TO.N,P2_FIRE*%
X102235000Y-86995000D03*
%TO.P,J3,7*%
%TO.N,VCC*%
X102235000Y-89535000D03*
%TO.P,J3,8*%
%TO.N,GND*%
X102235000Y-92075000D03*
%TO.P,J3,9*%
%TO.N,POT_BX*%
X102235000Y-94615000D03*
%TO.P,J3,10*%
%TO.N,N/C*%
X102235000Y-97155000D03*
%TD*%
D20*
%TO.P,SW1,2*%
%TO.N,GND*%
X149785000Y-77815000D03*
%TO.P,SW1,1*%
%TO.N,Net-(A1-Pad22)*%
X149785000Y-73315000D03*
%TO.P,SW1,2*%
%TO.N,GND*%
X156285000Y-77815000D03*
%TO.P,SW1,1*%
%TO.N,Net-(A1-Pad22)*%
X156285000Y-73315000D03*
%TD*%
%TO.P,SW2,1*%
%TO.N,Net-(A1-Pad14)*%
X167715000Y-73315000D03*
%TO.P,SW2,2*%
%TO.N,GND*%
X167715000Y-77815000D03*
%TO.P,SW2,1*%
%TO.N,Net-(A1-Pad14)*%
X161215000Y-73315000D03*
%TO.P,SW2,2*%
%TO.N,GND*%
X161215000Y-77815000D03*
%TD*%
D21*
%TO.N,POT_AX*%
X128778000Y-93980000D03*
X132170000Y-96647000D03*
X155575000Y-98245000D03*
%TO.N,VCC*%
X122555000Y-111125000D03*
X97155000Y-91440000D03*
%TO.N,POT_AY*%
X121472152Y-95554847D03*
X128651000Y-96012000D03*
X157353000Y-98970000D03*
X132969000Y-98933000D03*
%TO.N,P1_UP*%
X140245000Y-82550000D03*
%TO.N,P2_DOWN*%
X149860000Y-87720000D03*
X116840000Y-98515000D03*
X121285000Y-98515000D03*
%TO.N,P2_LEFT*%
X147320000Y-88355000D03*
X113575000Y-98425000D03*
X123300000Y-99575000D03*
%TO.N,P2_RIGHT*%
X144780000Y-88990000D03*
%TO.N,POT_BY*%
X128270000Y-97065000D03*
X116115000Y-87630000D03*
%TO.N,P2_FIRE*%
X119761000Y-106807000D03*
X150495000Y-104230000D03*
%TO.N,POT_BX*%
X130810000Y-104775000D03*
X113575000Y-92075000D03*
X104607655Y-93549335D03*
X126746000Y-97064999D03*
%TO.N,Net-(A1-Pad13)*%
X128815000Y-94996000D03*
X144653000Y-98171000D03*
X132207000Y-98171000D03*
%TO.N,Net-(D1-Pad2)*%
X164565154Y-99795154D03*
X158369000Y-98806000D03*
%TO.N,Net-(A1-Pad14)*%
X148844000Y-95377000D03*
X151765000Y-87757000D03*
X162560000Y-97155000D03*
X164465000Y-76835000D03*
X164501000Y-73315000D03*
%TD*%
D22*
%TO.N,POT_AX*%
X128778000Y-93980000D02*
X128905000Y-93980000D01*
X131572000Y-96647000D02*
X132170000Y-96647000D01*
X128905000Y-93980000D02*
X131572000Y-96647000D01*
X155575000Y-98245000D02*
X155575000Y-100965000D01*
D23*
%TO.N,VCC*%
X121915000Y-107945000D02*
X121915000Y-104310000D01*
X121915000Y-110485000D02*
X122555000Y-111125000D01*
X121915000Y-107945000D02*
X121915000Y-110485000D01*
X97155000Y-91440000D02*
X97790000Y-90805000D01*
X97790000Y-90805000D02*
X100965000Y-90805000D01*
X100965000Y-90805000D02*
X102235000Y-89535000D01*
D22*
%TO.N,POT_AY*%
X121141999Y-95885000D02*
X121472152Y-95554847D01*
X118745000Y-95885000D02*
X121141999Y-95885000D01*
X158115000Y-100965000D02*
X158115000Y-99732000D01*
X158115000Y-99732000D02*
X157353000Y-98970000D01*
X129540000Y-96901000D02*
X128651000Y-96012000D01*
X131572000Y-98933000D02*
X129540000Y-96901000D01*
X132969000Y-98933000D02*
X131572000Y-98933000D01*
%TO.N,P1_UP*%
X140245000Y-82005000D02*
X140245000Y-82550000D01*
X140970000Y-81280000D02*
X140245000Y-82005000D01*
X162560000Y-81280000D02*
X140970000Y-81280000D01*
X163195000Y-81915000D02*
X162560000Y-81280000D01*
X163195000Y-83185000D02*
X163195000Y-81915000D01*
%TO.N,P2_DOWN*%
X149860000Y-87720000D02*
X150495000Y-87085000D01*
X150495000Y-86995000D02*
X150495000Y-85725000D01*
X150495000Y-87085000D02*
X150495000Y-86995000D01*
X116840000Y-98515000D02*
X121285000Y-98515000D01*
%TO.N,P2_LEFT*%
X147955000Y-87720000D02*
X147955000Y-87630000D01*
X147320000Y-88355000D02*
X147955000Y-87720000D01*
X147955000Y-87630000D02*
X147955000Y-85725000D01*
X113575000Y-98425000D02*
X114390001Y-99240001D01*
X114725000Y-99575000D02*
X114390001Y-99240001D01*
X123300000Y-99575000D02*
X114725000Y-99575000D01*
%TO.N,P2_RIGHT*%
X145415000Y-88355000D02*
X145415000Y-88265000D01*
X144780000Y-88990000D02*
X145415000Y-88355000D01*
X145415000Y-88265000D02*
X145415000Y-85725000D01*
%TO.N,POT_BY*%
X128840000Y-97635000D02*
X128840000Y-101470000D01*
X128270000Y-97065000D02*
X128840000Y-97635000D01*
X116115000Y-87630000D02*
X116750000Y-88265000D01*
X116750000Y-88265000D02*
X118745000Y-88265000D01*
%TO.N,P2_FIRE*%
X119145000Y-106191000D02*
X119761000Y-106807000D01*
X119145000Y-104310000D02*
X119145000Y-106191000D01*
X150495000Y-104230000D02*
X150495000Y-100965000D01*
%TO.N,POT_BX*%
X127455000Y-104310000D02*
X130345000Y-104310000D01*
X130345000Y-104310000D02*
X130810000Y-104775000D01*
X118745000Y-92075000D02*
X113575000Y-92075000D01*
X103300665Y-93549335D02*
X102235000Y-94615000D01*
X104607655Y-93549335D02*
X103300665Y-93549335D01*
X127455000Y-97773999D02*
X126746000Y-97064999D01*
X127455000Y-104310000D02*
X127455000Y-97773999D01*
%TO.N,Net-(A1-Pad13)*%
X145415000Y-98933000D02*
X145415000Y-100965000D01*
X144653000Y-98171000D02*
X145415000Y-98933000D01*
X128815000Y-95033000D02*
X128815000Y-94996000D01*
X131953000Y-98171000D02*
X128815000Y-95033000D01*
X132207000Y-98171000D02*
X131953000Y-98171000D01*
%TO.N,Net-(D1-Pad2)*%
X164565154Y-99795154D02*
X164565154Y-99287154D01*
X164084000Y-98806000D02*
X163322000Y-98806000D01*
X164565154Y-99287154D02*
X164084000Y-98806000D01*
X163322000Y-98806000D02*
X158369000Y-98806000D01*
%TO.N,Net-(A1-Pad14)*%
X147955000Y-96266000D02*
X148844000Y-95377000D01*
X147955000Y-100965000D02*
X147955000Y-97790000D01*
X147955000Y-97790000D02*
X147955000Y-96266000D01*
X148590000Y-97155000D02*
X162560000Y-97155000D01*
X147955000Y-97790000D02*
X148590000Y-97155000D01*
X164465000Y-73351000D02*
X164501000Y-73315000D01*
X164465000Y-76835000D02*
X164465000Y-73351000D01*
%TD*%
D24*
%TO.N,GND*%
X148336082Y-72540537D02*
X148212832Y-72838088D01*
X148150000Y-73153967D01*
X148150000Y-73476033D01*
X148212832Y-73791912D01*
X148336082Y-74089463D01*
X148515013Y-74357252D01*
X148742748Y-74584987D01*
X149010537Y-74763918D01*
X149308088Y-74887168D01*
X149623967Y-74950000D01*
X149946033Y-74950000D01*
X150261912Y-74887168D01*
X150559463Y-74763918D01*
X150827252Y-74584987D01*
X151054987Y-74357252D01*
X151233918Y-74089463D01*
X151357168Y-73791912D01*
X151420000Y-73476033D01*
X151420000Y-73153967D01*
X151357168Y-72838088D01*
X151233918Y-72540537D01*
X151150037Y-72415000D01*
X154919963Y-72415000D01*
X154836082Y-72540537D01*
X154712832Y-72838088D01*
X154650000Y-73153967D01*
X154650000Y-73476033D01*
X154712832Y-73791912D01*
X154836082Y-74089463D01*
X155015013Y-74357252D01*
X155242748Y-74584987D01*
X155510537Y-74763918D01*
X155808088Y-74887168D01*
X156123967Y-74950000D01*
X156446033Y-74950000D01*
X156761912Y-74887168D01*
X157059463Y-74763918D01*
X157327252Y-74584987D01*
X157554987Y-74357252D01*
X157733918Y-74089463D01*
X157857168Y-73791912D01*
X157920000Y-73476033D01*
X157920000Y-73153967D01*
X157857168Y-72838088D01*
X157733918Y-72540537D01*
X157650037Y-72415000D01*
X159849963Y-72415000D01*
X159766082Y-72540537D01*
X159642832Y-72838088D01*
X159580000Y-73153967D01*
X159580000Y-73476033D01*
X159642832Y-73791912D01*
X159766082Y-74089463D01*
X159945013Y-74357252D01*
X160172748Y-74584987D01*
X160440537Y-74763918D01*
X160738088Y-74887168D01*
X161053967Y-74950000D01*
X161376033Y-74950000D01*
X161691912Y-74887168D01*
X161989463Y-74763918D01*
X162257252Y-74584987D01*
X162484987Y-74357252D01*
X162663918Y-74089463D01*
X162787168Y-73791912D01*
X162850000Y-73476033D01*
X162850000Y-73153967D01*
X162787168Y-72838088D01*
X162663918Y-72540537D01*
X162580037Y-72415000D01*
X163984995Y-72415000D01*
X163841226Y-72511063D01*
X163697063Y-72655226D01*
X163583795Y-72824744D01*
X163505774Y-73013102D01*
X163466000Y-73213061D01*
X163466000Y-73416939D01*
X163505774Y-73616898D01*
X163583795Y-73805256D01*
X163697063Y-73974774D01*
X163705001Y-73982712D01*
X163705000Y-76131289D01*
X163661063Y-76175226D01*
X163547795Y-76344744D01*
X163469774Y-76533102D01*
X163430000Y-76733061D01*
X163430000Y-76936939D01*
X163469774Y-77136898D01*
X163547795Y-77325256D01*
X163661063Y-77494774D01*
X163805226Y-77638937D01*
X163974744Y-77752205D01*
X164163102Y-77830226D01*
X164363061Y-77870000D01*
X164566939Y-77870000D01*
X164766898Y-77830226D01*
X164955256Y-77752205D01*
X165124774Y-77638937D01*
X165268937Y-77494774D01*
X165382205Y-77325256D01*
X165460226Y-77136898D01*
X165500000Y-76936939D01*
X165500000Y-76733061D01*
X165489364Y-76679587D01*
X166759192Y-76679587D01*
X167715000Y-77635395D01*
X168670808Y-76679587D01*
X168575044Y-76415186D01*
X168285429Y-76274296D01*
X167973892Y-76192616D01*
X167652405Y-76173282D01*
X167333325Y-76217039D01*
X167028912Y-76322205D01*
X166854956Y-76415186D01*
X166759192Y-76679587D01*
X165489364Y-76679587D01*
X165460226Y-76533102D01*
X165382205Y-76344744D01*
X165268937Y-76175226D01*
X165225000Y-76131289D01*
X165225000Y-75330098D01*
X170970000Y-75330098D01*
X170970000Y-75799902D01*
X171061654Y-76260679D01*
X171241440Y-76694721D01*
X171502450Y-77085349D01*
X171834651Y-77417550D01*
X172225279Y-77678560D01*
X172659321Y-77858346D01*
X173120098Y-77950000D01*
X173589902Y-77950000D01*
X174050679Y-77858346D01*
X174484721Y-77678560D01*
X174875349Y-77417550D01*
X175207550Y-77085349D01*
X175468560Y-76694721D01*
X175648346Y-76260679D01*
X175740000Y-75799902D01*
X175740000Y-75330098D01*
X175648346Y-74869321D01*
X175468560Y-74435279D01*
X175207550Y-74044651D01*
X174875349Y-73712450D01*
X174484721Y-73451440D01*
X174050679Y-73271654D01*
X173589902Y-73180000D01*
X173120098Y-73180000D01*
X172659321Y-73271654D01*
X172225279Y-73451440D01*
X171834651Y-73712450D01*
X171502450Y-74044651D01*
X171241440Y-74435279D01*
X171061654Y-74869321D01*
X170970000Y-75330098D01*
X165225000Y-75330098D01*
X165225000Y-74054711D01*
X165304937Y-73974774D01*
X165418205Y-73805256D01*
X165496226Y-73616898D01*
X165536000Y-73416939D01*
X165536000Y-73213061D01*
X165496226Y-73013102D01*
X165418205Y-72824744D01*
X165304937Y-72655226D01*
X165160774Y-72511063D01*
X165017005Y-72415000D01*
X166349963Y-72415000D01*
X166266082Y-72540537D01*
X166142832Y-72838088D01*
X166080000Y-73153967D01*
X166080000Y-73476033D01*
X166142832Y-73791912D01*
X166266082Y-74089463D01*
X166445013Y-74357252D01*
X166672748Y-74584987D01*
X166940537Y-74763918D01*
X167238088Y-74887168D01*
X167553967Y-74950000D01*
X167876033Y-74950000D01*
X168191912Y-74887168D01*
X168489463Y-74763918D01*
X168757252Y-74584987D01*
X168984987Y-74357252D01*
X169163918Y-74089463D01*
X169287168Y-73791912D01*
X169350000Y-73476033D01*
X169350000Y-73153967D01*
X169287168Y-72838088D01*
X169163918Y-72540537D01*
X169080037Y-72415000D01*
X173322721Y-72415000D01*
X173966222Y-72478096D01*
X174554164Y-72655606D01*
X175096436Y-72943937D01*
X175572364Y-73332094D01*
X175963845Y-73805314D01*
X176255951Y-74345552D01*
X176437563Y-74932244D01*
X176505000Y-75573879D01*
X176505001Y-108552711D01*
X176441904Y-109196221D01*
X176264394Y-109784164D01*
X175976063Y-110326436D01*
X175587906Y-110802364D01*
X175114686Y-111193845D01*
X174574449Y-111485950D01*
X173987756Y-111667563D01*
X173346130Y-111735000D01*
X123392195Y-111735000D01*
X123472205Y-111615256D01*
X123550226Y-111426898D01*
X123590000Y-111226939D01*
X123590000Y-111023061D01*
X123550226Y-110823102D01*
X123472205Y-110634744D01*
X123358937Y-110465226D01*
X123214774Y-110321063D01*
X123045256Y-110207795D01*
X122856898Y-110129774D01*
X122740500Y-110106621D01*
X122740500Y-109485000D01*
X161656928Y-109485000D01*
X161669188Y-109609482D01*
X161705498Y-109729180D01*
X161764463Y-109839494D01*
X161843815Y-109936185D01*
X161940506Y-110015537D01*
X162050820Y-110074502D01*
X162170518Y-110110812D01*
X162295000Y-110123072D01*
X162909250Y-110120000D01*
X163068000Y-109961250D01*
X163068000Y-108712000D01*
X161818750Y-108712000D01*
X161660000Y-108870750D01*
X161656928Y-109485000D01*
X122740500Y-109485000D01*
X122740500Y-107685000D01*
X161656928Y-107685000D01*
X161660000Y-108299250D01*
X161818750Y-108458000D01*
X163068000Y-108458000D01*
X163068000Y-107208750D01*
X163322000Y-107208750D01*
X163322000Y-108458000D01*
X163342000Y-108458000D01*
X163342000Y-108712000D01*
X163322000Y-108712000D01*
X163322000Y-109961250D01*
X163480750Y-110120000D01*
X164095000Y-110123072D01*
X164219482Y-110110812D01*
X164339180Y-110074502D01*
X164449494Y-110015537D01*
X164546185Y-109936185D01*
X164625537Y-109839494D01*
X164684502Y-109729180D01*
X164690056Y-109710873D01*
X164756495Y-109777312D01*
X165007905Y-109945299D01*
X165287257Y-110061011D01*
X165583816Y-110120000D01*
X165886184Y-110120000D01*
X166182743Y-110061011D01*
X166462095Y-109945299D01*
X166713505Y-109777312D01*
X166927312Y-109563505D01*
X167095299Y-109312095D01*
X167211011Y-109032743D01*
X167270000Y-108736184D01*
X167270000Y-108433816D01*
X167253348Y-108350098D01*
X170970000Y-108350098D01*
X170970000Y-108819902D01*
X171061654Y-109280679D01*
X171241440Y-109714721D01*
X171502450Y-110105349D01*
X171834651Y-110437550D01*
X172225279Y-110698560D01*
X172659321Y-110878346D01*
X173120098Y-110970000D01*
X173589902Y-110970000D01*
X174050679Y-110878346D01*
X174484721Y-110698560D01*
X174875349Y-110437550D01*
X175207550Y-110105349D01*
X175468560Y-109714721D01*
X175648346Y-109280679D01*
X175740000Y-108819902D01*
X175740000Y-108350098D01*
X175648346Y-107889321D01*
X175468560Y-107455279D01*
X175207550Y-107064651D01*
X174875349Y-106732450D01*
X174484721Y-106471440D01*
X174050679Y-106291654D01*
X173589902Y-106200000D01*
X173120098Y-106200000D01*
X172659321Y-106291654D01*
X172225279Y-106471440D01*
X171834651Y-106732450D01*
X171502450Y-107064651D01*
X171241440Y-107455279D01*
X171061654Y-107889321D01*
X170970000Y-108350098D01*
X167253348Y-108350098D01*
X167211011Y-108137257D01*
X167095299Y-107857905D01*
X166927312Y-107606495D01*
X166713505Y-107392688D01*
X166462095Y-107224701D01*
X166182743Y-107108989D01*
X165886184Y-107050000D01*
X165583816Y-107050000D01*
X165287257Y-107108989D01*
X165007905Y-107224701D01*
X164756495Y-107392688D01*
X164690056Y-107459127D01*
X164684502Y-107440820D01*
X164625537Y-107330506D01*
X164546185Y-107233815D01*
X164449494Y-107154463D01*
X164339180Y-107095498D01*
X164219482Y-107059188D01*
X164095000Y-107046928D01*
X163480750Y-107050000D01*
X163322000Y-107208750D01*
X163068000Y-107208750D01*
X162909250Y-107050000D01*
X162295000Y-107046928D01*
X162170518Y-107059188D01*
X162050820Y-107095498D01*
X161940506Y-107154463D01*
X161843815Y-107233815D01*
X161764463Y-107330506D01*
X161705498Y-107440820D01*
X161669188Y-107560518D01*
X161656928Y-107685000D01*
X122740500Y-107685000D01*
X122740500Y-105484278D01*
X122829759Y-105424637D01*
X122951694Y-105302702D01*
X123871903Y-105302702D01*
X123943486Y-105546671D01*
X124198996Y-105667571D01*
X124473184Y-105736300D01*
X124755512Y-105750217D01*
X125035130Y-105708787D01*
X125301292Y-105613603D01*
X125426514Y-105546671D01*
X125498097Y-105302702D01*
X124685000Y-104489605D01*
X123871903Y-105302702D01*
X122951694Y-105302702D01*
X123029637Y-105224759D01*
X123186680Y-104989727D01*
X123294853Y-104728574D01*
X123300513Y-104700118D01*
X123381397Y-104926292D01*
X123448329Y-105051514D01*
X123692298Y-105123097D01*
X124505395Y-104310000D01*
X123692298Y-103496903D01*
X123448329Y-103568486D01*
X123327429Y-103823996D01*
X123301788Y-103926289D01*
X123294853Y-103891426D01*
X123186680Y-103630273D01*
X123029637Y-103395241D01*
X122951694Y-103317298D01*
X123871903Y-103317298D01*
X124685000Y-104130395D01*
X125498097Y-103317298D01*
X125426514Y-103073329D01*
X125171004Y-102952429D01*
X124896816Y-102883700D01*
X124614488Y-102869783D01*
X124334870Y-102911213D01*
X124068708Y-103006397D01*
X123943486Y-103073329D01*
X123871903Y-103317298D01*
X122951694Y-103317298D01*
X122829759Y-103195363D01*
X122594727Y-103038320D01*
X122333574Y-102930147D01*
X122056335Y-102875000D01*
X121773665Y-102875000D01*
X121496426Y-102930147D01*
X121235273Y-103038320D01*
X121000241Y-103195363D01*
X120800363Y-103395241D01*
X120643320Y-103630273D01*
X120535147Y-103891426D01*
X120530000Y-103917301D01*
X120524853Y-103891426D01*
X120416680Y-103630273D01*
X120259637Y-103395241D01*
X120059759Y-103195363D01*
X119824727Y-103038320D01*
X119563574Y-102930147D01*
X119286335Y-102875000D01*
X119003665Y-102875000D01*
X118726426Y-102930147D01*
X118465273Y-103038320D01*
X118230241Y-103195363D01*
X118030363Y-103395241D01*
X117873320Y-103630273D01*
X117765147Y-103891426D01*
X117710000Y-104168665D01*
X117710000Y-104451335D01*
X117765147Y-104728574D01*
X117873320Y-104989727D01*
X118030363Y-105224759D01*
X118230241Y-105424637D01*
X118385001Y-105528044D01*
X118385001Y-106153668D01*
X118381324Y-106191000D01*
X118395998Y-106339985D01*
X118439454Y-106483246D01*
X118510026Y-106615276D01*
X118545101Y-106658014D01*
X118605000Y-106731001D01*
X118633998Y-106754799D01*
X118726000Y-106846801D01*
X118726000Y-106908939D01*
X118765774Y-107108898D01*
X118843795Y-107297256D01*
X118957063Y-107466774D01*
X119101226Y-107610937D01*
X119270744Y-107724205D01*
X119459102Y-107802226D01*
X119659061Y-107842000D01*
X119862939Y-107842000D01*
X120062898Y-107802226D01*
X120251256Y-107724205D01*
X120420774Y-107610937D01*
X120564937Y-107466774D01*
X120678205Y-107297256D01*
X120756226Y-107108898D01*
X120796000Y-106908939D01*
X120796000Y-106705061D01*
X120756226Y-106505102D01*
X120678205Y-106316744D01*
X120564937Y-106147226D01*
X120420774Y-106003063D01*
X120251256Y-105889795D01*
X120062898Y-105811774D01*
X119905000Y-105780366D01*
X119905000Y-105528043D01*
X120059759Y-105424637D01*
X120259637Y-105224759D01*
X120416680Y-104989727D01*
X120524853Y-104728574D01*
X120530000Y-104702699D01*
X120535147Y-104728574D01*
X120643320Y-104989727D01*
X120800363Y-105224759D01*
X121000241Y-105424637D01*
X121089501Y-105484278D01*
X121089500Y-107904447D01*
X121089500Y-107904448D01*
X121089501Y-110444440D01*
X121085506Y-110485000D01*
X121101445Y-110646826D01*
X121148647Y-110802433D01*
X121225301Y-110945842D01*
X121286863Y-111020854D01*
X121328460Y-111071541D01*
X121359961Y-111097393D01*
X121527572Y-111265004D01*
X121559774Y-111426898D01*
X121637795Y-111615256D01*
X121717805Y-111735000D01*
X99727279Y-111735000D01*
X99083779Y-111671904D01*
X98495836Y-111494394D01*
X97953564Y-111206063D01*
X97477636Y-110817906D01*
X97086155Y-110344686D01*
X96794050Y-109804449D01*
X96612437Y-109217756D01*
X96545000Y-108576130D01*
X96545000Y-108350098D01*
X97310000Y-108350098D01*
X97310000Y-108819902D01*
X97401654Y-109280679D01*
X97581440Y-109714721D01*
X97842450Y-110105349D01*
X98174651Y-110437550D01*
X98565279Y-110698560D01*
X98999321Y-110878346D01*
X99460098Y-110970000D01*
X99929902Y-110970000D01*
X100390679Y-110878346D01*
X100824721Y-110698560D01*
X101215349Y-110437550D01*
X101547550Y-110105349D01*
X101808560Y-109714721D01*
X101988346Y-109280679D01*
X102080000Y-108819902D01*
X102080000Y-108350098D01*
X101988346Y-107889321D01*
X101808560Y-107455279D01*
X101547550Y-107064651D01*
X101215349Y-106732450D01*
X100824721Y-106471440D01*
X100390679Y-106291654D01*
X99929902Y-106200000D01*
X99460098Y-106200000D01*
X98999321Y-106291654D01*
X98565279Y-106471440D01*
X98174651Y-106732450D01*
X97842450Y-107064651D01*
X97581440Y-107455279D01*
X97401654Y-107889321D01*
X97310000Y-108350098D01*
X96545000Y-108350098D01*
X96545000Y-102630475D01*
X108165000Y-102630475D01*
X108165000Y-103149525D01*
X108266261Y-103658601D01*
X108464893Y-104138141D01*
X108753262Y-104569715D01*
X109120285Y-104936738D01*
X109551859Y-105225107D01*
X110031399Y-105423739D01*
X110540475Y-105525000D01*
X111059525Y-105525000D01*
X111568601Y-105423739D01*
X112048141Y-105225107D01*
X112479715Y-104936738D01*
X112846738Y-104569715D01*
X113135107Y-104138141D01*
X113333739Y-103658601D01*
X113435000Y-103149525D01*
X113435000Y-102630475D01*
X113333739Y-102121399D01*
X113135107Y-101641859D01*
X112846738Y-101210285D01*
X112479715Y-100843262D01*
X112048141Y-100554893D01*
X111568601Y-100356261D01*
X111059525Y-100255000D01*
X110540475Y-100255000D01*
X110031399Y-100356261D01*
X109551859Y-100554893D01*
X109120285Y-100843262D01*
X108753262Y-101210285D01*
X108464893Y-101641859D01*
X108266261Y-102121399D01*
X108165000Y-102630475D01*
X96545000Y-102630475D01*
X96545000Y-92277195D01*
X96664744Y-92357205D01*
X96853102Y-92435226D01*
X97053061Y-92475000D01*
X97256939Y-92475000D01*
X97456898Y-92435226D01*
X97645256Y-92357205D01*
X97814774Y-92243937D01*
X97958937Y-92099774D01*
X98072205Y-91930256D01*
X98150226Y-91741898D01*
X98172384Y-91630500D01*
X98257045Y-91630500D01*
X98253990Y-91637875D01*
X98196400Y-91927401D01*
X98196400Y-92222599D01*
X98253990Y-92512125D01*
X98366958Y-92784853D01*
X98530961Y-93030302D01*
X98739698Y-93239039D01*
X98898281Y-93345000D01*
X98739698Y-93450961D01*
X98530961Y-93659698D01*
X98366958Y-93905147D01*
X98253990Y-94177875D01*
X98196400Y-94467401D01*
X98196400Y-94762599D01*
X98253990Y-95052125D01*
X98366958Y-95324853D01*
X98530961Y-95570302D01*
X98739698Y-95779039D01*
X98898281Y-95885000D01*
X98739698Y-95990961D01*
X98530961Y-96199698D01*
X98366958Y-96445147D01*
X98253990Y-96717875D01*
X98196400Y-97007401D01*
X98196400Y-97302599D01*
X98253990Y-97592125D01*
X98366958Y-97864853D01*
X98530961Y-98110302D01*
X98739698Y-98319039D01*
X98985147Y-98483042D01*
X99257875Y-98596010D01*
X99547401Y-98653600D01*
X99842599Y-98653600D01*
X100132125Y-98596010D01*
X100404853Y-98483042D01*
X100650302Y-98319039D01*
X100859039Y-98110302D01*
X100965000Y-97951719D01*
X101070961Y-98110302D01*
X101279698Y-98319039D01*
X101525147Y-98483042D01*
X101797875Y-98596010D01*
X102087401Y-98653600D01*
X102382599Y-98653600D01*
X102672125Y-98596010D01*
X102944853Y-98483042D01*
X103184282Y-98323061D01*
X112540000Y-98323061D01*
X112540000Y-98526939D01*
X112579774Y-98726898D01*
X112657795Y-98915256D01*
X112771063Y-99084774D01*
X112915226Y-99228937D01*
X113084744Y-99342205D01*
X113273102Y-99420226D01*
X113473061Y-99460000D01*
X113535198Y-99460000D01*
X113878997Y-99803800D01*
X113879008Y-99803809D01*
X114161196Y-100085997D01*
X114184999Y-100115001D01*
X114300724Y-100209974D01*
X114432753Y-100280546D01*
X114576014Y-100324003D01*
X114687667Y-100335000D01*
X114687676Y-100335000D01*
X114724999Y-100338676D01*
X114762322Y-100335000D01*
X116419043Y-100335000D01*
X116370498Y-100425820D01*
X116334188Y-100545518D01*
X116321928Y-100670000D01*
X116321928Y-102270000D01*
X116334188Y-102394482D01*
X116370498Y-102514180D01*
X116429463Y-102624494D01*
X116508815Y-102721185D01*
X116605506Y-102800537D01*
X116715820Y-102859502D01*
X116835518Y-102895812D01*
X116960000Y-102908072D01*
X118560000Y-102908072D01*
X118684482Y-102895812D01*
X118804180Y-102859502D01*
X118914494Y-102800537D01*
X119011185Y-102721185D01*
X119090537Y-102624494D01*
X119149502Y-102514180D01*
X119185812Y-102394482D01*
X119198072Y-102270000D01*
X119198072Y-102004275D01*
X119258320Y-102149727D01*
X119415363Y-102384759D01*
X119615241Y-102584637D01*
X119850273Y-102741680D01*
X120111426Y-102849853D01*
X120388665Y-102905000D01*
X120671335Y-102905000D01*
X120948574Y-102849853D01*
X121209727Y-102741680D01*
X121444759Y-102584637D01*
X121644637Y-102384759D01*
X121801680Y-102149727D01*
X121909853Y-101888574D01*
X121915000Y-101862699D01*
X121920147Y-101888574D01*
X122028320Y-102149727D01*
X122185363Y-102384759D01*
X122385241Y-102584637D01*
X122620273Y-102741680D01*
X122881426Y-102849853D01*
X123158665Y-102905000D01*
X123441335Y-102905000D01*
X123718574Y-102849853D01*
X123979727Y-102741680D01*
X124214759Y-102584637D01*
X124414637Y-102384759D01*
X124571680Y-102149727D01*
X124679853Y-101888574D01*
X124685000Y-101862699D01*
X124690147Y-101888574D01*
X124798320Y-102149727D01*
X124955363Y-102384759D01*
X125155241Y-102584637D01*
X125390273Y-102741680D01*
X125651426Y-102849853D01*
X125928665Y-102905000D01*
X126211335Y-102905000D01*
X126488574Y-102849853D01*
X126695000Y-102764349D01*
X126695000Y-103091956D01*
X126540241Y-103195363D01*
X126340363Y-103395241D01*
X126183320Y-103630273D01*
X126075147Y-103891426D01*
X126069487Y-103919882D01*
X125988603Y-103693708D01*
X125921671Y-103568486D01*
X125677702Y-103496903D01*
X124864605Y-104310000D01*
X125677702Y-105123097D01*
X125921671Y-105051514D01*
X126042571Y-104796004D01*
X126068212Y-104693711D01*
X126075147Y-104728574D01*
X126183320Y-104989727D01*
X126340363Y-105224759D01*
X126540241Y-105424637D01*
X126775273Y-105581680D01*
X127036426Y-105689853D01*
X127313665Y-105745000D01*
X127596335Y-105745000D01*
X127873574Y-105689853D01*
X128134727Y-105581680D01*
X128369759Y-105424637D01*
X128569637Y-105224759D01*
X128673043Y-105070000D01*
X129813402Y-105070000D01*
X129814774Y-105076898D01*
X129892795Y-105265256D01*
X130006063Y-105434774D01*
X130150226Y-105578937D01*
X130319744Y-105692205D01*
X130508102Y-105770226D01*
X130708061Y-105810000D01*
X130911939Y-105810000D01*
X131111898Y-105770226D01*
X131300256Y-105692205D01*
X131469774Y-105578937D01*
X131613937Y-105434774D01*
X131727205Y-105265256D01*
X131805226Y-105076898D01*
X131845000Y-104876939D01*
X131845000Y-104673061D01*
X131805226Y-104473102D01*
X131727205Y-104284744D01*
X131613937Y-104115226D01*
X131469774Y-103971063D01*
X131300256Y-103857795D01*
X131111898Y-103779774D01*
X130911939Y-103740000D01*
X130848447Y-103740000D01*
X130769276Y-103675026D01*
X130637247Y-103604454D01*
X130493986Y-103560997D01*
X130382333Y-103550000D01*
X130382322Y-103550000D01*
X130345000Y-103546324D01*
X130307678Y-103550000D01*
X128673043Y-103550000D01*
X128569637Y-103395241D01*
X128369759Y-103195363D01*
X128215000Y-103091957D01*
X128215000Y-102764349D01*
X128421426Y-102849853D01*
X128698665Y-102905000D01*
X128981335Y-102905000D01*
X129258574Y-102849853D01*
X129519727Y-102741680D01*
X129686157Y-102630475D01*
X133165000Y-102630475D01*
X133165000Y-103149525D01*
X133266261Y-103658601D01*
X133464893Y-104138141D01*
X133753262Y-104569715D01*
X134120285Y-104936738D01*
X134551859Y-105225107D01*
X135031399Y-105423739D01*
X135540475Y-105525000D01*
X136059525Y-105525000D01*
X136568601Y-105423739D01*
X137048141Y-105225107D01*
X137479715Y-104936738D01*
X137846738Y-104569715D01*
X138135107Y-104138141D01*
X138333739Y-103658601D01*
X138435000Y-103149525D01*
X138435000Y-102630475D01*
X138333739Y-102121399D01*
X138135107Y-101641859D01*
X137846738Y-101210285D01*
X137479715Y-100843262D01*
X137048141Y-100554893D01*
X136568601Y-100356261D01*
X136059525Y-100255000D01*
X135540475Y-100255000D01*
X135031399Y-100356261D01*
X134551859Y-100554893D01*
X134120285Y-100843262D01*
X133753262Y-101210285D01*
X133464893Y-101641859D01*
X133266261Y-102121399D01*
X133165000Y-102630475D01*
X129686157Y-102630475D01*
X129754759Y-102584637D01*
X129954637Y-102384759D01*
X130111680Y-102149727D01*
X130219853Y-101888574D01*
X130275000Y-101611335D01*
X130275000Y-101328665D01*
X130219853Y-101051426D01*
X130111680Y-100790273D01*
X129954637Y-100555241D01*
X129754759Y-100355363D01*
X129600000Y-100251957D01*
X129600000Y-98035801D01*
X131008201Y-99444003D01*
X131031999Y-99473001D01*
X131060997Y-99496799D01*
X131147723Y-99567974D01*
X131226230Y-99609937D01*
X131279753Y-99638546D01*
X131423014Y-99682003D01*
X131534667Y-99693000D01*
X131534677Y-99693000D01*
X131572000Y-99696676D01*
X131609323Y-99693000D01*
X132265289Y-99693000D01*
X132309226Y-99736937D01*
X132478744Y-99850205D01*
X132667102Y-99928226D01*
X132867061Y-99968000D01*
X133070939Y-99968000D01*
X133270898Y-99928226D01*
X133459256Y-99850205D01*
X133628774Y-99736937D01*
X133772937Y-99592774D01*
X133886205Y-99423256D01*
X133964226Y-99234898D01*
X134004000Y-99034939D01*
X134004000Y-98831061D01*
X133964226Y-98631102D01*
X133886205Y-98442744D01*
X133772937Y-98273226D01*
X133628774Y-98129063D01*
X133538975Y-98069061D01*
X143618000Y-98069061D01*
X143618000Y-98272939D01*
X143657774Y-98472898D01*
X143735795Y-98661256D01*
X143849063Y-98830774D01*
X143993226Y-98974937D01*
X144162744Y-99088205D01*
X144351102Y-99166226D01*
X144551061Y-99206000D01*
X144613198Y-99206000D01*
X144655000Y-99247802D01*
X144655000Y-99686821D01*
X144468368Y-99811525D01*
X144261525Y-100018368D01*
X144099010Y-100261589D01*
X143987068Y-100531842D01*
X143930000Y-100818740D01*
X143930000Y-101111260D01*
X143987068Y-101398158D01*
X144099010Y-101668411D01*
X144261525Y-101911632D01*
X144468368Y-102118475D01*
X144711589Y-102280990D01*
X144981842Y-102392932D01*
X145268740Y-102450000D01*
X145561260Y-102450000D01*
X145848158Y-102392932D01*
X146118411Y-102280990D01*
X146361632Y-102118475D01*
X146568475Y-101911632D01*
X146685000Y-101737240D01*
X146801525Y-101911632D01*
X147008368Y-102118475D01*
X147251589Y-102280990D01*
X147521842Y-102392932D01*
X147808740Y-102450000D01*
X148101260Y-102450000D01*
X148388158Y-102392932D01*
X148658411Y-102280990D01*
X148901632Y-102118475D01*
X149108475Y-101911632D01*
X149225000Y-101737240D01*
X149341525Y-101911632D01*
X149548368Y-102118475D01*
X149735001Y-102243179D01*
X149735000Y-103526289D01*
X149691063Y-103570226D01*
X149577795Y-103739744D01*
X149499774Y-103928102D01*
X149460000Y-104128061D01*
X149460000Y-104331939D01*
X149499774Y-104531898D01*
X149577795Y-104720256D01*
X149691063Y-104889774D01*
X149835226Y-105033937D01*
X150004744Y-105147205D01*
X150193102Y-105225226D01*
X150393061Y-105265000D01*
X150596939Y-105265000D01*
X150796898Y-105225226D01*
X150985256Y-105147205D01*
X151154774Y-105033937D01*
X151298937Y-104889774D01*
X151412205Y-104720256D01*
X151490226Y-104531898D01*
X151530000Y-104331939D01*
X151530000Y-104128061D01*
X151490226Y-103928102D01*
X151412205Y-103739744D01*
X151298937Y-103570226D01*
X151255000Y-103526289D01*
X151255000Y-102243178D01*
X151441632Y-102118475D01*
X151648475Y-101911632D01*
X151765000Y-101737240D01*
X151881525Y-101911632D01*
X152088368Y-102118475D01*
X152331589Y-102280990D01*
X152601842Y-102392932D01*
X152888740Y-102450000D01*
X153181260Y-102450000D01*
X153468158Y-102392932D01*
X153738411Y-102280990D01*
X153981632Y-102118475D01*
X154188475Y-101911632D01*
X154305000Y-101737240D01*
X154421525Y-101911632D01*
X154628368Y-102118475D01*
X154871589Y-102280990D01*
X155141842Y-102392932D01*
X155428740Y-102450000D01*
X155721260Y-102450000D01*
X156008158Y-102392932D01*
X156278411Y-102280990D01*
X156521632Y-102118475D01*
X156728475Y-101911632D01*
X156845000Y-101737240D01*
X156961525Y-101911632D01*
X157168368Y-102118475D01*
X157411589Y-102280990D01*
X157681842Y-102392932D01*
X157968740Y-102450000D01*
X158261260Y-102450000D01*
X158548158Y-102392932D01*
X158818411Y-102280990D01*
X159061632Y-102118475D01*
X159268475Y-101911632D01*
X159385000Y-101737240D01*
X159501525Y-101911632D01*
X159708368Y-102118475D01*
X159951589Y-102280990D01*
X160221842Y-102392932D01*
X160508740Y-102450000D01*
X160801260Y-102450000D01*
X161088158Y-102392932D01*
X161358411Y-102280990D01*
X161601632Y-102118475D01*
X161808475Y-101911632D01*
X161925000Y-101737240D01*
X162041525Y-101911632D01*
X162248368Y-102118475D01*
X162491589Y-102280990D01*
X162761842Y-102392932D01*
X163048740Y-102450000D01*
X163341260Y-102450000D01*
X163628158Y-102392932D01*
X163898411Y-102280990D01*
X164141632Y-102118475D01*
X164348475Y-101911632D01*
X164465000Y-101737240D01*
X164581525Y-101911632D01*
X164788368Y-102118475D01*
X165031589Y-102280990D01*
X165301842Y-102392932D01*
X165588740Y-102450000D01*
X165881260Y-102450000D01*
X166168158Y-102392932D01*
X166438411Y-102280990D01*
X166681632Y-102118475D01*
X166888475Y-101911632D01*
X167005000Y-101737240D01*
X167121525Y-101911632D01*
X167328368Y-102118475D01*
X167571589Y-102280990D01*
X167841842Y-102392932D01*
X168128740Y-102450000D01*
X168421260Y-102450000D01*
X168708158Y-102392932D01*
X168978411Y-102280990D01*
X169221632Y-102118475D01*
X169346710Y-101993397D01*
X169966208Y-101993397D01*
X170043843Y-102242472D01*
X170307883Y-102368371D01*
X170591411Y-102440339D01*
X170883531Y-102455611D01*
X171173019Y-102413599D01*
X171448747Y-102315919D01*
X171586157Y-102242472D01*
X171663792Y-101993397D01*
X170815000Y-101144605D01*
X169966208Y-101993397D01*
X169346710Y-101993397D01*
X169428475Y-101911632D01*
X169544311Y-101738271D01*
X169786603Y-101813792D01*
X170635395Y-100965000D01*
X170994605Y-100965000D01*
X171843397Y-101813792D01*
X172085689Y-101738271D01*
X172201525Y-101911632D01*
X172408368Y-102118475D01*
X172651589Y-102280990D01*
X172921842Y-102392932D01*
X173208740Y-102450000D01*
X173501260Y-102450000D01*
X173788158Y-102392932D01*
X174058411Y-102280990D01*
X174301632Y-102118475D01*
X174508475Y-101911632D01*
X174670990Y-101668411D01*
X174782932Y-101398158D01*
X174840000Y-101111260D01*
X174840000Y-100818740D01*
X174782932Y-100531842D01*
X174670990Y-100261589D01*
X174508475Y-100018368D01*
X174301632Y-99811525D01*
X174058411Y-99649010D01*
X173788158Y-99537068D01*
X173501260Y-99480000D01*
X173208740Y-99480000D01*
X172921842Y-99537068D01*
X172651589Y-99649010D01*
X172408368Y-99811525D01*
X172201525Y-100018368D01*
X172085689Y-100191729D01*
X171843397Y-100116208D01*
X170994605Y-100965000D01*
X170635395Y-100965000D01*
X169786603Y-100116208D01*
X169544311Y-100191729D01*
X169428475Y-100018368D01*
X169346710Y-99936603D01*
X169966208Y-99936603D01*
X170815000Y-100785395D01*
X171663792Y-99936603D01*
X171586157Y-99687528D01*
X171322117Y-99561629D01*
X171038589Y-99489661D01*
X170746469Y-99474389D01*
X170456981Y-99516401D01*
X170181253Y-99614081D01*
X170043843Y-99687528D01*
X169966208Y-99936603D01*
X169346710Y-99936603D01*
X169221632Y-99811525D01*
X168978411Y-99649010D01*
X168708158Y-99537068D01*
X168421260Y-99480000D01*
X168128740Y-99480000D01*
X167841842Y-99537068D01*
X167571589Y-99649010D01*
X167328368Y-99811525D01*
X167121525Y-100018368D01*
X167005000Y-100192760D01*
X166888475Y-100018368D01*
X166681632Y-99811525D01*
X166438411Y-99649010D01*
X166168158Y-99537068D01*
X165881260Y-99480000D01*
X165588740Y-99480000D01*
X165557466Y-99486221D01*
X165482359Y-99304898D01*
X165369091Y-99135380D01*
X165289023Y-99055312D01*
X165270700Y-98994907D01*
X165200128Y-98862878D01*
X165173781Y-98830774D01*
X165105155Y-98747153D01*
X165076151Y-98723350D01*
X164647804Y-98295003D01*
X164624001Y-98265999D01*
X164508276Y-98171026D01*
X164376247Y-98100454D01*
X164232986Y-98056997D01*
X164121333Y-98046000D01*
X164121322Y-98046000D01*
X164084000Y-98042324D01*
X164046678Y-98046000D01*
X163089475Y-98046000D01*
X163219774Y-97958937D01*
X163363937Y-97814774D01*
X163477205Y-97645256D01*
X163555226Y-97456898D01*
X163595000Y-97256939D01*
X163595000Y-97053061D01*
X163555226Y-96853102D01*
X163477205Y-96664744D01*
X163363937Y-96495226D01*
X163219774Y-96351063D01*
X163050256Y-96237795D01*
X162861898Y-96159774D01*
X162661939Y-96120000D01*
X162458061Y-96120000D01*
X162258102Y-96159774D01*
X162069744Y-96237795D01*
X161900226Y-96351063D01*
X161856289Y-96395000D01*
X149031404Y-96395000D01*
X149145898Y-96372226D01*
X149334256Y-96294205D01*
X149503774Y-96180937D01*
X149647937Y-96036774D01*
X149761205Y-95867256D01*
X149839226Y-95678898D01*
X149879000Y-95478939D01*
X149879000Y-95275061D01*
X149839226Y-95075102D01*
X149761205Y-94886744D01*
X149647937Y-94717226D01*
X149503774Y-94573063D01*
X149334256Y-94459795D01*
X149145898Y-94381774D01*
X148945939Y-94342000D01*
X148742061Y-94342000D01*
X148542102Y-94381774D01*
X148353744Y-94459795D01*
X148184226Y-94573063D01*
X148040063Y-94717226D01*
X147926795Y-94886744D01*
X147848774Y-95075102D01*
X147809000Y-95275061D01*
X147809000Y-95337199D01*
X147443998Y-95702201D01*
X147415000Y-95725999D01*
X147391202Y-95754997D01*
X147391201Y-95754998D01*
X147320026Y-95841724D01*
X147249454Y-95973754D01*
X147224503Y-96056010D01*
X147205998Y-96117014D01*
X147199702Y-96180937D01*
X147191324Y-96266000D01*
X147195001Y-96303332D01*
X147195000Y-97752677D01*
X147191324Y-97790000D01*
X147195000Y-97827322D01*
X147195000Y-97827332D01*
X147195001Y-97827342D01*
X147195000Y-99686821D01*
X147008368Y-99811525D01*
X146801525Y-100018368D01*
X146685000Y-100192760D01*
X146568475Y-100018368D01*
X146361632Y-99811525D01*
X146175000Y-99686822D01*
X146175000Y-98970325D01*
X146178676Y-98933000D01*
X146175000Y-98895675D01*
X146175000Y-98895667D01*
X146164003Y-98784014D01*
X146120546Y-98640753D01*
X146049974Y-98508724D01*
X145955001Y-98392999D01*
X145926004Y-98369202D01*
X145688000Y-98131198D01*
X145688000Y-98069061D01*
X145648226Y-97869102D01*
X145570205Y-97680744D01*
X145456937Y-97511226D01*
X145312774Y-97367063D01*
X145143256Y-97253795D01*
X144954898Y-97175774D01*
X144754939Y-97136000D01*
X144551061Y-97136000D01*
X144351102Y-97175774D01*
X144162744Y-97253795D01*
X143993226Y-97367063D01*
X143849063Y-97511226D01*
X143735795Y-97680744D01*
X143657774Y-97869102D01*
X143618000Y-98069061D01*
X133538975Y-98069061D01*
X133459256Y-98015795D01*
X133270898Y-97937774D01*
X133213619Y-97926381D01*
X133202226Y-97869102D01*
X133124205Y-97680744D01*
X133010937Y-97511226D01*
X132890211Y-97390500D01*
X132973937Y-97306774D01*
X133087205Y-97137256D01*
X133165226Y-96948898D01*
X133205000Y-96748939D01*
X133205000Y-96545061D01*
X133165226Y-96345102D01*
X133087205Y-96156744D01*
X132973937Y-95987226D01*
X132829774Y-95843063D01*
X132660256Y-95729795D01*
X132471898Y-95651774D01*
X132271939Y-95612000D01*
X132068061Y-95612000D01*
X131868102Y-95651774D01*
X131714995Y-95715193D01*
X129838467Y-93838665D01*
X131915000Y-93838665D01*
X131915000Y-94121335D01*
X131970147Y-94398574D01*
X132078320Y-94659727D01*
X132235363Y-94894759D01*
X132435241Y-95094637D01*
X132670273Y-95251680D01*
X132931426Y-95359853D01*
X133208665Y-95415000D01*
X133491335Y-95415000D01*
X133768574Y-95359853D01*
X134029727Y-95251680D01*
X134264759Y-95094637D01*
X134464637Y-94894759D01*
X134621680Y-94659727D01*
X134729853Y-94398574D01*
X134785000Y-94121335D01*
X134785000Y-93838665D01*
X134729853Y-93561426D01*
X134621680Y-93300273D01*
X134464637Y-93065241D01*
X134264759Y-92865363D01*
X134029727Y-92708320D01*
X133768574Y-92600147D01*
X133491335Y-92545000D01*
X133208665Y-92545000D01*
X132931426Y-92600147D01*
X132670273Y-92708320D01*
X132435241Y-92865363D01*
X132235363Y-93065241D01*
X132078320Y-93300273D01*
X131970147Y-93561426D01*
X131915000Y-93838665D01*
X129838467Y-93838665D01*
X129796895Y-93797094D01*
X129773226Y-93678102D01*
X129695205Y-93489744D01*
X129581937Y-93320226D01*
X129437774Y-93176063D01*
X129268256Y-93062795D01*
X129079898Y-92984774D01*
X128879939Y-92945000D01*
X128676061Y-92945000D01*
X128476102Y-92984774D01*
X128287744Y-93062795D01*
X128118226Y-93176063D01*
X127974063Y-93320226D01*
X127860795Y-93489744D01*
X127782774Y-93678102D01*
X127743000Y-93878061D01*
X127743000Y-94081939D01*
X127782774Y-94281898D01*
X127860795Y-94470256D01*
X127892710Y-94518020D01*
X127819774Y-94694102D01*
X127780000Y-94894061D01*
X127780000Y-95097939D01*
X127819774Y-95297898D01*
X127844109Y-95356647D01*
X127733795Y-95521744D01*
X127655774Y-95710102D01*
X127616000Y-95910061D01*
X127616000Y-96113939D01*
X127641154Y-96240398D01*
X127610226Y-96261063D01*
X127508001Y-96363289D01*
X127405774Y-96261062D01*
X127236256Y-96147794D01*
X127047898Y-96069773D01*
X126847939Y-96029999D01*
X126644061Y-96029999D01*
X126444102Y-96069773D01*
X126255744Y-96147794D01*
X126086226Y-96261062D01*
X125942063Y-96405225D01*
X125828795Y-96574743D01*
X125750774Y-96763101D01*
X125711000Y-96963060D01*
X125711000Y-97166938D01*
X125750774Y-97366897D01*
X125828795Y-97555255D01*
X125942063Y-97724773D01*
X126086226Y-97868936D01*
X126255744Y-97982204D01*
X126444102Y-98060225D01*
X126644061Y-98099999D01*
X126695001Y-98099999D01*
X126695001Y-100175652D01*
X126488574Y-100090147D01*
X126211335Y-100035000D01*
X125928665Y-100035000D01*
X125651426Y-100090147D01*
X125390273Y-100198320D01*
X125155241Y-100355363D01*
X124955363Y-100555241D01*
X124798320Y-100790273D01*
X124690147Y-101051426D01*
X124685000Y-101077301D01*
X124679853Y-101051426D01*
X124571680Y-100790273D01*
X124414637Y-100555241D01*
X124214759Y-100355363D01*
X124076038Y-100262673D01*
X124103937Y-100234774D01*
X124217205Y-100065256D01*
X124295226Y-99876898D01*
X124335000Y-99676939D01*
X124335000Y-99473061D01*
X124295226Y-99273102D01*
X124217205Y-99084744D01*
X124103937Y-98915226D01*
X123959774Y-98771063D01*
X123790256Y-98657795D01*
X123601898Y-98579774D01*
X123401939Y-98540000D01*
X123198061Y-98540000D01*
X122998102Y-98579774D01*
X122809744Y-98657795D01*
X122640226Y-98771063D01*
X122596289Y-98815000D01*
X122280604Y-98815000D01*
X122320000Y-98616939D01*
X122320000Y-98413061D01*
X122280226Y-98213102D01*
X122202205Y-98024744D01*
X122088937Y-97855226D01*
X121944774Y-97711063D01*
X121775256Y-97597795D01*
X121586898Y-97519774D01*
X121386939Y-97480000D01*
X121183061Y-97480000D01*
X120983102Y-97519774D01*
X120794744Y-97597795D01*
X120625226Y-97711063D01*
X120581289Y-97755000D01*
X117543711Y-97755000D01*
X117499774Y-97711063D01*
X117330256Y-97597795D01*
X117141898Y-97519774D01*
X116941939Y-97480000D01*
X116738061Y-97480000D01*
X116538102Y-97519774D01*
X116349744Y-97597795D01*
X116180226Y-97711063D01*
X116036063Y-97855226D01*
X115922795Y-98024744D01*
X115844774Y-98213102D01*
X115805000Y-98413061D01*
X115805000Y-98616939D01*
X115844396Y-98815000D01*
X115039801Y-98815000D01*
X114953809Y-98729008D01*
X114953800Y-98728997D01*
X114610000Y-98385198D01*
X114610000Y-98323061D01*
X114570226Y-98123102D01*
X114492205Y-97934744D01*
X114378937Y-97765226D01*
X114234774Y-97621063D01*
X114065256Y-97507795D01*
X113876898Y-97429774D01*
X113676939Y-97390000D01*
X113473061Y-97390000D01*
X113273102Y-97429774D01*
X113084744Y-97507795D01*
X112915226Y-97621063D01*
X112771063Y-97765226D01*
X112657795Y-97934744D01*
X112579774Y-98123102D01*
X112540000Y-98323061D01*
X103184282Y-98323061D01*
X103190302Y-98319039D01*
X103399039Y-98110302D01*
X103563042Y-97864853D01*
X103676010Y-97592125D01*
X103733600Y-97302599D01*
X103733600Y-97007401D01*
X103707802Y-96877702D01*
X107771903Y-96877702D01*
X107843486Y-97121671D01*
X108098996Y-97242571D01*
X108373184Y-97311300D01*
X108655512Y-97325217D01*
X108935130Y-97283787D01*
X109201292Y-97188603D01*
X109326514Y-97121671D01*
X109398097Y-96877702D01*
X108585000Y-96064605D01*
X107771903Y-96877702D01*
X103707802Y-96877702D01*
X103676010Y-96717875D01*
X103563042Y-96445147D01*
X103399039Y-96199698D01*
X103190302Y-95990961D01*
X103137249Y-95955512D01*
X107144783Y-95955512D01*
X107186213Y-96235130D01*
X107281397Y-96501292D01*
X107348329Y-96626514D01*
X107592298Y-96698097D01*
X108405395Y-95885000D01*
X108764605Y-95885000D01*
X109577702Y-96698097D01*
X109821671Y-96626514D01*
X109942571Y-96371004D01*
X110011300Y-96096816D01*
X110025217Y-95814488D01*
X110014724Y-95743665D01*
X117310000Y-95743665D01*
X117310000Y-96026335D01*
X117365147Y-96303574D01*
X117473320Y-96564727D01*
X117630363Y-96799759D01*
X117830241Y-96999637D01*
X118065273Y-97156680D01*
X118326426Y-97264853D01*
X118603665Y-97320000D01*
X118886335Y-97320000D01*
X119163574Y-97264853D01*
X119424727Y-97156680D01*
X119659759Y-96999637D01*
X119859637Y-96799759D01*
X119963043Y-96645000D01*
X121104677Y-96645000D01*
X121141999Y-96648676D01*
X121179321Y-96645000D01*
X121179332Y-96645000D01*
X121290985Y-96634003D01*
X121434246Y-96590546D01*
X121435554Y-96589847D01*
X121574091Y-96589847D01*
X121774050Y-96550073D01*
X121962408Y-96472052D01*
X122131926Y-96358784D01*
X122276089Y-96214621D01*
X122389357Y-96045103D01*
X122467378Y-95856745D01*
X122507152Y-95656786D01*
X122507152Y-95452908D01*
X122467378Y-95252949D01*
X122450236Y-95211565D01*
X122510273Y-95251680D01*
X122771426Y-95359853D01*
X123048665Y-95415000D01*
X123331335Y-95415000D01*
X123608574Y-95359853D01*
X123869727Y-95251680D01*
X124104759Y-95094637D01*
X124304637Y-94894759D01*
X124461680Y-94659727D01*
X124569853Y-94398574D01*
X124625000Y-94121335D01*
X124625000Y-93838665D01*
X124569853Y-93561426D01*
X124461680Y-93300273D01*
X124304637Y-93065241D01*
X124104759Y-92865363D01*
X123869727Y-92708320D01*
X123608574Y-92600147D01*
X123331335Y-92545000D01*
X123048665Y-92545000D01*
X122771426Y-92600147D01*
X122510273Y-92708320D01*
X122275241Y-92865363D01*
X122075363Y-93065241D01*
X121918320Y-93300273D01*
X121810147Y-93561426D01*
X121755000Y-93838665D01*
X121755000Y-94121335D01*
X121810147Y-94398574D01*
X121898147Y-94611024D01*
X121774050Y-94559621D01*
X121574091Y-94519847D01*
X121370213Y-94519847D01*
X121170254Y-94559621D01*
X120981896Y-94637642D01*
X120812378Y-94750910D01*
X120668215Y-94895073D01*
X120554947Y-95064591D01*
X120529925Y-95125000D01*
X119963043Y-95125000D01*
X119859637Y-94970241D01*
X119659759Y-94770363D01*
X119424727Y-94613320D01*
X119163574Y-94505147D01*
X118886335Y-94450000D01*
X118603665Y-94450000D01*
X118326426Y-94505147D01*
X118065273Y-94613320D01*
X117830241Y-94770363D01*
X117630363Y-94970241D01*
X117473320Y-95205273D01*
X117365147Y-95466426D01*
X117310000Y-95743665D01*
X110014724Y-95743665D01*
X109983787Y-95534870D01*
X109888603Y-95268708D01*
X109821671Y-95143486D01*
X109577702Y-95071903D01*
X108764605Y-95885000D01*
X108405395Y-95885000D01*
X107592298Y-95071903D01*
X107348329Y-95143486D01*
X107227429Y-95398996D01*
X107158700Y-95673184D01*
X107144783Y-95955512D01*
X103137249Y-95955512D01*
X103031719Y-95885000D01*
X103190302Y-95779039D01*
X103399039Y-95570302D01*
X103563042Y-95324853D01*
X103676010Y-95052125D01*
X103707801Y-94892298D01*
X107771903Y-94892298D01*
X108585000Y-95705395D01*
X109398097Y-94892298D01*
X109326514Y-94648329D01*
X109071004Y-94527429D01*
X108796816Y-94458700D01*
X108514488Y-94444783D01*
X108234870Y-94486213D01*
X107968708Y-94581397D01*
X107843486Y-94648329D01*
X107771903Y-94892298D01*
X103707801Y-94892298D01*
X103733600Y-94762599D01*
X103733600Y-94467401D01*
X103702159Y-94309335D01*
X103903944Y-94309335D01*
X103947881Y-94353272D01*
X104117399Y-94466540D01*
X104305757Y-94544561D01*
X104505716Y-94584335D01*
X104709594Y-94584335D01*
X104909553Y-94544561D01*
X105097911Y-94466540D01*
X105267429Y-94353272D01*
X105411592Y-94209109D01*
X105524860Y-94039591D01*
X105602881Y-93851233D01*
X105642655Y-93651274D01*
X105642655Y-93447396D01*
X105602881Y-93247437D01*
X105528432Y-93067702D01*
X107771903Y-93067702D01*
X107843486Y-93311671D01*
X108098996Y-93432571D01*
X108373184Y-93501300D01*
X108655512Y-93515217D01*
X108935130Y-93473787D01*
X109201292Y-93378603D01*
X109326514Y-93311671D01*
X109398097Y-93067702D01*
X108585000Y-92254605D01*
X107771903Y-93067702D01*
X105528432Y-93067702D01*
X105524860Y-93059079D01*
X105411592Y-92889561D01*
X105267429Y-92745398D01*
X105097911Y-92632130D01*
X104909553Y-92554109D01*
X104709594Y-92514335D01*
X104505716Y-92514335D01*
X104305757Y-92554109D01*
X104117399Y-92632130D01*
X103947881Y-92745398D01*
X103903944Y-92789335D01*
X103546611Y-92789335D01*
X103644222Y-92584814D01*
X103689958Y-92434026D01*
X103568817Y-92202000D01*
X102362000Y-92202000D01*
X102362000Y-92222000D01*
X102108000Y-92222000D01*
X102108000Y-92202000D01*
X102088000Y-92202000D01*
X102088000Y-92145512D01*
X107144783Y-92145512D01*
X107186213Y-92425130D01*
X107281397Y-92691292D01*
X107348329Y-92816514D01*
X107592298Y-92888097D01*
X108405395Y-92075000D01*
X108764605Y-92075000D01*
X109577702Y-92888097D01*
X109821671Y-92816514D01*
X109942571Y-92561004D01*
X110011300Y-92286816D01*
X110025217Y-92004488D01*
X110020561Y-91973061D01*
X112540000Y-91973061D01*
X112540000Y-92176939D01*
X112579774Y-92376898D01*
X112657795Y-92565256D01*
X112771063Y-92734774D01*
X112915226Y-92878937D01*
X113084744Y-92992205D01*
X113273102Y-93070226D01*
X113473061Y-93110000D01*
X113676939Y-93110000D01*
X113876898Y-93070226D01*
X114065256Y-92992205D01*
X114234774Y-92878937D01*
X114278711Y-92835000D01*
X117526957Y-92835000D01*
X117630363Y-92989759D01*
X117830241Y-93189637D01*
X118065273Y-93346680D01*
X118326426Y-93454853D01*
X118603665Y-93510000D01*
X118886335Y-93510000D01*
X119163574Y-93454853D01*
X119424727Y-93346680D01*
X119659759Y-93189637D01*
X119859637Y-92989759D01*
X120016680Y-92754727D01*
X120124853Y-92493574D01*
X120180000Y-92216335D01*
X120180000Y-91933665D01*
X120124853Y-91656426D01*
X120016680Y-91395273D01*
X119859637Y-91160241D01*
X119659759Y-90960363D01*
X119424727Y-90803320D01*
X119163574Y-90695147D01*
X118886335Y-90640000D01*
X118603665Y-90640000D01*
X118326426Y-90695147D01*
X118065273Y-90803320D01*
X117830241Y-90960363D01*
X117630363Y-91160241D01*
X117526957Y-91315000D01*
X114278711Y-91315000D01*
X114234774Y-91271063D01*
X114065256Y-91157795D01*
X113876898Y-91079774D01*
X113676939Y-91040000D01*
X113473061Y-91040000D01*
X113273102Y-91079774D01*
X113084744Y-91157795D01*
X112915226Y-91271063D01*
X112771063Y-91415226D01*
X112657795Y-91584744D01*
X112579774Y-91773102D01*
X112540000Y-91973061D01*
X110020561Y-91973061D01*
X109983787Y-91724870D01*
X109888603Y-91458708D01*
X109821671Y-91333486D01*
X109577702Y-91261903D01*
X108764605Y-92075000D01*
X108405395Y-92075000D01*
X107592298Y-91261903D01*
X107348329Y-91333486D01*
X107227429Y-91588996D01*
X107158700Y-91863184D01*
X107144783Y-92145512D01*
X102088000Y-92145512D01*
X102088000Y-91948000D01*
X102108000Y-91948000D01*
X102108000Y-91928000D01*
X102362000Y-91928000D01*
X102362000Y-91948000D01*
X103568817Y-91948000D01*
X103689958Y-91715974D01*
X103644222Y-91565186D01*
X103517684Y-91300056D01*
X103354997Y-91082298D01*
X107771903Y-91082298D01*
X108585000Y-91895395D01*
X109398097Y-91082298D01*
X109326514Y-90838329D01*
X109071004Y-90717429D01*
X108796816Y-90648700D01*
X108514488Y-90634783D01*
X108234870Y-90676213D01*
X107968708Y-90771397D01*
X107843486Y-90838329D01*
X107771903Y-91082298D01*
X103354997Y-91082298D01*
X103341854Y-91064707D01*
X103123488Y-90868183D01*
X103024897Y-90809559D01*
X103190302Y-90699039D01*
X103399039Y-90490302D01*
X103563042Y-90244853D01*
X103652590Y-90028665D01*
X121755000Y-90028665D01*
X121755000Y-90311335D01*
X121810147Y-90588574D01*
X121918320Y-90849727D01*
X122075363Y-91084759D01*
X122275241Y-91284637D01*
X122510273Y-91441680D01*
X122771426Y-91549853D01*
X123048665Y-91605000D01*
X123331335Y-91605000D01*
X123608574Y-91549853D01*
X123869727Y-91441680D01*
X124104759Y-91284637D01*
X124226694Y-91162702D01*
X132536903Y-91162702D01*
X132608486Y-91406671D01*
X132863996Y-91527571D01*
X133138184Y-91596300D01*
X133420512Y-91610217D01*
X133700130Y-91568787D01*
X133966292Y-91473603D01*
X134091514Y-91406671D01*
X134163097Y-91162702D01*
X133350000Y-90349605D01*
X132536903Y-91162702D01*
X124226694Y-91162702D01*
X124304637Y-91084759D01*
X124461680Y-90849727D01*
X124569853Y-90588574D01*
X124625000Y-90311335D01*
X124625000Y-90240512D01*
X131909783Y-90240512D01*
X131951213Y-90520130D01*
X132046397Y-90786292D01*
X132113329Y-90911514D01*
X132357298Y-90983097D01*
X133170395Y-90170000D01*
X133529605Y-90170000D01*
X134342702Y-90983097D01*
X134586671Y-90911514D01*
X134707571Y-90656004D01*
X134776300Y-90381816D01*
X134790217Y-90099488D01*
X134748787Y-89819870D01*
X134653603Y-89553708D01*
X134586671Y-89428486D01*
X134342702Y-89356903D01*
X133529605Y-90170000D01*
X133170395Y-90170000D01*
X132357298Y-89356903D01*
X132113329Y-89428486D01*
X131992429Y-89683996D01*
X131923700Y-89958184D01*
X131909783Y-90240512D01*
X124625000Y-90240512D01*
X124625000Y-90028665D01*
X124569853Y-89751426D01*
X124461680Y-89490273D01*
X124304637Y-89255241D01*
X124226694Y-89177298D01*
X132536903Y-89177298D01*
X133350000Y-89990395D01*
X134163097Y-89177298D01*
X134091514Y-88933329D01*
X133836004Y-88812429D01*
X133561816Y-88743700D01*
X133279488Y-88729783D01*
X132999870Y-88771213D01*
X132733708Y-88866397D01*
X132608486Y-88933329D01*
X132536903Y-89177298D01*
X124226694Y-89177298D01*
X124104759Y-89055363D01*
X123869727Y-88898320D01*
X123608574Y-88790147D01*
X123331335Y-88735000D01*
X123048665Y-88735000D01*
X122771426Y-88790147D01*
X122510273Y-88898320D01*
X122275241Y-89055363D01*
X122075363Y-89255241D01*
X121918320Y-89490273D01*
X121810147Y-89751426D01*
X121755000Y-90028665D01*
X103652590Y-90028665D01*
X103676010Y-89972125D01*
X103733600Y-89682599D01*
X103733600Y-89387401D01*
X103707802Y-89257702D01*
X107771903Y-89257702D01*
X107843486Y-89501671D01*
X108098996Y-89622571D01*
X108373184Y-89691300D01*
X108655512Y-89705217D01*
X108935130Y-89663787D01*
X109201292Y-89568603D01*
X109326514Y-89501671D01*
X109398097Y-89257702D01*
X108585000Y-88444605D01*
X107771903Y-89257702D01*
X103707802Y-89257702D01*
X103676010Y-89097875D01*
X103563042Y-88825147D01*
X103399039Y-88579698D01*
X103190302Y-88370961D01*
X103137249Y-88335512D01*
X107144783Y-88335512D01*
X107186213Y-88615130D01*
X107281397Y-88881292D01*
X107348329Y-89006514D01*
X107592298Y-89078097D01*
X108405395Y-88265000D01*
X108764605Y-88265000D01*
X109577702Y-89078097D01*
X109821671Y-89006514D01*
X109942571Y-88751004D01*
X110011300Y-88476816D01*
X110025217Y-88194488D01*
X109983787Y-87914870D01*
X109888603Y-87648708D01*
X109824117Y-87528061D01*
X115080000Y-87528061D01*
X115080000Y-87731939D01*
X115119774Y-87931898D01*
X115197795Y-88120256D01*
X115311063Y-88289774D01*
X115455226Y-88433937D01*
X115624744Y-88547205D01*
X115813102Y-88625226D01*
X116013061Y-88665000D01*
X116075198Y-88665000D01*
X116186200Y-88776002D01*
X116209999Y-88805001D01*
X116238997Y-88828799D01*
X116325724Y-88899974D01*
X116457753Y-88970546D01*
X116601014Y-89014003D01*
X116750000Y-89028677D01*
X116787333Y-89025000D01*
X117526957Y-89025000D01*
X117630363Y-89179759D01*
X117830241Y-89379637D01*
X118065273Y-89536680D01*
X118326426Y-89644853D01*
X118603665Y-89700000D01*
X118886335Y-89700000D01*
X119163574Y-89644853D01*
X119424727Y-89536680D01*
X119659759Y-89379637D01*
X119859637Y-89179759D01*
X120016680Y-88944727D01*
X120124853Y-88683574D01*
X120180000Y-88406335D01*
X120180000Y-88123665D01*
X120124853Y-87846426D01*
X120016680Y-87585273D01*
X119859637Y-87350241D01*
X119659759Y-87150363D01*
X119424727Y-86993320D01*
X119163574Y-86885147D01*
X118886335Y-86830000D01*
X118603665Y-86830000D01*
X118326426Y-86885147D01*
X118065273Y-86993320D01*
X117830241Y-87150363D01*
X117630363Y-87350241D01*
X117526957Y-87505000D01*
X117145413Y-87505000D01*
X117110226Y-87328102D01*
X117032205Y-87139744D01*
X116918937Y-86970226D01*
X116774774Y-86826063D01*
X116605256Y-86712795D01*
X116416898Y-86634774D01*
X116216939Y-86595000D01*
X116013061Y-86595000D01*
X115813102Y-86634774D01*
X115624744Y-86712795D01*
X115455226Y-86826063D01*
X115311063Y-86970226D01*
X115197795Y-87139744D01*
X115119774Y-87328102D01*
X115080000Y-87528061D01*
X109824117Y-87528061D01*
X109821671Y-87523486D01*
X109577702Y-87451903D01*
X108764605Y-88265000D01*
X108405395Y-88265000D01*
X107592298Y-87451903D01*
X107348329Y-87523486D01*
X107227429Y-87778996D01*
X107158700Y-88053184D01*
X107144783Y-88335512D01*
X103137249Y-88335512D01*
X103031719Y-88265000D01*
X103190302Y-88159039D01*
X103399039Y-87950302D01*
X103563042Y-87704853D01*
X103676010Y-87432125D01*
X103707801Y-87272298D01*
X107771903Y-87272298D01*
X108585000Y-88085395D01*
X109398097Y-87272298D01*
X109326514Y-87028329D01*
X109071004Y-86907429D01*
X108796816Y-86838700D01*
X108514488Y-86824783D01*
X108234870Y-86866213D01*
X107968708Y-86961397D01*
X107843486Y-87028329D01*
X107771903Y-87272298D01*
X103707801Y-87272298D01*
X103733600Y-87142599D01*
X103733600Y-86847401D01*
X103676010Y-86557875D01*
X103563042Y-86285147D01*
X103399039Y-86039698D01*
X103190302Y-85830961D01*
X102944853Y-85666958D01*
X102672125Y-85553990D01*
X102382599Y-85496400D01*
X102087401Y-85496400D01*
X101797875Y-85553990D01*
X101525147Y-85666958D01*
X101279698Y-85830961D01*
X101165636Y-85945023D01*
X101148102Y-85887220D01*
X101089137Y-85776906D01*
X101009785Y-85680215D01*
X100913094Y-85600863D01*
X100802780Y-85541898D01*
X100683082Y-85505588D01*
X100558600Y-85493328D01*
X98831400Y-85493328D01*
X98706918Y-85505588D01*
X98587220Y-85541898D01*
X98476906Y-85600863D01*
X98380215Y-85680215D01*
X98300863Y-85776906D01*
X98241898Y-85887220D01*
X98205588Y-86006918D01*
X98193328Y-86131400D01*
X98193328Y-87858600D01*
X98205588Y-87983082D01*
X98241898Y-88102780D01*
X98300863Y-88213094D01*
X98380215Y-88309785D01*
X98476906Y-88389137D01*
X98587220Y-88448102D01*
X98645023Y-88465636D01*
X98530961Y-88579698D01*
X98366958Y-88825147D01*
X98253990Y-89097875D01*
X98196400Y-89387401D01*
X98196400Y-89682599D01*
X98253990Y-89972125D01*
X98257045Y-89979500D01*
X97830550Y-89979500D01*
X97790000Y-89975506D01*
X97749449Y-89979500D01*
X97749447Y-89979500D01*
X97628174Y-89991444D01*
X97472566Y-90038647D01*
X97329157Y-90115301D01*
X97234958Y-90192608D01*
X97234955Y-90192611D01*
X97203459Y-90218459D01*
X97177610Y-90249956D01*
X97014995Y-90412572D01*
X96853102Y-90444774D01*
X96664744Y-90522795D01*
X96545000Y-90602805D01*
X96545000Y-81050475D01*
X108185000Y-81050475D01*
X108185000Y-81569525D01*
X108286261Y-82078601D01*
X108484893Y-82558141D01*
X108773262Y-82989715D01*
X109140285Y-83356738D01*
X109571859Y-83645107D01*
X110051399Y-83843739D01*
X110560475Y-83945000D01*
X111079525Y-83945000D01*
X111588601Y-83843739D01*
X112068141Y-83645107D01*
X112499715Y-83356738D01*
X112866738Y-82989715D01*
X113134711Y-82588665D01*
X116345000Y-82588665D01*
X116345000Y-82871335D01*
X116400147Y-83148574D01*
X116508320Y-83409727D01*
X116665363Y-83644759D01*
X116865241Y-83844637D01*
X117100273Y-84001680D01*
X117361426Y-84109853D01*
X117638665Y-84165000D01*
X117921335Y-84165000D01*
X118198574Y-84109853D01*
X118459727Y-84001680D01*
X118694759Y-83844637D01*
X118894637Y-83644759D01*
X119051680Y-83409727D01*
X119159853Y-83148574D01*
X119165000Y-83122699D01*
X119170147Y-83148574D01*
X119278320Y-83409727D01*
X119435363Y-83644759D01*
X119635241Y-83844637D01*
X119870273Y-84001680D01*
X120131426Y-84109853D01*
X120408665Y-84165000D01*
X120691335Y-84165000D01*
X120968574Y-84109853D01*
X121229727Y-84001680D01*
X121464759Y-83844637D01*
X121664637Y-83644759D01*
X121821680Y-83409727D01*
X121929853Y-83148574D01*
X121935000Y-83122699D01*
X121940147Y-83148574D01*
X122048320Y-83409727D01*
X122205363Y-83644759D01*
X122405241Y-83844637D01*
X122640273Y-84001680D01*
X122901426Y-84109853D01*
X123178665Y-84165000D01*
X123461335Y-84165000D01*
X123738574Y-84109853D01*
X123999727Y-84001680D01*
X124234759Y-83844637D01*
X124434637Y-83644759D01*
X124591680Y-83409727D01*
X124699853Y-83148574D01*
X124705000Y-83122699D01*
X124710147Y-83148574D01*
X124818320Y-83409727D01*
X124975363Y-83644759D01*
X125175241Y-83844637D01*
X125410273Y-84001680D01*
X125671426Y-84109853D01*
X125948665Y-84165000D01*
X126231335Y-84165000D01*
X126508574Y-84109853D01*
X126769727Y-84001680D01*
X127004759Y-83844637D01*
X127204637Y-83644759D01*
X127361680Y-83409727D01*
X127421928Y-83264275D01*
X127421928Y-83530000D01*
X127434188Y-83654482D01*
X127470498Y-83774180D01*
X127529463Y-83884494D01*
X127608815Y-83981185D01*
X127705506Y-84060537D01*
X127815820Y-84119502D01*
X127935518Y-84155812D01*
X128060000Y-84168072D01*
X129660000Y-84168072D01*
X129784482Y-84155812D01*
X129904180Y-84119502D01*
X130014494Y-84060537D01*
X130111185Y-83981185D01*
X130190537Y-83884494D01*
X130249502Y-83774180D01*
X130285812Y-83654482D01*
X130298072Y-83530000D01*
X130298072Y-81930000D01*
X130285812Y-81805518D01*
X130249502Y-81685820D01*
X130190537Y-81575506D01*
X130111185Y-81478815D01*
X130014494Y-81399463D01*
X129904180Y-81340498D01*
X129784482Y-81304188D01*
X129660000Y-81291928D01*
X128060000Y-81291928D01*
X127935518Y-81304188D01*
X127815820Y-81340498D01*
X127705506Y-81399463D01*
X127608815Y-81478815D01*
X127529463Y-81575506D01*
X127470498Y-81685820D01*
X127434188Y-81805518D01*
X127421928Y-81930000D01*
X127421928Y-82195725D01*
X127361680Y-82050273D01*
X127204637Y-81815241D01*
X127004759Y-81615363D01*
X126769727Y-81458320D01*
X126508574Y-81350147D01*
X126231335Y-81295000D01*
X125948665Y-81295000D01*
X125671426Y-81350147D01*
X125410273Y-81458320D01*
X125175241Y-81615363D01*
X124975363Y-81815241D01*
X124818320Y-82050273D01*
X124710147Y-82311426D01*
X124705000Y-82337301D01*
X124699853Y-82311426D01*
X124591680Y-82050273D01*
X124434637Y-81815241D01*
X124234759Y-81615363D01*
X123999727Y-81458320D01*
X123738574Y-81350147D01*
X123461335Y-81295000D01*
X123178665Y-81295000D01*
X122901426Y-81350147D01*
X122640273Y-81458320D01*
X122405241Y-81615363D01*
X122205363Y-81815241D01*
X122048320Y-82050273D01*
X121940147Y-82311426D01*
X121935000Y-82337301D01*
X121929853Y-82311426D01*
X121821680Y-82050273D01*
X121664637Y-81815241D01*
X121464759Y-81615363D01*
X121229727Y-81458320D01*
X120968574Y-81350147D01*
X120691335Y-81295000D01*
X120408665Y-81295000D01*
X120131426Y-81350147D01*
X119870273Y-81458320D01*
X119635241Y-81615363D01*
X119435363Y-81815241D01*
X119278320Y-82050273D01*
X119170147Y-82311426D01*
X119165000Y-82337301D01*
X119159853Y-82311426D01*
X119051680Y-82050273D01*
X118894637Y-81815241D01*
X118694759Y-81615363D01*
X118459727Y-81458320D01*
X118198574Y-81350147D01*
X117921335Y-81295000D01*
X117638665Y-81295000D01*
X117361426Y-81350147D01*
X117100273Y-81458320D01*
X116865241Y-81615363D01*
X116665363Y-81815241D01*
X116508320Y-82050273D01*
X116400147Y-82311426D01*
X116345000Y-82588665D01*
X113134711Y-82588665D01*
X113155107Y-82558141D01*
X113353739Y-82078601D01*
X113455000Y-81569525D01*
X113455000Y-81050475D01*
X113353739Y-80541399D01*
X113155107Y-80061859D01*
X112945838Y-79748665D01*
X117730000Y-79748665D01*
X117730000Y-80031335D01*
X117785147Y-80308574D01*
X117893320Y-80569727D01*
X118050363Y-80804759D01*
X118250241Y-81004637D01*
X118485273Y-81161680D01*
X118746426Y-81269853D01*
X119023665Y-81325000D01*
X119306335Y-81325000D01*
X119583574Y-81269853D01*
X119844727Y-81161680D01*
X120079759Y-81004637D01*
X120201694Y-80882702D01*
X121121903Y-80882702D01*
X121193486Y-81126671D01*
X121448996Y-81247571D01*
X121723184Y-81316300D01*
X122005512Y-81330217D01*
X122285130Y-81288787D01*
X122551292Y-81193603D01*
X122676514Y-81126671D01*
X122748097Y-80882702D01*
X121935000Y-80069605D01*
X121121903Y-80882702D01*
X120201694Y-80882702D01*
X120279637Y-80804759D01*
X120436680Y-80569727D01*
X120544853Y-80308574D01*
X120550513Y-80280118D01*
X120631397Y-80506292D01*
X120698329Y-80631514D01*
X120942298Y-80703097D01*
X121755395Y-79890000D01*
X122114605Y-79890000D01*
X122927702Y-80703097D01*
X123171671Y-80631514D01*
X123292571Y-80376004D01*
X123318212Y-80273711D01*
X123325147Y-80308574D01*
X123433320Y-80569727D01*
X123590363Y-80804759D01*
X123790241Y-81004637D01*
X124025273Y-81161680D01*
X124286426Y-81269853D01*
X124563665Y-81325000D01*
X124846335Y-81325000D01*
X125123574Y-81269853D01*
X125384727Y-81161680D01*
X125619759Y-81004637D01*
X125819637Y-80804759D01*
X125976680Y-80569727D01*
X126084853Y-80308574D01*
X126090000Y-80282699D01*
X126095147Y-80308574D01*
X126203320Y-80569727D01*
X126360363Y-80804759D01*
X126560241Y-81004637D01*
X126795273Y-81161680D01*
X127056426Y-81269853D01*
X127333665Y-81325000D01*
X127616335Y-81325000D01*
X127893574Y-81269853D01*
X128154727Y-81161680D01*
X128321157Y-81050475D01*
X133185000Y-81050475D01*
X133185000Y-81569525D01*
X133286261Y-82078601D01*
X133484893Y-82558141D01*
X133773262Y-82989715D01*
X134140285Y-83356738D01*
X134571859Y-83645107D01*
X135051399Y-83843739D01*
X135560475Y-83945000D01*
X136079525Y-83945000D01*
X136588601Y-83843739D01*
X137068141Y-83645107D01*
X137499715Y-83356738D01*
X137866738Y-82989715D01*
X138155107Y-82558141D01*
X138200703Y-82448061D01*
X139210000Y-82448061D01*
X139210000Y-82651939D01*
X139249774Y-82851898D01*
X139327795Y-83040256D01*
X139441063Y-83209774D01*
X139585226Y-83353937D01*
X139754744Y-83467205D01*
X139943102Y-83545226D01*
X140143061Y-83585000D01*
X140346939Y-83585000D01*
X140546898Y-83545226D01*
X140735256Y-83467205D01*
X140904774Y-83353937D01*
X141048937Y-83209774D01*
X141162205Y-83040256D01*
X141240226Y-82851898D01*
X141280000Y-82651939D01*
X141280000Y-82448061D01*
X141240226Y-82248102D01*
X141192330Y-82132472D01*
X141284802Y-82040000D01*
X144459893Y-82040000D01*
X144261525Y-82238368D01*
X144099010Y-82481589D01*
X143987068Y-82751842D01*
X143930000Y-83038740D01*
X143930000Y-83331260D01*
X143987068Y-83618158D01*
X144099010Y-83888411D01*
X144261525Y-84131632D01*
X144468368Y-84338475D01*
X144642760Y-84455000D01*
X144468368Y-84571525D01*
X144261525Y-84778368D01*
X144099010Y-85021589D01*
X143987068Y-85291842D01*
X143930000Y-85578740D01*
X143930000Y-85871260D01*
X143987068Y-86158158D01*
X144099010Y-86428411D01*
X144261525Y-86671632D01*
X144468368Y-86878475D01*
X144655000Y-87003179D01*
X144655000Y-87959587D01*
X144478102Y-87994774D01*
X144289744Y-88072795D01*
X144120226Y-88186063D01*
X143976063Y-88330226D01*
X143862795Y-88499744D01*
X143784774Y-88688102D01*
X143745000Y-88888061D01*
X143745000Y-89091939D01*
X143784774Y-89291898D01*
X143862795Y-89480256D01*
X143976063Y-89649774D01*
X144120226Y-89793937D01*
X144289744Y-89907205D01*
X144478102Y-89985226D01*
X144678061Y-90025000D01*
X144881939Y-90025000D01*
X145081898Y-89985226D01*
X145270256Y-89907205D01*
X145439774Y-89793937D01*
X145583937Y-89649774D01*
X145697205Y-89480256D01*
X145775226Y-89291898D01*
X145815000Y-89091939D01*
X145815000Y-89029802D01*
X145926004Y-88918798D01*
X145955001Y-88895001D01*
X146049974Y-88779276D01*
X146120546Y-88647247D01*
X146164003Y-88503986D01*
X146175000Y-88392333D01*
X146175000Y-88392332D01*
X146178677Y-88355000D01*
X146175000Y-88317667D01*
X146175000Y-87003178D01*
X146361632Y-86878475D01*
X146568475Y-86671632D01*
X146685000Y-86497240D01*
X146801525Y-86671632D01*
X147008368Y-86878475D01*
X147195000Y-87003179D01*
X147195000Y-87324587D01*
X147018102Y-87359774D01*
X146829744Y-87437795D01*
X146660226Y-87551063D01*
X146516063Y-87695226D01*
X146402795Y-87864744D01*
X146324774Y-88053102D01*
X146285000Y-88253061D01*
X146285000Y-88456939D01*
X146324774Y-88656898D01*
X146402795Y-88845256D01*
X146516063Y-89014774D01*
X146660226Y-89158937D01*
X146829744Y-89272205D01*
X147018102Y-89350226D01*
X147218061Y-89390000D01*
X147421939Y-89390000D01*
X147621898Y-89350226D01*
X147810256Y-89272205D01*
X147979774Y-89158937D01*
X148123937Y-89014774D01*
X148237205Y-88845256D01*
X148315226Y-88656898D01*
X148355000Y-88456939D01*
X148355000Y-88394802D01*
X148466004Y-88283798D01*
X148495001Y-88260001D01*
X148589974Y-88144276D01*
X148660546Y-88012247D01*
X148704003Y-87868986D01*
X148715000Y-87757333D01*
X148715000Y-87757332D01*
X148718677Y-87720000D01*
X148715000Y-87682667D01*
X148715000Y-87003178D01*
X148901632Y-86878475D01*
X149108475Y-86671632D01*
X149225000Y-86497240D01*
X149341525Y-86671632D01*
X149442536Y-86772643D01*
X149369744Y-86802795D01*
X149200226Y-86916063D01*
X149056063Y-87060226D01*
X148942795Y-87229744D01*
X148864774Y-87418102D01*
X148825000Y-87618061D01*
X148825000Y-87821939D01*
X148864774Y-88021898D01*
X148942795Y-88210256D01*
X149056063Y-88379774D01*
X149200226Y-88523937D01*
X149369744Y-88637205D01*
X149558102Y-88715226D01*
X149758061Y-88755000D01*
X149961939Y-88755000D01*
X150161898Y-88715226D01*
X150350256Y-88637205D01*
X150519774Y-88523937D01*
X150663937Y-88379774D01*
X150777205Y-88210256D01*
X150804837Y-88143547D01*
X150847795Y-88247256D01*
X150961063Y-88416774D01*
X151105226Y-88560937D01*
X151274744Y-88674205D01*
X151463102Y-88752226D01*
X151663061Y-88792000D01*
X151866939Y-88792000D01*
X152066898Y-88752226D01*
X152255256Y-88674205D01*
X152424774Y-88560937D01*
X152568937Y-88416774D01*
X152682205Y-88247256D01*
X152760226Y-88058898D01*
X152800000Y-87858939D01*
X152800000Y-87655061D01*
X152760226Y-87455102D01*
X152682205Y-87266744D01*
X152606820Y-87153922D01*
X152888740Y-87210000D01*
X153181260Y-87210000D01*
X153468158Y-87152932D01*
X153738411Y-87040990D01*
X153981632Y-86878475D01*
X154188475Y-86671632D01*
X154305000Y-86497240D01*
X154421525Y-86671632D01*
X154628368Y-86878475D01*
X154871589Y-87040990D01*
X155141842Y-87152932D01*
X155428740Y-87210000D01*
X155721260Y-87210000D01*
X156008158Y-87152932D01*
X156278411Y-87040990D01*
X156521632Y-86878475D01*
X156728475Y-86671632D01*
X156845000Y-86497240D01*
X156961525Y-86671632D01*
X157168368Y-86878475D01*
X157411589Y-87040990D01*
X157681842Y-87152932D01*
X157968740Y-87210000D01*
X158261260Y-87210000D01*
X158548158Y-87152932D01*
X158818411Y-87040990D01*
X159061632Y-86878475D01*
X159268475Y-86671632D01*
X159385000Y-86497240D01*
X159501525Y-86671632D01*
X159708368Y-86878475D01*
X159951589Y-87040990D01*
X160221842Y-87152932D01*
X160508740Y-87210000D01*
X160801260Y-87210000D01*
X161088158Y-87152932D01*
X161358411Y-87040990D01*
X161601632Y-86878475D01*
X161808475Y-86671632D01*
X161925000Y-86497240D01*
X162041525Y-86671632D01*
X162248368Y-86878475D01*
X162491589Y-87040990D01*
X162761842Y-87152932D01*
X163048740Y-87210000D01*
X163341260Y-87210000D01*
X163628158Y-87152932D01*
X163898411Y-87040990D01*
X164141632Y-86878475D01*
X164266710Y-86753397D01*
X164886208Y-86753397D01*
X164963843Y-87002472D01*
X165227883Y-87128371D01*
X165511411Y-87200339D01*
X165803531Y-87215611D01*
X166093019Y-87173599D01*
X166368747Y-87075919D01*
X166506157Y-87002472D01*
X166583792Y-86753397D01*
X167426208Y-86753397D01*
X167503843Y-87002472D01*
X167767883Y-87128371D01*
X168051411Y-87200339D01*
X168343531Y-87215611D01*
X168633019Y-87173599D01*
X168908747Y-87075919D01*
X169046157Y-87002472D01*
X169123792Y-86753397D01*
X168275000Y-85904605D01*
X167426208Y-86753397D01*
X166583792Y-86753397D01*
X165735000Y-85904605D01*
X164886208Y-86753397D01*
X164266710Y-86753397D01*
X164348475Y-86671632D01*
X164464311Y-86498271D01*
X164706603Y-86573792D01*
X165555395Y-85725000D01*
X165914605Y-85725000D01*
X166763397Y-86573792D01*
X167005000Y-86498486D01*
X167246603Y-86573792D01*
X168095395Y-85725000D01*
X167246603Y-84876208D01*
X167005000Y-84951514D01*
X166763397Y-84876208D01*
X165914605Y-85725000D01*
X165555395Y-85725000D01*
X164706603Y-84876208D01*
X164464311Y-84951729D01*
X164348475Y-84778368D01*
X164141632Y-84571525D01*
X163967240Y-84455000D01*
X164141632Y-84338475D01*
X164266710Y-84213397D01*
X164886208Y-84213397D01*
X164961514Y-84455000D01*
X164886208Y-84696603D01*
X165735000Y-85545395D01*
X166583792Y-84696603D01*
X166508486Y-84455000D01*
X166583792Y-84213397D01*
X167426208Y-84213397D01*
X167501514Y-84455000D01*
X167426208Y-84696603D01*
X168275000Y-85545395D01*
X169123792Y-84696603D01*
X169048486Y-84455000D01*
X169123792Y-84213397D01*
X168275000Y-83364605D01*
X167426208Y-84213397D01*
X166583792Y-84213397D01*
X165735000Y-83364605D01*
X164886208Y-84213397D01*
X164266710Y-84213397D01*
X164348475Y-84131632D01*
X164464311Y-83958271D01*
X164706603Y-84033792D01*
X165555395Y-83185000D01*
X165914605Y-83185000D01*
X166763397Y-84033792D01*
X167005000Y-83958486D01*
X167246603Y-84033792D01*
X168095395Y-83185000D01*
X168454605Y-83185000D01*
X169303397Y-84033792D01*
X169545689Y-83958271D01*
X169661525Y-84131632D01*
X169868368Y-84338475D01*
X170042760Y-84455000D01*
X169868368Y-84571525D01*
X169661525Y-84778368D01*
X169545689Y-84951729D01*
X169303397Y-84876208D01*
X168454605Y-85725000D01*
X169303397Y-86573792D01*
X169545689Y-86498271D01*
X169661525Y-86671632D01*
X169868368Y-86878475D01*
X170111589Y-87040990D01*
X170381842Y-87152932D01*
X170668740Y-87210000D01*
X170961260Y-87210000D01*
X171248158Y-87152932D01*
X171518411Y-87040990D01*
X171761632Y-86878475D01*
X171968475Y-86671632D01*
X172085000Y-86497240D01*
X172201525Y-86671632D01*
X172408368Y-86878475D01*
X172651589Y-87040990D01*
X172921842Y-87152932D01*
X173208740Y-87210000D01*
X173501260Y-87210000D01*
X173788158Y-87152932D01*
X174058411Y-87040990D01*
X174301632Y-86878475D01*
X174508475Y-86671632D01*
X174670990Y-86428411D01*
X174782932Y-86158158D01*
X174840000Y-85871260D01*
X174840000Y-85578740D01*
X174782932Y-85291842D01*
X174670990Y-85021589D01*
X174508475Y-84778368D01*
X174301632Y-84571525D01*
X174127240Y-84455000D01*
X174301632Y-84338475D01*
X174508475Y-84131632D01*
X174670990Y-83888411D01*
X174782932Y-83618158D01*
X174840000Y-83331260D01*
X174840000Y-83038740D01*
X174782932Y-82751842D01*
X174670990Y-82481589D01*
X174508475Y-82238368D01*
X174301632Y-82031525D01*
X174058411Y-81869010D01*
X173788158Y-81757068D01*
X173501260Y-81700000D01*
X173208740Y-81700000D01*
X172921842Y-81757068D01*
X172651589Y-81869010D01*
X172408368Y-82031525D01*
X172201525Y-82238368D01*
X172085000Y-82412760D01*
X171968475Y-82238368D01*
X171761632Y-82031525D01*
X171518411Y-81869010D01*
X171248158Y-81757068D01*
X170961260Y-81700000D01*
X170668740Y-81700000D01*
X170381842Y-81757068D01*
X170111589Y-81869010D01*
X169868368Y-82031525D01*
X169661525Y-82238368D01*
X169545689Y-82411729D01*
X169303397Y-82336208D01*
X168454605Y-83185000D01*
X168095395Y-83185000D01*
X167246603Y-82336208D01*
X167005000Y-82411514D01*
X166763397Y-82336208D01*
X165914605Y-83185000D01*
X165555395Y-83185000D01*
X164706603Y-82336208D01*
X164464311Y-82411729D01*
X164348475Y-82238368D01*
X164266710Y-82156603D01*
X164886208Y-82156603D01*
X165735000Y-83005395D01*
X166583792Y-82156603D01*
X167426208Y-82156603D01*
X168275000Y-83005395D01*
X169123792Y-82156603D01*
X169046157Y-81907528D01*
X168782117Y-81781629D01*
X168498589Y-81709661D01*
X168206469Y-81694389D01*
X167916981Y-81736401D01*
X167641253Y-81834081D01*
X167503843Y-81907528D01*
X167426208Y-82156603D01*
X166583792Y-82156603D01*
X166506157Y-81907528D01*
X166242117Y-81781629D01*
X165958589Y-81709661D01*
X165666469Y-81694389D01*
X165376981Y-81736401D01*
X165101253Y-81834081D01*
X164963843Y-81907528D01*
X164886208Y-82156603D01*
X164266710Y-82156603D01*
X164141632Y-82031525D01*
X163958074Y-81908875D01*
X163944003Y-81766014D01*
X163900546Y-81622753D01*
X163829974Y-81490724D01*
X163758799Y-81403997D01*
X163735001Y-81374999D01*
X163706002Y-81351200D01*
X163123803Y-80769002D01*
X163100001Y-80739999D01*
X162984276Y-80645026D01*
X162852247Y-80574454D01*
X162708986Y-80530997D01*
X162597333Y-80520000D01*
X162597322Y-80520000D01*
X162560000Y-80516324D01*
X162522678Y-80520000D01*
X141007323Y-80520000D01*
X140970000Y-80516324D01*
X140932677Y-80520000D01*
X140932667Y-80520000D01*
X140821014Y-80530997D01*
X140677753Y-80574454D01*
X140545724Y-80645026D01*
X140429999Y-80739999D01*
X140406201Y-80768998D01*
X139734002Y-81441197D01*
X139704999Y-81464999D01*
X139663965Y-81515000D01*
X139610026Y-81580724D01*
X139553851Y-81685820D01*
X139539454Y-81712754D01*
X139505020Y-81826269D01*
X139441063Y-81890226D01*
X139327795Y-82059744D01*
X139249774Y-82248102D01*
X139210000Y-82448061D01*
X138200703Y-82448061D01*
X138353739Y-82078601D01*
X138455000Y-81569525D01*
X138455000Y-81050475D01*
X138353739Y-80541399D01*
X138155107Y-80061859D01*
X137866738Y-79630285D01*
X137499715Y-79263262D01*
X137068141Y-78974893D01*
X137009042Y-78950413D01*
X148829192Y-78950413D01*
X148924956Y-79214814D01*
X149214571Y-79355704D01*
X149526108Y-79437384D01*
X149847595Y-79456718D01*
X150166675Y-79412961D01*
X150471088Y-79307795D01*
X150645044Y-79214814D01*
X150740808Y-78950413D01*
X155329192Y-78950413D01*
X155424956Y-79214814D01*
X155714571Y-79355704D01*
X156026108Y-79437384D01*
X156347595Y-79456718D01*
X156666675Y-79412961D01*
X156971088Y-79307795D01*
X157145044Y-79214814D01*
X157240808Y-78950413D01*
X160259192Y-78950413D01*
X160354956Y-79214814D01*
X160644571Y-79355704D01*
X160956108Y-79437384D01*
X161277595Y-79456718D01*
X161596675Y-79412961D01*
X161901088Y-79307795D01*
X162075044Y-79214814D01*
X162170808Y-78950413D01*
X166759192Y-78950413D01*
X166854956Y-79214814D01*
X167144571Y-79355704D01*
X167456108Y-79437384D01*
X167777595Y-79456718D01*
X168096675Y-79412961D01*
X168401088Y-79307795D01*
X168575044Y-79214814D01*
X168670808Y-78950413D01*
X167715000Y-77994605D01*
X166759192Y-78950413D01*
X162170808Y-78950413D01*
X161215000Y-77994605D01*
X160259192Y-78950413D01*
X157240808Y-78950413D01*
X156285000Y-77994605D01*
X155329192Y-78950413D01*
X150740808Y-78950413D01*
X149785000Y-77994605D01*
X148829192Y-78950413D01*
X137009042Y-78950413D01*
X136588601Y-78776261D01*
X136079525Y-78675000D01*
X135560475Y-78675000D01*
X135051399Y-78776261D01*
X134571859Y-78974893D01*
X134140285Y-79263262D01*
X133773262Y-79630285D01*
X133484893Y-80061859D01*
X133286261Y-80541399D01*
X133185000Y-81050475D01*
X128321157Y-81050475D01*
X128389759Y-81004637D01*
X128589637Y-80804759D01*
X128746680Y-80569727D01*
X128854853Y-80308574D01*
X128910000Y-80031335D01*
X128910000Y-79748665D01*
X128854853Y-79471426D01*
X128746680Y-79210273D01*
X128589637Y-78975241D01*
X128389759Y-78775363D01*
X128154727Y-78618320D01*
X127893574Y-78510147D01*
X127616335Y-78455000D01*
X127333665Y-78455000D01*
X127056426Y-78510147D01*
X126795273Y-78618320D01*
X126560241Y-78775363D01*
X126360363Y-78975241D01*
X126203320Y-79210273D01*
X126095147Y-79471426D01*
X126090000Y-79497301D01*
X126084853Y-79471426D01*
X125976680Y-79210273D01*
X125819637Y-78975241D01*
X125619759Y-78775363D01*
X125384727Y-78618320D01*
X125123574Y-78510147D01*
X124846335Y-78455000D01*
X124563665Y-78455000D01*
X124286426Y-78510147D01*
X124025273Y-78618320D01*
X123790241Y-78775363D01*
X123590363Y-78975241D01*
X123433320Y-79210273D01*
X123325147Y-79471426D01*
X123319487Y-79499882D01*
X123238603Y-79273708D01*
X123171671Y-79148486D01*
X122927702Y-79076903D01*
X122114605Y-79890000D01*
X121755395Y-79890000D01*
X120942298Y-79076903D01*
X120698329Y-79148486D01*
X120577429Y-79403996D01*
X120551788Y-79506289D01*
X120544853Y-79471426D01*
X120436680Y-79210273D01*
X120279637Y-78975241D01*
X120201694Y-78897298D01*
X121121903Y-78897298D01*
X121935000Y-79710395D01*
X122748097Y-78897298D01*
X122676514Y-78653329D01*
X122421004Y-78532429D01*
X122146816Y-78463700D01*
X121864488Y-78449783D01*
X121584870Y-78491213D01*
X121318708Y-78586397D01*
X121193486Y-78653329D01*
X121121903Y-78897298D01*
X120201694Y-78897298D01*
X120079759Y-78775363D01*
X119844727Y-78618320D01*
X119583574Y-78510147D01*
X119306335Y-78455000D01*
X119023665Y-78455000D01*
X118746426Y-78510147D01*
X118485273Y-78618320D01*
X118250241Y-78775363D01*
X118050363Y-78975241D01*
X117893320Y-79210273D01*
X117785147Y-79471426D01*
X117730000Y-79748665D01*
X112945838Y-79748665D01*
X112866738Y-79630285D01*
X112499715Y-79263262D01*
X112068141Y-78974893D01*
X111588601Y-78776261D01*
X111079525Y-78675000D01*
X110560475Y-78675000D01*
X110051399Y-78776261D01*
X109571859Y-78974893D01*
X109140285Y-79263262D01*
X108773262Y-79630285D01*
X108484893Y-80061859D01*
X108286261Y-80541399D01*
X108185000Y-81050475D01*
X96545000Y-81050475D01*
X96545000Y-75597279D01*
X96571197Y-75330098D01*
X97310000Y-75330098D01*
X97310000Y-75799902D01*
X97401654Y-76260679D01*
X97581440Y-76694721D01*
X97842450Y-77085349D01*
X98174651Y-77417550D01*
X98565279Y-77678560D01*
X98999321Y-77858346D01*
X99460098Y-77950000D01*
X99929902Y-77950000D01*
X100293907Y-77877595D01*
X148143282Y-77877595D01*
X148187039Y-78196675D01*
X148292205Y-78501088D01*
X148385186Y-78675044D01*
X148649587Y-78770808D01*
X149605395Y-77815000D01*
X149964605Y-77815000D01*
X150920413Y-78770808D01*
X151184814Y-78675044D01*
X151325704Y-78385429D01*
X151407384Y-78073892D01*
X151419189Y-77877595D01*
X154643282Y-77877595D01*
X154687039Y-78196675D01*
X154792205Y-78501088D01*
X154885186Y-78675044D01*
X155149587Y-78770808D01*
X156105395Y-77815000D01*
X156464605Y-77815000D01*
X157420413Y-78770808D01*
X157684814Y-78675044D01*
X157825704Y-78385429D01*
X157907384Y-78073892D01*
X157919189Y-77877595D01*
X159573282Y-77877595D01*
X159617039Y-78196675D01*
X159722205Y-78501088D01*
X159815186Y-78675044D01*
X160079587Y-78770808D01*
X161035395Y-77815000D01*
X161394605Y-77815000D01*
X162350413Y-78770808D01*
X162614814Y-78675044D01*
X162755704Y-78385429D01*
X162837384Y-78073892D01*
X162849189Y-77877595D01*
X166073282Y-77877595D01*
X166117039Y-78196675D01*
X166222205Y-78501088D01*
X166315186Y-78675044D01*
X166579587Y-78770808D01*
X167535395Y-77815000D01*
X167894605Y-77815000D01*
X168850413Y-78770808D01*
X169114814Y-78675044D01*
X169255704Y-78385429D01*
X169337384Y-78073892D01*
X169356718Y-77752405D01*
X169312961Y-77433325D01*
X169207795Y-77128912D01*
X169114814Y-76954956D01*
X168850413Y-76859192D01*
X167894605Y-77815000D01*
X167535395Y-77815000D01*
X166579587Y-76859192D01*
X166315186Y-76954956D01*
X166174296Y-77244571D01*
X166092616Y-77556108D01*
X166073282Y-77877595D01*
X162849189Y-77877595D01*
X162856718Y-77752405D01*
X162812961Y-77433325D01*
X162707795Y-77128912D01*
X162614814Y-76954956D01*
X162350413Y-76859192D01*
X161394605Y-77815000D01*
X161035395Y-77815000D01*
X160079587Y-76859192D01*
X159815186Y-76954956D01*
X159674296Y-77244571D01*
X159592616Y-77556108D01*
X159573282Y-77877595D01*
X157919189Y-77877595D01*
X157926718Y-77752405D01*
X157882961Y-77433325D01*
X157777795Y-77128912D01*
X157684814Y-76954956D01*
X157420413Y-76859192D01*
X156464605Y-77815000D01*
X156105395Y-77815000D01*
X155149587Y-76859192D01*
X154885186Y-76954956D01*
X154744296Y-77244571D01*
X154662616Y-77556108D01*
X154643282Y-77877595D01*
X151419189Y-77877595D01*
X151426718Y-77752405D01*
X151382961Y-77433325D01*
X151277795Y-77128912D01*
X151184814Y-76954956D01*
X150920413Y-76859192D01*
X149964605Y-77815000D01*
X149605395Y-77815000D01*
X148649587Y-76859192D01*
X148385186Y-76954956D01*
X148244296Y-77244571D01*
X148162616Y-77556108D01*
X148143282Y-77877595D01*
X100293907Y-77877595D01*
X100390679Y-77858346D01*
X100824721Y-77678560D01*
X101215349Y-77417550D01*
X101547550Y-77085349D01*
X101808560Y-76694721D01*
X101814828Y-76679587D01*
X148829192Y-76679587D01*
X149785000Y-77635395D01*
X150740808Y-76679587D01*
X155329192Y-76679587D01*
X156285000Y-77635395D01*
X157240808Y-76679587D01*
X160259192Y-76679587D01*
X161215000Y-77635395D01*
X162170808Y-76679587D01*
X162075044Y-76415186D01*
X161785429Y-76274296D01*
X161473892Y-76192616D01*
X161152405Y-76173282D01*
X160833325Y-76217039D01*
X160528912Y-76322205D01*
X160354956Y-76415186D01*
X160259192Y-76679587D01*
X157240808Y-76679587D01*
X157145044Y-76415186D01*
X156855429Y-76274296D01*
X156543892Y-76192616D01*
X156222405Y-76173282D01*
X155903325Y-76217039D01*
X155598912Y-76322205D01*
X155424956Y-76415186D01*
X155329192Y-76679587D01*
X150740808Y-76679587D01*
X150645044Y-76415186D01*
X150355429Y-76274296D01*
X150043892Y-76192616D01*
X149722405Y-76173282D01*
X149403325Y-76217039D01*
X149098912Y-76322205D01*
X148924956Y-76415186D01*
X148829192Y-76679587D01*
X101814828Y-76679587D01*
X101988346Y-76260679D01*
X102080000Y-75799902D01*
X102080000Y-75330098D01*
X101988346Y-74869321D01*
X101808560Y-74435279D01*
X101547550Y-74044651D01*
X101215349Y-73712450D01*
X100824721Y-73451440D01*
X100390679Y-73271654D01*
X99929902Y-73180000D01*
X99460098Y-73180000D01*
X98999321Y-73271654D01*
X98565279Y-73451440D01*
X98174651Y-73712450D01*
X97842450Y-74044651D01*
X97581440Y-74435279D01*
X97401654Y-74869321D01*
X97310000Y-75330098D01*
X96571197Y-75330098D01*
X96608096Y-74953778D01*
X96785606Y-74365836D01*
X97073937Y-73823564D01*
X97462094Y-73347636D01*
X97935314Y-72956155D01*
X98475552Y-72664049D01*
X99062244Y-72482437D01*
X99703879Y-72415000D01*
X148419963Y-72415000D01*
X148336082Y-72540537D01*
%TA.AperFunction,Conductor*%
D25*
G36*
X148336082Y-72540537D02*
G01*
X148212832Y-72838088D01*
X148150000Y-73153967D01*
X148150000Y-73476033D01*
X148212832Y-73791912D01*
X148336082Y-74089463D01*
X148515013Y-74357252D01*
X148742748Y-74584987D01*
X149010537Y-74763918D01*
X149308088Y-74887168D01*
X149623967Y-74950000D01*
X149946033Y-74950000D01*
X150261912Y-74887168D01*
X150559463Y-74763918D01*
X150827252Y-74584987D01*
X151054987Y-74357252D01*
X151233918Y-74089463D01*
X151357168Y-73791912D01*
X151420000Y-73476033D01*
X151420000Y-73153967D01*
X151357168Y-72838088D01*
X151233918Y-72540537D01*
X151150037Y-72415000D01*
X154919963Y-72415000D01*
X154836082Y-72540537D01*
X154712832Y-72838088D01*
X154650000Y-73153967D01*
X154650000Y-73476033D01*
X154712832Y-73791912D01*
X154836082Y-74089463D01*
X155015013Y-74357252D01*
X155242748Y-74584987D01*
X155510537Y-74763918D01*
X155808088Y-74887168D01*
X156123967Y-74950000D01*
X156446033Y-74950000D01*
X156761912Y-74887168D01*
X157059463Y-74763918D01*
X157327252Y-74584987D01*
X157554987Y-74357252D01*
X157733918Y-74089463D01*
X157857168Y-73791912D01*
X157920000Y-73476033D01*
X157920000Y-73153967D01*
X157857168Y-72838088D01*
X157733918Y-72540537D01*
X157650037Y-72415000D01*
X159849963Y-72415000D01*
X159766082Y-72540537D01*
X159642832Y-72838088D01*
X159580000Y-73153967D01*
X159580000Y-73476033D01*
X159642832Y-73791912D01*
X159766082Y-74089463D01*
X159945013Y-74357252D01*
X160172748Y-74584987D01*
X160440537Y-74763918D01*
X160738088Y-74887168D01*
X161053967Y-74950000D01*
X161376033Y-74950000D01*
X161691912Y-74887168D01*
X161989463Y-74763918D01*
X162257252Y-74584987D01*
X162484987Y-74357252D01*
X162663918Y-74089463D01*
X162787168Y-73791912D01*
X162850000Y-73476033D01*
X162850000Y-73153967D01*
X162787168Y-72838088D01*
X162663918Y-72540537D01*
X162580037Y-72415000D01*
X163984995Y-72415000D01*
X163841226Y-72511063D01*
X163697063Y-72655226D01*
X163583795Y-72824744D01*
X163505774Y-73013102D01*
X163466000Y-73213061D01*
X163466000Y-73416939D01*
X163505774Y-73616898D01*
X163583795Y-73805256D01*
X163697063Y-73974774D01*
X163705001Y-73982712D01*
X163705000Y-76131289D01*
X163661063Y-76175226D01*
X163547795Y-76344744D01*
X163469774Y-76533102D01*
X163430000Y-76733061D01*
X163430000Y-76936939D01*
X163469774Y-77136898D01*
X163547795Y-77325256D01*
X163661063Y-77494774D01*
X163805226Y-77638937D01*
X163974744Y-77752205D01*
X164163102Y-77830226D01*
X164363061Y-77870000D01*
X164566939Y-77870000D01*
X164766898Y-77830226D01*
X164955256Y-77752205D01*
X165124774Y-77638937D01*
X165268937Y-77494774D01*
X165382205Y-77325256D01*
X165460226Y-77136898D01*
X165500000Y-76936939D01*
X165500000Y-76733061D01*
X165489364Y-76679587D01*
X166759192Y-76679587D01*
X167715000Y-77635395D01*
X168670808Y-76679587D01*
X168575044Y-76415186D01*
X168285429Y-76274296D01*
X167973892Y-76192616D01*
X167652405Y-76173282D01*
X167333325Y-76217039D01*
X167028912Y-76322205D01*
X166854956Y-76415186D01*
X166759192Y-76679587D01*
X165489364Y-76679587D01*
X165460226Y-76533102D01*
X165382205Y-76344744D01*
X165268937Y-76175226D01*
X165225000Y-76131289D01*
X165225000Y-75330098D01*
X170970000Y-75330098D01*
X170970000Y-75799902D01*
X171061654Y-76260679D01*
X171241440Y-76694721D01*
X171502450Y-77085349D01*
X171834651Y-77417550D01*
X172225279Y-77678560D01*
X172659321Y-77858346D01*
X173120098Y-77950000D01*
X173589902Y-77950000D01*
X174050679Y-77858346D01*
X174484721Y-77678560D01*
X174875349Y-77417550D01*
X175207550Y-77085349D01*
X175468560Y-76694721D01*
X175648346Y-76260679D01*
X175740000Y-75799902D01*
X175740000Y-75330098D01*
X175648346Y-74869321D01*
X175468560Y-74435279D01*
X175207550Y-74044651D01*
X174875349Y-73712450D01*
X174484721Y-73451440D01*
X174050679Y-73271654D01*
X173589902Y-73180000D01*
X173120098Y-73180000D01*
X172659321Y-73271654D01*
X172225279Y-73451440D01*
X171834651Y-73712450D01*
X171502450Y-74044651D01*
X171241440Y-74435279D01*
X171061654Y-74869321D01*
X170970000Y-75330098D01*
X165225000Y-75330098D01*
X165225000Y-74054711D01*
X165304937Y-73974774D01*
X165418205Y-73805256D01*
X165496226Y-73616898D01*
X165536000Y-73416939D01*
X165536000Y-73213061D01*
X165496226Y-73013102D01*
X165418205Y-72824744D01*
X165304937Y-72655226D01*
X165160774Y-72511063D01*
X165017005Y-72415000D01*
X166349963Y-72415000D01*
X166266082Y-72540537D01*
X166142832Y-72838088D01*
X166080000Y-73153967D01*
X166080000Y-73476033D01*
X166142832Y-73791912D01*
X166266082Y-74089463D01*
X166445013Y-74357252D01*
X166672748Y-74584987D01*
X166940537Y-74763918D01*
X167238088Y-74887168D01*
X167553967Y-74950000D01*
X167876033Y-74950000D01*
X168191912Y-74887168D01*
X168489463Y-74763918D01*
X168757252Y-74584987D01*
X168984987Y-74357252D01*
X169163918Y-74089463D01*
X169287168Y-73791912D01*
X169350000Y-73476033D01*
X169350000Y-73153967D01*
X169287168Y-72838088D01*
X169163918Y-72540537D01*
X169080037Y-72415000D01*
X173322721Y-72415000D01*
X173966222Y-72478096D01*
X174554164Y-72655606D01*
X175096436Y-72943937D01*
X175572364Y-73332094D01*
X175963845Y-73805314D01*
X176255951Y-74345552D01*
X176437563Y-74932244D01*
X176505000Y-75573879D01*
X176505001Y-108552711D01*
X176441904Y-109196221D01*
X176264394Y-109784164D01*
X175976063Y-110326436D01*
X175587906Y-110802364D01*
X175114686Y-111193845D01*
X174574449Y-111485950D01*
X173987756Y-111667563D01*
X173346130Y-111735000D01*
X123392195Y-111735000D01*
X123472205Y-111615256D01*
X123550226Y-111426898D01*
X123590000Y-111226939D01*
X123590000Y-111023061D01*
X123550226Y-110823102D01*
X123472205Y-110634744D01*
X123358937Y-110465226D01*
X123214774Y-110321063D01*
X123045256Y-110207795D01*
X122856898Y-110129774D01*
X122740500Y-110106621D01*
X122740500Y-109485000D01*
X161656928Y-109485000D01*
X161669188Y-109609482D01*
X161705498Y-109729180D01*
X161764463Y-109839494D01*
X161843815Y-109936185D01*
X161940506Y-110015537D01*
X162050820Y-110074502D01*
X162170518Y-110110812D01*
X162295000Y-110123072D01*
X162909250Y-110120000D01*
X163068000Y-109961250D01*
X163068000Y-108712000D01*
X161818750Y-108712000D01*
X161660000Y-108870750D01*
X161656928Y-109485000D01*
X122740500Y-109485000D01*
X122740500Y-107685000D01*
X161656928Y-107685000D01*
X161660000Y-108299250D01*
X161818750Y-108458000D01*
X163068000Y-108458000D01*
X163068000Y-107208750D01*
X163322000Y-107208750D01*
X163322000Y-108458000D01*
X163342000Y-108458000D01*
X163342000Y-108712000D01*
X163322000Y-108712000D01*
X163322000Y-109961250D01*
X163480750Y-110120000D01*
X164095000Y-110123072D01*
X164219482Y-110110812D01*
X164339180Y-110074502D01*
X164449494Y-110015537D01*
X164546185Y-109936185D01*
X164625537Y-109839494D01*
X164684502Y-109729180D01*
X164690056Y-109710873D01*
X164756495Y-109777312D01*
X165007905Y-109945299D01*
X165287257Y-110061011D01*
X165583816Y-110120000D01*
X165886184Y-110120000D01*
X166182743Y-110061011D01*
X166462095Y-109945299D01*
X166713505Y-109777312D01*
X166927312Y-109563505D01*
X167095299Y-109312095D01*
X167211011Y-109032743D01*
X167270000Y-108736184D01*
X167270000Y-108433816D01*
X167253348Y-108350098D01*
X170970000Y-108350098D01*
X170970000Y-108819902D01*
X171061654Y-109280679D01*
X171241440Y-109714721D01*
X171502450Y-110105349D01*
X171834651Y-110437550D01*
X172225279Y-110698560D01*
X172659321Y-110878346D01*
X173120098Y-110970000D01*
X173589902Y-110970000D01*
X174050679Y-110878346D01*
X174484721Y-110698560D01*
X174875349Y-110437550D01*
X175207550Y-110105349D01*
X175468560Y-109714721D01*
X175648346Y-109280679D01*
X175740000Y-108819902D01*
X175740000Y-108350098D01*
X175648346Y-107889321D01*
X175468560Y-107455279D01*
X175207550Y-107064651D01*
X174875349Y-106732450D01*
X174484721Y-106471440D01*
X174050679Y-106291654D01*
X173589902Y-106200000D01*
X173120098Y-106200000D01*
X172659321Y-106291654D01*
X172225279Y-106471440D01*
X171834651Y-106732450D01*
X171502450Y-107064651D01*
X171241440Y-107455279D01*
X171061654Y-107889321D01*
X170970000Y-108350098D01*
X167253348Y-108350098D01*
X167211011Y-108137257D01*
X167095299Y-107857905D01*
X166927312Y-107606495D01*
X166713505Y-107392688D01*
X166462095Y-107224701D01*
X166182743Y-107108989D01*
X165886184Y-107050000D01*
X165583816Y-107050000D01*
X165287257Y-107108989D01*
X165007905Y-107224701D01*
X164756495Y-107392688D01*
X164690056Y-107459127D01*
X164684502Y-107440820D01*
X164625537Y-107330506D01*
X164546185Y-107233815D01*
X164449494Y-107154463D01*
X164339180Y-107095498D01*
X164219482Y-107059188D01*
X164095000Y-107046928D01*
X163480750Y-107050000D01*
X163322000Y-107208750D01*
X163068000Y-107208750D01*
X162909250Y-107050000D01*
X162295000Y-107046928D01*
X162170518Y-107059188D01*
X162050820Y-107095498D01*
X161940506Y-107154463D01*
X161843815Y-107233815D01*
X161764463Y-107330506D01*
X161705498Y-107440820D01*
X161669188Y-107560518D01*
X161656928Y-107685000D01*
X122740500Y-107685000D01*
X122740500Y-105484278D01*
X122829759Y-105424637D01*
X122951694Y-105302702D01*
X123871903Y-105302702D01*
X123943486Y-105546671D01*
X124198996Y-105667571D01*
X124473184Y-105736300D01*
X124755512Y-105750217D01*
X125035130Y-105708787D01*
X125301292Y-105613603D01*
X125426514Y-105546671D01*
X125498097Y-105302702D01*
X124685000Y-104489605D01*
X123871903Y-105302702D01*
X122951694Y-105302702D01*
X123029637Y-105224759D01*
X123186680Y-104989727D01*
X123294853Y-104728574D01*
X123300513Y-104700118D01*
X123381397Y-104926292D01*
X123448329Y-105051514D01*
X123692298Y-105123097D01*
X124505395Y-104310000D01*
X123692298Y-103496903D01*
X123448329Y-103568486D01*
X123327429Y-103823996D01*
X123301788Y-103926289D01*
X123294853Y-103891426D01*
X123186680Y-103630273D01*
X123029637Y-103395241D01*
X122951694Y-103317298D01*
X123871903Y-103317298D01*
X124685000Y-104130395D01*
X125498097Y-103317298D01*
X125426514Y-103073329D01*
X125171004Y-102952429D01*
X124896816Y-102883700D01*
X124614488Y-102869783D01*
X124334870Y-102911213D01*
X124068708Y-103006397D01*
X123943486Y-103073329D01*
X123871903Y-103317298D01*
X122951694Y-103317298D01*
X122829759Y-103195363D01*
X122594727Y-103038320D01*
X122333574Y-102930147D01*
X122056335Y-102875000D01*
X121773665Y-102875000D01*
X121496426Y-102930147D01*
X121235273Y-103038320D01*
X121000241Y-103195363D01*
X120800363Y-103395241D01*
X120643320Y-103630273D01*
X120535147Y-103891426D01*
X120530000Y-103917301D01*
X120524853Y-103891426D01*
X120416680Y-103630273D01*
X120259637Y-103395241D01*
X120059759Y-103195363D01*
X119824727Y-103038320D01*
X119563574Y-102930147D01*
X119286335Y-102875000D01*
X119003665Y-102875000D01*
X118726426Y-102930147D01*
X118465273Y-103038320D01*
X118230241Y-103195363D01*
X118030363Y-103395241D01*
X117873320Y-103630273D01*
X117765147Y-103891426D01*
X117710000Y-104168665D01*
X117710000Y-104451335D01*
X117765147Y-104728574D01*
X117873320Y-104989727D01*
X118030363Y-105224759D01*
X118230241Y-105424637D01*
X118385001Y-105528044D01*
X118385001Y-106153668D01*
X118381324Y-106191000D01*
X118395998Y-106339985D01*
X118439454Y-106483246D01*
X118510026Y-106615276D01*
X118545101Y-106658014D01*
X118605000Y-106731001D01*
X118633998Y-106754799D01*
X118726000Y-106846801D01*
X118726000Y-106908939D01*
X118765774Y-107108898D01*
X118843795Y-107297256D01*
X118957063Y-107466774D01*
X119101226Y-107610937D01*
X119270744Y-107724205D01*
X119459102Y-107802226D01*
X119659061Y-107842000D01*
X119862939Y-107842000D01*
X120062898Y-107802226D01*
X120251256Y-107724205D01*
X120420774Y-107610937D01*
X120564937Y-107466774D01*
X120678205Y-107297256D01*
X120756226Y-107108898D01*
X120796000Y-106908939D01*
X120796000Y-106705061D01*
X120756226Y-106505102D01*
X120678205Y-106316744D01*
X120564937Y-106147226D01*
X120420774Y-106003063D01*
X120251256Y-105889795D01*
X120062898Y-105811774D01*
X119905000Y-105780366D01*
X119905000Y-105528043D01*
X120059759Y-105424637D01*
X120259637Y-105224759D01*
X120416680Y-104989727D01*
X120524853Y-104728574D01*
X120530000Y-104702699D01*
X120535147Y-104728574D01*
X120643320Y-104989727D01*
X120800363Y-105224759D01*
X121000241Y-105424637D01*
X121089501Y-105484278D01*
X121089500Y-107904447D01*
X121089500Y-107904448D01*
X121089501Y-110444440D01*
X121085506Y-110485000D01*
X121101445Y-110646826D01*
X121148647Y-110802433D01*
X121225301Y-110945842D01*
X121286863Y-111020854D01*
X121328460Y-111071541D01*
X121359961Y-111097393D01*
X121527572Y-111265004D01*
X121559774Y-111426898D01*
X121637795Y-111615256D01*
X121717805Y-111735000D01*
X99727279Y-111735000D01*
X99083779Y-111671904D01*
X98495836Y-111494394D01*
X97953564Y-111206063D01*
X97477636Y-110817906D01*
X97086155Y-110344686D01*
X96794050Y-109804449D01*
X96612437Y-109217756D01*
X96545000Y-108576130D01*
X96545000Y-108350098D01*
X97310000Y-108350098D01*
X97310000Y-108819902D01*
X97401654Y-109280679D01*
X97581440Y-109714721D01*
X97842450Y-110105349D01*
X98174651Y-110437550D01*
X98565279Y-110698560D01*
X98999321Y-110878346D01*
X99460098Y-110970000D01*
X99929902Y-110970000D01*
X100390679Y-110878346D01*
X100824721Y-110698560D01*
X101215349Y-110437550D01*
X101547550Y-110105349D01*
X101808560Y-109714721D01*
X101988346Y-109280679D01*
X102080000Y-108819902D01*
X102080000Y-108350098D01*
X101988346Y-107889321D01*
X101808560Y-107455279D01*
X101547550Y-107064651D01*
X101215349Y-106732450D01*
X100824721Y-106471440D01*
X100390679Y-106291654D01*
X99929902Y-106200000D01*
X99460098Y-106200000D01*
X98999321Y-106291654D01*
X98565279Y-106471440D01*
X98174651Y-106732450D01*
X97842450Y-107064651D01*
X97581440Y-107455279D01*
X97401654Y-107889321D01*
X97310000Y-108350098D01*
X96545000Y-108350098D01*
X96545000Y-102630475D01*
X108165000Y-102630475D01*
X108165000Y-103149525D01*
X108266261Y-103658601D01*
X108464893Y-104138141D01*
X108753262Y-104569715D01*
X109120285Y-104936738D01*
X109551859Y-105225107D01*
X110031399Y-105423739D01*
X110540475Y-105525000D01*
X111059525Y-105525000D01*
X111568601Y-105423739D01*
X112048141Y-105225107D01*
X112479715Y-104936738D01*
X112846738Y-104569715D01*
X113135107Y-104138141D01*
X113333739Y-103658601D01*
X113435000Y-103149525D01*
X113435000Y-102630475D01*
X113333739Y-102121399D01*
X113135107Y-101641859D01*
X112846738Y-101210285D01*
X112479715Y-100843262D01*
X112048141Y-100554893D01*
X111568601Y-100356261D01*
X111059525Y-100255000D01*
X110540475Y-100255000D01*
X110031399Y-100356261D01*
X109551859Y-100554893D01*
X109120285Y-100843262D01*
X108753262Y-101210285D01*
X108464893Y-101641859D01*
X108266261Y-102121399D01*
X108165000Y-102630475D01*
X96545000Y-102630475D01*
X96545000Y-92277195D01*
X96664744Y-92357205D01*
X96853102Y-92435226D01*
X97053061Y-92475000D01*
X97256939Y-92475000D01*
X97456898Y-92435226D01*
X97645256Y-92357205D01*
X97814774Y-92243937D01*
X97958937Y-92099774D01*
X98072205Y-91930256D01*
X98150226Y-91741898D01*
X98172384Y-91630500D01*
X98257045Y-91630500D01*
X98253990Y-91637875D01*
X98196400Y-91927401D01*
X98196400Y-92222599D01*
X98253990Y-92512125D01*
X98366958Y-92784853D01*
X98530961Y-93030302D01*
X98739698Y-93239039D01*
X98898281Y-93345000D01*
X98739698Y-93450961D01*
X98530961Y-93659698D01*
X98366958Y-93905147D01*
X98253990Y-94177875D01*
X98196400Y-94467401D01*
X98196400Y-94762599D01*
X98253990Y-95052125D01*
X98366958Y-95324853D01*
X98530961Y-95570302D01*
X98739698Y-95779039D01*
X98898281Y-95885000D01*
X98739698Y-95990961D01*
X98530961Y-96199698D01*
X98366958Y-96445147D01*
X98253990Y-96717875D01*
X98196400Y-97007401D01*
X98196400Y-97302599D01*
X98253990Y-97592125D01*
X98366958Y-97864853D01*
X98530961Y-98110302D01*
X98739698Y-98319039D01*
X98985147Y-98483042D01*
X99257875Y-98596010D01*
X99547401Y-98653600D01*
X99842599Y-98653600D01*
X100132125Y-98596010D01*
X100404853Y-98483042D01*
X100650302Y-98319039D01*
X100859039Y-98110302D01*
X100965000Y-97951719D01*
X101070961Y-98110302D01*
X101279698Y-98319039D01*
X101525147Y-98483042D01*
X101797875Y-98596010D01*
X102087401Y-98653600D01*
X102382599Y-98653600D01*
X102672125Y-98596010D01*
X102944853Y-98483042D01*
X103184282Y-98323061D01*
X112540000Y-98323061D01*
X112540000Y-98526939D01*
X112579774Y-98726898D01*
X112657795Y-98915256D01*
X112771063Y-99084774D01*
X112915226Y-99228937D01*
X113084744Y-99342205D01*
X113273102Y-99420226D01*
X113473061Y-99460000D01*
X113535198Y-99460000D01*
X113878997Y-99803800D01*
X113879008Y-99803809D01*
X114161196Y-100085997D01*
X114184999Y-100115001D01*
X114300724Y-100209974D01*
X114432753Y-100280546D01*
X114576014Y-100324003D01*
X114687667Y-100335000D01*
X114687676Y-100335000D01*
X114724999Y-100338676D01*
X114762322Y-100335000D01*
X116419043Y-100335000D01*
X116370498Y-100425820D01*
X116334188Y-100545518D01*
X116321928Y-100670000D01*
X116321928Y-102270000D01*
X116334188Y-102394482D01*
X116370498Y-102514180D01*
X116429463Y-102624494D01*
X116508815Y-102721185D01*
X116605506Y-102800537D01*
X116715820Y-102859502D01*
X116835518Y-102895812D01*
X116960000Y-102908072D01*
X118560000Y-102908072D01*
X118684482Y-102895812D01*
X118804180Y-102859502D01*
X118914494Y-102800537D01*
X119011185Y-102721185D01*
X119090537Y-102624494D01*
X119149502Y-102514180D01*
X119185812Y-102394482D01*
X119198072Y-102270000D01*
X119198072Y-102004275D01*
X119258320Y-102149727D01*
X119415363Y-102384759D01*
X119615241Y-102584637D01*
X119850273Y-102741680D01*
X120111426Y-102849853D01*
X120388665Y-102905000D01*
X120671335Y-102905000D01*
X120948574Y-102849853D01*
X121209727Y-102741680D01*
X121444759Y-102584637D01*
X121644637Y-102384759D01*
X121801680Y-102149727D01*
X121909853Y-101888574D01*
X121915000Y-101862699D01*
X121920147Y-101888574D01*
X122028320Y-102149727D01*
X122185363Y-102384759D01*
X122385241Y-102584637D01*
X122620273Y-102741680D01*
X122881426Y-102849853D01*
X123158665Y-102905000D01*
X123441335Y-102905000D01*
X123718574Y-102849853D01*
X123979727Y-102741680D01*
X124214759Y-102584637D01*
X124414637Y-102384759D01*
X124571680Y-102149727D01*
X124679853Y-101888574D01*
X124685000Y-101862699D01*
X124690147Y-101888574D01*
X124798320Y-102149727D01*
X124955363Y-102384759D01*
X125155241Y-102584637D01*
X125390273Y-102741680D01*
X125651426Y-102849853D01*
X125928665Y-102905000D01*
X126211335Y-102905000D01*
X126488574Y-102849853D01*
X126695000Y-102764349D01*
X126695000Y-103091956D01*
X126540241Y-103195363D01*
X126340363Y-103395241D01*
X126183320Y-103630273D01*
X126075147Y-103891426D01*
X126069487Y-103919882D01*
X125988603Y-103693708D01*
X125921671Y-103568486D01*
X125677702Y-103496903D01*
X124864605Y-104310000D01*
X125677702Y-105123097D01*
X125921671Y-105051514D01*
X126042571Y-104796004D01*
X126068212Y-104693711D01*
X126075147Y-104728574D01*
X126183320Y-104989727D01*
X126340363Y-105224759D01*
X126540241Y-105424637D01*
X126775273Y-105581680D01*
X127036426Y-105689853D01*
X127313665Y-105745000D01*
X127596335Y-105745000D01*
X127873574Y-105689853D01*
X128134727Y-105581680D01*
X128369759Y-105424637D01*
X128569637Y-105224759D01*
X128673043Y-105070000D01*
X129813402Y-105070000D01*
X129814774Y-105076898D01*
X129892795Y-105265256D01*
X130006063Y-105434774D01*
X130150226Y-105578937D01*
X130319744Y-105692205D01*
X130508102Y-105770226D01*
X130708061Y-105810000D01*
X130911939Y-105810000D01*
X131111898Y-105770226D01*
X131300256Y-105692205D01*
X131469774Y-105578937D01*
X131613937Y-105434774D01*
X131727205Y-105265256D01*
X131805226Y-105076898D01*
X131845000Y-104876939D01*
X131845000Y-104673061D01*
X131805226Y-104473102D01*
X131727205Y-104284744D01*
X131613937Y-104115226D01*
X131469774Y-103971063D01*
X131300256Y-103857795D01*
X131111898Y-103779774D01*
X130911939Y-103740000D01*
X130848447Y-103740000D01*
X130769276Y-103675026D01*
X130637247Y-103604454D01*
X130493986Y-103560997D01*
X130382333Y-103550000D01*
X130382322Y-103550000D01*
X130345000Y-103546324D01*
X130307678Y-103550000D01*
X128673043Y-103550000D01*
X128569637Y-103395241D01*
X128369759Y-103195363D01*
X128215000Y-103091957D01*
X128215000Y-102764349D01*
X128421426Y-102849853D01*
X128698665Y-102905000D01*
X128981335Y-102905000D01*
X129258574Y-102849853D01*
X129519727Y-102741680D01*
X129686157Y-102630475D01*
X133165000Y-102630475D01*
X133165000Y-103149525D01*
X133266261Y-103658601D01*
X133464893Y-104138141D01*
X133753262Y-104569715D01*
X134120285Y-104936738D01*
X134551859Y-105225107D01*
X135031399Y-105423739D01*
X135540475Y-105525000D01*
X136059525Y-105525000D01*
X136568601Y-105423739D01*
X137048141Y-105225107D01*
X137479715Y-104936738D01*
X137846738Y-104569715D01*
X138135107Y-104138141D01*
X138333739Y-103658601D01*
X138435000Y-103149525D01*
X138435000Y-102630475D01*
X138333739Y-102121399D01*
X138135107Y-101641859D01*
X137846738Y-101210285D01*
X137479715Y-100843262D01*
X137048141Y-100554893D01*
X136568601Y-100356261D01*
X136059525Y-100255000D01*
X135540475Y-100255000D01*
X135031399Y-100356261D01*
X134551859Y-100554893D01*
X134120285Y-100843262D01*
X133753262Y-101210285D01*
X133464893Y-101641859D01*
X133266261Y-102121399D01*
X133165000Y-102630475D01*
X129686157Y-102630475D01*
X129754759Y-102584637D01*
X129954637Y-102384759D01*
X130111680Y-102149727D01*
X130219853Y-101888574D01*
X130275000Y-101611335D01*
X130275000Y-101328665D01*
X130219853Y-101051426D01*
X130111680Y-100790273D01*
X129954637Y-100555241D01*
X129754759Y-100355363D01*
X129600000Y-100251957D01*
X129600000Y-98035801D01*
X131008201Y-99444003D01*
X131031999Y-99473001D01*
X131060997Y-99496799D01*
X131147723Y-99567974D01*
X131226230Y-99609937D01*
X131279753Y-99638546D01*
X131423014Y-99682003D01*
X131534667Y-99693000D01*
X131534677Y-99693000D01*
X131572000Y-99696676D01*
X131609323Y-99693000D01*
X132265289Y-99693000D01*
X132309226Y-99736937D01*
X132478744Y-99850205D01*
X132667102Y-99928226D01*
X132867061Y-99968000D01*
X133070939Y-99968000D01*
X133270898Y-99928226D01*
X133459256Y-99850205D01*
X133628774Y-99736937D01*
X133772937Y-99592774D01*
X133886205Y-99423256D01*
X133964226Y-99234898D01*
X134004000Y-99034939D01*
X134004000Y-98831061D01*
X133964226Y-98631102D01*
X133886205Y-98442744D01*
X133772937Y-98273226D01*
X133628774Y-98129063D01*
X133538975Y-98069061D01*
X143618000Y-98069061D01*
X143618000Y-98272939D01*
X143657774Y-98472898D01*
X143735795Y-98661256D01*
X143849063Y-98830774D01*
X143993226Y-98974937D01*
X144162744Y-99088205D01*
X144351102Y-99166226D01*
X144551061Y-99206000D01*
X144613198Y-99206000D01*
X144655000Y-99247802D01*
X144655000Y-99686821D01*
X144468368Y-99811525D01*
X144261525Y-100018368D01*
X144099010Y-100261589D01*
X143987068Y-100531842D01*
X143930000Y-100818740D01*
X143930000Y-101111260D01*
X143987068Y-101398158D01*
X144099010Y-101668411D01*
X144261525Y-101911632D01*
X144468368Y-102118475D01*
X144711589Y-102280990D01*
X144981842Y-102392932D01*
X145268740Y-102450000D01*
X145561260Y-102450000D01*
X145848158Y-102392932D01*
X146118411Y-102280990D01*
X146361632Y-102118475D01*
X146568475Y-101911632D01*
X146685000Y-101737240D01*
X146801525Y-101911632D01*
X147008368Y-102118475D01*
X147251589Y-102280990D01*
X147521842Y-102392932D01*
X147808740Y-102450000D01*
X148101260Y-102450000D01*
X148388158Y-102392932D01*
X148658411Y-102280990D01*
X148901632Y-102118475D01*
X149108475Y-101911632D01*
X149225000Y-101737240D01*
X149341525Y-101911632D01*
X149548368Y-102118475D01*
X149735001Y-102243179D01*
X149735000Y-103526289D01*
X149691063Y-103570226D01*
X149577795Y-103739744D01*
X149499774Y-103928102D01*
X149460000Y-104128061D01*
X149460000Y-104331939D01*
X149499774Y-104531898D01*
X149577795Y-104720256D01*
X149691063Y-104889774D01*
X149835226Y-105033937D01*
X150004744Y-105147205D01*
X150193102Y-105225226D01*
X150393061Y-105265000D01*
X150596939Y-105265000D01*
X150796898Y-105225226D01*
X150985256Y-105147205D01*
X151154774Y-105033937D01*
X151298937Y-104889774D01*
X151412205Y-104720256D01*
X151490226Y-104531898D01*
X151530000Y-104331939D01*
X151530000Y-104128061D01*
X151490226Y-103928102D01*
X151412205Y-103739744D01*
X151298937Y-103570226D01*
X151255000Y-103526289D01*
X151255000Y-102243178D01*
X151441632Y-102118475D01*
X151648475Y-101911632D01*
X151765000Y-101737240D01*
X151881525Y-101911632D01*
X152088368Y-102118475D01*
X152331589Y-102280990D01*
X152601842Y-102392932D01*
X152888740Y-102450000D01*
X153181260Y-102450000D01*
X153468158Y-102392932D01*
X153738411Y-102280990D01*
X153981632Y-102118475D01*
X154188475Y-101911632D01*
X154305000Y-101737240D01*
X154421525Y-101911632D01*
X154628368Y-102118475D01*
X154871589Y-102280990D01*
X155141842Y-102392932D01*
X155428740Y-102450000D01*
X155721260Y-102450000D01*
X156008158Y-102392932D01*
X156278411Y-102280990D01*
X156521632Y-102118475D01*
X156728475Y-101911632D01*
X156845000Y-101737240D01*
X156961525Y-101911632D01*
X157168368Y-102118475D01*
X157411589Y-102280990D01*
X157681842Y-102392932D01*
X157968740Y-102450000D01*
X158261260Y-102450000D01*
X158548158Y-102392932D01*
X158818411Y-102280990D01*
X159061632Y-102118475D01*
X159268475Y-101911632D01*
X159385000Y-101737240D01*
X159501525Y-101911632D01*
X159708368Y-102118475D01*
X159951589Y-102280990D01*
X160221842Y-102392932D01*
X160508740Y-102450000D01*
X160801260Y-102450000D01*
X161088158Y-102392932D01*
X161358411Y-102280990D01*
X161601632Y-102118475D01*
X161808475Y-101911632D01*
X161925000Y-101737240D01*
X162041525Y-101911632D01*
X162248368Y-102118475D01*
X162491589Y-102280990D01*
X162761842Y-102392932D01*
X163048740Y-102450000D01*
X163341260Y-102450000D01*
X163628158Y-102392932D01*
X163898411Y-102280990D01*
X164141632Y-102118475D01*
X164348475Y-101911632D01*
X164465000Y-101737240D01*
X164581525Y-101911632D01*
X164788368Y-102118475D01*
X165031589Y-102280990D01*
X165301842Y-102392932D01*
X165588740Y-102450000D01*
X165881260Y-102450000D01*
X166168158Y-102392932D01*
X166438411Y-102280990D01*
X166681632Y-102118475D01*
X166888475Y-101911632D01*
X167005000Y-101737240D01*
X167121525Y-101911632D01*
X167328368Y-102118475D01*
X167571589Y-102280990D01*
X167841842Y-102392932D01*
X168128740Y-102450000D01*
X168421260Y-102450000D01*
X168708158Y-102392932D01*
X168978411Y-102280990D01*
X169221632Y-102118475D01*
X169346710Y-101993397D01*
X169966208Y-101993397D01*
X170043843Y-102242472D01*
X170307883Y-102368371D01*
X170591411Y-102440339D01*
X170883531Y-102455611D01*
X171173019Y-102413599D01*
X171448747Y-102315919D01*
X171586157Y-102242472D01*
X171663792Y-101993397D01*
X170815000Y-101144605D01*
X169966208Y-101993397D01*
X169346710Y-101993397D01*
X169428475Y-101911632D01*
X169544311Y-101738271D01*
X169786603Y-101813792D01*
X170635395Y-100965000D01*
X170994605Y-100965000D01*
X171843397Y-101813792D01*
X172085689Y-101738271D01*
X172201525Y-101911632D01*
X172408368Y-102118475D01*
X172651589Y-102280990D01*
X172921842Y-102392932D01*
X173208740Y-102450000D01*
X173501260Y-102450000D01*
X173788158Y-102392932D01*
X174058411Y-102280990D01*
X174301632Y-102118475D01*
X174508475Y-101911632D01*
X174670990Y-101668411D01*
X174782932Y-101398158D01*
X174840000Y-101111260D01*
X174840000Y-100818740D01*
X174782932Y-100531842D01*
X174670990Y-100261589D01*
X174508475Y-100018368D01*
X174301632Y-99811525D01*
X174058411Y-99649010D01*
X173788158Y-99537068D01*
X173501260Y-99480000D01*
X173208740Y-99480000D01*
X172921842Y-99537068D01*
X172651589Y-99649010D01*
X172408368Y-99811525D01*
X172201525Y-100018368D01*
X172085689Y-100191729D01*
X171843397Y-100116208D01*
X170994605Y-100965000D01*
X170635395Y-100965000D01*
X169786603Y-100116208D01*
X169544311Y-100191729D01*
X169428475Y-100018368D01*
X169346710Y-99936603D01*
X169966208Y-99936603D01*
X170815000Y-100785395D01*
X171663792Y-99936603D01*
X171586157Y-99687528D01*
X171322117Y-99561629D01*
X171038589Y-99489661D01*
X170746469Y-99474389D01*
X170456981Y-99516401D01*
X170181253Y-99614081D01*
X170043843Y-99687528D01*
X169966208Y-99936603D01*
X169346710Y-99936603D01*
X169221632Y-99811525D01*
X168978411Y-99649010D01*
X168708158Y-99537068D01*
X168421260Y-99480000D01*
X168128740Y-99480000D01*
X167841842Y-99537068D01*
X167571589Y-99649010D01*
X167328368Y-99811525D01*
X167121525Y-100018368D01*
X167005000Y-100192760D01*
X166888475Y-100018368D01*
X166681632Y-99811525D01*
X166438411Y-99649010D01*
X166168158Y-99537068D01*
X165881260Y-99480000D01*
X165588740Y-99480000D01*
X165557466Y-99486221D01*
X165482359Y-99304898D01*
X165369091Y-99135380D01*
X165289023Y-99055312D01*
X165270700Y-98994907D01*
X165200128Y-98862878D01*
X165173781Y-98830774D01*
X165105155Y-98747153D01*
X165076151Y-98723350D01*
X164647804Y-98295003D01*
X164624001Y-98265999D01*
X164508276Y-98171026D01*
X164376247Y-98100454D01*
X164232986Y-98056997D01*
X164121333Y-98046000D01*
X164121322Y-98046000D01*
X164084000Y-98042324D01*
X164046678Y-98046000D01*
X163089475Y-98046000D01*
X163219774Y-97958937D01*
X163363937Y-97814774D01*
X163477205Y-97645256D01*
X163555226Y-97456898D01*
X163595000Y-97256939D01*
X163595000Y-97053061D01*
X163555226Y-96853102D01*
X163477205Y-96664744D01*
X163363937Y-96495226D01*
X163219774Y-96351063D01*
X163050256Y-96237795D01*
X162861898Y-96159774D01*
X162661939Y-96120000D01*
X162458061Y-96120000D01*
X162258102Y-96159774D01*
X162069744Y-96237795D01*
X161900226Y-96351063D01*
X161856289Y-96395000D01*
X149031404Y-96395000D01*
X149145898Y-96372226D01*
X149334256Y-96294205D01*
X149503774Y-96180937D01*
X149647937Y-96036774D01*
X149761205Y-95867256D01*
X149839226Y-95678898D01*
X149879000Y-95478939D01*
X149879000Y-95275061D01*
X149839226Y-95075102D01*
X149761205Y-94886744D01*
X149647937Y-94717226D01*
X149503774Y-94573063D01*
X149334256Y-94459795D01*
X149145898Y-94381774D01*
X148945939Y-94342000D01*
X148742061Y-94342000D01*
X148542102Y-94381774D01*
X148353744Y-94459795D01*
X148184226Y-94573063D01*
X148040063Y-94717226D01*
X147926795Y-94886744D01*
X147848774Y-95075102D01*
X147809000Y-95275061D01*
X147809000Y-95337199D01*
X147443998Y-95702201D01*
X147415000Y-95725999D01*
X147391202Y-95754997D01*
X147391201Y-95754998D01*
X147320026Y-95841724D01*
X147249454Y-95973754D01*
X147224503Y-96056010D01*
X147205998Y-96117014D01*
X147199702Y-96180937D01*
X147191324Y-96266000D01*
X147195001Y-96303332D01*
X147195000Y-97752677D01*
X147191324Y-97790000D01*
X147195000Y-97827322D01*
X147195000Y-97827332D01*
X147195001Y-97827342D01*
X147195000Y-99686821D01*
X147008368Y-99811525D01*
X146801525Y-100018368D01*
X146685000Y-100192760D01*
X146568475Y-100018368D01*
X146361632Y-99811525D01*
X146175000Y-99686822D01*
X146175000Y-98970325D01*
X146178676Y-98933000D01*
X146175000Y-98895675D01*
X146175000Y-98895667D01*
X146164003Y-98784014D01*
X146120546Y-98640753D01*
X146049974Y-98508724D01*
X145955001Y-98392999D01*
X145926004Y-98369202D01*
X145688000Y-98131198D01*
X145688000Y-98069061D01*
X145648226Y-97869102D01*
X145570205Y-97680744D01*
X145456937Y-97511226D01*
X145312774Y-97367063D01*
X145143256Y-97253795D01*
X144954898Y-97175774D01*
X144754939Y-97136000D01*
X144551061Y-97136000D01*
X144351102Y-97175774D01*
X144162744Y-97253795D01*
X143993226Y-97367063D01*
X143849063Y-97511226D01*
X143735795Y-97680744D01*
X143657774Y-97869102D01*
X143618000Y-98069061D01*
X133538975Y-98069061D01*
X133459256Y-98015795D01*
X133270898Y-97937774D01*
X133213619Y-97926381D01*
X133202226Y-97869102D01*
X133124205Y-97680744D01*
X133010937Y-97511226D01*
X132890211Y-97390500D01*
X132973937Y-97306774D01*
X133087205Y-97137256D01*
X133165226Y-96948898D01*
X133205000Y-96748939D01*
X133205000Y-96545061D01*
X133165226Y-96345102D01*
X133087205Y-96156744D01*
X132973937Y-95987226D01*
X132829774Y-95843063D01*
X132660256Y-95729795D01*
X132471898Y-95651774D01*
X132271939Y-95612000D01*
X132068061Y-95612000D01*
X131868102Y-95651774D01*
X131714995Y-95715193D01*
X129838467Y-93838665D01*
X131915000Y-93838665D01*
X131915000Y-94121335D01*
X131970147Y-94398574D01*
X132078320Y-94659727D01*
X132235363Y-94894759D01*
X132435241Y-95094637D01*
X132670273Y-95251680D01*
X132931426Y-95359853D01*
X133208665Y-95415000D01*
X133491335Y-95415000D01*
X133768574Y-95359853D01*
X134029727Y-95251680D01*
X134264759Y-95094637D01*
X134464637Y-94894759D01*
X134621680Y-94659727D01*
X134729853Y-94398574D01*
X134785000Y-94121335D01*
X134785000Y-93838665D01*
X134729853Y-93561426D01*
X134621680Y-93300273D01*
X134464637Y-93065241D01*
X134264759Y-92865363D01*
X134029727Y-92708320D01*
X133768574Y-92600147D01*
X133491335Y-92545000D01*
X133208665Y-92545000D01*
X132931426Y-92600147D01*
X132670273Y-92708320D01*
X132435241Y-92865363D01*
X132235363Y-93065241D01*
X132078320Y-93300273D01*
X131970147Y-93561426D01*
X131915000Y-93838665D01*
X129838467Y-93838665D01*
X129796895Y-93797094D01*
X129773226Y-93678102D01*
X129695205Y-93489744D01*
X129581937Y-93320226D01*
X129437774Y-93176063D01*
X129268256Y-93062795D01*
X129079898Y-92984774D01*
X128879939Y-92945000D01*
X128676061Y-92945000D01*
X128476102Y-92984774D01*
X128287744Y-93062795D01*
X128118226Y-93176063D01*
X127974063Y-93320226D01*
X127860795Y-93489744D01*
X127782774Y-93678102D01*
X127743000Y-93878061D01*
X127743000Y-94081939D01*
X127782774Y-94281898D01*
X127860795Y-94470256D01*
X127892710Y-94518020D01*
X127819774Y-94694102D01*
X127780000Y-94894061D01*
X127780000Y-95097939D01*
X127819774Y-95297898D01*
X127844109Y-95356647D01*
X127733795Y-95521744D01*
X127655774Y-95710102D01*
X127616000Y-95910061D01*
X127616000Y-96113939D01*
X127641154Y-96240398D01*
X127610226Y-96261063D01*
X127508001Y-96363289D01*
X127405774Y-96261062D01*
X127236256Y-96147794D01*
X127047898Y-96069773D01*
X126847939Y-96029999D01*
X126644061Y-96029999D01*
X126444102Y-96069773D01*
X126255744Y-96147794D01*
X126086226Y-96261062D01*
X125942063Y-96405225D01*
X125828795Y-96574743D01*
X125750774Y-96763101D01*
X125711000Y-96963060D01*
X125711000Y-97166938D01*
X125750774Y-97366897D01*
X125828795Y-97555255D01*
X125942063Y-97724773D01*
X126086226Y-97868936D01*
X126255744Y-97982204D01*
X126444102Y-98060225D01*
X126644061Y-98099999D01*
X126695001Y-98099999D01*
X126695001Y-100175652D01*
X126488574Y-100090147D01*
X126211335Y-100035000D01*
X125928665Y-100035000D01*
X125651426Y-100090147D01*
X125390273Y-100198320D01*
X125155241Y-100355363D01*
X124955363Y-100555241D01*
X124798320Y-100790273D01*
X124690147Y-101051426D01*
X124685000Y-101077301D01*
X124679853Y-101051426D01*
X124571680Y-100790273D01*
X124414637Y-100555241D01*
X124214759Y-100355363D01*
X124076038Y-100262673D01*
X124103937Y-100234774D01*
X124217205Y-100065256D01*
X124295226Y-99876898D01*
X124335000Y-99676939D01*
X124335000Y-99473061D01*
X124295226Y-99273102D01*
X124217205Y-99084744D01*
X124103937Y-98915226D01*
X123959774Y-98771063D01*
X123790256Y-98657795D01*
X123601898Y-98579774D01*
X123401939Y-98540000D01*
X123198061Y-98540000D01*
X122998102Y-98579774D01*
X122809744Y-98657795D01*
X122640226Y-98771063D01*
X122596289Y-98815000D01*
X122280604Y-98815000D01*
X122320000Y-98616939D01*
X122320000Y-98413061D01*
X122280226Y-98213102D01*
X122202205Y-98024744D01*
X122088937Y-97855226D01*
X121944774Y-97711063D01*
X121775256Y-97597795D01*
X121586898Y-97519774D01*
X121386939Y-97480000D01*
X121183061Y-97480000D01*
X120983102Y-97519774D01*
X120794744Y-97597795D01*
X120625226Y-97711063D01*
X120581289Y-97755000D01*
X117543711Y-97755000D01*
X117499774Y-97711063D01*
X117330256Y-97597795D01*
X117141898Y-97519774D01*
X116941939Y-97480000D01*
X116738061Y-97480000D01*
X116538102Y-97519774D01*
X116349744Y-97597795D01*
X116180226Y-97711063D01*
X116036063Y-97855226D01*
X115922795Y-98024744D01*
X115844774Y-98213102D01*
X115805000Y-98413061D01*
X115805000Y-98616939D01*
X115844396Y-98815000D01*
X115039801Y-98815000D01*
X114953809Y-98729008D01*
X114953800Y-98728997D01*
X114610000Y-98385198D01*
X114610000Y-98323061D01*
X114570226Y-98123102D01*
X114492205Y-97934744D01*
X114378937Y-97765226D01*
X114234774Y-97621063D01*
X114065256Y-97507795D01*
X113876898Y-97429774D01*
X113676939Y-97390000D01*
X113473061Y-97390000D01*
X113273102Y-97429774D01*
X113084744Y-97507795D01*
X112915226Y-97621063D01*
X112771063Y-97765226D01*
X112657795Y-97934744D01*
X112579774Y-98123102D01*
X112540000Y-98323061D01*
X103184282Y-98323061D01*
X103190302Y-98319039D01*
X103399039Y-98110302D01*
X103563042Y-97864853D01*
X103676010Y-97592125D01*
X103733600Y-97302599D01*
X103733600Y-97007401D01*
X103707802Y-96877702D01*
X107771903Y-96877702D01*
X107843486Y-97121671D01*
X108098996Y-97242571D01*
X108373184Y-97311300D01*
X108655512Y-97325217D01*
X108935130Y-97283787D01*
X109201292Y-97188603D01*
X109326514Y-97121671D01*
X109398097Y-96877702D01*
X108585000Y-96064605D01*
X107771903Y-96877702D01*
X103707802Y-96877702D01*
X103676010Y-96717875D01*
X103563042Y-96445147D01*
X103399039Y-96199698D01*
X103190302Y-95990961D01*
X103137249Y-95955512D01*
X107144783Y-95955512D01*
X107186213Y-96235130D01*
X107281397Y-96501292D01*
X107348329Y-96626514D01*
X107592298Y-96698097D01*
X108405395Y-95885000D01*
X108764605Y-95885000D01*
X109577702Y-96698097D01*
X109821671Y-96626514D01*
X109942571Y-96371004D01*
X110011300Y-96096816D01*
X110025217Y-95814488D01*
X110014724Y-95743665D01*
X117310000Y-95743665D01*
X117310000Y-96026335D01*
X117365147Y-96303574D01*
X117473320Y-96564727D01*
X117630363Y-96799759D01*
X117830241Y-96999637D01*
X118065273Y-97156680D01*
X118326426Y-97264853D01*
X118603665Y-97320000D01*
X118886335Y-97320000D01*
X119163574Y-97264853D01*
X119424727Y-97156680D01*
X119659759Y-96999637D01*
X119859637Y-96799759D01*
X119963043Y-96645000D01*
X121104677Y-96645000D01*
X121141999Y-96648676D01*
X121179321Y-96645000D01*
X121179332Y-96645000D01*
X121290985Y-96634003D01*
X121434246Y-96590546D01*
X121435554Y-96589847D01*
X121574091Y-96589847D01*
X121774050Y-96550073D01*
X121962408Y-96472052D01*
X122131926Y-96358784D01*
X122276089Y-96214621D01*
X122389357Y-96045103D01*
X122467378Y-95856745D01*
X122507152Y-95656786D01*
X122507152Y-95452908D01*
X122467378Y-95252949D01*
X122450236Y-95211565D01*
X122510273Y-95251680D01*
X122771426Y-95359853D01*
X123048665Y-95415000D01*
X123331335Y-95415000D01*
X123608574Y-95359853D01*
X123869727Y-95251680D01*
X124104759Y-95094637D01*
X124304637Y-94894759D01*
X124461680Y-94659727D01*
X124569853Y-94398574D01*
X124625000Y-94121335D01*
X124625000Y-93838665D01*
X124569853Y-93561426D01*
X124461680Y-93300273D01*
X124304637Y-93065241D01*
X124104759Y-92865363D01*
X123869727Y-92708320D01*
X123608574Y-92600147D01*
X123331335Y-92545000D01*
X123048665Y-92545000D01*
X122771426Y-92600147D01*
X122510273Y-92708320D01*
X122275241Y-92865363D01*
X122075363Y-93065241D01*
X121918320Y-93300273D01*
X121810147Y-93561426D01*
X121755000Y-93838665D01*
X121755000Y-94121335D01*
X121810147Y-94398574D01*
X121898147Y-94611024D01*
X121774050Y-94559621D01*
X121574091Y-94519847D01*
X121370213Y-94519847D01*
X121170254Y-94559621D01*
X120981896Y-94637642D01*
X120812378Y-94750910D01*
X120668215Y-94895073D01*
X120554947Y-95064591D01*
X120529925Y-95125000D01*
X119963043Y-95125000D01*
X119859637Y-94970241D01*
X119659759Y-94770363D01*
X119424727Y-94613320D01*
X119163574Y-94505147D01*
X118886335Y-94450000D01*
X118603665Y-94450000D01*
X118326426Y-94505147D01*
X118065273Y-94613320D01*
X117830241Y-94770363D01*
X117630363Y-94970241D01*
X117473320Y-95205273D01*
X117365147Y-95466426D01*
X117310000Y-95743665D01*
X110014724Y-95743665D01*
X109983787Y-95534870D01*
X109888603Y-95268708D01*
X109821671Y-95143486D01*
X109577702Y-95071903D01*
X108764605Y-95885000D01*
X108405395Y-95885000D01*
X107592298Y-95071903D01*
X107348329Y-95143486D01*
X107227429Y-95398996D01*
X107158700Y-95673184D01*
X107144783Y-95955512D01*
X103137249Y-95955512D01*
X103031719Y-95885000D01*
X103190302Y-95779039D01*
X103399039Y-95570302D01*
X103563042Y-95324853D01*
X103676010Y-95052125D01*
X103707801Y-94892298D01*
X107771903Y-94892298D01*
X108585000Y-95705395D01*
X109398097Y-94892298D01*
X109326514Y-94648329D01*
X109071004Y-94527429D01*
X108796816Y-94458700D01*
X108514488Y-94444783D01*
X108234870Y-94486213D01*
X107968708Y-94581397D01*
X107843486Y-94648329D01*
X107771903Y-94892298D01*
X103707801Y-94892298D01*
X103733600Y-94762599D01*
X103733600Y-94467401D01*
X103702159Y-94309335D01*
X103903944Y-94309335D01*
X103947881Y-94353272D01*
X104117399Y-94466540D01*
X104305757Y-94544561D01*
X104505716Y-94584335D01*
X104709594Y-94584335D01*
X104909553Y-94544561D01*
X105097911Y-94466540D01*
X105267429Y-94353272D01*
X105411592Y-94209109D01*
X105524860Y-94039591D01*
X105602881Y-93851233D01*
X105642655Y-93651274D01*
X105642655Y-93447396D01*
X105602881Y-93247437D01*
X105528432Y-93067702D01*
X107771903Y-93067702D01*
X107843486Y-93311671D01*
X108098996Y-93432571D01*
X108373184Y-93501300D01*
X108655512Y-93515217D01*
X108935130Y-93473787D01*
X109201292Y-93378603D01*
X109326514Y-93311671D01*
X109398097Y-93067702D01*
X108585000Y-92254605D01*
X107771903Y-93067702D01*
X105528432Y-93067702D01*
X105524860Y-93059079D01*
X105411592Y-92889561D01*
X105267429Y-92745398D01*
X105097911Y-92632130D01*
X104909553Y-92554109D01*
X104709594Y-92514335D01*
X104505716Y-92514335D01*
X104305757Y-92554109D01*
X104117399Y-92632130D01*
X103947881Y-92745398D01*
X103903944Y-92789335D01*
X103546611Y-92789335D01*
X103644222Y-92584814D01*
X103689958Y-92434026D01*
X103568817Y-92202000D01*
X102362000Y-92202000D01*
X102362000Y-92222000D01*
X102108000Y-92222000D01*
X102108000Y-92202000D01*
X102088000Y-92202000D01*
X102088000Y-92145512D01*
X107144783Y-92145512D01*
X107186213Y-92425130D01*
X107281397Y-92691292D01*
X107348329Y-92816514D01*
X107592298Y-92888097D01*
X108405395Y-92075000D01*
X108764605Y-92075000D01*
X109577702Y-92888097D01*
X109821671Y-92816514D01*
X109942571Y-92561004D01*
X110011300Y-92286816D01*
X110025217Y-92004488D01*
X110020561Y-91973061D01*
X112540000Y-91973061D01*
X112540000Y-92176939D01*
X112579774Y-92376898D01*
X112657795Y-92565256D01*
X112771063Y-92734774D01*
X112915226Y-92878937D01*
X113084744Y-92992205D01*
X113273102Y-93070226D01*
X113473061Y-93110000D01*
X113676939Y-93110000D01*
X113876898Y-93070226D01*
X114065256Y-92992205D01*
X114234774Y-92878937D01*
X114278711Y-92835000D01*
X117526957Y-92835000D01*
X117630363Y-92989759D01*
X117830241Y-93189637D01*
X118065273Y-93346680D01*
X118326426Y-93454853D01*
X118603665Y-93510000D01*
X118886335Y-93510000D01*
X119163574Y-93454853D01*
X119424727Y-93346680D01*
X119659759Y-93189637D01*
X119859637Y-92989759D01*
X120016680Y-92754727D01*
X120124853Y-92493574D01*
X120180000Y-92216335D01*
X120180000Y-91933665D01*
X120124853Y-91656426D01*
X120016680Y-91395273D01*
X119859637Y-91160241D01*
X119659759Y-90960363D01*
X119424727Y-90803320D01*
X119163574Y-90695147D01*
X118886335Y-90640000D01*
X118603665Y-90640000D01*
X118326426Y-90695147D01*
X118065273Y-90803320D01*
X117830241Y-90960363D01*
X117630363Y-91160241D01*
X117526957Y-91315000D01*
X114278711Y-91315000D01*
X114234774Y-91271063D01*
X114065256Y-91157795D01*
X113876898Y-91079774D01*
X113676939Y-91040000D01*
X113473061Y-91040000D01*
X113273102Y-91079774D01*
X113084744Y-91157795D01*
X112915226Y-91271063D01*
X112771063Y-91415226D01*
X112657795Y-91584744D01*
X112579774Y-91773102D01*
X112540000Y-91973061D01*
X110020561Y-91973061D01*
X109983787Y-91724870D01*
X109888603Y-91458708D01*
X109821671Y-91333486D01*
X109577702Y-91261903D01*
X108764605Y-92075000D01*
X108405395Y-92075000D01*
X107592298Y-91261903D01*
X107348329Y-91333486D01*
X107227429Y-91588996D01*
X107158700Y-91863184D01*
X107144783Y-92145512D01*
X102088000Y-92145512D01*
X102088000Y-91948000D01*
X102108000Y-91948000D01*
X102108000Y-91928000D01*
X102362000Y-91928000D01*
X102362000Y-91948000D01*
X103568817Y-91948000D01*
X103689958Y-91715974D01*
X103644222Y-91565186D01*
X103517684Y-91300056D01*
X103354997Y-91082298D01*
X107771903Y-91082298D01*
X108585000Y-91895395D01*
X109398097Y-91082298D01*
X109326514Y-90838329D01*
X109071004Y-90717429D01*
X108796816Y-90648700D01*
X108514488Y-90634783D01*
X108234870Y-90676213D01*
X107968708Y-90771397D01*
X107843486Y-90838329D01*
X107771903Y-91082298D01*
X103354997Y-91082298D01*
X103341854Y-91064707D01*
X103123488Y-90868183D01*
X103024897Y-90809559D01*
X103190302Y-90699039D01*
X103399039Y-90490302D01*
X103563042Y-90244853D01*
X103652590Y-90028665D01*
X121755000Y-90028665D01*
X121755000Y-90311335D01*
X121810147Y-90588574D01*
X121918320Y-90849727D01*
X122075363Y-91084759D01*
X122275241Y-91284637D01*
X122510273Y-91441680D01*
X122771426Y-91549853D01*
X123048665Y-91605000D01*
X123331335Y-91605000D01*
X123608574Y-91549853D01*
X123869727Y-91441680D01*
X124104759Y-91284637D01*
X124226694Y-91162702D01*
X132536903Y-91162702D01*
X132608486Y-91406671D01*
X132863996Y-91527571D01*
X133138184Y-91596300D01*
X133420512Y-91610217D01*
X133700130Y-91568787D01*
X133966292Y-91473603D01*
X134091514Y-91406671D01*
X134163097Y-91162702D01*
X133350000Y-90349605D01*
X132536903Y-91162702D01*
X124226694Y-91162702D01*
X124304637Y-91084759D01*
X124461680Y-90849727D01*
X124569853Y-90588574D01*
X124625000Y-90311335D01*
X124625000Y-90240512D01*
X131909783Y-90240512D01*
X131951213Y-90520130D01*
X132046397Y-90786292D01*
X132113329Y-90911514D01*
X132357298Y-90983097D01*
X133170395Y-90170000D01*
X133529605Y-90170000D01*
X134342702Y-90983097D01*
X134586671Y-90911514D01*
X134707571Y-90656004D01*
X134776300Y-90381816D01*
X134790217Y-90099488D01*
X134748787Y-89819870D01*
X134653603Y-89553708D01*
X134586671Y-89428486D01*
X134342702Y-89356903D01*
X133529605Y-90170000D01*
X133170395Y-90170000D01*
X132357298Y-89356903D01*
X132113329Y-89428486D01*
X131992429Y-89683996D01*
X131923700Y-89958184D01*
X131909783Y-90240512D01*
X124625000Y-90240512D01*
X124625000Y-90028665D01*
X124569853Y-89751426D01*
X124461680Y-89490273D01*
X124304637Y-89255241D01*
X124226694Y-89177298D01*
X132536903Y-89177298D01*
X133350000Y-89990395D01*
X134163097Y-89177298D01*
X134091514Y-88933329D01*
X133836004Y-88812429D01*
X133561816Y-88743700D01*
X133279488Y-88729783D01*
X132999870Y-88771213D01*
X132733708Y-88866397D01*
X132608486Y-88933329D01*
X132536903Y-89177298D01*
X124226694Y-89177298D01*
X124104759Y-89055363D01*
X123869727Y-88898320D01*
X123608574Y-88790147D01*
X123331335Y-88735000D01*
X123048665Y-88735000D01*
X122771426Y-88790147D01*
X122510273Y-88898320D01*
X122275241Y-89055363D01*
X122075363Y-89255241D01*
X121918320Y-89490273D01*
X121810147Y-89751426D01*
X121755000Y-90028665D01*
X103652590Y-90028665D01*
X103676010Y-89972125D01*
X103733600Y-89682599D01*
X103733600Y-89387401D01*
X103707802Y-89257702D01*
X107771903Y-89257702D01*
X107843486Y-89501671D01*
X108098996Y-89622571D01*
X108373184Y-89691300D01*
X108655512Y-89705217D01*
X108935130Y-89663787D01*
X109201292Y-89568603D01*
X109326514Y-89501671D01*
X109398097Y-89257702D01*
X108585000Y-88444605D01*
X107771903Y-89257702D01*
X103707802Y-89257702D01*
X103676010Y-89097875D01*
X103563042Y-88825147D01*
X103399039Y-88579698D01*
X103190302Y-88370961D01*
X103137249Y-88335512D01*
X107144783Y-88335512D01*
X107186213Y-88615130D01*
X107281397Y-88881292D01*
X107348329Y-89006514D01*
X107592298Y-89078097D01*
X108405395Y-88265000D01*
X108764605Y-88265000D01*
X109577702Y-89078097D01*
X109821671Y-89006514D01*
X109942571Y-88751004D01*
X110011300Y-88476816D01*
X110025217Y-88194488D01*
X109983787Y-87914870D01*
X109888603Y-87648708D01*
X109824117Y-87528061D01*
X115080000Y-87528061D01*
X115080000Y-87731939D01*
X115119774Y-87931898D01*
X115197795Y-88120256D01*
X115311063Y-88289774D01*
X115455226Y-88433937D01*
X115624744Y-88547205D01*
X115813102Y-88625226D01*
X116013061Y-88665000D01*
X116075198Y-88665000D01*
X116186200Y-88776002D01*
X116209999Y-88805001D01*
X116238997Y-88828799D01*
X116325724Y-88899974D01*
X116457753Y-88970546D01*
X116601014Y-89014003D01*
X116750000Y-89028677D01*
X116787333Y-89025000D01*
X117526957Y-89025000D01*
X117630363Y-89179759D01*
X117830241Y-89379637D01*
X118065273Y-89536680D01*
X118326426Y-89644853D01*
X118603665Y-89700000D01*
X118886335Y-89700000D01*
X119163574Y-89644853D01*
X119424727Y-89536680D01*
X119659759Y-89379637D01*
X119859637Y-89179759D01*
X120016680Y-88944727D01*
X120124853Y-88683574D01*
X120180000Y-88406335D01*
X120180000Y-88123665D01*
X120124853Y-87846426D01*
X120016680Y-87585273D01*
X119859637Y-87350241D01*
X119659759Y-87150363D01*
X119424727Y-86993320D01*
X119163574Y-86885147D01*
X118886335Y-86830000D01*
X118603665Y-86830000D01*
X118326426Y-86885147D01*
X118065273Y-86993320D01*
X117830241Y-87150363D01*
X117630363Y-87350241D01*
X117526957Y-87505000D01*
X117145413Y-87505000D01*
X117110226Y-87328102D01*
X117032205Y-87139744D01*
X116918937Y-86970226D01*
X116774774Y-86826063D01*
X116605256Y-86712795D01*
X116416898Y-86634774D01*
X116216939Y-86595000D01*
X116013061Y-86595000D01*
X115813102Y-86634774D01*
X115624744Y-86712795D01*
X115455226Y-86826063D01*
X115311063Y-86970226D01*
X115197795Y-87139744D01*
X115119774Y-87328102D01*
X115080000Y-87528061D01*
X109824117Y-87528061D01*
X109821671Y-87523486D01*
X109577702Y-87451903D01*
X108764605Y-88265000D01*
X108405395Y-88265000D01*
X107592298Y-87451903D01*
X107348329Y-87523486D01*
X107227429Y-87778996D01*
X107158700Y-88053184D01*
X107144783Y-88335512D01*
X103137249Y-88335512D01*
X103031719Y-88265000D01*
X103190302Y-88159039D01*
X103399039Y-87950302D01*
X103563042Y-87704853D01*
X103676010Y-87432125D01*
X103707801Y-87272298D01*
X107771903Y-87272298D01*
X108585000Y-88085395D01*
X109398097Y-87272298D01*
X109326514Y-87028329D01*
X109071004Y-86907429D01*
X108796816Y-86838700D01*
X108514488Y-86824783D01*
X108234870Y-86866213D01*
X107968708Y-86961397D01*
X107843486Y-87028329D01*
X107771903Y-87272298D01*
X103707801Y-87272298D01*
X103733600Y-87142599D01*
X103733600Y-86847401D01*
X103676010Y-86557875D01*
X103563042Y-86285147D01*
X103399039Y-86039698D01*
X103190302Y-85830961D01*
X102944853Y-85666958D01*
X102672125Y-85553990D01*
X102382599Y-85496400D01*
X102087401Y-85496400D01*
X101797875Y-85553990D01*
X101525147Y-85666958D01*
X101279698Y-85830961D01*
X101165636Y-85945023D01*
X101148102Y-85887220D01*
X101089137Y-85776906D01*
X101009785Y-85680215D01*
X100913094Y-85600863D01*
X100802780Y-85541898D01*
X100683082Y-85505588D01*
X100558600Y-85493328D01*
X98831400Y-85493328D01*
X98706918Y-85505588D01*
X98587220Y-85541898D01*
X98476906Y-85600863D01*
X98380215Y-85680215D01*
X98300863Y-85776906D01*
X98241898Y-85887220D01*
X98205588Y-86006918D01*
X98193328Y-86131400D01*
X98193328Y-87858600D01*
X98205588Y-87983082D01*
X98241898Y-88102780D01*
X98300863Y-88213094D01*
X98380215Y-88309785D01*
X98476906Y-88389137D01*
X98587220Y-88448102D01*
X98645023Y-88465636D01*
X98530961Y-88579698D01*
X98366958Y-88825147D01*
X98253990Y-89097875D01*
X98196400Y-89387401D01*
X98196400Y-89682599D01*
X98253990Y-89972125D01*
X98257045Y-89979500D01*
X97830550Y-89979500D01*
X97790000Y-89975506D01*
X97749449Y-89979500D01*
X97749447Y-89979500D01*
X97628174Y-89991444D01*
X97472566Y-90038647D01*
X97329157Y-90115301D01*
X97234958Y-90192608D01*
X97234955Y-90192611D01*
X97203459Y-90218459D01*
X97177610Y-90249956D01*
X97014995Y-90412572D01*
X96853102Y-90444774D01*
X96664744Y-90522795D01*
X96545000Y-90602805D01*
X96545000Y-81050475D01*
X108185000Y-81050475D01*
X108185000Y-81569525D01*
X108286261Y-82078601D01*
X108484893Y-82558141D01*
X108773262Y-82989715D01*
X109140285Y-83356738D01*
X109571859Y-83645107D01*
X110051399Y-83843739D01*
X110560475Y-83945000D01*
X111079525Y-83945000D01*
X111588601Y-83843739D01*
X112068141Y-83645107D01*
X112499715Y-83356738D01*
X112866738Y-82989715D01*
X113134711Y-82588665D01*
X116345000Y-82588665D01*
X116345000Y-82871335D01*
X116400147Y-83148574D01*
X116508320Y-83409727D01*
X116665363Y-83644759D01*
X116865241Y-83844637D01*
X117100273Y-84001680D01*
X117361426Y-84109853D01*
X117638665Y-84165000D01*
X117921335Y-84165000D01*
X118198574Y-84109853D01*
X118459727Y-84001680D01*
X118694759Y-83844637D01*
X118894637Y-83644759D01*
X119051680Y-83409727D01*
X119159853Y-83148574D01*
X119165000Y-83122699D01*
X119170147Y-83148574D01*
X119278320Y-83409727D01*
X119435363Y-83644759D01*
X119635241Y-83844637D01*
X119870273Y-84001680D01*
X120131426Y-84109853D01*
X120408665Y-84165000D01*
X120691335Y-84165000D01*
X120968574Y-84109853D01*
X121229727Y-84001680D01*
X121464759Y-83844637D01*
X121664637Y-83644759D01*
X121821680Y-83409727D01*
X121929853Y-83148574D01*
X121935000Y-83122699D01*
X121940147Y-83148574D01*
X122048320Y-83409727D01*
X122205363Y-83644759D01*
X122405241Y-83844637D01*
X122640273Y-84001680D01*
X122901426Y-84109853D01*
X123178665Y-84165000D01*
X123461335Y-84165000D01*
X123738574Y-84109853D01*
X123999727Y-84001680D01*
X124234759Y-83844637D01*
X124434637Y-83644759D01*
X124591680Y-83409727D01*
X124699853Y-83148574D01*
X124705000Y-83122699D01*
X124710147Y-83148574D01*
X124818320Y-83409727D01*
X124975363Y-83644759D01*
X125175241Y-83844637D01*
X125410273Y-84001680D01*
X125671426Y-84109853D01*
X125948665Y-84165000D01*
X126231335Y-84165000D01*
X126508574Y-84109853D01*
X126769727Y-84001680D01*
X127004759Y-83844637D01*
X127204637Y-83644759D01*
X127361680Y-83409727D01*
X127421928Y-83264275D01*
X127421928Y-83530000D01*
X127434188Y-83654482D01*
X127470498Y-83774180D01*
X127529463Y-83884494D01*
X127608815Y-83981185D01*
X127705506Y-84060537D01*
X127815820Y-84119502D01*
X127935518Y-84155812D01*
X128060000Y-84168072D01*
X129660000Y-84168072D01*
X129784482Y-84155812D01*
X129904180Y-84119502D01*
X130014494Y-84060537D01*
X130111185Y-83981185D01*
X130190537Y-83884494D01*
X130249502Y-83774180D01*
X130285812Y-83654482D01*
X130298072Y-83530000D01*
X130298072Y-81930000D01*
X130285812Y-81805518D01*
X130249502Y-81685820D01*
X130190537Y-81575506D01*
X130111185Y-81478815D01*
X130014494Y-81399463D01*
X129904180Y-81340498D01*
X129784482Y-81304188D01*
X129660000Y-81291928D01*
X128060000Y-81291928D01*
X127935518Y-81304188D01*
X127815820Y-81340498D01*
X127705506Y-81399463D01*
X127608815Y-81478815D01*
X127529463Y-81575506D01*
X127470498Y-81685820D01*
X127434188Y-81805518D01*
X127421928Y-81930000D01*
X127421928Y-82195725D01*
X127361680Y-82050273D01*
X127204637Y-81815241D01*
X127004759Y-81615363D01*
X126769727Y-81458320D01*
X126508574Y-81350147D01*
X126231335Y-81295000D01*
X125948665Y-81295000D01*
X125671426Y-81350147D01*
X125410273Y-81458320D01*
X125175241Y-81615363D01*
X124975363Y-81815241D01*
X124818320Y-82050273D01*
X124710147Y-82311426D01*
X124705000Y-82337301D01*
X124699853Y-82311426D01*
X124591680Y-82050273D01*
X124434637Y-81815241D01*
X124234759Y-81615363D01*
X123999727Y-81458320D01*
X123738574Y-81350147D01*
X123461335Y-81295000D01*
X123178665Y-81295000D01*
X122901426Y-81350147D01*
X122640273Y-81458320D01*
X122405241Y-81615363D01*
X122205363Y-81815241D01*
X122048320Y-82050273D01*
X121940147Y-82311426D01*
X121935000Y-82337301D01*
X121929853Y-82311426D01*
X121821680Y-82050273D01*
X121664637Y-81815241D01*
X121464759Y-81615363D01*
X121229727Y-81458320D01*
X120968574Y-81350147D01*
X120691335Y-81295000D01*
X120408665Y-81295000D01*
X120131426Y-81350147D01*
X119870273Y-81458320D01*
X119635241Y-81615363D01*
X119435363Y-81815241D01*
X119278320Y-82050273D01*
X119170147Y-82311426D01*
X119165000Y-82337301D01*
X119159853Y-82311426D01*
X119051680Y-82050273D01*
X118894637Y-81815241D01*
X118694759Y-81615363D01*
X118459727Y-81458320D01*
X118198574Y-81350147D01*
X117921335Y-81295000D01*
X117638665Y-81295000D01*
X117361426Y-81350147D01*
X117100273Y-81458320D01*
X116865241Y-81615363D01*
X116665363Y-81815241D01*
X116508320Y-82050273D01*
X116400147Y-82311426D01*
X116345000Y-82588665D01*
X113134711Y-82588665D01*
X113155107Y-82558141D01*
X113353739Y-82078601D01*
X113455000Y-81569525D01*
X113455000Y-81050475D01*
X113353739Y-80541399D01*
X113155107Y-80061859D01*
X112945838Y-79748665D01*
X117730000Y-79748665D01*
X117730000Y-80031335D01*
X117785147Y-80308574D01*
X117893320Y-80569727D01*
X118050363Y-80804759D01*
X118250241Y-81004637D01*
X118485273Y-81161680D01*
X118746426Y-81269853D01*
X119023665Y-81325000D01*
X119306335Y-81325000D01*
X119583574Y-81269853D01*
X119844727Y-81161680D01*
X120079759Y-81004637D01*
X120201694Y-80882702D01*
X121121903Y-80882702D01*
X121193486Y-81126671D01*
X121448996Y-81247571D01*
X121723184Y-81316300D01*
X122005512Y-81330217D01*
X122285130Y-81288787D01*
X122551292Y-81193603D01*
X122676514Y-81126671D01*
X122748097Y-80882702D01*
X121935000Y-80069605D01*
X121121903Y-80882702D01*
X120201694Y-80882702D01*
X120279637Y-80804759D01*
X120436680Y-80569727D01*
X120544853Y-80308574D01*
X120550513Y-80280118D01*
X120631397Y-80506292D01*
X120698329Y-80631514D01*
X120942298Y-80703097D01*
X121755395Y-79890000D01*
X122114605Y-79890000D01*
X122927702Y-80703097D01*
X123171671Y-80631514D01*
X123292571Y-80376004D01*
X123318212Y-80273711D01*
X123325147Y-80308574D01*
X123433320Y-80569727D01*
X123590363Y-80804759D01*
X123790241Y-81004637D01*
X124025273Y-81161680D01*
X124286426Y-81269853D01*
X124563665Y-81325000D01*
X124846335Y-81325000D01*
X125123574Y-81269853D01*
X125384727Y-81161680D01*
X125619759Y-81004637D01*
X125819637Y-80804759D01*
X125976680Y-80569727D01*
X126084853Y-80308574D01*
X126090000Y-80282699D01*
X126095147Y-80308574D01*
X126203320Y-80569727D01*
X126360363Y-80804759D01*
X126560241Y-81004637D01*
X126795273Y-81161680D01*
X127056426Y-81269853D01*
X127333665Y-81325000D01*
X127616335Y-81325000D01*
X127893574Y-81269853D01*
X128154727Y-81161680D01*
X128321157Y-81050475D01*
X133185000Y-81050475D01*
X133185000Y-81569525D01*
X133286261Y-82078601D01*
X133484893Y-82558141D01*
X133773262Y-82989715D01*
X134140285Y-83356738D01*
X134571859Y-83645107D01*
X135051399Y-83843739D01*
X135560475Y-83945000D01*
X136079525Y-83945000D01*
X136588601Y-83843739D01*
X137068141Y-83645107D01*
X137499715Y-83356738D01*
X137866738Y-82989715D01*
X138155107Y-82558141D01*
X138200703Y-82448061D01*
X139210000Y-82448061D01*
X139210000Y-82651939D01*
X139249774Y-82851898D01*
X139327795Y-83040256D01*
X139441063Y-83209774D01*
X139585226Y-83353937D01*
X139754744Y-83467205D01*
X139943102Y-83545226D01*
X140143061Y-83585000D01*
X140346939Y-83585000D01*
X140546898Y-83545226D01*
X140735256Y-83467205D01*
X140904774Y-83353937D01*
X141048937Y-83209774D01*
X141162205Y-83040256D01*
X141240226Y-82851898D01*
X141280000Y-82651939D01*
X141280000Y-82448061D01*
X141240226Y-82248102D01*
X141192330Y-82132472D01*
X141284802Y-82040000D01*
X144459893Y-82040000D01*
X144261525Y-82238368D01*
X144099010Y-82481589D01*
X143987068Y-82751842D01*
X143930000Y-83038740D01*
X143930000Y-83331260D01*
X143987068Y-83618158D01*
X144099010Y-83888411D01*
X144261525Y-84131632D01*
X144468368Y-84338475D01*
X144642760Y-84455000D01*
X144468368Y-84571525D01*
X144261525Y-84778368D01*
X144099010Y-85021589D01*
X143987068Y-85291842D01*
X143930000Y-85578740D01*
X143930000Y-85871260D01*
X143987068Y-86158158D01*
X144099010Y-86428411D01*
X144261525Y-86671632D01*
X144468368Y-86878475D01*
X144655000Y-87003179D01*
X144655000Y-87959587D01*
X144478102Y-87994774D01*
X144289744Y-88072795D01*
X144120226Y-88186063D01*
X143976063Y-88330226D01*
X143862795Y-88499744D01*
X143784774Y-88688102D01*
X143745000Y-88888061D01*
X143745000Y-89091939D01*
X143784774Y-89291898D01*
X143862795Y-89480256D01*
X143976063Y-89649774D01*
X144120226Y-89793937D01*
X144289744Y-89907205D01*
X144478102Y-89985226D01*
X144678061Y-90025000D01*
X144881939Y-90025000D01*
X145081898Y-89985226D01*
X145270256Y-89907205D01*
X145439774Y-89793937D01*
X145583937Y-89649774D01*
X145697205Y-89480256D01*
X145775226Y-89291898D01*
X145815000Y-89091939D01*
X145815000Y-89029802D01*
X145926004Y-88918798D01*
X145955001Y-88895001D01*
X146049974Y-88779276D01*
X146120546Y-88647247D01*
X146164003Y-88503986D01*
X146175000Y-88392333D01*
X146175000Y-88392332D01*
X146178677Y-88355000D01*
X146175000Y-88317667D01*
X146175000Y-87003178D01*
X146361632Y-86878475D01*
X146568475Y-86671632D01*
X146685000Y-86497240D01*
X146801525Y-86671632D01*
X147008368Y-86878475D01*
X147195000Y-87003179D01*
X147195000Y-87324587D01*
X147018102Y-87359774D01*
X146829744Y-87437795D01*
X146660226Y-87551063D01*
X146516063Y-87695226D01*
X146402795Y-87864744D01*
X146324774Y-88053102D01*
X146285000Y-88253061D01*
X146285000Y-88456939D01*
X146324774Y-88656898D01*
X146402795Y-88845256D01*
X146516063Y-89014774D01*
X146660226Y-89158937D01*
X146829744Y-89272205D01*
X147018102Y-89350226D01*
X147218061Y-89390000D01*
X147421939Y-89390000D01*
X147621898Y-89350226D01*
X147810256Y-89272205D01*
X147979774Y-89158937D01*
X148123937Y-89014774D01*
X148237205Y-88845256D01*
X148315226Y-88656898D01*
X148355000Y-88456939D01*
X148355000Y-88394802D01*
X148466004Y-88283798D01*
X148495001Y-88260001D01*
X148589974Y-88144276D01*
X148660546Y-88012247D01*
X148704003Y-87868986D01*
X148715000Y-87757333D01*
X148715000Y-87757332D01*
X148718677Y-87720000D01*
X148715000Y-87682667D01*
X148715000Y-87003178D01*
X148901632Y-86878475D01*
X149108475Y-86671632D01*
X149225000Y-86497240D01*
X149341525Y-86671632D01*
X149442536Y-86772643D01*
X149369744Y-86802795D01*
X149200226Y-86916063D01*
X149056063Y-87060226D01*
X148942795Y-87229744D01*
X148864774Y-87418102D01*
X148825000Y-87618061D01*
X148825000Y-87821939D01*
X148864774Y-88021898D01*
X148942795Y-88210256D01*
X149056063Y-88379774D01*
X149200226Y-88523937D01*
X149369744Y-88637205D01*
X149558102Y-88715226D01*
X149758061Y-88755000D01*
X149961939Y-88755000D01*
X150161898Y-88715226D01*
X150350256Y-88637205D01*
X150519774Y-88523937D01*
X150663937Y-88379774D01*
X150777205Y-88210256D01*
X150804837Y-88143547D01*
X150847795Y-88247256D01*
X150961063Y-88416774D01*
X151105226Y-88560937D01*
X151274744Y-88674205D01*
X151463102Y-88752226D01*
X151663061Y-88792000D01*
X151866939Y-88792000D01*
X152066898Y-88752226D01*
X152255256Y-88674205D01*
X152424774Y-88560937D01*
X152568937Y-88416774D01*
X152682205Y-88247256D01*
X152760226Y-88058898D01*
X152800000Y-87858939D01*
X152800000Y-87655061D01*
X152760226Y-87455102D01*
X152682205Y-87266744D01*
X152606820Y-87153922D01*
X152888740Y-87210000D01*
X153181260Y-87210000D01*
X153468158Y-87152932D01*
X153738411Y-87040990D01*
X153981632Y-86878475D01*
X154188475Y-86671632D01*
X154305000Y-86497240D01*
X154421525Y-86671632D01*
X154628368Y-86878475D01*
X154871589Y-87040990D01*
X155141842Y-87152932D01*
X155428740Y-87210000D01*
X155721260Y-87210000D01*
X156008158Y-87152932D01*
X156278411Y-87040990D01*
X156521632Y-86878475D01*
X156728475Y-86671632D01*
X156845000Y-86497240D01*
X156961525Y-86671632D01*
X157168368Y-86878475D01*
X157411589Y-87040990D01*
X157681842Y-87152932D01*
X157968740Y-87210000D01*
X158261260Y-87210000D01*
X158548158Y-87152932D01*
X158818411Y-87040990D01*
X159061632Y-86878475D01*
X159268475Y-86671632D01*
X159385000Y-86497240D01*
X159501525Y-86671632D01*
X159708368Y-86878475D01*
X159951589Y-87040990D01*
X160221842Y-87152932D01*
X160508740Y-87210000D01*
X160801260Y-87210000D01*
X161088158Y-87152932D01*
X161358411Y-87040990D01*
X161601632Y-86878475D01*
X161808475Y-86671632D01*
X161925000Y-86497240D01*
X162041525Y-86671632D01*
X162248368Y-86878475D01*
X162491589Y-87040990D01*
X162761842Y-87152932D01*
X163048740Y-87210000D01*
X163341260Y-87210000D01*
X163628158Y-87152932D01*
X163898411Y-87040990D01*
X164141632Y-86878475D01*
X164266710Y-86753397D01*
X164886208Y-86753397D01*
X164963843Y-87002472D01*
X165227883Y-87128371D01*
X165511411Y-87200339D01*
X165803531Y-87215611D01*
X166093019Y-87173599D01*
X166368747Y-87075919D01*
X166506157Y-87002472D01*
X166583792Y-86753397D01*
X167426208Y-86753397D01*
X167503843Y-87002472D01*
X167767883Y-87128371D01*
X168051411Y-87200339D01*
X168343531Y-87215611D01*
X168633019Y-87173599D01*
X168908747Y-87075919D01*
X169046157Y-87002472D01*
X169123792Y-86753397D01*
X168275000Y-85904605D01*
X167426208Y-86753397D01*
X166583792Y-86753397D01*
X165735000Y-85904605D01*
X164886208Y-86753397D01*
X164266710Y-86753397D01*
X164348475Y-86671632D01*
X164464311Y-86498271D01*
X164706603Y-86573792D01*
X165555395Y-85725000D01*
X165914605Y-85725000D01*
X166763397Y-86573792D01*
X167005000Y-86498486D01*
X167246603Y-86573792D01*
X168095395Y-85725000D01*
X167246603Y-84876208D01*
X167005000Y-84951514D01*
X166763397Y-84876208D01*
X165914605Y-85725000D01*
X165555395Y-85725000D01*
X164706603Y-84876208D01*
X164464311Y-84951729D01*
X164348475Y-84778368D01*
X164141632Y-84571525D01*
X163967240Y-84455000D01*
X164141632Y-84338475D01*
X164266710Y-84213397D01*
X164886208Y-84213397D01*
X164961514Y-84455000D01*
X164886208Y-84696603D01*
X165735000Y-85545395D01*
X166583792Y-84696603D01*
X166508486Y-84455000D01*
X166583792Y-84213397D01*
X167426208Y-84213397D01*
X167501514Y-84455000D01*
X167426208Y-84696603D01*
X168275000Y-85545395D01*
X169123792Y-84696603D01*
X169048486Y-84455000D01*
X169123792Y-84213397D01*
X168275000Y-83364605D01*
X167426208Y-84213397D01*
X166583792Y-84213397D01*
X165735000Y-83364605D01*
X164886208Y-84213397D01*
X164266710Y-84213397D01*
X164348475Y-84131632D01*
X164464311Y-83958271D01*
X164706603Y-84033792D01*
X165555395Y-83185000D01*
X165914605Y-83185000D01*
X166763397Y-84033792D01*
X167005000Y-83958486D01*
X167246603Y-84033792D01*
X168095395Y-83185000D01*
X168454605Y-83185000D01*
X169303397Y-84033792D01*
X169545689Y-83958271D01*
X169661525Y-84131632D01*
X169868368Y-84338475D01*
X170042760Y-84455000D01*
X169868368Y-84571525D01*
X169661525Y-84778368D01*
X169545689Y-84951729D01*
X169303397Y-84876208D01*
X168454605Y-85725000D01*
X169303397Y-86573792D01*
X169545689Y-86498271D01*
X169661525Y-86671632D01*
X169868368Y-86878475D01*
X170111589Y-87040990D01*
X170381842Y-87152932D01*
X170668740Y-87210000D01*
X170961260Y-87210000D01*
X171248158Y-87152932D01*
X171518411Y-87040990D01*
X171761632Y-86878475D01*
X171968475Y-86671632D01*
X172085000Y-86497240D01*
X172201525Y-86671632D01*
X172408368Y-86878475D01*
X172651589Y-87040990D01*
X172921842Y-87152932D01*
X173208740Y-87210000D01*
X173501260Y-87210000D01*
X173788158Y-87152932D01*
X174058411Y-87040990D01*
X174301632Y-86878475D01*
X174508475Y-86671632D01*
X174670990Y-86428411D01*
X174782932Y-86158158D01*
X174840000Y-85871260D01*
X174840000Y-85578740D01*
X174782932Y-85291842D01*
X174670990Y-85021589D01*
X174508475Y-84778368D01*
X174301632Y-84571525D01*
X174127240Y-84455000D01*
X174301632Y-84338475D01*
X174508475Y-84131632D01*
X174670990Y-83888411D01*
X174782932Y-83618158D01*
X174840000Y-83331260D01*
X174840000Y-83038740D01*
X174782932Y-82751842D01*
X174670990Y-82481589D01*
X174508475Y-82238368D01*
X174301632Y-82031525D01*
X174058411Y-81869010D01*
X173788158Y-81757068D01*
X173501260Y-81700000D01*
X173208740Y-81700000D01*
X172921842Y-81757068D01*
X172651589Y-81869010D01*
X172408368Y-82031525D01*
X172201525Y-82238368D01*
X172085000Y-82412760D01*
X171968475Y-82238368D01*
X171761632Y-82031525D01*
X171518411Y-81869010D01*
X171248158Y-81757068D01*
X170961260Y-81700000D01*
X170668740Y-81700000D01*
X170381842Y-81757068D01*
X170111589Y-81869010D01*
X169868368Y-82031525D01*
X169661525Y-82238368D01*
X169545689Y-82411729D01*
X169303397Y-82336208D01*
X168454605Y-83185000D01*
X168095395Y-83185000D01*
X167246603Y-82336208D01*
X167005000Y-82411514D01*
X166763397Y-82336208D01*
X165914605Y-83185000D01*
X165555395Y-83185000D01*
X164706603Y-82336208D01*
X164464311Y-82411729D01*
X164348475Y-82238368D01*
X164266710Y-82156603D01*
X164886208Y-82156603D01*
X165735000Y-83005395D01*
X166583792Y-82156603D01*
X167426208Y-82156603D01*
X168275000Y-83005395D01*
X169123792Y-82156603D01*
X169046157Y-81907528D01*
X168782117Y-81781629D01*
X168498589Y-81709661D01*
X168206469Y-81694389D01*
X167916981Y-81736401D01*
X167641253Y-81834081D01*
X167503843Y-81907528D01*
X167426208Y-82156603D01*
X166583792Y-82156603D01*
X166506157Y-81907528D01*
X166242117Y-81781629D01*
X165958589Y-81709661D01*
X165666469Y-81694389D01*
X165376981Y-81736401D01*
X165101253Y-81834081D01*
X164963843Y-81907528D01*
X164886208Y-82156603D01*
X164266710Y-82156603D01*
X164141632Y-82031525D01*
X163958074Y-81908875D01*
X163944003Y-81766014D01*
X163900546Y-81622753D01*
X163829974Y-81490724D01*
X163758799Y-81403997D01*
X163735001Y-81374999D01*
X163706002Y-81351200D01*
X163123803Y-80769002D01*
X163100001Y-80739999D01*
X162984276Y-80645026D01*
X162852247Y-80574454D01*
X162708986Y-80530997D01*
X162597333Y-80520000D01*
X162597322Y-80520000D01*
X162560000Y-80516324D01*
X162522678Y-80520000D01*
X141007323Y-80520000D01*
X140970000Y-80516324D01*
X140932677Y-80520000D01*
X140932667Y-80520000D01*
X140821014Y-80530997D01*
X140677753Y-80574454D01*
X140545724Y-80645026D01*
X140429999Y-80739999D01*
X140406201Y-80768998D01*
X139734002Y-81441197D01*
X139704999Y-81464999D01*
X139663965Y-81515000D01*
X139610026Y-81580724D01*
X139553851Y-81685820D01*
X139539454Y-81712754D01*
X139505020Y-81826269D01*
X139441063Y-81890226D01*
X139327795Y-82059744D01*
X139249774Y-82248102D01*
X139210000Y-82448061D01*
X138200703Y-82448061D01*
X138353739Y-82078601D01*
X138455000Y-81569525D01*
X138455000Y-81050475D01*
X138353739Y-80541399D01*
X138155107Y-80061859D01*
X137866738Y-79630285D01*
X137499715Y-79263262D01*
X137068141Y-78974893D01*
X137009042Y-78950413D01*
X148829192Y-78950413D01*
X148924956Y-79214814D01*
X149214571Y-79355704D01*
X149526108Y-79437384D01*
X149847595Y-79456718D01*
X150166675Y-79412961D01*
X150471088Y-79307795D01*
X150645044Y-79214814D01*
X150740808Y-78950413D01*
X155329192Y-78950413D01*
X155424956Y-79214814D01*
X155714571Y-79355704D01*
X156026108Y-79437384D01*
X156347595Y-79456718D01*
X156666675Y-79412961D01*
X156971088Y-79307795D01*
X157145044Y-79214814D01*
X157240808Y-78950413D01*
X160259192Y-78950413D01*
X160354956Y-79214814D01*
X160644571Y-79355704D01*
X160956108Y-79437384D01*
X161277595Y-79456718D01*
X161596675Y-79412961D01*
X161901088Y-79307795D01*
X162075044Y-79214814D01*
X162170808Y-78950413D01*
X166759192Y-78950413D01*
X166854956Y-79214814D01*
X167144571Y-79355704D01*
X167456108Y-79437384D01*
X167777595Y-79456718D01*
X168096675Y-79412961D01*
X168401088Y-79307795D01*
X168575044Y-79214814D01*
X168670808Y-78950413D01*
X167715000Y-77994605D01*
X166759192Y-78950413D01*
X162170808Y-78950413D01*
X161215000Y-77994605D01*
X160259192Y-78950413D01*
X157240808Y-78950413D01*
X156285000Y-77994605D01*
X155329192Y-78950413D01*
X150740808Y-78950413D01*
X149785000Y-77994605D01*
X148829192Y-78950413D01*
X137009042Y-78950413D01*
X136588601Y-78776261D01*
X136079525Y-78675000D01*
X135560475Y-78675000D01*
X135051399Y-78776261D01*
X134571859Y-78974893D01*
X134140285Y-79263262D01*
X133773262Y-79630285D01*
X133484893Y-80061859D01*
X133286261Y-80541399D01*
X133185000Y-81050475D01*
X128321157Y-81050475D01*
X128389759Y-81004637D01*
X128589637Y-80804759D01*
X128746680Y-80569727D01*
X128854853Y-80308574D01*
X128910000Y-80031335D01*
X128910000Y-79748665D01*
X128854853Y-79471426D01*
X128746680Y-79210273D01*
X128589637Y-78975241D01*
X128389759Y-78775363D01*
X128154727Y-78618320D01*
X127893574Y-78510147D01*
X127616335Y-78455000D01*
X127333665Y-78455000D01*
X127056426Y-78510147D01*
X126795273Y-78618320D01*
X126560241Y-78775363D01*
X126360363Y-78975241D01*
X126203320Y-79210273D01*
X126095147Y-79471426D01*
X126090000Y-79497301D01*
X126084853Y-79471426D01*
X125976680Y-79210273D01*
X125819637Y-78975241D01*
X125619759Y-78775363D01*
X125384727Y-78618320D01*
X125123574Y-78510147D01*
X124846335Y-78455000D01*
X124563665Y-78455000D01*
X124286426Y-78510147D01*
X124025273Y-78618320D01*
X123790241Y-78775363D01*
X123590363Y-78975241D01*
X123433320Y-79210273D01*
X123325147Y-79471426D01*
X123319487Y-79499882D01*
X123238603Y-79273708D01*
X123171671Y-79148486D01*
X122927702Y-79076903D01*
X122114605Y-79890000D01*
X121755395Y-79890000D01*
X120942298Y-79076903D01*
X120698329Y-79148486D01*
X120577429Y-79403996D01*
X120551788Y-79506289D01*
X120544853Y-79471426D01*
X120436680Y-79210273D01*
X120279637Y-78975241D01*
X120201694Y-78897298D01*
X121121903Y-78897298D01*
X121935000Y-79710395D01*
X122748097Y-78897298D01*
X122676514Y-78653329D01*
X122421004Y-78532429D01*
X122146816Y-78463700D01*
X121864488Y-78449783D01*
X121584870Y-78491213D01*
X121318708Y-78586397D01*
X121193486Y-78653329D01*
X121121903Y-78897298D01*
X120201694Y-78897298D01*
X120079759Y-78775363D01*
X119844727Y-78618320D01*
X119583574Y-78510147D01*
X119306335Y-78455000D01*
X119023665Y-78455000D01*
X118746426Y-78510147D01*
X118485273Y-78618320D01*
X118250241Y-78775363D01*
X118050363Y-78975241D01*
X117893320Y-79210273D01*
X117785147Y-79471426D01*
X117730000Y-79748665D01*
X112945838Y-79748665D01*
X112866738Y-79630285D01*
X112499715Y-79263262D01*
X112068141Y-78974893D01*
X111588601Y-78776261D01*
X111079525Y-78675000D01*
X110560475Y-78675000D01*
X110051399Y-78776261D01*
X109571859Y-78974893D01*
X109140285Y-79263262D01*
X108773262Y-79630285D01*
X108484893Y-80061859D01*
X108286261Y-80541399D01*
X108185000Y-81050475D01*
X96545000Y-81050475D01*
X96545000Y-75597279D01*
X96571197Y-75330098D01*
X97310000Y-75330098D01*
X97310000Y-75799902D01*
X97401654Y-76260679D01*
X97581440Y-76694721D01*
X97842450Y-77085349D01*
X98174651Y-77417550D01*
X98565279Y-77678560D01*
X98999321Y-77858346D01*
X99460098Y-77950000D01*
X99929902Y-77950000D01*
X100293907Y-77877595D01*
X148143282Y-77877595D01*
X148187039Y-78196675D01*
X148292205Y-78501088D01*
X148385186Y-78675044D01*
X148649587Y-78770808D01*
X149605395Y-77815000D01*
X149964605Y-77815000D01*
X150920413Y-78770808D01*
X151184814Y-78675044D01*
X151325704Y-78385429D01*
X151407384Y-78073892D01*
X151419189Y-77877595D01*
X154643282Y-77877595D01*
X154687039Y-78196675D01*
X154792205Y-78501088D01*
X154885186Y-78675044D01*
X155149587Y-78770808D01*
X156105395Y-77815000D01*
X156464605Y-77815000D01*
X157420413Y-78770808D01*
X157684814Y-78675044D01*
X157825704Y-78385429D01*
X157907384Y-78073892D01*
X157919189Y-77877595D01*
X159573282Y-77877595D01*
X159617039Y-78196675D01*
X159722205Y-78501088D01*
X159815186Y-78675044D01*
X160079587Y-78770808D01*
X161035395Y-77815000D01*
X161394605Y-77815000D01*
X162350413Y-78770808D01*
X162614814Y-78675044D01*
X162755704Y-78385429D01*
X162837384Y-78073892D01*
X162849189Y-77877595D01*
X166073282Y-77877595D01*
X166117039Y-78196675D01*
X166222205Y-78501088D01*
X166315186Y-78675044D01*
X166579587Y-78770808D01*
X167535395Y-77815000D01*
X167894605Y-77815000D01*
X168850413Y-78770808D01*
X169114814Y-78675044D01*
X169255704Y-78385429D01*
X169337384Y-78073892D01*
X169356718Y-77752405D01*
X169312961Y-77433325D01*
X169207795Y-77128912D01*
X169114814Y-76954956D01*
X168850413Y-76859192D01*
X167894605Y-77815000D01*
X167535395Y-77815000D01*
X166579587Y-76859192D01*
X166315186Y-76954956D01*
X166174296Y-77244571D01*
X166092616Y-77556108D01*
X166073282Y-77877595D01*
X162849189Y-77877595D01*
X162856718Y-77752405D01*
X162812961Y-77433325D01*
X162707795Y-77128912D01*
X162614814Y-76954956D01*
X162350413Y-76859192D01*
X161394605Y-77815000D01*
X161035395Y-77815000D01*
X160079587Y-76859192D01*
X159815186Y-76954956D01*
X159674296Y-77244571D01*
X159592616Y-77556108D01*
X159573282Y-77877595D01*
X157919189Y-77877595D01*
X157926718Y-77752405D01*
X157882961Y-77433325D01*
X157777795Y-77128912D01*
X157684814Y-76954956D01*
X157420413Y-76859192D01*
X156464605Y-77815000D01*
X156105395Y-77815000D01*
X155149587Y-76859192D01*
X154885186Y-76954956D01*
X154744296Y-77244571D01*
X154662616Y-77556108D01*
X154643282Y-77877595D01*
X151419189Y-77877595D01*
X151426718Y-77752405D01*
X151382961Y-77433325D01*
X151277795Y-77128912D01*
X151184814Y-76954956D01*
X150920413Y-76859192D01*
X149964605Y-77815000D01*
X149605395Y-77815000D01*
X148649587Y-76859192D01*
X148385186Y-76954956D01*
X148244296Y-77244571D01*
X148162616Y-77556108D01*
X148143282Y-77877595D01*
X100293907Y-77877595D01*
X100390679Y-77858346D01*
X100824721Y-77678560D01*
X101215349Y-77417550D01*
X101547550Y-77085349D01*
X101808560Y-76694721D01*
X101814828Y-76679587D01*
X148829192Y-76679587D01*
X149785000Y-77635395D01*
X150740808Y-76679587D01*
X155329192Y-76679587D01*
X156285000Y-77635395D01*
X157240808Y-76679587D01*
X160259192Y-76679587D01*
X161215000Y-77635395D01*
X162170808Y-76679587D01*
X162075044Y-76415186D01*
X161785429Y-76274296D01*
X161473892Y-76192616D01*
X161152405Y-76173282D01*
X160833325Y-76217039D01*
X160528912Y-76322205D01*
X160354956Y-76415186D01*
X160259192Y-76679587D01*
X157240808Y-76679587D01*
X157145044Y-76415186D01*
X156855429Y-76274296D01*
X156543892Y-76192616D01*
X156222405Y-76173282D01*
X155903325Y-76217039D01*
X155598912Y-76322205D01*
X155424956Y-76415186D01*
X155329192Y-76679587D01*
X150740808Y-76679587D01*
X150645044Y-76415186D01*
X150355429Y-76274296D01*
X150043892Y-76192616D01*
X149722405Y-76173282D01*
X149403325Y-76217039D01*
X149098912Y-76322205D01*
X148924956Y-76415186D01*
X148829192Y-76679587D01*
X101814828Y-76679587D01*
X101988346Y-76260679D01*
X102080000Y-75799902D01*
X102080000Y-75330098D01*
X101988346Y-74869321D01*
X101808560Y-74435279D01*
X101547550Y-74044651D01*
X101215349Y-73712450D01*
X100824721Y-73451440D01*
X100390679Y-73271654D01*
X99929902Y-73180000D01*
X99460098Y-73180000D01*
X98999321Y-73271654D01*
X98565279Y-73451440D01*
X98174651Y-73712450D01*
X97842450Y-74044651D01*
X97581440Y-74435279D01*
X97401654Y-74869321D01*
X97310000Y-75330098D01*
X96571197Y-75330098D01*
X96608096Y-74953778D01*
X96785606Y-74365836D01*
X97073937Y-73823564D01*
X97462094Y-73347636D01*
X97935314Y-72956155D01*
X98475552Y-72664049D01*
X99062244Y-72482437D01*
X99703879Y-72415000D01*
X148419963Y-72415000D01*
X148336082Y-72540537D01*
G37*
%TD.AperFunction*%
%TD*%
M02*
