%TF.GenerationSoftware,KiCad,Pcbnew,(5.1.8)-1*%
%TF.CreationDate,2021-02-06T00:39:02+01:00*%
%TF.ProjectId,C64 Joystick Adapter,43363420-4a6f-4797-9374-69636b204164,rev?*%
%TF.SameCoordinates,Original*%
%TF.FileFunction,Copper,L1,Top*%
%TF.FilePolarity,Positive*%
%FSLAX46Y46*%
G04 Gerber Fmt 4.6, Leading zero omitted, Abs format (unit mm)*
G04 Created by KiCad (PCBNEW (5.1.8)-1) date 2021-02-06 00:39:02*
%MOMM*%
%LPD*%
G01*
G04 APERTURE LIST*
%TA.AperFunction,ComponentPad*%
%ADD10C,4.000000*%
%TD*%
%TA.AperFunction,ComponentPad*%
%ADD11C,1.600000*%
%TD*%
%TA.AperFunction,ComponentPad*%
%ADD12R,1.600000X1.600000*%
%TD*%
%TA.AperFunction,ComponentPad*%
%ADD13O,1.600000X1.600000*%
%TD*%
%TA.AperFunction,ComponentPad*%
%ADD14C,1.700000*%
%TD*%
%TA.AperFunction,ComponentPad*%
%ADD15C,3.500000*%
%TD*%
%TA.AperFunction,ComponentPad*%
%ADD16R,1.800000X1.800000*%
%TD*%
%TA.AperFunction,ComponentPad*%
%ADD17C,1.800000*%
%TD*%
%TA.AperFunction,ComponentPad*%
%ADD18R,1.727200X1.727200*%
%TD*%
%TA.AperFunction,ComponentPad*%
%ADD19O,1.727200X1.727200*%
%TD*%
%TA.AperFunction,ComponentPad*%
%ADD20C,2.000000*%
%TD*%
%TA.AperFunction,ViaPad*%
%ADD21C,0.800000*%
%TD*%
%TA.AperFunction,Conductor*%
%ADD22C,0.250000*%
%TD*%
%TA.AperFunction,Conductor*%
%ADD23C,0.381000*%
%TD*%
G04 APERTURE END LIST*
D10*
%TO.P,J1,0*%
%TO.N,N/C*%
X110820000Y-81310000D03*
X135820000Y-81310000D03*
D11*
%TO.P,J1,9*%
%TO.N,POT_AX*%
X119165000Y-79890000D03*
%TO.P,J1,8*%
%TO.N,GND*%
X121935000Y-79890000D03*
%TO.P,J1,7*%
%TO.N,VCC*%
X124705000Y-79890000D03*
%TO.P,J1,6*%
%TO.N,P1_FIRE*%
X127475000Y-79890000D03*
%TO.P,J1,5*%
%TO.N,POT_AY*%
X117780000Y-82730000D03*
%TO.P,J1,4*%
%TO.N,P1_RIGHT*%
X120550000Y-82730000D03*
%TO.P,J1,3*%
%TO.N,P1_LEFT*%
X123320000Y-82730000D03*
%TO.P,J1,2*%
%TO.N,P1_DOWN*%
X126090000Y-82730000D03*
D12*
%TO.P,J1,1*%
%TO.N,P1_UP*%
X128860000Y-82730000D03*
%TD*%
D11*
%TO.P,R4,1*%
%TO.N,GND*%
X133350000Y-90170000D03*
D13*
%TO.P,R4,2*%
%TO.N,POT_AX*%
X123190000Y-90170000D03*
%TD*%
D14*
%TO.P,A1,12*%
%TO.N,P2_RIGHT*%
X145415000Y-85725000D03*
%TO.P,A1,11*%
%TO.N,P2_LEFT*%
X147955000Y-85725000D03*
%TO.P,A1,10*%
%TO.N,P2_DOWN*%
X150495000Y-85725000D03*
%TO.P,A1,9*%
%TO.N,P2_UP*%
X153035000Y-85725000D03*
%TO.P,A1,8*%
%TO.N,P1_RIGHT*%
X155575000Y-85725000D03*
%TO.P,A1,7*%
%TO.N,P1_LEFT*%
X158115000Y-85725000D03*
%TO.P,A1,6*%
%TO.N,P1_DOWN*%
X160655000Y-85725000D03*
%TO.P,A1,5*%
%TO.N,P1_UP*%
X163195000Y-85725000D03*
%TO.P,A1,4*%
%TO.N,GND*%
X165735000Y-85725000D03*
%TO.P,A1,3*%
X168275000Y-85725000D03*
%TO.P,A1,2*%
%TO.N,Net-(A1-Pad2)*%
X170815000Y-85725000D03*
%TO.P,A1,1*%
%TO.N,Net-(A1-Pad1)*%
X173355000Y-85725000D03*
%TO.P,A1,2*%
%TO.N,Net-(A1-Pad2)*%
X170815000Y-83185000D03*
%TO.P,A1,3*%
%TO.N,GND*%
X168275000Y-83185000D03*
%TO.P,A1,4*%
X165735000Y-83185000D03*
%TO.P,A1,5*%
%TO.N,P1_UP*%
X163195000Y-83185000D03*
%TO.P,A1,6*%
%TO.N,P1_DOWN*%
X160655000Y-83185000D03*
%TO.P,A1,7*%
%TO.N,P1_LEFT*%
X158115000Y-83185000D03*
%TO.P,A1,8*%
%TO.N,P1_RIGHT*%
X155575000Y-83185000D03*
%TO.P,A1,9*%
%TO.N,P2_UP*%
X153035000Y-83185000D03*
%TO.P,A1,10*%
%TO.N,P2_DOWN*%
X150495000Y-83185000D03*
%TO.P,A1,11*%
%TO.N,P2_LEFT*%
X147955000Y-83185000D03*
%TO.P,A1,12*%
%TO.N,P2_RIGHT*%
X145415000Y-83185000D03*
%TO.P,A1,13*%
%TO.N,Net-(A1-Pad13)*%
X145415000Y-100965000D03*
%TO.P,A1,14*%
%TO.N,Net-(A1-Pad14)*%
X147955000Y-100965000D03*
%TO.P,A1,15*%
%TO.N,P2_FIRE*%
X150495000Y-100965000D03*
%TO.P,A1,16*%
%TO.N,P1_FIRE*%
X153035000Y-100965000D03*
%TO.P,A1,17*%
%TO.N,POT_AX*%
X155575000Y-100965000D03*
%TO.P,A1,18*%
%TO.N,POT_AY*%
X158115000Y-100965000D03*
%TO.P,A1,19*%
%TO.N,POT_BX*%
X160655000Y-100965000D03*
%TO.P,A1,20*%
%TO.N,POT_BY*%
X163195000Y-100965000D03*
%TO.P,A1,21*%
%TO.N,VCC*%
X165735000Y-100965000D03*
%TO.P,A1,22*%
%TO.N,Net-(A1-Pad22)*%
X168275000Y-100965000D03*
%TO.P,A1,23*%
%TO.N,GND*%
X170815000Y-100965000D03*
%TO.P,A1,24*%
%TO.N,N/C*%
X173355000Y-100965000D03*
%TO.P,A1,1*%
%TO.N,Net-(A1-Pad1)*%
X173355000Y-83185000D03*
%TD*%
D13*
%TO.P,R5,2*%
%TO.N,Net-(A1-Pad13)*%
X123190000Y-93980000D03*
D11*
%TO.P,R5,1*%
%TO.N,Net-(D1-Pad2)*%
X133350000Y-93980000D03*
%TD*%
D12*
%TO.P,J2,1*%
%TO.N,P2_UP*%
X117760000Y-101470000D03*
D11*
%TO.P,J2,2*%
%TO.N,P2_DOWN*%
X120530000Y-101470000D03*
%TO.P,J2,3*%
%TO.N,P2_LEFT*%
X123300000Y-101470000D03*
%TO.P,J2,4*%
%TO.N,P2_RIGHT*%
X126070000Y-101470000D03*
%TO.P,J2,5*%
%TO.N,POT_BY*%
X128840000Y-101470000D03*
%TO.P,J2,6*%
%TO.N,P2_FIRE*%
X119145000Y-104310000D03*
%TO.P,J2,7*%
%TO.N,VCC*%
X121915000Y-104310000D03*
%TO.P,J2,8*%
%TO.N,GND*%
X124685000Y-104310000D03*
%TO.P,J2,9*%
%TO.N,POT_BX*%
X127455000Y-104310000D03*
D10*
%TO.P,J2,0*%
%TO.N,N/C*%
X110800000Y-102890000D03*
X135800000Y-102890000D03*
%TD*%
D15*
%TO.P,M1,1*%
%TO.N,N/C*%
X99695000Y-108585000D03*
%TD*%
%TO.P,M2,1*%
%TO.N,N/C*%
X173355000Y-75565000D03*
%TD*%
%TO.P,M3,1*%
%TO.N,N/C*%
X99695000Y-75565000D03*
%TD*%
%TO.P,M4,1*%
%TO.N,N/C*%
X173355000Y-108585000D03*
%TD*%
D11*
%TO.P,R1,1*%
%TO.N,GND*%
X108585000Y-88265000D03*
D13*
%TO.P,R1,2*%
%TO.N,POT_BY*%
X118745000Y-88265000D03*
%TD*%
D11*
%TO.P,R2,1*%
%TO.N,GND*%
X108585000Y-92075000D03*
D13*
%TO.P,R2,2*%
%TO.N,POT_BX*%
X118745000Y-92075000D03*
%TD*%
%TO.P,R3,2*%
%TO.N,POT_AY*%
X118745000Y-95885000D03*
D11*
%TO.P,R3,1*%
%TO.N,GND*%
X108585000Y-95885000D03*
%TD*%
D16*
%TO.P,D1,1*%
%TO.N,GND*%
X163195000Y-108585000D03*
D17*
%TO.P,D1,2*%
%TO.N,Net-(D1-Pad2)*%
X165735000Y-108585000D03*
%TD*%
D18*
%TO.P,J3,1*%
%TO.N,P2_UP*%
X99695000Y-86995000D03*
D19*
%TO.P,J3,2*%
%TO.N,P2_DOWN*%
X99695000Y-89535000D03*
%TO.P,J3,3*%
%TO.N,P2_LEFT*%
X99695000Y-92075000D03*
%TO.P,J3,4*%
%TO.N,P2_RIGHT*%
X99695000Y-94615000D03*
%TO.P,J3,5*%
%TO.N,POT_BY*%
X99695000Y-97155000D03*
%TO.P,J3,6*%
%TO.N,P2_FIRE*%
X102235000Y-86995000D03*
%TO.P,J3,7*%
%TO.N,VCC*%
X102235000Y-89535000D03*
%TO.P,J3,8*%
%TO.N,GND*%
X102235000Y-92075000D03*
%TO.P,J3,9*%
%TO.N,POT_BX*%
X102235000Y-94615000D03*
%TO.P,J3,10*%
%TO.N,N/C*%
X102235000Y-97155000D03*
%TD*%
D20*
%TO.P,SW1,2*%
%TO.N,GND*%
X149785000Y-77815000D03*
%TO.P,SW1,1*%
%TO.N,Net-(A1-Pad22)*%
X149785000Y-73315000D03*
%TO.P,SW1,2*%
%TO.N,GND*%
X156285000Y-77815000D03*
%TO.P,SW1,1*%
%TO.N,Net-(A1-Pad22)*%
X156285000Y-73315000D03*
%TD*%
%TO.P,SW2,1*%
%TO.N,Net-(A1-Pad14)*%
X167715000Y-73315000D03*
%TO.P,SW2,2*%
%TO.N,GND*%
X167715000Y-77815000D03*
%TO.P,SW2,1*%
%TO.N,Net-(A1-Pad14)*%
X161215000Y-73315000D03*
%TO.P,SW2,2*%
%TO.N,GND*%
X161215000Y-77815000D03*
%TD*%
D21*
%TO.N,POT_AX*%
X128778000Y-93980000D03*
X132170000Y-96647000D03*
X155575000Y-98245000D03*
%TO.N,VCC*%
X122555000Y-111125000D03*
X97155000Y-91440000D03*
%TO.N,POT_AY*%
X121472152Y-95554847D03*
X128651000Y-96012000D03*
X157353000Y-98970000D03*
X132969000Y-98933000D03*
%TO.N,P1_UP*%
X140245000Y-82550000D03*
%TO.N,P2_DOWN*%
X149860000Y-87720000D03*
X116840000Y-98515000D03*
X121285000Y-98515000D03*
%TO.N,P2_LEFT*%
X147320000Y-88355000D03*
X113575000Y-98425000D03*
X123300000Y-99575000D03*
%TO.N,P2_RIGHT*%
X144780000Y-88990000D03*
%TO.N,POT_BY*%
X128270000Y-97065000D03*
X116115000Y-87630000D03*
%TO.N,P2_FIRE*%
X119761000Y-106807000D03*
X150495000Y-104230000D03*
%TO.N,POT_BX*%
X130810000Y-104775000D03*
X113575000Y-92075000D03*
X104607655Y-93549335D03*
X126746000Y-97064999D03*
%TO.N,Net-(A1-Pad13)*%
X128815000Y-94996000D03*
X144653000Y-98171000D03*
X132207000Y-98171000D03*
%TO.N,Net-(D1-Pad2)*%
X164565154Y-99795154D03*
X158369000Y-98806000D03*
%TO.N,Net-(A1-Pad14)*%
X148844000Y-95377000D03*
X151765000Y-87757000D03*
X162560000Y-97155000D03*
X164465000Y-76835000D03*
X164501000Y-73315000D03*
%TD*%
D22*
%TO.N,POT_AX*%
X123190000Y-90170000D02*
X124587000Y-90170000D01*
X124587000Y-90170000D02*
X124968000Y-90551000D01*
X124968000Y-90551000D02*
X124968000Y-93218000D01*
X125730000Y-93980000D02*
X128778000Y-93980000D01*
X124968000Y-93218000D02*
X125730000Y-93980000D01*
X132170000Y-96647000D02*
X154940000Y-96647000D01*
X155575000Y-97282000D02*
X155575000Y-98245000D01*
X154940000Y-96647000D02*
X155575000Y-97282000D01*
X123190000Y-89535000D02*
X123190000Y-90170000D01*
X119165000Y-85510000D02*
X123190000Y-89535000D01*
X119165000Y-79890000D02*
X119165000Y-85510000D01*
D23*
%TO.N,VCC*%
X165735000Y-105410000D02*
X165735000Y-100965000D01*
X97155000Y-104775000D02*
X97155000Y-91440000D01*
X102235000Y-105410000D02*
X97790000Y-105410000D01*
X102870000Y-106045000D02*
X102235000Y-105410000D01*
X103505000Y-111125000D02*
X102870000Y-110490000D01*
X97790000Y-105410000D02*
X97155000Y-104775000D01*
X167640000Y-110490000D02*
X167005000Y-111125000D01*
X102870000Y-110490000D02*
X102870000Y-106045000D01*
X167640000Y-107315000D02*
X167640000Y-110490000D01*
X165735000Y-105410000D02*
X167640000Y-107315000D01*
X122555000Y-111125000D02*
X103505000Y-111125000D01*
X167005000Y-111125000D02*
X122555000Y-111125000D01*
X124705000Y-78985000D02*
X124705000Y-79890000D01*
X123825000Y-78105000D02*
X124705000Y-78985000D01*
X102235000Y-78105000D02*
X123825000Y-78105000D01*
X101600000Y-78740000D02*
X102235000Y-78105000D01*
X97790000Y-78740000D02*
X101600000Y-78740000D01*
X97155000Y-79375000D02*
X97790000Y-78740000D01*
X97155000Y-91440000D02*
X97155000Y-79375000D01*
D22*
%TO.N,P1_FIRE*%
X153035000Y-100330000D02*
X153035000Y-100965000D01*
X153670000Y-99695000D02*
X153035000Y-100330000D01*
X161290000Y-99695000D02*
X153670000Y-99695000D01*
X161830001Y-80550001D02*
X161830001Y-99154999D01*
X137160000Y-78105000D02*
X138430000Y-79375000D01*
X160655000Y-79375000D02*
X161830001Y-80550001D01*
X128270000Y-78105000D02*
X137160000Y-78105000D01*
X161830001Y-99154999D02*
X161290000Y-99695000D01*
X138430000Y-79375000D02*
X160655000Y-79375000D01*
X127475000Y-78900000D02*
X128270000Y-78105000D01*
X127475000Y-79890000D02*
X127475000Y-78900000D01*
%TO.N,POT_AY*%
X118745000Y-95885000D02*
X117475000Y-95885000D01*
X117475000Y-95885000D02*
X116840000Y-95250000D01*
X116840000Y-83670000D02*
X117780000Y-82730000D01*
X116840000Y-95250000D02*
X116840000Y-83670000D01*
X128193847Y-95554847D02*
X128651000Y-96012000D01*
X121472152Y-95554847D02*
X128193847Y-95554847D01*
X134710000Y-98970000D02*
X157353000Y-98970000D01*
X133006000Y-98970000D02*
X132969000Y-98933000D01*
X134710000Y-98970000D02*
X133006000Y-98970000D01*
%TO.N,P1_RIGHT*%
X155575000Y-85725000D02*
X155575000Y-83185000D01*
X155575000Y-81915000D02*
X155575000Y-83185000D01*
X142240000Y-81915000D02*
X142875000Y-81280000D01*
X142240000Y-85725000D02*
X142240000Y-81915000D01*
X141605000Y-86360000D02*
X142240000Y-85725000D01*
X154940000Y-81280000D02*
X155575000Y-81915000D01*
X121285000Y-86360000D02*
X141605000Y-86360000D01*
X142875000Y-81280000D02*
X154940000Y-81280000D01*
X120550000Y-85625000D02*
X121285000Y-86360000D01*
X120550000Y-82730000D02*
X120550000Y-85625000D01*
%TO.N,P1_LEFT*%
X158115000Y-83185000D02*
X158115000Y-85725000D01*
X158115000Y-81280000D02*
X158115000Y-83185000D01*
X157480000Y-80645000D02*
X158115000Y-81280000D01*
X142240000Y-80645000D02*
X157480000Y-80645000D01*
X141605000Y-85090000D02*
X141605000Y-81280000D01*
X141605000Y-81280000D02*
X142240000Y-80645000D01*
X140970000Y-85725000D02*
X141605000Y-85090000D01*
X124330000Y-85725000D02*
X140970000Y-85725000D01*
X123320000Y-84715000D02*
X124330000Y-85725000D01*
X123320000Y-82730000D02*
X123320000Y-84715000D01*
%TO.N,P1_DOWN*%
X160655000Y-85725000D02*
X160655000Y-83185000D01*
X141605000Y-80010000D02*
X160020000Y-80010000D01*
X140970000Y-80645000D02*
X141605000Y-80010000D01*
X140970000Y-84455000D02*
X140970000Y-80645000D01*
X140335000Y-85090000D02*
X140970000Y-84455000D01*
X160020000Y-80010000D02*
X160655000Y-80645000D01*
X127000000Y-85090000D02*
X140335000Y-85090000D01*
X160655000Y-80645000D02*
X160655000Y-83185000D01*
X126090000Y-84180000D02*
X127000000Y-85090000D01*
X126090000Y-82730000D02*
X126090000Y-84180000D01*
%TO.N,P1_UP*%
X163195000Y-83185000D02*
X163195000Y-85725000D01*
X128860000Y-83775000D02*
X129540000Y-84455000D01*
X128860000Y-82730000D02*
X128860000Y-83775000D01*
X129540000Y-84455000D02*
X139700000Y-84455000D01*
X140245000Y-83910000D02*
X139700000Y-84455000D01*
X140245000Y-82550000D02*
X140245000Y-83910000D01*
%TO.N,P2_UP*%
X153035000Y-83185000D02*
X153035000Y-85725000D01*
X152185001Y-86574999D02*
X153035000Y-85725000D01*
X151765000Y-86995000D02*
X152185001Y-86574999D01*
X129921000Y-86995000D02*
X151765000Y-86995000D01*
X129540000Y-87376000D02*
X129921000Y-86995000D01*
X129540000Y-97155000D02*
X129540000Y-87376000D01*
X128905000Y-97790000D02*
X129540000Y-97155000D01*
X118745000Y-97790000D02*
X128905000Y-97790000D01*
X117760000Y-98775000D02*
X118745000Y-97790000D01*
X117760000Y-101470000D02*
X117760000Y-98775000D01*
X115389999Y-96974999D02*
X116205000Y-97790000D01*
X115389999Y-85544999D02*
X115389999Y-96974999D01*
X114935000Y-85090000D02*
X115389999Y-85544999D01*
X100330000Y-85090000D02*
X114935000Y-85090000D01*
X99695000Y-85725000D02*
X100330000Y-85090000D01*
X116205000Y-97790000D02*
X118745000Y-97790000D01*
X99695000Y-86995000D02*
X99695000Y-85725000D01*
%TO.N,P2_DOWN*%
X150495000Y-83185000D02*
X150495000Y-85725000D01*
X130556000Y-87630000D02*
X149770000Y-87630000D01*
X149770000Y-87630000D02*
X149860000Y-87720000D01*
X130175000Y-97790000D02*
X130175000Y-88011000D01*
X129540000Y-98425000D02*
X130175000Y-97790000D01*
X121285000Y-98425000D02*
X129540000Y-98425000D01*
X130175000Y-88011000D02*
X130556000Y-87630000D01*
X120530000Y-99180000D02*
X121285000Y-98425000D01*
X120530000Y-101470000D02*
X120530000Y-99180000D01*
X99695000Y-89535000D02*
X100330000Y-89535000D01*
X100330000Y-89535000D02*
X100965000Y-88900000D01*
X100965000Y-88900000D02*
X100965000Y-86360000D01*
X100965000Y-86360000D02*
X101600000Y-85725000D01*
X101600000Y-85725000D02*
X114300000Y-85725000D01*
X114300000Y-85725000D02*
X114935000Y-86360000D01*
X114935000Y-86360000D02*
X114935000Y-97790000D01*
X115660000Y-98515000D02*
X116840000Y-98515000D01*
X114935000Y-97790000D02*
X115660000Y-98515000D01*
%TO.N,P2_LEFT*%
X147955000Y-83185000D02*
X147955000Y-85725000D01*
X147230000Y-88265000D02*
X147320000Y-88355000D01*
X130810000Y-88646000D02*
X131191000Y-88265000D01*
X131191000Y-88265000D02*
X147230000Y-88265000D01*
X130810000Y-98425000D02*
X130810000Y-88646000D01*
X130175000Y-99060000D02*
X130810000Y-98425000D01*
X123815000Y-99060000D02*
X130175000Y-99060000D01*
X123300000Y-99575000D02*
X123815000Y-99060000D01*
X123300000Y-101470000D02*
X123300000Y-99575000D01*
X100965000Y-90805000D02*
X99695000Y-92075000D01*
X102997000Y-90805000D02*
X100965000Y-90805000D01*
X103759000Y-91567000D02*
X102997000Y-90805000D01*
X103759000Y-93726000D02*
X103759000Y-91567000D01*
X112141000Y-94361000D02*
X104394000Y-94361000D01*
X104394000Y-94361000D02*
X103759000Y-93726000D01*
X113575000Y-95795000D02*
X112141000Y-94361000D01*
X113575000Y-98425000D02*
X113575000Y-95795000D01*
%TO.N,P2_RIGHT*%
X145415000Y-85725000D02*
X145415000Y-83185000D01*
X126070000Y-101470000D02*
X126070000Y-100625000D01*
X131826000Y-88900000D02*
X142240000Y-88900000D01*
X131445000Y-89281000D02*
X131826000Y-88900000D01*
X131445000Y-99060000D02*
X131445000Y-89281000D01*
X130810000Y-99695000D02*
X131445000Y-99060000D01*
X126660000Y-99695000D02*
X130810000Y-99695000D01*
X126070000Y-100285000D02*
X126660000Y-99695000D01*
X126070000Y-101470000D02*
X126070000Y-100285000D01*
X144690000Y-88900000D02*
X144780000Y-88990000D01*
X142240000Y-88900000D02*
X144690000Y-88900000D01*
X126111000Y-105537000D02*
X126111000Y-101511000D01*
X125603000Y-106045000D02*
X126111000Y-105537000D01*
X115951000Y-106045000D02*
X125603000Y-106045000D01*
X113665000Y-99949000D02*
X113665000Y-103759000D01*
X113665000Y-103759000D02*
X115951000Y-106045000D01*
X112395000Y-97536000D02*
X112395000Y-98679000D01*
X126111000Y-101511000D02*
X126070000Y-101470000D01*
X112395000Y-98679000D02*
X113665000Y-99949000D01*
X107696000Y-97536000D02*
X112395000Y-97536000D01*
X106045000Y-95885000D02*
X107696000Y-97536000D01*
X100965000Y-95885000D02*
X106045000Y-95885000D01*
X99695000Y-94615000D02*
X100965000Y-95885000D01*
%TO.N,POT_BY*%
X139700000Y-103505000D02*
X162560000Y-103505000D01*
X162560000Y-103505000D02*
X163195000Y-102870000D01*
X139065000Y-104140000D02*
X139700000Y-103505000D01*
X163195000Y-102870000D02*
X163195000Y-100965000D01*
X139065000Y-105410000D02*
X139065000Y-104140000D01*
X138430000Y-106045000D02*
X139065000Y-105410000D01*
X130084999Y-105229998D02*
X130900001Y-106045000D01*
X130084999Y-102144999D02*
X130084999Y-105229998D01*
X129410000Y-101470000D02*
X130084999Y-102144999D01*
X130900001Y-106045000D02*
X138430000Y-106045000D01*
X128840000Y-101470000D02*
X129410000Y-101470000D01*
X116115000Y-85090000D02*
X116115000Y-87630000D01*
X115660002Y-84635002D02*
X116115000Y-85090000D01*
X98044000Y-85016002D02*
X98425000Y-84635002D01*
X98044000Y-96774000D02*
X98044000Y-85016002D01*
X98425000Y-84635002D02*
X115660002Y-84635002D01*
X98425000Y-97155000D02*
X98044000Y-96774000D01*
X99695000Y-97155000D02*
X98425000Y-97155000D01*
X120650000Y-95758000D02*
X120650000Y-89027000D01*
X119888000Y-88265000D02*
X118745000Y-88265000D01*
X121231999Y-96339999D02*
X120650000Y-95758000D01*
X127544999Y-96339999D02*
X121231999Y-96339999D01*
X120650000Y-89027000D02*
X119888000Y-88265000D01*
X128270000Y-97065000D02*
X127544999Y-96339999D01*
%TO.N,P2_FIRE*%
X117010000Y-104310000D02*
X119145000Y-104310000D01*
X115105000Y-104310000D02*
X117010000Y-104310000D01*
X114300000Y-103505000D02*
X115105000Y-104310000D01*
X114300000Y-87630000D02*
X114300000Y-103505000D01*
X113665000Y-86995000D02*
X114300000Y-87630000D01*
X102235000Y-86995000D02*
X113665000Y-86995000D01*
X119761000Y-106807000D02*
X149860000Y-106807000D01*
X150495000Y-106172000D02*
X150495000Y-104230000D01*
X149860000Y-106807000D02*
X150495000Y-106172000D01*
%TO.N,POT_BX*%
X160655000Y-102235000D02*
X160655000Y-100965000D01*
X139065000Y-102870000D02*
X160020000Y-102870000D01*
X138430000Y-103505000D02*
X139065000Y-102870000D01*
X138430000Y-104775000D02*
X138430000Y-103505000D01*
X137795000Y-105410000D02*
X138430000Y-104775000D01*
X131445000Y-105410000D02*
X137795000Y-105410000D01*
X160020000Y-102870000D02*
X160655000Y-102235000D01*
X130810000Y-104775000D02*
X131445000Y-105410000D01*
X113575000Y-92075000D02*
X112100665Y-93549335D01*
X112100665Y-93549335D02*
X104607655Y-93549335D01*
X120813999Y-97064999D02*
X126746000Y-97064999D01*
X120142000Y-96393000D02*
X120813999Y-97064999D01*
X120142000Y-93472000D02*
X120142000Y-96393000D01*
X118745000Y-92075000D02*
X120142000Y-93472000D01*
%TO.N,Net-(A1-Pad13)*%
X123952000Y-94742000D02*
X123190000Y-93980000D01*
X128561000Y-94742000D02*
X123952000Y-94742000D01*
X128815000Y-94996000D02*
X128561000Y-94742000D01*
X144652992Y-98171008D02*
X144653000Y-98171000D01*
X134492992Y-98171008D02*
X144652992Y-98171008D01*
X132207008Y-98171008D02*
X132207000Y-98171000D01*
X134492992Y-98171008D02*
X132207008Y-98171008D01*
%TO.N,Net-(D1-Pad2)*%
X164465000Y-107315000D02*
X164465000Y-99695000D01*
X165735000Y-108585000D02*
X164465000Y-107315000D01*
X164465000Y-99695000D02*
X164565154Y-99795154D01*
X133985000Y-96139000D02*
X155702000Y-96139000D01*
X133350000Y-95504000D02*
X133985000Y-96139000D01*
X155702000Y-96139000D02*
X158369000Y-98806000D01*
X133350000Y-93980000D02*
X133350000Y-95504000D01*
%TO.N,Net-(A1-Pad2)*%
X170815000Y-85725000D02*
X170815000Y-83185000D01*
%TO.N,Net-(A1-Pad1)*%
X173355000Y-83185000D02*
X173355000Y-85725000D01*
%TO.N,Net-(A1-Pad14)*%
X151765000Y-94615000D02*
X151765000Y-87757000D01*
X151003000Y-95377000D02*
X151765000Y-94615000D01*
X148844000Y-95377000D02*
X151003000Y-95377000D01*
X161215000Y-73315000D02*
X163485000Y-73315000D01*
X167715000Y-73315000D02*
X165634998Y-73315000D01*
X164501000Y-73315000D02*
X163485000Y-73315000D01*
X165634998Y-73315000D02*
X164501000Y-73315000D01*
X163830000Y-97155000D02*
X162560000Y-97155000D01*
X164470000Y-96515000D02*
X163830000Y-97155000D01*
X164470000Y-76840000D02*
X164465000Y-76835000D01*
X164470000Y-96515000D02*
X164470000Y-76840000D01*
%TO.N,Net-(A1-Pad22)*%
X149785000Y-73315000D02*
X156285000Y-73315000D01*
X169545000Y-76835000D02*
X169545000Y-99695000D01*
X168275000Y-75565000D02*
X169545000Y-76835000D01*
X169545000Y-99695000D02*
X168275000Y-100965000D01*
X156845000Y-75565000D02*
X168275000Y-75565000D01*
X156285000Y-75005000D02*
X156845000Y-75565000D01*
X156285000Y-73315000D02*
X156285000Y-75005000D01*
%TD*%
M02*
